<?xml version="1.0" encoding="utf-8" standalone="no"?>
<!DOCTYPE svg PUBLIC "-//W3C//DTD SVG 1.1//EN"
  "http://www.w3.org/Graphics/SVG/1.1/DTD/svg11.dtd">
<svg xmlns:xlink="http://www.w3.org/1999/xlink" width="720pt" height="360pt" viewBox="0 0 720 360" xmlns="http://www.w3.org/2000/svg" version="1.1">
 <metadata>
  <rdf:RDF xmlns:dc="http://purl.org/dc/elements/1.1/" xmlns:cc="http://creativecommons.org/ns#" xmlns:rdf="http://www.w3.org/1999/02/22-rdf-syntax-ns#">
   <cc:Work>
    <dc:type rdf:resource="http://purl.org/dc/dcmitype/StillImage"/>
    <dc:date>2025-11-26T15:28:43.180001</dc:date>
    <dc:format>image/svg+xml</dc:format>
    <dc:creator>
     <cc:Agent>
      <dc:title>Matplotlib v3.10.6, https://matplotlib.org/</dc:title>
     </cc:Agent>
    </dc:creator>
   </cc:Work>
  </rdf:RDF>
 </metadata>
 <defs>
  <style type="text/css">*{stroke-linejoin: round; stroke-linecap: butt}</style>
 </defs>
 <g id="figure_1">
  <g id="patch_1">
   <path d="M 0 360 
L 720 360 
L 720 0 
L 0 0 
z
" style="fill: #ffffff"/>
  </g>
  <g id="axes_1">
   <g id="patch_2">
    <path d="M 44.055885 310.525998 
L 706.105635 310.525998 
L 706.105635 21.448506 
L 44.055885 21.448506 
z
" style="fill: #ffffff"/>
   </g>
   <g id="matplotlib.axis_1">
    <g id="xtick_1">
     <g id="line2d_1">
      <path d="M 44.055885 310.525998 
L 44.055885 21.448506 
" clip-path="url(#pf6e289c37f)" style="fill: none; stroke: #cccccc; stroke-opacity: 0.3; stroke-width: 1.5; stroke-linecap: round"/>
     </g>
     <g id="text_1">
      <!-- 0.0 -->
      <g style="fill: #262626" transform="translate(33.16176 334.245869) scale(0.15675 -0.15675)">
       <defs>
        <path id="ArialMT-30" d="M 266 2259 
Q 266 3072 433 3567 
Q 600 4063 929 4331 
Q 1259 4600 1759 4600 
Q 2128 4600 2406 4451 
Q 2684 4303 2865 4023 
Q 3047 3744 3150 3342 
Q 3253 2941 3253 2259 
Q 3253 1453 3087 958 
Q 2922 463 2592 192 
Q 2263 -78 1759 -78 
Q 1097 -78 719 397 
Q 266 969 266 2259 
z
M 844 2259 
Q 844 1131 1108 757 
Q 1372 384 1759 384 
Q 2147 384 2411 759 
Q 2675 1134 2675 2259 
Q 2675 3391 2411 3762 
Q 2147 4134 1753 4134 
Q 1366 4134 1134 3806 
Q 844 3388 844 2259 
z
" transform="scale(0.015625)"/>
        <path id="ArialMT-2e" d="M 581 0 
L 581 641 
L 1222 641 
L 1222 0 
L 581 0 
z
" transform="scale(0.015625)"/>
       </defs>
       <use xlink:href="#ArialMT-30"/>
       <use xlink:href="#ArialMT-2e" transform="translate(55.615234 0)"/>
       <use xlink:href="#ArialMT-30" transform="translate(83.398438 0)"/>
      </g>
     </g>
    </g>
    <g id="xtick_2">
     <g id="line2d_2">
      <path d="M 154.39751 310.525998 
L 154.39751 21.448506 
" clip-path="url(#pf6e289c37f)" style="fill: none; stroke: #cccccc; stroke-opacity: 0.3; stroke-width: 1.5; stroke-linecap: round"/>
     </g>
     <g id="text_2">
      <!-- 0.2 -->
      <g style="fill: #262626" transform="translate(143.503385 334.245869) scale(0.15675 -0.15675)">
       <defs>
        <path id="ArialMT-32" d="M 3222 541 
L 3222 0 
L 194 0 
Q 188 203 259 391 
Q 375 700 629 1000 
Q 884 1300 1366 1694 
Q 2113 2306 2375 2664 
Q 2638 3022 2638 3341 
Q 2638 3675 2398 3904 
Q 2159 4134 1775 4134 
Q 1369 4134 1125 3890 
Q 881 3647 878 3216 
L 300 3275 
Q 359 3922 746 4261 
Q 1134 4600 1788 4600 
Q 2447 4600 2831 4234 
Q 3216 3869 3216 3328 
Q 3216 3053 3103 2787 
Q 2991 2522 2730 2228 
Q 2469 1934 1863 1422 
Q 1356 997 1212 845 
Q 1069 694 975 541 
L 3222 541 
z
" transform="scale(0.015625)"/>
       </defs>
       <use xlink:href="#ArialMT-30"/>
       <use xlink:href="#ArialMT-2e" transform="translate(55.615234 0)"/>
       <use xlink:href="#ArialMT-32" transform="translate(83.398438 0)"/>
      </g>
     </g>
    </g>
    <g id="xtick_3">
     <g id="line2d_3">
      <path d="M 264.739135 310.525998 
L 264.739135 21.448506 
" clip-path="url(#pf6e289c37f)" style="fill: none; stroke: #cccccc; stroke-opacity: 0.3; stroke-width: 1.5; stroke-linecap: round"/>
     </g>
     <g id="text_3">
      <!-- 0.4 -->
      <g style="fill: #262626" transform="translate(253.84501 334.245869) scale(0.15675 -0.15675)">
       <defs>
        <path id="ArialMT-34" d="M 2069 0 
L 2069 1097 
L 81 1097 
L 81 1613 
L 2172 4581 
L 2631 4581 
L 2631 1613 
L 3250 1613 
L 3250 1097 
L 2631 1097 
L 2631 0 
L 2069 0 
z
M 2069 1613 
L 2069 3678 
L 634 1613 
L 2069 1613 
z
" transform="scale(0.015625)"/>
       </defs>
       <use xlink:href="#ArialMT-30"/>
       <use xlink:href="#ArialMT-2e" transform="translate(55.615234 0)"/>
       <use xlink:href="#ArialMT-34" transform="translate(83.398438 0)"/>
      </g>
     </g>
    </g>
    <g id="xtick_4">
     <g id="line2d_4">
      <path d="M 375.08076 310.525998 
L 375.08076 21.448506 
" clip-path="url(#pf6e289c37f)" style="fill: none; stroke: #cccccc; stroke-opacity: 0.3; stroke-width: 1.5; stroke-linecap: round"/>
     </g>
     <g id="text_4">
      <!-- 0.6 -->
      <g style="fill: #262626" transform="translate(364.186635 334.245869) scale(0.15675 -0.15675)">
       <defs>
        <path id="ArialMT-36" d="M 3184 3459 
L 2625 3416 
Q 2550 3747 2413 3897 
Q 2184 4138 1850 4138 
Q 1581 4138 1378 3988 
Q 1113 3794 959 3422 
Q 806 3050 800 2363 
Q 1003 2672 1297 2822 
Q 1591 2972 1913 2972 
Q 2475 2972 2870 2558 
Q 3266 2144 3266 1488 
Q 3266 1056 3080 686 
Q 2894 316 2569 119 
Q 2244 -78 1831 -78 
Q 1128 -78 684 439 
Q 241 956 241 2144 
Q 241 3472 731 4075 
Q 1159 4600 1884 4600 
Q 2425 4600 2770 4297 
Q 3116 3994 3184 3459 
z
M 888 1484 
Q 888 1194 1011 928 
Q 1134 663 1356 523 
Q 1578 384 1822 384 
Q 2178 384 2434 671 
Q 2691 959 2691 1453 
Q 2691 1928 2437 2201 
Q 2184 2475 1800 2475 
Q 1419 2475 1153 2201 
Q 888 1928 888 1484 
z
" transform="scale(0.015625)"/>
       </defs>
       <use xlink:href="#ArialMT-30"/>
       <use xlink:href="#ArialMT-2e" transform="translate(55.615234 0)"/>
       <use xlink:href="#ArialMT-36" transform="translate(83.398438 0)"/>
      </g>
     </g>
    </g>
    <g id="xtick_5">
     <g id="line2d_5">
      <path d="M 485.422385 310.525998 
L 485.422385 21.448506 
" clip-path="url(#pf6e289c37f)" style="fill: none; stroke: #cccccc; stroke-opacity: 0.3; stroke-width: 1.5; stroke-linecap: round"/>
     </g>
     <g id="text_5">
      <!-- 0.8 -->
      <g style="fill: #262626" transform="translate(474.52826 334.245869) scale(0.15675 -0.15675)">
       <defs>
        <path id="ArialMT-38" d="M 1131 2484 
Q 781 2613 612 2850 
Q 444 3088 444 3419 
Q 444 3919 803 4259 
Q 1163 4600 1759 4600 
Q 2359 4600 2725 4251 
Q 3091 3903 3091 3403 
Q 3091 3084 2923 2848 
Q 2756 2613 2416 2484 
Q 2838 2347 3058 2040 
Q 3278 1734 3278 1309 
Q 3278 722 2862 322 
Q 2447 -78 1769 -78 
Q 1091 -78 675 323 
Q 259 725 259 1325 
Q 259 1772 486 2073 
Q 713 2375 1131 2484 
z
M 1019 3438 
Q 1019 3113 1228 2906 
Q 1438 2700 1772 2700 
Q 2097 2700 2305 2904 
Q 2513 3109 2513 3406 
Q 2513 3716 2298 3927 
Q 2084 4138 1766 4138 
Q 1444 4138 1231 3931 
Q 1019 3725 1019 3438 
z
M 838 1322 
Q 838 1081 952 856 
Q 1066 631 1291 507 
Q 1516 384 1775 384 
Q 2178 384 2440 643 
Q 2703 903 2703 1303 
Q 2703 1709 2433 1975 
Q 2163 2241 1756 2241 
Q 1359 2241 1098 1978 
Q 838 1716 838 1322 
z
" transform="scale(0.015625)"/>
       </defs>
       <use xlink:href="#ArialMT-30"/>
       <use xlink:href="#ArialMT-2e" transform="translate(55.615234 0)"/>
       <use xlink:href="#ArialMT-38" transform="translate(83.398438 0)"/>
      </g>
     </g>
    </g>
    <g id="xtick_6">
     <g id="line2d_6">
      <path d="M 595.76401 310.525998 
L 595.76401 21.448506 
" clip-path="url(#pf6e289c37f)" style="fill: none; stroke: #cccccc; stroke-opacity: 0.3; stroke-width: 1.5; stroke-linecap: round"/>
     </g>
     <g id="text_6">
      <!-- 1.0 -->
      <g style="fill: #262626" transform="translate(584.869885 334.245869) scale(0.15675 -0.15675)">
       <defs>
        <path id="ArialMT-31" d="M 2384 0 
L 1822 0 
L 1822 3584 
Q 1619 3391 1289 3197 
Q 959 3003 697 2906 
L 697 3450 
Q 1169 3672 1522 3987 
Q 1875 4303 2022 4600 
L 2384 4600 
L 2384 0 
z
" transform="scale(0.015625)"/>
       </defs>
       <use xlink:href="#ArialMT-31"/>
       <use xlink:href="#ArialMT-2e" transform="translate(55.615234 0)"/>
       <use xlink:href="#ArialMT-30" transform="translate(83.398438 0)"/>
      </g>
     </g>
    </g>
    <g id="xtick_7">
     <g id="line2d_7">
      <path d="M 706.105635 310.525998 
L 706.105635 21.448506 
" clip-path="url(#pf6e289c37f)" style="fill: none; stroke: #cccccc; stroke-opacity: 0.3; stroke-width: 1.5; stroke-linecap: round"/>
     </g>
     <g id="text_7">
      <!-- 1.2 -->
      <g style="fill: #262626" transform="translate(695.21151 334.245869) scale(0.15675 -0.15675)">
       <use xlink:href="#ArialMT-31"/>
       <use xlink:href="#ArialMT-2e" transform="translate(55.615234 0)"/>
       <use xlink:href="#ArialMT-32" transform="translate(83.398438 0)"/>
      </g>
     </g>
    </g>
    <g id="text_8">
     <!-- Utilization -->
     <g style="fill: #262626" transform="translate(338.017846 353.601135) scale(0.171 -0.171)">
      <defs>
       <path id="ArialMT-55" d="M 3500 4581 
L 4106 4581 
L 4106 1934 
Q 4106 1244 3950 837 
Q 3794 431 3386 176 
Q 2978 -78 2316 -78 
Q 1672 -78 1262 144 
Q 853 366 678 786 
Q 503 1206 503 1934 
L 503 4581 
L 1109 4581 
L 1109 1938 
Q 1109 1341 1220 1058 
Q 1331 775 1601 622 
Q 1872 469 2263 469 
Q 2931 469 3215 772 
Q 3500 1075 3500 1938 
L 3500 4581 
z
" transform="scale(0.015625)"/>
       <path id="ArialMT-74" d="M 1650 503 
L 1731 6 
Q 1494 -44 1306 -44 
Q 1000 -44 831 53 
Q 663 150 594 308 
Q 525 466 525 972 
L 525 2881 
L 113 2881 
L 113 3319 
L 525 3319 
L 525 4141 
L 1084 4478 
L 1084 3319 
L 1650 3319 
L 1650 2881 
L 1084 2881 
L 1084 941 
Q 1084 700 1114 631 
Q 1144 563 1211 522 
Q 1278 481 1403 481 
Q 1497 481 1650 503 
z
" transform="scale(0.015625)"/>
       <path id="ArialMT-69" d="M 425 3934 
L 425 4581 
L 988 4581 
L 988 3934 
L 425 3934 
z
M 425 0 
L 425 3319 
L 988 3319 
L 988 0 
L 425 0 
z
" transform="scale(0.015625)"/>
       <path id="ArialMT-6c" d="M 409 0 
L 409 4581 
L 972 4581 
L 972 0 
L 409 0 
z
" transform="scale(0.015625)"/>
       <path id="ArialMT-7a" d="M 125 0 
L 125 456 
L 2238 2881 
Q 1878 2863 1603 2863 
L 250 2863 
L 250 3319 
L 2963 3319 
L 2963 2947 
L 1166 841 
L 819 456 
Q 1197 484 1528 484 
L 3063 484 
L 3063 0 
L 125 0 
z
" transform="scale(0.015625)"/>
       <path id="ArialMT-61" d="M 2588 409 
Q 2275 144 1986 34 
Q 1697 -75 1366 -75 
Q 819 -75 525 192 
Q 231 459 231 875 
Q 231 1119 342 1320 
Q 453 1522 633 1644 
Q 813 1766 1038 1828 
Q 1203 1872 1538 1913 
Q 2219 1994 2541 2106 
Q 2544 2222 2544 2253 
Q 2544 2597 2384 2738 
Q 2169 2928 1744 2928 
Q 1347 2928 1158 2789 
Q 969 2650 878 2297 
L 328 2372 
Q 403 2725 575 2942 
Q 747 3159 1072 3276 
Q 1397 3394 1825 3394 
Q 2250 3394 2515 3294 
Q 2781 3194 2906 3042 
Q 3031 2891 3081 2659 
Q 3109 2516 3109 2141 
L 3109 1391 
Q 3109 606 3145 398 
Q 3181 191 3288 0 
L 2700 0 
Q 2613 175 2588 409 
z
M 2541 1666 
Q 2234 1541 1622 1453 
Q 1275 1403 1131 1340 
Q 988 1278 909 1158 
Q 831 1038 831 891 
Q 831 666 1001 516 
Q 1172 366 1500 366 
Q 1825 366 2078 508 
Q 2331 650 2450 897 
Q 2541 1088 2541 1459 
L 2541 1666 
z
" transform="scale(0.015625)"/>
       <path id="ArialMT-6f" d="M 213 1659 
Q 213 2581 725 3025 
Q 1153 3394 1769 3394 
Q 2453 3394 2887 2945 
Q 3322 2497 3322 1706 
Q 3322 1066 3130 698 
Q 2938 331 2570 128 
Q 2203 -75 1769 -75 
Q 1072 -75 642 372 
Q 213 819 213 1659 
z
M 791 1659 
Q 791 1022 1069 705 
Q 1347 388 1769 388 
Q 2188 388 2466 706 
Q 2744 1025 2744 1678 
Q 2744 2294 2464 2611 
Q 2184 2928 1769 2928 
Q 1347 2928 1069 2612 
Q 791 2297 791 1659 
z
" transform="scale(0.015625)"/>
       <path id="ArialMT-6e" d="M 422 0 
L 422 3319 
L 928 3319 
L 928 2847 
Q 1294 3394 1984 3394 
Q 2284 3394 2536 3286 
Q 2788 3178 2913 3003 
Q 3038 2828 3088 2588 
Q 3119 2431 3119 2041 
L 3119 0 
L 2556 0 
L 2556 2019 
Q 2556 2363 2490 2533 
Q 2425 2703 2258 2804 
Q 2091 2906 1866 2906 
Q 1506 2906 1245 2678 
Q 984 2450 984 1813 
L 984 0 
L 422 0 
z
" transform="scale(0.015625)"/>
      </defs>
      <use xlink:href="#ArialMT-55"/>
      <use xlink:href="#ArialMT-74" transform="translate(72.216797 0)"/>
      <use xlink:href="#ArialMT-69" transform="translate(100 0)"/>
      <use xlink:href="#ArialMT-6c" transform="translate(122.216797 0)"/>
      <use xlink:href="#ArialMT-69" transform="translate(144.433594 0)"/>
      <use xlink:href="#ArialMT-7a" transform="translate(166.650391 0)"/>
      <use xlink:href="#ArialMT-61" transform="translate(216.650391 0)"/>
      <use xlink:href="#ArialMT-74" transform="translate(272.265625 0)"/>
      <use xlink:href="#ArialMT-69" transform="translate(300.048828 0)"/>
      <use xlink:href="#ArialMT-6f" transform="translate(322.265625 0)"/>
      <use xlink:href="#ArialMT-6e" transform="translate(377.880859 0)"/>
     </g>
    </g>
   </g>
   <g id="matplotlib.axis_2">
    <g id="ytick_1">
     <g id="line2d_8">
      <path d="M 44.055885 310.525998 
L 706.105635 310.525998 
" clip-path="url(#pf6e289c37f)" style="fill: none; stroke: #cccccc; stroke-opacity: 0.3; stroke-width: 1.5; stroke-linecap: round"/>
     </g>
     <g id="text_9">
      <!-- 0 -->
      <g style="fill: #262626" transform="translate(22.839115 316.135934) scale(0.15675 -0.15675)">
       <use xlink:href="#ArialMT-30"/>
      </g>
     </g>
    </g>
    <g id="ytick_2">
     <g id="line2d_9">
      <path d="M 44.055885 274.959316 
L 706.105635 274.959316 
" clip-path="url(#pf6e289c37f)" style="fill: none; stroke: #cccccc; stroke-opacity: 0.3; stroke-width: 1.5; stroke-linecap: round"/>
     </g>
     <g id="text_10">
      <!-- 1 -->
      <g style="fill: #262626" transform="translate(22.839115 280.569252) scale(0.15675 -0.15675)">
       <use xlink:href="#ArialMT-31"/>
      </g>
     </g>
    </g>
    <g id="ytick_3">
     <g id="line2d_10">
      <path d="M 44.055885 239.392634 
L 706.105635 239.392634 
" clip-path="url(#pf6e289c37f)" style="fill: none; stroke: #cccccc; stroke-opacity: 0.3; stroke-width: 1.5; stroke-linecap: round"/>
     </g>
     <g id="text_11">
      <!-- 2 -->
      <g style="fill: #262626" transform="translate(22.839115 245.00257) scale(0.15675 -0.15675)">
       <use xlink:href="#ArialMT-32"/>
      </g>
     </g>
    </g>
    <g id="ytick_4">
     <g id="line2d_11">
      <path d="M 44.055885 203.825952 
L 706.105635 203.825952 
" clip-path="url(#pf6e289c37f)" style="fill: none; stroke: #cccccc; stroke-opacity: 0.3; stroke-width: 1.5; stroke-linecap: round"/>
     </g>
     <g id="text_12">
      <!-- 3 -->
      <g style="fill: #262626" transform="translate(22.839115 209.435888) scale(0.15675 -0.15675)">
       <defs>
        <path id="ArialMT-33" d="M 269 1209 
L 831 1284 
Q 928 806 1161 595 
Q 1394 384 1728 384 
Q 2125 384 2398 659 
Q 2672 934 2672 1341 
Q 2672 1728 2419 1979 
Q 2166 2231 1775 2231 
Q 1616 2231 1378 2169 
L 1441 2663 
Q 1497 2656 1531 2656 
Q 1891 2656 2178 2843 
Q 2466 3031 2466 3422 
Q 2466 3731 2256 3934 
Q 2047 4138 1716 4138 
Q 1388 4138 1169 3931 
Q 950 3725 888 3313 
L 325 3413 
Q 428 3978 793 4289 
Q 1159 4600 1703 4600 
Q 2078 4600 2393 4439 
Q 2709 4278 2876 4000 
Q 3044 3722 3044 3409 
Q 3044 3113 2884 2869 
Q 2725 2625 2413 2481 
Q 2819 2388 3044 2092 
Q 3269 1797 3269 1353 
Q 3269 753 2831 336 
Q 2394 -81 1725 -81 
Q 1122 -81 723 278 
Q 325 638 269 1209 
z
" transform="scale(0.015625)"/>
       </defs>
       <use xlink:href="#ArialMT-33"/>
      </g>
     </g>
    </g>
    <g id="ytick_5">
     <g id="line2d_12">
      <path d="M 44.055885 168.25927 
L 706.105635 168.25927 
" clip-path="url(#pf6e289c37f)" style="fill: none; stroke: #cccccc; stroke-opacity: 0.3; stroke-width: 1.5; stroke-linecap: round"/>
     </g>
     <g id="text_13">
      <!-- 4 -->
      <g style="fill: #262626" transform="translate(22.839115 173.869206) scale(0.15675 -0.15675)">
       <use xlink:href="#ArialMT-34"/>
      </g>
     </g>
    </g>
    <g id="ytick_6">
     <g id="line2d_13">
      <path d="M 44.055885 132.692588 
L 706.105635 132.692588 
" clip-path="url(#pf6e289c37f)" style="fill: none; stroke: #cccccc; stroke-opacity: 0.3; stroke-width: 1.5; stroke-linecap: round"/>
     </g>
     <g id="text_14">
      <!-- 5 -->
      <g style="fill: #262626" transform="translate(22.839115 138.302524) scale(0.15675 -0.15675)">
       <defs>
        <path id="ArialMT-35" d="M 266 1200 
L 856 1250 
Q 922 819 1161 601 
Q 1400 384 1738 384 
Q 2144 384 2425 690 
Q 2706 997 2706 1503 
Q 2706 1984 2436 2262 
Q 2166 2541 1728 2541 
Q 1456 2541 1237 2417 
Q 1019 2294 894 2097 
L 366 2166 
L 809 4519 
L 3088 4519 
L 3088 3981 
L 1259 3981 
L 1013 2750 
Q 1425 3038 1878 3038 
Q 2478 3038 2890 2622 
Q 3303 2206 3303 1553 
Q 3303 931 2941 478 
Q 2500 -78 1738 -78 
Q 1113 -78 717 272 
Q 322 622 266 1200 
z
" transform="scale(0.015625)"/>
       </defs>
       <use xlink:href="#ArialMT-35"/>
      </g>
     </g>
    </g>
    <g id="ytick_7">
     <g id="line2d_14">
      <path d="M 44.055885 97.125906 
L 706.105635 97.125906 
" clip-path="url(#pf6e289c37f)" style="fill: none; stroke: #cccccc; stroke-opacity: 0.3; stroke-width: 1.5; stroke-linecap: round"/>
     </g>
     <g id="text_15">
      <!-- 6 -->
      <g style="fill: #262626" transform="translate(22.839115 102.735842) scale(0.15675 -0.15675)">
       <use xlink:href="#ArialMT-36"/>
      </g>
     </g>
    </g>
    <g id="ytick_8">
     <g id="line2d_15">
      <path d="M 44.055885 61.559224 
L 706.105635 61.559224 
" clip-path="url(#pf6e289c37f)" style="fill: none; stroke: #cccccc; stroke-opacity: 0.3; stroke-width: 1.5; stroke-linecap: round"/>
     </g>
     <g id="text_16">
      <!-- 7 -->
      <g style="fill: #262626" transform="translate(22.839115 67.169159) scale(0.15675 -0.15675)">
       <defs>
        <path id="ArialMT-37" d="M 303 3981 
L 303 4522 
L 3269 4522 
L 3269 4084 
Q 2831 3619 2401 2847 
Q 1972 2075 1738 1259 
Q 1569 684 1522 0 
L 944 0 
Q 953 541 1156 1306 
Q 1359 2072 1739 2783 
Q 2119 3494 2547 3981 
L 303 3981 
z
" transform="scale(0.015625)"/>
       </defs>
       <use xlink:href="#ArialMT-37"/>
      </g>
     </g>
    </g>
    <g id="ytick_9">
     <g id="line2d_16">
      <path d="M 44.055885 25.992542 
L 706.105635 25.992542 
" clip-path="url(#pf6e289c37f)" style="fill: none; stroke: #cccccc; stroke-opacity: 0.3; stroke-width: 1.5; stroke-linecap: round"/>
     </g>
     <g id="text_17">
      <!-- 8 -->
      <g style="fill: #262626" transform="translate(22.839115 31.602477) scale(0.15675 -0.15675)">
       <use xlink:href="#ArialMT-38"/>
      </g>
     </g>
    </g>
    <g id="text_18">
     <!-- Density -->
     <g style="fill: #262626" transform="translate(15.240099 194.496158) rotate(-90) scale(0.171 -0.171)">
      <defs>
       <path id="ArialMT-44" d="M 494 0 
L 494 4581 
L 2072 4581 
Q 2606 4581 2888 4516 
Q 3281 4425 3559 4188 
Q 3922 3881 4101 3404 
Q 4281 2928 4281 2316 
Q 4281 1794 4159 1391 
Q 4038 988 3847 723 
Q 3656 459 3429 307 
Q 3203 156 2883 78 
Q 2563 0 2147 0 
L 494 0 
z
M 1100 541 
L 2078 541 
Q 2531 541 2789 625 
Q 3047 709 3200 863 
Q 3416 1078 3536 1442 
Q 3656 1806 3656 2325 
Q 3656 3044 3420 3430 
Q 3184 3816 2847 3947 
Q 2603 4041 2063 4041 
L 1100 4041 
L 1100 541 
z
" transform="scale(0.015625)"/>
       <path id="ArialMT-65" d="M 2694 1069 
L 3275 997 
Q 3138 488 2766 206 
Q 2394 -75 1816 -75 
Q 1088 -75 661 373 
Q 234 822 234 1631 
Q 234 2469 665 2931 
Q 1097 3394 1784 3394 
Q 2450 3394 2872 2941 
Q 3294 2488 3294 1666 
Q 3294 1616 3291 1516 
L 816 1516 
Q 847 969 1125 678 
Q 1403 388 1819 388 
Q 2128 388 2347 550 
Q 2566 713 2694 1069 
z
M 847 1978 
L 2700 1978 
Q 2663 2397 2488 2606 
Q 2219 2931 1791 2931 
Q 1403 2931 1139 2672 
Q 875 2413 847 1978 
z
" transform="scale(0.015625)"/>
       <path id="ArialMT-73" d="M 197 991 
L 753 1078 
Q 800 744 1014 566 
Q 1228 388 1613 388 
Q 2000 388 2187 545 
Q 2375 703 2375 916 
Q 2375 1106 2209 1216 
Q 2094 1291 1634 1406 
Q 1016 1563 777 1677 
Q 538 1791 414 1992 
Q 291 2194 291 2438 
Q 291 2659 392 2848 
Q 494 3038 669 3163 
Q 800 3259 1026 3326 
Q 1253 3394 1513 3394 
Q 1903 3394 2198 3281 
Q 2494 3169 2634 2976 
Q 2775 2784 2828 2463 
L 2278 2388 
Q 2241 2644 2061 2787 
Q 1881 2931 1553 2931 
Q 1166 2931 1000 2803 
Q 834 2675 834 2503 
Q 834 2394 903 2306 
Q 972 2216 1119 2156 
Q 1203 2125 1616 2013 
Q 2213 1853 2448 1751 
Q 2684 1650 2818 1456 
Q 2953 1263 2953 975 
Q 2953 694 2789 445 
Q 2625 197 2315 61 
Q 2006 -75 1616 -75 
Q 969 -75 630 194 
Q 291 463 197 991 
z
" transform="scale(0.015625)"/>
       <path id="ArialMT-79" d="M 397 -1278 
L 334 -750 
Q 519 -800 656 -800 
Q 844 -800 956 -737 
Q 1069 -675 1141 -563 
Q 1194 -478 1313 -144 
Q 1328 -97 1363 -6 
L 103 3319 
L 709 3319 
L 1400 1397 
Q 1534 1031 1641 628 
Q 1738 1016 1872 1384 
L 2581 3319 
L 3144 3319 
L 1881 -56 
Q 1678 -603 1566 -809 
Q 1416 -1088 1222 -1217 
Q 1028 -1347 759 -1347 
Q 597 -1347 397 -1278 
z
" transform="scale(0.015625)"/>
      </defs>
      <use xlink:href="#ArialMT-44"/>
      <use xlink:href="#ArialMT-65" transform="translate(72.216797 0)"/>
      <use xlink:href="#ArialMT-6e" transform="translate(127.832031 0)"/>
      <use xlink:href="#ArialMT-73" transform="translate(183.447266 0)"/>
      <use xlink:href="#ArialMT-69" transform="translate(233.447266 0)"/>
      <use xlink:href="#ArialMT-74" transform="translate(255.664062 0)"/>
      <use xlink:href="#ArialMT-79" transform="translate(283.447266 0)"/>
     </g>
    </g>
   </g>
   <g id="line2d_17">
    <path d="M 14.227164 304.231399 
L 17.49659 294.522522 
L 20.766015 274.00277 
L 24.035441 235.699801 
L 27.304866 172.900766 
L 30.574291 83.253636 
L 33.084055 -1 
M 55.738284 -1 
L 56.729695 31.753 
L 59.99912 124.826256 
L 63.268546 193.09981 
L 66.537971 236.62082 
L 69.807396 261.046304 
L 73.076822 273.245716 
L 76.346247 278.730307 
L 79.615673 280.987586 
L 82.885098 281.877866 
L 89.423949 282.578186 
L 95.9628 283.386261 
L 115.579352 286.591452 
L 122.118203 287.230279 
L 135.195905 288.301946 
L 141.734756 289.121183 
L 151.543032 290.70673 
L 161.351308 292.249325 
L 167.890159 293.034158 
L 174.42901 293.562578 
L 197.314988 294.916469 
L 203.853839 295.714201 
L 213.662115 297.31632 
L 223.470391 298.919087 
L 233.278667 300.242506 
L 239.817518 300.926182 
L 246.356369 301.354758 
L 262.703496 302.067147 
L 285.589474 303.88134 
L 292.128325 304.211341 
L 298.667176 304.299334 
L 308.475452 304.355437 
L 315.014303 304.659392 
L 324.822579 305.280417 
L 331.36143 305.465954 
L 347.708557 305.433673 
L 354.247408 305.788979 
L 364.055684 306.484294 
L 370.594535 306.737187 
L 400.019364 307.208 
L 416.366491 307.585143 
L 426.174767 307.562555 
L 435.983043 307.503064 
L 445.79132 307.67975 
L 455.599596 307.892648 
L 462.138447 307.874774 
L 478.485574 307.449711 
L 511.179828 306.786019 
L 517.718679 306.990067 
L 524.25753 307.426491 
L 540.604657 308.816383 
L 547.143507 309.099387 
L 563.490635 309.680887 
L 573.298911 310.060014 
L 586.376613 310.277104 
L 612.532016 310.466647 
L 664.842823 310.525465 
L 664.842823 310.525465 
" clip-path="url(#pf6e289c37f)" style="fill: none; stroke: #4c72b0; stroke-width: 2; stroke-linecap: round"/>
   </g>
   <g id="line2d_18">
    <path d="M -1 306.676203 
L 1.644173 305.166047 
L 5.513982 301.814009 
L 9.383791 296.999637 
L 13.253601 290.463362 
L 17.12341 282.095454 
L 20.993219 272.028394 
L 24.863028 260.70475 
L 28.732837 248.889708 
L 32.602646 237.605969 
L 36.472456 227.989061 
L 40.342265 221.087765 
L 44.212074 217.657438 
L 48.081883 218.002956 
L 51.951692 221.917284 
L 55.821502 228.733734 
L 59.691311 237.47523 
L 67.430929 256.477564 
L 71.300738 264.977467 
L 75.170548 272.095228 
L 79.040357 277.666734 
L 82.910166 281.762006 
L 86.779975 284.598122 
L 90.649784 286.454157 
L 94.519594 287.605693 
L 98.389403 288.28531 
L 102.259212 288.666753 
L 106.129021 288.865991 
L 113.868639 288.95823 
L 121.608258 288.779553 
L 129.347876 288.355691 
L 137.087495 287.712184 
L 148.696922 286.493887 
L 168.045968 284.423355 
L 187.395014 282.645528 
L 218.353488 279.834978 
L 260.921389 275.766473 
L 272.530816 275.010843 
L 295.749671 273.845076 
L 303.48929 273.0989 
L 311.228908 272.072635 
L 326.708145 269.87238 
L 334.447763 269.126552 
L 342.187382 268.725305 
L 349.927 268.601078 
L 357.666618 268.671546 
L 369.276046 269.054644 
L 384.755283 269.903434 
L 415.713756 271.820678 
L 423.453375 272.593944 
L 431.192993 273.643215 
L 438.932611 274.957018 
L 450.542039 277.227277 
L 466.021276 280.261348 
L 481.500512 282.980727 
L 493.10994 285.061748 
L 500.849558 286.637869 
L 512.458986 289.323036 
L 531.808032 293.985838 
L 547.287269 297.393672 
L 558.896696 299.787361 
L 566.636315 301.249871 
L 574.375933 302.53127 
L 582.115551 303.600655 
L 589.85517 304.480933 
L 601.464597 305.568338 
L 616.943834 306.766035 
L 628.553262 307.459653 
L 644.032498 308.098988 
L 686.6004 309.429501 
L 721 310.180601 
L 721 310.180601 
" clip-path="url(#pf6e289c37f)" style="fill: none; stroke: #55a868; stroke-width: 2; stroke-linecap: round"/>
   </g>
   <g id="line2d_19">
    <path d="M 2.833994 310.201495 
L 6.028507 309.886717 
L 9.223019 309.331604 
L 12.417532 308.409203 
L 15.612044 306.966406 
L 18.806557 304.844549 
L 22.00107 301.915188 
L 25.195582 298.126659 
L 28.390095 293.549795 
L 37.973633 277.973729 
L 41.168145 273.617161 
L 44.362658 270.372686 
L 47.55717 268.45007 
L 50.751683 267.846272 
L 53.946196 268.360248 
L 57.140708 269.65571 
L 66.724246 274.625391 
L 69.918759 275.810575 
L 73.113271 276.6056 
L 76.307784 277.042401 
L 79.502296 277.190434 
L 82.696809 277.127268 
L 89.085834 276.612222 
L 95.474859 275.776405 
L 101.863884 274.611201 
L 105.058397 273.864183 
L 108.25291 272.987352 
L 111.447422 271.974531 
L 114.641935 270.829358 
L 121.03096 268.203202 
L 130.614498 263.803986 
L 137.003523 260.884287 
L 143.392548 258.194295 
L 149.781573 255.891761 
L 152.976086 254.926563 
L 156.170599 254.096609 
L 159.365111 253.397807 
L 165.754136 252.313606 
L 178.532187 250.431303 
L 188.115725 248.609215 
L 194.50475 247.375861 
L 200.893775 246.387977 
L 204.088287 246.044446 
L 207.2828 245.823123 
L 210.477313 245.733738 
L 213.671825 245.779428 
L 216.866338 245.955557 
L 223.255363 246.640284 
L 229.644388 247.614572 
L 245.616951 250.394017 
L 255.200489 252.303482 
L 267.978539 255.184255 
L 277.562077 257.547065 
L 283.951102 259.377118 
L 290.340128 261.457674 
L 303.118178 265.790121 
L 309.507203 267.706884 
L 319.090741 270.246662 
L 328.674279 272.836368 
L 335.063304 274.817921 
L 354.230379 281.177406 
L 360.619405 282.868885 
L 367.00843 284.261737 
L 373.397455 285.442753 
L 382.980993 286.966723 
L 392.56453 288.235715 
L 398.953556 288.913881 
L 405.342581 289.414446 
L 411.731606 289.688456 
L 418.120631 289.704644 
L 424.509656 289.476067 
L 434.093194 288.836889 
L 443.676732 288.21381 
L 450.065757 287.99945 
L 456.454782 287.977522 
L 469.232833 288.236076 
L 475.621858 288.488121 
L 482.010883 289.009039 
L 485.205396 289.434878 
L 488.399908 289.992753 
L 491.594421 290.683693 
L 497.983446 292.404949 
L 507.566984 295.427042 
L 517.150522 298.400885 
L 523.539547 300.207202 
L 529.928572 301.840426 
L 536.317597 303.283754 
L 542.706622 304.527054 
L 549.095648 305.574762 
L 558.679185 306.83535 
L 568.262723 307.842451 
L 581.040774 308.969248 
L 590.624311 309.657847 
L 600.207849 310.140432 
L 609.791387 310.397431 
L 625.76395 310.516337 
L 638.542 310.525433 
L 638.542 310.525433 
" clip-path="url(#pf6e289c37f)" style="fill: none; stroke: #c44e52; stroke-width: 2; stroke-linecap: round"/>
   </g>
   <g id="line2d_20">
    <path d="M -1 304.794022 
L 0.578428 303.593213 
L 4.167282 299.52668 
L 7.756136 293.741376 
L 11.34499 285.889494 
L 14.933844 275.739545 
L 18.522698 263.270021 
L 22.111552 248.755066 
L 32.878113 200.776272 
L 36.466967 187.227377 
L 40.055821 177.008431 
L 43.644675 171.061767 
L 47.233529 169.868805 
L 50.822383 173.367964 
L 54.411236 180.974955 
L 58.00009 191.699068 
L 61.588944 204.324688 
L 68.766652 230.479224 
L 72.355506 242.111206 
L 75.94436 252.018412 
L 79.533214 260.014955 
L 83.122067 266.157661 
L 86.710921 270.66337 
L 90.299775 273.827694 
L 93.888629 275.959964 
L 97.477483 277.340551 
L 101.066337 278.199634 
L 104.655191 278.712321 
L 108.244045 279.003746 
L 115.421752 279.23102 
L 126.188314 279.210883 
L 136.954875 278.975975 
L 151.310291 278.373473 
L 165.665706 277.773717 
L 176.432268 277.552288 
L 187.19883 277.552436 
L 197.965391 277.800427 
L 208.731953 278.355726 
L 223.087368 279.457201 
L 237.442784 280.508391 
L 248.209345 280.980722 
L 262.564761 281.24487 
L 273.331323 281.535375 
L 284.097884 282.100819 
L 309.219861 283.850277 
L 327.164131 285.20002 
L 341.519546 286.565589 
L 352.286108 287.501899 
L 359.463815 287.890952 
L 366.641523 288.063527 
L 384.585793 288.084375 
L 406.118916 288.256524 
L 420.474331 288.544064 
L 438.418601 288.928131 
L 449.185162 288.887643 
L 470.718285 288.621925 
L 481.484847 288.740786 
L 492.251409 289.06818 
L 499.429116 289.438577 
L 506.606824 289.981547 
L 513.784532 290.721311 
L 520.96224 291.648976 
L 531.728801 293.337243 
L 542.495363 295.325303 
L 553.261924 297.552271 
L 574.795048 302.145773 
L 585.561609 304.176043 
L 592.739317 305.356206 
L 599.917025 306.382073 
L 610.683586 307.641254 
L 621.450148 308.621301 
L 632.21671 309.375132 
L 642.983271 309.909051 
L 653.749833 310.235073 
L 668.105248 310.439491 
L 693.227225 310.521604 
L 703.993787 310.525229 
L 703.993787 310.525229 
" clip-path="url(#pf6e289c37f)" style="fill: none; stroke: #8172b2; stroke-width: 2; stroke-linecap: round"/>
   </g>
   <g id="patch_3">
    <path d="M 44.055885 310.525998 
L 44.055885 21.448506 
" style="fill: none; stroke: #cccccc; stroke-width: 1.875; stroke-linejoin: miter; stroke-linecap: square"/>
   </g>
   <g id="patch_4">
    <path d="M 706.105635 310.525998 
L 706.105635 21.448506 
" style="fill: none; stroke: #cccccc; stroke-width: 1.875; stroke-linejoin: miter; stroke-linecap: square"/>
   </g>
   <g id="patch_5">
    <path d="M 44.055885 310.525998 
L 706.105635 310.525998 
" style="fill: none; stroke: #cccccc; stroke-width: 1.875; stroke-linejoin: miter; stroke-linecap: square"/>
   </g>
   <g id="patch_6">
    <path d="M 44.055885 21.448506 
L 706.105635 21.448506 
" style="fill: none; stroke: #cccccc; stroke-width: 1.875; stroke-linejoin: miter; stroke-linecap: square"/>
   </g>
   <g id="text_19">
    <!-- Import utilization (flow/NTC) — overlaid -->
    <g style="fill: #262626" transform="translate(226.373549 15.448506) scale(0.171 -0.171)">
     <defs>
      <path id="ArialMT-49" d="M 597 0 
L 597 4581 
L 1203 4581 
L 1203 0 
L 597 0 
z
" transform="scale(0.015625)"/>
      <path id="ArialMT-6d" d="M 422 0 
L 422 3319 
L 925 3319 
L 925 2853 
Q 1081 3097 1340 3245 
Q 1600 3394 1931 3394 
Q 2300 3394 2536 3241 
Q 2772 3088 2869 2813 
Q 3263 3394 3894 3394 
Q 4388 3394 4653 3120 
Q 4919 2847 4919 2278 
L 4919 0 
L 4359 0 
L 4359 2091 
Q 4359 2428 4304 2576 
Q 4250 2725 4106 2815 
Q 3963 2906 3769 2906 
Q 3419 2906 3187 2673 
Q 2956 2441 2956 1928 
L 2956 0 
L 2394 0 
L 2394 2156 
Q 2394 2531 2256 2718 
Q 2119 2906 1806 2906 
Q 1569 2906 1367 2781 
Q 1166 2656 1075 2415 
Q 984 2175 984 1722 
L 984 0 
L 422 0 
z
" transform="scale(0.015625)"/>
      <path id="ArialMT-70" d="M 422 -1272 
L 422 3319 
L 934 3319 
L 934 2888 
Q 1116 3141 1344 3267 
Q 1572 3394 1897 3394 
Q 2322 3394 2647 3175 
Q 2972 2956 3137 2557 
Q 3303 2159 3303 1684 
Q 3303 1175 3120 767 
Q 2938 359 2589 142 
Q 2241 -75 1856 -75 
Q 1575 -75 1351 44 
Q 1128 163 984 344 
L 984 -1272 
L 422 -1272 
z
M 931 1641 
Q 931 1000 1190 694 
Q 1450 388 1819 388 
Q 2194 388 2461 705 
Q 2728 1022 2728 1688 
Q 2728 2322 2467 2637 
Q 2206 2953 1844 2953 
Q 1484 2953 1207 2617 
Q 931 2281 931 1641 
z
" transform="scale(0.015625)"/>
      <path id="ArialMT-72" d="M 416 0 
L 416 3319 
L 922 3319 
L 922 2816 
Q 1116 3169 1280 3281 
Q 1444 3394 1641 3394 
Q 1925 3394 2219 3213 
L 2025 2691 
Q 1819 2813 1613 2813 
Q 1428 2813 1281 2702 
Q 1134 2591 1072 2394 
Q 978 2094 978 1738 
L 978 0 
L 416 0 
z
" transform="scale(0.015625)"/>
      <path id="ArialMT-20" transform="scale(0.015625)"/>
      <path id="ArialMT-75" d="M 2597 0 
L 2597 488 
Q 2209 -75 1544 -75 
Q 1250 -75 995 37 
Q 741 150 617 320 
Q 494 491 444 738 
Q 409 903 409 1263 
L 409 3319 
L 972 3319 
L 972 1478 
Q 972 1038 1006 884 
Q 1059 663 1231 536 
Q 1403 409 1656 409 
Q 1909 409 2131 539 
Q 2353 669 2445 892 
Q 2538 1116 2538 1541 
L 2538 3319 
L 3100 3319 
L 3100 0 
L 2597 0 
z
" transform="scale(0.015625)"/>
      <path id="ArialMT-28" d="M 1497 -1347 
Q 1031 -759 709 28 
Q 388 816 388 1659 
Q 388 2403 628 3084 
Q 909 3875 1497 4659 
L 1900 4659 
Q 1522 4009 1400 3731 
Q 1209 3300 1100 2831 
Q 966 2247 966 1656 
Q 966 153 1900 -1347 
L 1497 -1347 
z
" transform="scale(0.015625)"/>
      <path id="ArialMT-66" d="M 556 0 
L 556 2881 
L 59 2881 
L 59 3319 
L 556 3319 
L 556 3672 
Q 556 4006 616 4169 
Q 697 4388 901 4523 
Q 1106 4659 1475 4659 
Q 1713 4659 2000 4603 
L 1916 4113 
Q 1741 4144 1584 4144 
Q 1328 4144 1222 4034 
Q 1116 3925 1116 3625 
L 1116 3319 
L 1763 3319 
L 1763 2881 
L 1116 2881 
L 1116 0 
L 556 0 
z
" transform="scale(0.015625)"/>
      <path id="ArialMT-77" d="M 1034 0 
L 19 3319 
L 600 3319 
L 1128 1403 
L 1325 691 
Q 1338 744 1497 1375 
L 2025 3319 
L 2603 3319 
L 3100 1394 
L 3266 759 
L 3456 1400 
L 4025 3319 
L 4572 3319 
L 3534 0 
L 2950 0 
L 2422 1988 
L 2294 2553 
L 1622 0 
L 1034 0 
z
" transform="scale(0.015625)"/>
      <path id="ArialMT-2f" d="M 0 -78 
L 1328 4659 
L 1778 4659 
L 453 -78 
L 0 -78 
z
" transform="scale(0.015625)"/>
      <path id="ArialMT-4e" d="M 488 0 
L 488 4581 
L 1109 4581 
L 3516 984 
L 3516 4581 
L 4097 4581 
L 4097 0 
L 3475 0 
L 1069 3600 
L 1069 0 
L 488 0 
z
" transform="scale(0.015625)"/>
      <path id="ArialMT-54" d="M 1659 0 
L 1659 4041 
L 150 4041 
L 150 4581 
L 3781 4581 
L 3781 4041 
L 2266 4041 
L 2266 0 
L 1659 0 
z
" transform="scale(0.015625)"/>
      <path id="ArialMT-43" d="M 3763 1606 
L 4369 1453 
Q 4178 706 3683 314 
Q 3188 -78 2472 -78 
Q 1731 -78 1267 223 
Q 803 525 561 1097 
Q 319 1669 319 2325 
Q 319 3041 592 3573 
Q 866 4106 1370 4382 
Q 1875 4659 2481 4659 
Q 3169 4659 3637 4309 
Q 4106 3959 4291 3325 
L 3694 3184 
Q 3534 3684 3231 3912 
Q 2928 4141 2469 4141 
Q 1941 4141 1586 3887 
Q 1231 3634 1087 3207 
Q 944 2781 944 2328 
Q 944 1744 1114 1308 
Q 1284 872 1643 656 
Q 2003 441 2422 441 
Q 2931 441 3284 734 
Q 3638 1028 3763 1606 
z
" transform="scale(0.015625)"/>
      <path id="ArialMT-29" d="M 791 -1347 
L 388 -1347 
Q 1322 153 1322 1656 
Q 1322 2244 1188 2822 
Q 1081 3291 891 3722 
Q 769 4003 388 4659 
L 791 4659 
Q 1378 3875 1659 3084 
Q 1900 2403 1900 1659 
Q 1900 816 1576 28 
Q 1253 -759 791 -1347 
z
" transform="scale(0.015625)"/>
      <path id="ArialMT-2014" d="M 0 1431 
L 0 1884 
L 6400 1884 
L 6400 1431 
L 0 1431 
z
" transform="scale(0.015625)"/>
      <path id="ArialMT-76" d="M 1344 0 
L 81 3319 
L 675 3319 
L 1388 1331 
Q 1503 1009 1600 663 
Q 1675 925 1809 1294 
L 2547 3319 
L 3125 3319 
L 1869 0 
L 1344 0 
z
" transform="scale(0.015625)"/>
      <path id="ArialMT-64" d="M 2575 0 
L 2575 419 
Q 2259 -75 1647 -75 
Q 1250 -75 917 144 
Q 584 363 401 755 
Q 219 1147 219 1656 
Q 219 2153 384 2558 
Q 550 2963 881 3178 
Q 1213 3394 1622 3394 
Q 1922 3394 2156 3267 
Q 2391 3141 2538 2938 
L 2538 4581 
L 3097 4581 
L 3097 0 
L 2575 0 
z
M 797 1656 
Q 797 1019 1065 703 
Q 1334 388 1700 388 
Q 2069 388 2326 689 
Q 2584 991 2584 1609 
Q 2584 2291 2321 2609 
Q 2059 2928 1675 2928 
Q 1300 2928 1048 2622 
Q 797 2316 797 1656 
z
" transform="scale(0.015625)"/>
     </defs>
     <use xlink:href="#ArialMT-49"/>
     <use xlink:href="#ArialMT-6d" transform="translate(27.783203 0)"/>
     <use xlink:href="#ArialMT-70" transform="translate(111.083984 0)"/>
     <use xlink:href="#ArialMT-6f" transform="translate(166.699219 0)"/>
     <use xlink:href="#ArialMT-72" transform="translate(222.314453 0)"/>
     <use xlink:href="#ArialMT-74" transform="translate(255.615234 0)"/>
     <use xlink:href="#ArialMT-20" transform="translate(283.398438 0)"/>
     <use xlink:href="#ArialMT-75" transform="translate(311.181641 0)"/>
     <use xlink:href="#ArialMT-74" transform="translate(366.796875 0)"/>
     <use xlink:href="#ArialMT-69" transform="translate(394.580078 0)"/>
     <use xlink:href="#ArialMT-6c" transform="translate(416.796875 0)"/>
     <use xlink:href="#ArialMT-69" transform="translate(439.013672 0)"/>
     <use xlink:href="#ArialMT-7a" transform="translate(461.230469 0)"/>
     <use xlink:href="#ArialMT-61" transform="translate(511.230469 0)"/>
     <use xlink:href="#ArialMT-74" transform="translate(566.845703 0)"/>
     <use xlink:href="#ArialMT-69" transform="translate(594.628906 0)"/>
     <use xlink:href="#ArialMT-6f" transform="translate(616.845703 0)"/>
     <use xlink:href="#ArialMT-6e" transform="translate(672.460938 0)"/>
     <use xlink:href="#ArialMT-20" transform="translate(728.076172 0)"/>
     <use xlink:href="#ArialMT-28" transform="translate(755.859375 0)"/>
     <use xlink:href="#ArialMT-66" transform="translate(789.160156 0)"/>
     <use xlink:href="#ArialMT-6c" transform="translate(816.943359 0)"/>
     <use xlink:href="#ArialMT-6f" transform="translate(839.160156 0)"/>
     <use xlink:href="#ArialMT-77" transform="translate(894.775391 0)"/>
     <use xlink:href="#ArialMT-2f" transform="translate(966.992188 0)"/>
     <use xlink:href="#ArialMT-4e" transform="translate(994.775391 0)"/>
     <use xlink:href="#ArialMT-54" transform="translate(1066.992188 0)"/>
     <use xlink:href="#ArialMT-43" transform="translate(1128.076172 0)"/>
     <use xlink:href="#ArialMT-29" transform="translate(1200.292969 0)"/>
     <use xlink:href="#ArialMT-20" transform="translate(1233.59375 0)"/>
     <use xlink:href="#ArialMT-2014" transform="translate(1261.376953 0)"/>
     <use xlink:href="#ArialMT-20" transform="translate(1361.376953 0)"/>
     <use xlink:href="#ArialMT-6f" transform="translate(1389.160156 0)"/>
     <use xlink:href="#ArialMT-76" transform="translate(1444.775391 0)"/>
     <use xlink:href="#ArialMT-65" transform="translate(1494.775391 0)"/>
     <use xlink:href="#ArialMT-72" transform="translate(1550.390625 0)"/>
     <use xlink:href="#ArialMT-6c" transform="translate(1583.691406 0)"/>
     <use xlink:href="#ArialMT-61" transform="translate(1605.908203 0)"/>
     <use xlink:href="#ArialMT-69" transform="translate(1661.523438 0)"/>
     <use xlink:href="#ArialMT-64" transform="translate(1683.740234 0)"/>
    </g>
   </g>
   <g id="legend_1">
    <g id="patch_7">
     <path d="M 409.466057 101.810045 
L 695.133135 101.810045 
Q 698.268135 101.810045 698.268135 98.675045 
L 698.268135 32.421006 
Q 698.268135 29.286006 695.133135 29.286006 
L 409.466057 29.286006 
Q 406.331057 29.286006 406.331057 32.421006 
L 406.331057 98.675045 
Q 406.331057 101.810045 409.466057 101.810045 
z
" style="fill: #ffffff; opacity: 0.8; stroke: #cccccc; stroke-width: 1.5; stroke-linejoin: miter"/>
    </g>
    <g id="text_20">
     <!-- Corridor -->
     <g style="fill: #262626" transform="translate(521.420737 47.795865) scale(0.171 -0.171)">
      <use xlink:href="#ArialMT-43"/>
      <use xlink:href="#ArialMT-6f" transform="translate(72.216797 0)"/>
      <use xlink:href="#ArialMT-72" transform="translate(127.832031 0)"/>
      <use xlink:href="#ArialMT-72" transform="translate(161.132812 0)"/>
      <use xlink:href="#ArialMT-69" transform="translate(194.433594 0)"/>
      <use xlink:href="#ArialMT-64" transform="translate(216.650391 0)"/>
      <use xlink:href="#ArialMT-6f" transform="translate(272.265625 0)"/>
      <use xlink:href="#ArialMT-72" transform="translate(327.880859 0)"/>
     </g>
    </g>
    <g id="line2d_21">
     <path d="M 412.601057 64.765611 
L 428.276057 64.765611 
L 443.951057 64.765611 
" style="fill: none; stroke: #4c72b0; stroke-width: 2; stroke-linecap: round"/>
    </g>
    <g id="text_21">
     <!-- NO2→NO1 -->
     <g style="fill: #262626" transform="translate(456.491057 70.251861) scale(0.15675 -0.15675)">
      <defs>
       <path id="ArialMT-4f" d="M 309 2231 
Q 309 3372 921 4017 
Q 1534 4663 2503 4663 
Q 3138 4663 3647 4359 
Q 4156 4056 4423 3514 
Q 4691 2972 4691 2284 
Q 4691 1588 4409 1038 
Q 4128 488 3612 205 
Q 3097 -78 2500 -78 
Q 1853 -78 1343 234 
Q 834 547 571 1087 
Q 309 1628 309 2231 
z
M 934 2222 
Q 934 1394 1379 917 
Q 1825 441 2497 441 
Q 3181 441 3623 922 
Q 4066 1403 4066 2288 
Q 4066 2847 3877 3264 
Q 3688 3681 3323 3911 
Q 2959 4141 2506 4141 
Q 1863 4141 1398 3698 
Q 934 3256 934 2222 
z
" transform="scale(0.015625)"/>
       <path id="ArialMT-2192" d="M 4859 2738 
Q 5275 2284 5578 2048 
Q 5881 1813 6150 1697 
L 6150 1556 
Q 5841 1406 5550 1173 
Q 5259 941 4856 491 
L 4616 491 
Q 4909 1119 5231 1456 
L 247 1456 
L 247 1772 
L 5231 1772 
Q 4994 2075 4900 2222 
Q 4806 2369 4622 2738 
L 4859 2738 
z
" transform="scale(0.015625)"/>
      </defs>
      <use xlink:href="#ArialMT-4e"/>
      <use xlink:href="#ArialMT-4f" transform="translate(72.216797 0)"/>
      <use xlink:href="#ArialMT-32" transform="translate(150 0)"/>
      <use xlink:href="#ArialMT-2192" transform="translate(205.615234 0)"/>
      <use xlink:href="#ArialMT-4e" transform="translate(305.615234 0)"/>
      <use xlink:href="#ArialMT-4f" transform="translate(377.832031 0)"/>
      <use xlink:href="#ArialMT-31" transform="translate(455.615234 0)"/>
     </g>
    </g>
    <g id="line2d_22">
     <path d="M 412.601057 86.938388 
L 428.276057 86.938388 
L 443.951057 86.938388 
" style="fill: none; stroke: #55a868; stroke-width: 2; stroke-linecap: round"/>
    </g>
    <g id="text_22">
     <!-- NO3→NO1 -->
     <g style="fill: #262626" transform="translate(456.491057 92.424638) scale(0.15675 -0.15675)">
      <use xlink:href="#ArialMT-4e"/>
      <use xlink:href="#ArialMT-4f" transform="translate(72.216797 0)"/>
      <use xlink:href="#ArialMT-33" transform="translate(150 0)"/>
      <use xlink:href="#ArialMT-2192" transform="translate(205.615234 0)"/>
      <use xlink:href="#ArialMT-4e" transform="translate(305.615234 0)"/>
      <use xlink:href="#ArialMT-4f" transform="translate(377.832031 0)"/>
      <use xlink:href="#ArialMT-31" transform="translate(455.615234 0)"/>
     </g>
    </g>
    <g id="line2d_23">
     <path d="M 567.974596 64.765611 
L 583.649596 64.765611 
L 599.324596 64.765611 
" style="fill: none; stroke: #c44e52; stroke-width: 2; stroke-linecap: round"/>
    </g>
    <g id="text_23">
     <!-- NO5→NO1 -->
     <g style="fill: #262626" transform="translate(611.864596 70.251861) scale(0.15675 -0.15675)">
      <use xlink:href="#ArialMT-4e"/>
      <use xlink:href="#ArialMT-4f" transform="translate(72.216797 0)"/>
      <use xlink:href="#ArialMT-35" transform="translate(150 0)"/>
      <use xlink:href="#ArialMT-2192" transform="translate(205.615234 0)"/>
      <use xlink:href="#ArialMT-4e" transform="translate(305.615234 0)"/>
      <use xlink:href="#ArialMT-4f" transform="translate(377.832031 0)"/>
      <use xlink:href="#ArialMT-31" transform="translate(455.615234 0)"/>
     </g>
    </g>
    <g id="line2d_24">
     <path d="M 567.974596 86.938388 
L 583.649596 86.938388 
L 599.324596 86.938388 
" style="fill: none; stroke: #8172b2; stroke-width: 2; stroke-linecap: round"/>
    </g>
    <g id="text_24">
     <!-- SE3→NO1 -->
     <g style="fill: #262626" transform="translate(611.864596 92.424638) scale(0.15675 -0.15675)">
      <defs>
       <path id="ArialMT-53" d="M 288 1472 
L 859 1522 
Q 900 1178 1048 958 
Q 1197 738 1509 602 
Q 1822 466 2213 466 
Q 2559 466 2825 569 
Q 3091 672 3220 851 
Q 3350 1031 3350 1244 
Q 3350 1459 3225 1620 
Q 3100 1781 2813 1891 
Q 2628 1963 1997 2114 
Q 1366 2266 1113 2400 
Q 784 2572 623 2826 
Q 463 3081 463 3397 
Q 463 3744 659 4045 
Q 856 4347 1234 4503 
Q 1613 4659 2075 4659 
Q 2584 4659 2973 4495 
Q 3363 4331 3572 4012 
Q 3781 3694 3797 3291 
L 3216 3247 
Q 3169 3681 2898 3903 
Q 2628 4125 2100 4125 
Q 1550 4125 1298 3923 
Q 1047 3722 1047 3438 
Q 1047 3191 1225 3031 
Q 1400 2872 2139 2705 
Q 2878 2538 3153 2413 
Q 3553 2228 3743 1945 
Q 3934 1663 3934 1294 
Q 3934 928 3725 604 
Q 3516 281 3123 101 
Q 2731 -78 2241 -78 
Q 1619 -78 1198 103 
Q 778 284 539 648 
Q 300 1013 288 1472 
z
" transform="scale(0.015625)"/>
       <path id="ArialMT-45" d="M 506 0 
L 506 4581 
L 3819 4581 
L 3819 4041 
L 1113 4041 
L 1113 2638 
L 3647 2638 
L 3647 2100 
L 1113 2100 
L 1113 541 
L 3925 541 
L 3925 0 
L 506 0 
z
" transform="scale(0.015625)"/>
      </defs>
      <use xlink:href="#ArialMT-53"/>
      <use xlink:href="#ArialMT-45" transform="translate(66.699219 0)"/>
      <use xlink:href="#ArialMT-33" transform="translate(133.398438 0)"/>
      <use xlink:href="#ArialMT-2192" transform="translate(189.013672 0)"/>
      <use xlink:href="#ArialMT-4e" transform="translate(289.013672 0)"/>
      <use xlink:href="#ArialMT-4f" transform="translate(361.230469 0)"/>
      <use xlink:href="#ArialMT-31" transform="translate(439.013672 0)"/>
     </g>
    </g>
   </g>
  </g>
 </g>
 <defs>
  <clipPath id="pf6e289c37f">
   <rect x="44.055885" y="21.448506" width="662.04975" height="289.077493"/>
  </clipPath>
 </defs>
</svg>
