<?xml version="1.0" encoding="utf-8" standalone="no"?>
<!DOCTYPE svg PUBLIC "-//W3C//DTD SVG 1.1//EN"
  "http://www.w3.org/Graphics/SVG/1.1/DTD/svg11.dtd">
<svg xmlns:xlink="http://www.w3.org/1999/xlink" width="864pt" height="324pt" viewBox="0 0 864 324" xmlns="http://www.w3.org/2000/svg" version="1.1">
 <metadata>
  <rdf:RDF xmlns:dc="http://purl.org/dc/elements/1.1/" xmlns:cc="http://creativecommons.org/ns#" xmlns:rdf="http://www.w3.org/1999/02/22-rdf-syntax-ns#">
   <cc:Work>
    <dc:type rdf:resource="http://purl.org/dc/dcmitype/StillImage"/>
    <dc:date>2025-11-26T15:28:01.689965</dc:date>
    <dc:format>image/svg+xml</dc:format>
    <dc:creator>
     <cc:Agent>
      <dc:title>Matplotlib v3.10.6, https://matplotlib.org/</dc:title>
     </cc:Agent>
    </dc:creator>
   </cc:Work>
  </rdf:RDF>
 </metadata>
 <defs>
  <style type="text/css">*{stroke-linejoin: round; stroke-linecap: butt}</style>
 </defs>
 <g id="figure_1">
  <g id="patch_1">
   <path d="M 0 324 
L 864 324 
L 864 0 
L 0 0 
z
" style="fill: #ffffff"/>
  </g>
  <g id="axes_1">
   <g id="patch_2">
    <path d="M 51.021474 275.716283 
L 417.35925 275.716283 
L 417.35925 20.803459 
L 51.021474 20.803459 
z
" style="fill: #ffffff"/>
   </g>
   <g id="matplotlib.axis_1">
    <g id="xtick_1">
     <g id="line2d_1">
      <path d="M 51.021474 275.716283 
L 51.021474 20.803459 
" clip-path="url(#pe2dbd3e801)" style="fill: none; stroke: #cccccc; stroke-opacity: 0.3; stroke-width: 1.5; stroke-linecap: round"/>
     </g>
     <g id="text_1">
      <!-- 0.0 -->
      <g style="fill: #262626" transform="translate(40.700724 298.845635) scale(0.1485 -0.1485)">
       <defs>
        <path id="ArialMT-30" d="M 266 2259 
Q 266 3072 433 3567 
Q 600 4063 929 4331 
Q 1259 4600 1759 4600 
Q 2128 4600 2406 4451 
Q 2684 4303 2865 4023 
Q 3047 3744 3150 3342 
Q 3253 2941 3253 2259 
Q 3253 1453 3087 958 
Q 2922 463 2592 192 
Q 2263 -78 1759 -78 
Q 1097 -78 719 397 
Q 266 969 266 2259 
z
M 844 2259 
Q 844 1131 1108 757 
Q 1372 384 1759 384 
Q 2147 384 2411 759 
Q 2675 1134 2675 2259 
Q 2675 3391 2411 3762 
Q 2147 4134 1753 4134 
Q 1366 4134 1134 3806 
Q 844 3388 844 2259 
z
" transform="scale(0.015625)"/>
        <path id="ArialMT-2e" d="M 581 0 
L 581 641 
L 1222 641 
L 1222 0 
L 581 0 
z
" transform="scale(0.015625)"/>
       </defs>
       <use xlink:href="#ArialMT-30"/>
       <use xlink:href="#ArialMT-2e" transform="translate(55.615234 0)"/>
       <use xlink:href="#ArialMT-30" transform="translate(83.398438 0)"/>
      </g>
     </g>
    </g>
    <g id="xtick_2">
     <g id="line2d_2">
      <path d="M 112.07777 275.716283 
L 112.07777 20.803459 
" clip-path="url(#pe2dbd3e801)" style="fill: none; stroke: #cccccc; stroke-opacity: 0.3; stroke-width: 1.5; stroke-linecap: round"/>
     </g>
     <g id="text_2">
      <!-- 0.2 -->
      <g style="fill: #262626" transform="translate(101.75702 298.845635) scale(0.1485 -0.1485)">
       <defs>
        <path id="ArialMT-32" d="M 3222 541 
L 3222 0 
L 194 0 
Q 188 203 259 391 
Q 375 700 629 1000 
Q 884 1300 1366 1694 
Q 2113 2306 2375 2664 
Q 2638 3022 2638 3341 
Q 2638 3675 2398 3904 
Q 2159 4134 1775 4134 
Q 1369 4134 1125 3890 
Q 881 3647 878 3216 
L 300 3275 
Q 359 3922 746 4261 
Q 1134 4600 1788 4600 
Q 2447 4600 2831 4234 
Q 3216 3869 3216 3328 
Q 3216 3053 3103 2787 
Q 2991 2522 2730 2228 
Q 2469 1934 1863 1422 
Q 1356 997 1212 845 
Q 1069 694 975 541 
L 3222 541 
z
" transform="scale(0.015625)"/>
       </defs>
       <use xlink:href="#ArialMT-30"/>
       <use xlink:href="#ArialMT-2e" transform="translate(55.615234 0)"/>
       <use xlink:href="#ArialMT-32" transform="translate(83.398438 0)"/>
      </g>
     </g>
    </g>
    <g id="xtick_3">
     <g id="line2d_3">
      <path d="M 173.134066 275.716283 
L 173.134066 20.803459 
" clip-path="url(#pe2dbd3e801)" style="fill: none; stroke: #cccccc; stroke-opacity: 0.3; stroke-width: 1.5; stroke-linecap: round"/>
     </g>
     <g id="text_3">
      <!-- 0.4 -->
      <g style="fill: #262626" transform="translate(162.813316 298.845635) scale(0.1485 -0.1485)">
       <defs>
        <path id="ArialMT-34" d="M 2069 0 
L 2069 1097 
L 81 1097 
L 81 1613 
L 2172 4581 
L 2631 4581 
L 2631 1613 
L 3250 1613 
L 3250 1097 
L 2631 1097 
L 2631 0 
L 2069 0 
z
M 2069 1613 
L 2069 3678 
L 634 1613 
L 2069 1613 
z
" transform="scale(0.015625)"/>
       </defs>
       <use xlink:href="#ArialMT-30"/>
       <use xlink:href="#ArialMT-2e" transform="translate(55.615234 0)"/>
       <use xlink:href="#ArialMT-34" transform="translate(83.398438 0)"/>
      </g>
     </g>
    </g>
    <g id="xtick_4">
     <g id="line2d_4">
      <path d="M 234.190362 275.716283 
L 234.190362 20.803459 
" clip-path="url(#pe2dbd3e801)" style="fill: none; stroke: #cccccc; stroke-opacity: 0.3; stroke-width: 1.5; stroke-linecap: round"/>
     </g>
     <g id="text_4">
      <!-- 0.6 -->
      <g style="fill: #262626" transform="translate(223.869612 298.845635) scale(0.1485 -0.1485)">
       <defs>
        <path id="ArialMT-36" d="M 3184 3459 
L 2625 3416 
Q 2550 3747 2413 3897 
Q 2184 4138 1850 4138 
Q 1581 4138 1378 3988 
Q 1113 3794 959 3422 
Q 806 3050 800 2363 
Q 1003 2672 1297 2822 
Q 1591 2972 1913 2972 
Q 2475 2972 2870 2558 
Q 3266 2144 3266 1488 
Q 3266 1056 3080 686 
Q 2894 316 2569 119 
Q 2244 -78 1831 -78 
Q 1128 -78 684 439 
Q 241 956 241 2144 
Q 241 3472 731 4075 
Q 1159 4600 1884 4600 
Q 2425 4600 2770 4297 
Q 3116 3994 3184 3459 
z
M 888 1484 
Q 888 1194 1011 928 
Q 1134 663 1356 523 
Q 1578 384 1822 384 
Q 2178 384 2434 671 
Q 2691 959 2691 1453 
Q 2691 1928 2437 2201 
Q 2184 2475 1800 2475 
Q 1419 2475 1153 2201 
Q 888 1928 888 1484 
z
" transform="scale(0.015625)"/>
       </defs>
       <use xlink:href="#ArialMT-30"/>
       <use xlink:href="#ArialMT-2e" transform="translate(55.615234 0)"/>
       <use xlink:href="#ArialMT-36" transform="translate(83.398438 0)"/>
      </g>
     </g>
    </g>
    <g id="xtick_5">
     <g id="line2d_5">
      <path d="M 295.246658 275.716283 
L 295.246658 20.803459 
" clip-path="url(#pe2dbd3e801)" style="fill: none; stroke: #cccccc; stroke-opacity: 0.3; stroke-width: 1.5; stroke-linecap: round"/>
     </g>
     <g id="text_5">
      <!-- 0.8 -->
      <g style="fill: #262626" transform="translate(284.925908 298.845635) scale(0.1485 -0.1485)">
       <defs>
        <path id="ArialMT-38" d="M 1131 2484 
Q 781 2613 612 2850 
Q 444 3088 444 3419 
Q 444 3919 803 4259 
Q 1163 4600 1759 4600 
Q 2359 4600 2725 4251 
Q 3091 3903 3091 3403 
Q 3091 3084 2923 2848 
Q 2756 2613 2416 2484 
Q 2838 2347 3058 2040 
Q 3278 1734 3278 1309 
Q 3278 722 2862 322 
Q 2447 -78 1769 -78 
Q 1091 -78 675 323 
Q 259 725 259 1325 
Q 259 1772 486 2073 
Q 713 2375 1131 2484 
z
M 1019 3438 
Q 1019 3113 1228 2906 
Q 1438 2700 1772 2700 
Q 2097 2700 2305 2904 
Q 2513 3109 2513 3406 
Q 2513 3716 2298 3927 
Q 2084 4138 1766 4138 
Q 1444 4138 1231 3931 
Q 1019 3725 1019 3438 
z
M 838 1322 
Q 838 1081 952 856 
Q 1066 631 1291 507 
Q 1516 384 1775 384 
Q 2178 384 2440 643 
Q 2703 903 2703 1303 
Q 2703 1709 2433 1975 
Q 2163 2241 1756 2241 
Q 1359 2241 1098 1978 
Q 838 1716 838 1322 
z
" transform="scale(0.015625)"/>
       </defs>
       <use xlink:href="#ArialMT-30"/>
       <use xlink:href="#ArialMT-2e" transform="translate(55.615234 0)"/>
       <use xlink:href="#ArialMT-38" transform="translate(83.398438 0)"/>
      </g>
     </g>
    </g>
    <g id="xtick_6">
     <g id="line2d_6">
      <path d="M 356.302954 275.716283 
L 356.302954 20.803459 
" clip-path="url(#pe2dbd3e801)" style="fill: none; stroke: #cccccc; stroke-opacity: 0.3; stroke-width: 1.5; stroke-linecap: round"/>
     </g>
     <g id="text_6">
      <!-- 1.0 -->
      <g style="fill: #262626" transform="translate(345.982204 298.845635) scale(0.1485 -0.1485)">
       <defs>
        <path id="ArialMT-31" d="M 2384 0 
L 1822 0 
L 1822 3584 
Q 1619 3391 1289 3197 
Q 959 3003 697 2906 
L 697 3450 
Q 1169 3672 1522 3987 
Q 1875 4303 2022 4600 
L 2384 4600 
L 2384 0 
z
" transform="scale(0.015625)"/>
       </defs>
       <use xlink:href="#ArialMT-31"/>
       <use xlink:href="#ArialMT-2e" transform="translate(55.615234 0)"/>
       <use xlink:href="#ArialMT-30" transform="translate(83.398438 0)"/>
      </g>
     </g>
    </g>
    <g id="xtick_7">
     <g id="line2d_7">
      <path d="M 417.35925 275.716283 
L 417.35925 20.803459 
" clip-path="url(#pe2dbd3e801)" style="fill: none; stroke: #cccccc; stroke-opacity: 0.3; stroke-width: 1.5; stroke-linecap: round"/>
     </g>
     <g id="text_7">
      <!-- 1.2 -->
      <g style="fill: #262626" transform="translate(407.0385 298.845635) scale(0.1485 -0.1485)">
       <use xlink:href="#ArialMT-31"/>
       <use xlink:href="#ArialMT-2e" transform="translate(55.615234 0)"/>
       <use xlink:href="#ArialMT-32" transform="translate(83.398438 0)"/>
      </g>
     </g>
    </g>
    <g id="text_8">
     <!-- Utilization (flow / NTC) -->
     <g style="fill: #262626" transform="translate(153.632065 317.590166) scale(0.162 -0.162)">
      <defs>
       <path id="ArialMT-55" d="M 3500 4581 
L 4106 4581 
L 4106 1934 
Q 4106 1244 3950 837 
Q 3794 431 3386 176 
Q 2978 -78 2316 -78 
Q 1672 -78 1262 144 
Q 853 366 678 786 
Q 503 1206 503 1934 
L 503 4581 
L 1109 4581 
L 1109 1938 
Q 1109 1341 1220 1058 
Q 1331 775 1601 622 
Q 1872 469 2263 469 
Q 2931 469 3215 772 
Q 3500 1075 3500 1938 
L 3500 4581 
z
" transform="scale(0.015625)"/>
       <path id="ArialMT-74" d="M 1650 503 
L 1731 6 
Q 1494 -44 1306 -44 
Q 1000 -44 831 53 
Q 663 150 594 308 
Q 525 466 525 972 
L 525 2881 
L 113 2881 
L 113 3319 
L 525 3319 
L 525 4141 
L 1084 4478 
L 1084 3319 
L 1650 3319 
L 1650 2881 
L 1084 2881 
L 1084 941 
Q 1084 700 1114 631 
Q 1144 563 1211 522 
Q 1278 481 1403 481 
Q 1497 481 1650 503 
z
" transform="scale(0.015625)"/>
       <path id="ArialMT-69" d="M 425 3934 
L 425 4581 
L 988 4581 
L 988 3934 
L 425 3934 
z
M 425 0 
L 425 3319 
L 988 3319 
L 988 0 
L 425 0 
z
" transform="scale(0.015625)"/>
       <path id="ArialMT-6c" d="M 409 0 
L 409 4581 
L 972 4581 
L 972 0 
L 409 0 
z
" transform="scale(0.015625)"/>
       <path id="ArialMT-7a" d="M 125 0 
L 125 456 
L 2238 2881 
Q 1878 2863 1603 2863 
L 250 2863 
L 250 3319 
L 2963 3319 
L 2963 2947 
L 1166 841 
L 819 456 
Q 1197 484 1528 484 
L 3063 484 
L 3063 0 
L 125 0 
z
" transform="scale(0.015625)"/>
       <path id="ArialMT-61" d="M 2588 409 
Q 2275 144 1986 34 
Q 1697 -75 1366 -75 
Q 819 -75 525 192 
Q 231 459 231 875 
Q 231 1119 342 1320 
Q 453 1522 633 1644 
Q 813 1766 1038 1828 
Q 1203 1872 1538 1913 
Q 2219 1994 2541 2106 
Q 2544 2222 2544 2253 
Q 2544 2597 2384 2738 
Q 2169 2928 1744 2928 
Q 1347 2928 1158 2789 
Q 969 2650 878 2297 
L 328 2372 
Q 403 2725 575 2942 
Q 747 3159 1072 3276 
Q 1397 3394 1825 3394 
Q 2250 3394 2515 3294 
Q 2781 3194 2906 3042 
Q 3031 2891 3081 2659 
Q 3109 2516 3109 2141 
L 3109 1391 
Q 3109 606 3145 398 
Q 3181 191 3288 0 
L 2700 0 
Q 2613 175 2588 409 
z
M 2541 1666 
Q 2234 1541 1622 1453 
Q 1275 1403 1131 1340 
Q 988 1278 909 1158 
Q 831 1038 831 891 
Q 831 666 1001 516 
Q 1172 366 1500 366 
Q 1825 366 2078 508 
Q 2331 650 2450 897 
Q 2541 1088 2541 1459 
L 2541 1666 
z
" transform="scale(0.015625)"/>
       <path id="ArialMT-6f" d="M 213 1659 
Q 213 2581 725 3025 
Q 1153 3394 1769 3394 
Q 2453 3394 2887 2945 
Q 3322 2497 3322 1706 
Q 3322 1066 3130 698 
Q 2938 331 2570 128 
Q 2203 -75 1769 -75 
Q 1072 -75 642 372 
Q 213 819 213 1659 
z
M 791 1659 
Q 791 1022 1069 705 
Q 1347 388 1769 388 
Q 2188 388 2466 706 
Q 2744 1025 2744 1678 
Q 2744 2294 2464 2611 
Q 2184 2928 1769 2928 
Q 1347 2928 1069 2612 
Q 791 2297 791 1659 
z
" transform="scale(0.015625)"/>
       <path id="ArialMT-6e" d="M 422 0 
L 422 3319 
L 928 3319 
L 928 2847 
Q 1294 3394 1984 3394 
Q 2284 3394 2536 3286 
Q 2788 3178 2913 3003 
Q 3038 2828 3088 2588 
Q 3119 2431 3119 2041 
L 3119 0 
L 2556 0 
L 2556 2019 
Q 2556 2363 2490 2533 
Q 2425 2703 2258 2804 
Q 2091 2906 1866 2906 
Q 1506 2906 1245 2678 
Q 984 2450 984 1813 
L 984 0 
L 422 0 
z
" transform="scale(0.015625)"/>
       <path id="ArialMT-20" transform="scale(0.015625)"/>
       <path id="ArialMT-28" d="M 1497 -1347 
Q 1031 -759 709 28 
Q 388 816 388 1659 
Q 388 2403 628 3084 
Q 909 3875 1497 4659 
L 1900 4659 
Q 1522 4009 1400 3731 
Q 1209 3300 1100 2831 
Q 966 2247 966 1656 
Q 966 153 1900 -1347 
L 1497 -1347 
z
" transform="scale(0.015625)"/>
       <path id="ArialMT-66" d="M 556 0 
L 556 2881 
L 59 2881 
L 59 3319 
L 556 3319 
L 556 3672 
Q 556 4006 616 4169 
Q 697 4388 901 4523 
Q 1106 4659 1475 4659 
Q 1713 4659 2000 4603 
L 1916 4113 
Q 1741 4144 1584 4144 
Q 1328 4144 1222 4034 
Q 1116 3925 1116 3625 
L 1116 3319 
L 1763 3319 
L 1763 2881 
L 1116 2881 
L 1116 0 
L 556 0 
z
" transform="scale(0.015625)"/>
       <path id="ArialMT-77" d="M 1034 0 
L 19 3319 
L 600 3319 
L 1128 1403 
L 1325 691 
Q 1338 744 1497 1375 
L 2025 3319 
L 2603 3319 
L 3100 1394 
L 3266 759 
L 3456 1400 
L 4025 3319 
L 4572 3319 
L 3534 0 
L 2950 0 
L 2422 1988 
L 2294 2553 
L 1622 0 
L 1034 0 
z
" transform="scale(0.015625)"/>
       <path id="ArialMT-2f" d="M 0 -78 
L 1328 4659 
L 1778 4659 
L 453 -78 
L 0 -78 
z
" transform="scale(0.015625)"/>
       <path id="ArialMT-4e" d="M 488 0 
L 488 4581 
L 1109 4581 
L 3516 984 
L 3516 4581 
L 4097 4581 
L 4097 0 
L 3475 0 
L 1069 3600 
L 1069 0 
L 488 0 
z
" transform="scale(0.015625)"/>
       <path id="ArialMT-54" d="M 1659 0 
L 1659 4041 
L 150 4041 
L 150 4581 
L 3781 4581 
L 3781 4041 
L 2266 4041 
L 2266 0 
L 1659 0 
z
" transform="scale(0.015625)"/>
       <path id="ArialMT-43" d="M 3763 1606 
L 4369 1453 
Q 4178 706 3683 314 
Q 3188 -78 2472 -78 
Q 1731 -78 1267 223 
Q 803 525 561 1097 
Q 319 1669 319 2325 
Q 319 3041 592 3573 
Q 866 4106 1370 4382 
Q 1875 4659 2481 4659 
Q 3169 4659 3637 4309 
Q 4106 3959 4291 3325 
L 3694 3184 
Q 3534 3684 3231 3912 
Q 2928 4141 2469 4141 
Q 1941 4141 1586 3887 
Q 1231 3634 1087 3207 
Q 944 2781 944 2328 
Q 944 1744 1114 1308 
Q 1284 872 1643 656 
Q 2003 441 2422 441 
Q 2931 441 3284 734 
Q 3638 1028 3763 1606 
z
" transform="scale(0.015625)"/>
       <path id="ArialMT-29" d="M 791 -1347 
L 388 -1347 
Q 1322 153 1322 1656 
Q 1322 2244 1188 2822 
Q 1081 3291 891 3722 
Q 769 4003 388 4659 
L 791 4659 
Q 1378 3875 1659 3084 
Q 1900 2403 1900 1659 
Q 1900 816 1576 28 
Q 1253 -759 791 -1347 
z
" transform="scale(0.015625)"/>
      </defs>
      <use xlink:href="#ArialMT-55"/>
      <use xlink:href="#ArialMT-74" transform="translate(72.216797 0)"/>
      <use xlink:href="#ArialMT-69" transform="translate(100 0)"/>
      <use xlink:href="#ArialMT-6c" transform="translate(122.216797 0)"/>
      <use xlink:href="#ArialMT-69" transform="translate(144.433594 0)"/>
      <use xlink:href="#ArialMT-7a" transform="translate(166.650391 0)"/>
      <use xlink:href="#ArialMT-61" transform="translate(216.650391 0)"/>
      <use xlink:href="#ArialMT-74" transform="translate(272.265625 0)"/>
      <use xlink:href="#ArialMT-69" transform="translate(300.048828 0)"/>
      <use xlink:href="#ArialMT-6f" transform="translate(322.265625 0)"/>
      <use xlink:href="#ArialMT-6e" transform="translate(377.880859 0)"/>
      <use xlink:href="#ArialMT-20" transform="translate(433.496094 0)"/>
      <use xlink:href="#ArialMT-28" transform="translate(461.279297 0)"/>
      <use xlink:href="#ArialMT-66" transform="translate(494.580078 0)"/>
      <use xlink:href="#ArialMT-6c" transform="translate(522.363281 0)"/>
      <use xlink:href="#ArialMT-6f" transform="translate(544.580078 0)"/>
      <use xlink:href="#ArialMT-77" transform="translate(600.195312 0)"/>
      <use xlink:href="#ArialMT-20" transform="translate(672.412109 0)"/>
      <use xlink:href="#ArialMT-2f" transform="translate(700.195312 0)"/>
      <use xlink:href="#ArialMT-20" transform="translate(727.978516 0)"/>
      <use xlink:href="#ArialMT-4e" transform="translate(755.761719 0)"/>
      <use xlink:href="#ArialMT-54" transform="translate(827.978516 0)"/>
      <use xlink:href="#ArialMT-43" transform="translate(889.0625 0)"/>
      <use xlink:href="#ArialMT-29" transform="translate(961.279297 0)"/>
     </g>
    </g>
   </g>
   <g id="matplotlib.axis_2">
    <g id="ytick_1">
     <g id="line2d_8">
      <path d="M 51.021474 275.716283 
L 417.35925 275.716283 
" clip-path="url(#pe2dbd3e801)" style="fill: none; stroke: #cccccc; stroke-opacity: 0.3; stroke-width: 1.5; stroke-linecap: round"/>
     </g>
     <g id="text_9">
      <!-- 0 -->
      <g style="fill: #262626" transform="translate(30.263482 281.030959) scale(0.1485 -0.1485)">
       <use xlink:href="#ArialMT-30"/>
      </g>
     </g>
    </g>
    <g id="ytick_2">
     <g id="line2d_9">
      <path d="M 51.021474 227.807396 
L 417.35925 227.807396 
" clip-path="url(#pe2dbd3e801)" style="fill: none; stroke: #cccccc; stroke-opacity: 0.3; stroke-width: 1.5; stroke-linecap: round"/>
     </g>
     <g id="text_10">
      <!-- 2 -->
      <g style="fill: #262626" transform="translate(30.263482 233.122072) scale(0.1485 -0.1485)">
       <use xlink:href="#ArialMT-32"/>
      </g>
     </g>
    </g>
    <g id="ytick_3">
     <g id="line2d_10">
      <path d="M 51.021474 179.898508 
L 417.35925 179.898508 
" clip-path="url(#pe2dbd3e801)" style="fill: none; stroke: #cccccc; stroke-opacity: 0.3; stroke-width: 1.5; stroke-linecap: round"/>
     </g>
     <g id="text_11">
      <!-- 4 -->
      <g style="fill: #262626" transform="translate(30.263482 185.213184) scale(0.1485 -0.1485)">
       <use xlink:href="#ArialMT-34"/>
      </g>
     </g>
    </g>
    <g id="ytick_4">
     <g id="line2d_11">
      <path d="M 51.021474 131.989621 
L 417.35925 131.989621 
" clip-path="url(#pe2dbd3e801)" style="fill: none; stroke: #cccccc; stroke-opacity: 0.3; stroke-width: 1.5; stroke-linecap: round"/>
     </g>
     <g id="text_12">
      <!-- 6 -->
      <g style="fill: #262626" transform="translate(30.263482 137.304297) scale(0.1485 -0.1485)">
       <use xlink:href="#ArialMT-36"/>
      </g>
     </g>
    </g>
    <g id="ytick_5">
     <g id="line2d_12">
      <path d="M 51.021474 84.080733 
L 417.35925 84.080733 
" clip-path="url(#pe2dbd3e801)" style="fill: none; stroke: #cccccc; stroke-opacity: 0.3; stroke-width: 1.5; stroke-linecap: round"/>
     </g>
     <g id="text_13">
      <!-- 8 -->
      <g style="fill: #262626" transform="translate(30.263482 89.395409) scale(0.1485 -0.1485)">
       <use xlink:href="#ArialMT-38"/>
      </g>
     </g>
    </g>
    <g id="ytick_6">
     <g id="line2d_13">
      <path d="M 51.021474 36.171846 
L 417.35925 36.171846 
" clip-path="url(#pe2dbd3e801)" style="fill: none; stroke: #cccccc; stroke-opacity: 0.3; stroke-width: 1.5; stroke-linecap: round"/>
     </g>
     <g id="text_14">
      <!-- 10 -->
      <g style="fill: #262626" transform="translate(22.00549 41.486522) scale(0.1485 -0.1485)">
       <use xlink:href="#ArialMT-31"/>
       <use xlink:href="#ArialMT-30" transform="translate(55.615234 0)"/>
      </g>
     </g>
    </g>
    <g id="text_15">
     <!-- Density -->
     <g style="fill: #262626" transform="translate(14.595896 175.268309) rotate(-90) scale(0.162 -0.162)">
      <defs>
       <path id="ArialMT-44" d="M 494 0 
L 494 4581 
L 2072 4581 
Q 2606 4581 2888 4516 
Q 3281 4425 3559 4188 
Q 3922 3881 4101 3404 
Q 4281 2928 4281 2316 
Q 4281 1794 4159 1391 
Q 4038 988 3847 723 
Q 3656 459 3429 307 
Q 3203 156 2883 78 
Q 2563 0 2147 0 
L 494 0 
z
M 1100 541 
L 2078 541 
Q 2531 541 2789 625 
Q 3047 709 3200 863 
Q 3416 1078 3536 1442 
Q 3656 1806 3656 2325 
Q 3656 3044 3420 3430 
Q 3184 3816 2847 3947 
Q 2603 4041 2063 4041 
L 1100 4041 
L 1100 541 
z
" transform="scale(0.015625)"/>
       <path id="ArialMT-65" d="M 2694 1069 
L 3275 997 
Q 3138 488 2766 206 
Q 2394 -75 1816 -75 
Q 1088 -75 661 373 
Q 234 822 234 1631 
Q 234 2469 665 2931 
Q 1097 3394 1784 3394 
Q 2450 3394 2872 2941 
Q 3294 2488 3294 1666 
Q 3294 1616 3291 1516 
L 816 1516 
Q 847 969 1125 678 
Q 1403 388 1819 388 
Q 2128 388 2347 550 
Q 2566 713 2694 1069 
z
M 847 1978 
L 2700 1978 
Q 2663 2397 2488 2606 
Q 2219 2931 1791 2931 
Q 1403 2931 1139 2672 
Q 875 2413 847 1978 
z
" transform="scale(0.015625)"/>
       <path id="ArialMT-73" d="M 197 991 
L 753 1078 
Q 800 744 1014 566 
Q 1228 388 1613 388 
Q 2000 388 2187 545 
Q 2375 703 2375 916 
Q 2375 1106 2209 1216 
Q 2094 1291 1634 1406 
Q 1016 1563 777 1677 
Q 538 1791 414 1992 
Q 291 2194 291 2438 
Q 291 2659 392 2848 
Q 494 3038 669 3163 
Q 800 3259 1026 3326 
Q 1253 3394 1513 3394 
Q 1903 3394 2198 3281 
Q 2494 3169 2634 2976 
Q 2775 2784 2828 2463 
L 2278 2388 
Q 2241 2644 2061 2787 
Q 1881 2931 1553 2931 
Q 1166 2931 1000 2803 
Q 834 2675 834 2503 
Q 834 2394 903 2306 
Q 972 2216 1119 2156 
Q 1203 2125 1616 2013 
Q 2213 1853 2448 1751 
Q 2684 1650 2818 1456 
Q 2953 1263 2953 975 
Q 2953 694 2789 445 
Q 2625 197 2315 61 
Q 2006 -75 1616 -75 
Q 969 -75 630 194 
Q 291 463 197 991 
z
" transform="scale(0.015625)"/>
       <path id="ArialMT-79" d="M 397 -1278 
L 334 -750 
Q 519 -800 656 -800 
Q 844 -800 956 -737 
Q 1069 -675 1141 -563 
Q 1194 -478 1313 -144 
Q 1328 -97 1363 -6 
L 103 3319 
L 709 3319 
L 1400 1397 
Q 1534 1031 1641 628 
Q 1738 1016 1872 1384 
L 2581 3319 
L 3144 3319 
L 1881 -56 
Q 1678 -603 1566 -809 
Q 1416 -1088 1222 -1217 
Q 1028 -1347 759 -1347 
Q 597 -1347 397 -1278 
z
" transform="scale(0.015625)"/>
      </defs>
      <use xlink:href="#ArialMT-44"/>
      <use xlink:href="#ArialMT-65" transform="translate(72.216797 0)"/>
      <use xlink:href="#ArialMT-6e" transform="translate(127.832031 0)"/>
      <use xlink:href="#ArialMT-73" transform="translate(183.447266 0)"/>
      <use xlink:href="#ArialMT-69" transform="translate(233.447266 0)"/>
      <use xlink:href="#ArialMT-74" transform="translate(255.664062 0)"/>
      <use xlink:href="#ArialMT-79" transform="translate(283.447266 0)"/>
     </g>
    </g>
   </g>
   <g id="patch_3">
    <path d="M 51.021474 275.716283 
L 60.179919 275.716283 
L 60.179919 32.942165 
L 51.021474 32.942165 
z
" clip-path="url(#pe2dbd3e801)" style="fill: #4c72b0; fill-opacity: 0.85; stroke: #ffffff; stroke-width: 0.691736; stroke-linejoin: miter"/>
   </g>
   <g id="patch_4">
    <path d="M 60.179919 275.716283 
L 69.338363 275.716283 
L 69.338363 260.286396 
L 60.179919 260.286396 
z
" clip-path="url(#pe2dbd3e801)" style="fill: #4c72b0; fill-opacity: 0.85; stroke: #ffffff; stroke-width: 0.691736; stroke-linejoin: miter"/>
   </g>
   <g id="patch_5">
    <path d="M 69.338363 275.716283 
L 78.496808 275.716283 
L 78.496808 261.017093 
L 69.338363 261.017093 
z
" clip-path="url(#pe2dbd3e801)" style="fill: #4c72b0; fill-opacity: 0.85; stroke: #ffffff; stroke-width: 0.691736; stroke-linejoin: miter"/>
   </g>
   <g id="patch_6">
    <path d="M 78.496808 275.716283 
L 87.655252 275.716283 
L 87.655252 262.052247 
L 78.496808 262.052247 
z
" clip-path="url(#pe2dbd3e801)" style="fill: #4c72b0; fill-opacity: 0.85; stroke: #ffffff; stroke-width: 0.691736; stroke-linejoin: miter"/>
   </g>
   <g id="patch_7">
    <path d="M 87.655252 275.716283 
L 96.813696 275.716283 
L 96.813696 261.297194 
L 87.655252 261.297194 
z
" clip-path="url(#pe2dbd3e801)" style="fill: #4c72b0; fill-opacity: 0.85; stroke: #ffffff; stroke-width: 0.691736; stroke-linejoin: miter"/>
   </g>
   <g id="patch_8">
    <path d="M 96.813696 275.716283 
L 105.972141 275.716283 
L 105.972141 259.738373 
L 96.813696 259.738373 
z
" clip-path="url(#pe2dbd3e801)" style="fill: #4c72b0; fill-opacity: 0.85; stroke: #ffffff; stroke-width: 0.691736; stroke-linejoin: miter"/>
   </g>
   <g id="patch_9">
    <path d="M 105.972141 275.716283 
L 115.130585 275.716283 
L 115.130585 260.310752 
L 105.972141 260.310752 
z
" clip-path="url(#pe2dbd3e801)" style="fill: #4c72b0; fill-opacity: 0.85; stroke: #ffffff; stroke-width: 0.691736; stroke-linejoin: miter"/>
   </g>
   <g id="patch_10">
    <path d="M 115.130585 275.716283 
L 124.289029 275.716283 
L 124.289029 259.628768 
L 115.130585 259.628768 
z
" clip-path="url(#pe2dbd3e801)" style="fill: #4c72b0; fill-opacity: 0.85; stroke: #ffffff; stroke-width: 0.691736; stroke-linejoin: miter"/>
   </g>
   <g id="patch_11">
    <path d="M 124.289029 275.716283 
L 133.447474 275.716283 
L 133.447474 259.33649 
L 124.289029 259.33649 
z
" clip-path="url(#pe2dbd3e801)" style="fill: #4c72b0; fill-opacity: 0.85; stroke: #ffffff; stroke-width: 0.691736; stroke-linejoin: miter"/>
   </g>
   <g id="patch_12">
    <path d="M 133.447474 275.716283 
L 142.605918 275.716283 
L 142.605918 259.823621 
L 133.447474 259.823621 
z
" clip-path="url(#pe2dbd3e801)" style="fill: #4c72b0; fill-opacity: 0.85; stroke: #ffffff; stroke-width: 0.691736; stroke-linejoin: miter"/>
   </g>
   <g id="patch_13">
    <path d="M 142.605918 275.716283 
L 151.764363 275.716283 
L 151.764363 259.604412 
L 142.605918 259.604412 
z
" clip-path="url(#pe2dbd3e801)" style="fill: #4c72b0; fill-opacity: 0.85; stroke: #ffffff; stroke-width: 0.691736; stroke-linejoin: miter"/>
   </g>
   <g id="patch_14">
    <path d="M 151.764363 275.716283 
L 160.922807 275.716283 
L 160.922807 257.668065 
L 151.764363 257.668065 
z
" clip-path="url(#pe2dbd3e801)" style="fill: #4c72b0; fill-opacity: 0.85; stroke: #ffffff; stroke-width: 0.691736; stroke-linejoin: miter"/>
   </g>
   <g id="patch_15">
    <path d="M 160.922807 275.716283 
L 170.081251 275.716283 
L 170.081251 258.69104 
L 160.922807 258.69104 
z
" clip-path="url(#pe2dbd3e801)" style="fill: #4c72b0; fill-opacity: 0.85; stroke: #ffffff; stroke-width: 0.691736; stroke-linejoin: miter"/>
   </g>
   <g id="patch_16">
    <path d="M 170.081251 275.716283 
L 179.239696 275.716283 
L 179.239696 257.546282 
L 170.081251 257.546282 
z
" clip-path="url(#pe2dbd3e801)" style="fill: #4c72b0; fill-opacity: 0.85; stroke: #ffffff; stroke-width: 0.691736; stroke-linejoin: miter"/>
   </g>
   <g id="patch_17">
    <path d="M 179.239696 275.716283 
L 188.39814 275.716283 
L 188.39814 255.78043 
L 179.239696 255.78043 
z
" clip-path="url(#pe2dbd3e801)" style="fill: #4c72b0; fill-opacity: 0.85; stroke: #ffffff; stroke-width: 0.691736; stroke-linejoin: miter"/>
   </g>
   <g id="patch_18">
    <path d="M 188.39814 275.716283 
L 197.556585 275.716283 
L 197.556585 258.459653 
L 188.39814 258.459653 
z
" clip-path="url(#pe2dbd3e801)" style="fill: #4c72b0; fill-opacity: 0.85; stroke: #ffffff; stroke-width: 0.691736; stroke-linejoin: miter"/>
   </g>
   <g id="patch_19">
    <path d="M 197.556585 275.716283 
L 206.715029 275.716283 
L 206.715029 257.351429 
L 197.556585 257.351429 
z
" clip-path="url(#pe2dbd3e801)" style="fill: #4c72b0; fill-opacity: 0.85; stroke: #ffffff; stroke-width: 0.691736; stroke-linejoin: miter"/>
   </g>
   <g id="patch_20">
    <path d="M 206.715029 275.716283 
L 215.873473 275.716283 
L 215.873473 256.413701 
L 206.715029 256.413701 
z
" clip-path="url(#pe2dbd3e801)" style="fill: #4c72b0; fill-opacity: 0.85; stroke: #ffffff; stroke-width: 0.691736; stroke-linejoin: miter"/>
   </g>
   <g id="patch_21">
    <path d="M 215.873473 275.716283 
L 225.031918 275.716283 
L 225.031918 254.684385 
L 215.873473 254.684385 
z
" clip-path="url(#pe2dbd3e801)" style="fill: #4c72b0; fill-opacity: 0.85; stroke: #ffffff; stroke-width: 0.691736; stroke-linejoin: miter"/>
   </g>
   <g id="patch_22">
    <path d="M 225.031918 275.716283 
L 234.190362 275.716283 
L 234.190362 253.600517 
L 225.031918 253.600517 
z
" clip-path="url(#pe2dbd3e801)" style="fill: #4c72b0; fill-opacity: 0.85; stroke: #ffffff; stroke-width: 0.691736; stroke-linejoin: miter"/>
   </g>
   <g id="patch_23">
    <path d="M 234.190362 275.716283 
L 243.348807 275.716283 
L 243.348807 252.833285 
L 234.190362 252.833285 
z
" clip-path="url(#pe2dbd3e801)" style="fill: #4c72b0; fill-opacity: 0.85; stroke: #ffffff; stroke-width: 0.691736; stroke-linejoin: miter"/>
   </g>
   <g id="patch_24">
    <path d="M 243.348807 275.716283 
L 252.507251 275.716283 
L 252.507251 252.419224 
L 243.348807 252.419224 
z
" clip-path="url(#pe2dbd3e801)" style="fill: #4c72b0; fill-opacity: 0.85; stroke: #ffffff; stroke-width: 0.691736; stroke-linejoin: miter"/>
   </g>
   <g id="patch_25">
    <path d="M 252.507251 275.716283 
L 261.665695 275.716283 
L 261.665695 251.980805 
L 252.507251 251.980805 
z
" clip-path="url(#pe2dbd3e801)" style="fill: #4c72b0; fill-opacity: 0.85; stroke: #ffffff; stroke-width: 0.691736; stroke-linejoin: miter"/>
   </g>
   <g id="patch_26">
    <path d="M 261.665695 275.716283 
L 270.82414 275.716283 
L 270.82414 251.907736 
L 261.665695 251.907736 
z
" clip-path="url(#pe2dbd3e801)" style="fill: #4c72b0; fill-opacity: 0.85; stroke: #ffffff; stroke-width: 0.691736; stroke-linejoin: miter"/>
   </g>
   <g id="patch_27">
    <path d="M 270.82414 275.716283 
L 279.982584 275.716283 
L 279.982584 253.076851 
L 270.82414 253.076851 
z
" clip-path="url(#pe2dbd3e801)" style="fill: #4c72b0; fill-opacity: 0.85; stroke: #ffffff; stroke-width: 0.691736; stroke-linejoin: miter"/>
   </g>
   <g id="patch_28">
    <path d="M 279.982584 275.716283 
L 289.141029 275.716283 
L 289.141029 254.063292 
L 279.982584 254.063292 
z
" clip-path="url(#pe2dbd3e801)" style="fill: #4c72b0; fill-opacity: 0.85; stroke: #ffffff; stroke-width: 0.691736; stroke-linejoin: miter"/>
   </g>
   <g id="patch_29">
    <path d="M 289.141029 275.716283 
L 298.299473 275.716283 
L 298.299473 255.670826 
L 289.141029 255.670826 
z
" clip-path="url(#pe2dbd3e801)" style="fill: #4c72b0; fill-opacity: 0.85; stroke: #ffffff; stroke-width: 0.691736; stroke-linejoin: miter"/>
   </g>
   <g id="patch_30">
    <path d="M 298.299473 275.716283 
L 307.457917 275.716283 
L 307.457917 257.692421 
L 298.299473 257.692421 
z
" clip-path="url(#pe2dbd3e801)" style="fill: #4c72b0; fill-opacity: 0.85; stroke: #ffffff; stroke-width: 0.691736; stroke-linejoin: miter"/>
   </g>
   <g id="patch_31">
    <path d="M 307.457917 275.716283 
L 316.616362 275.716283 
L 316.616362 260.396 
L 307.457917 260.396 
z
" clip-path="url(#pe2dbd3e801)" style="fill: #4c72b0; fill-opacity: 0.85; stroke: #ffffff; stroke-width: 0.691736; stroke-linejoin: miter"/>
   </g>
   <g id="patch_32">
    <path d="M 316.616362 275.716283 
L 325.774806 275.716283 
L 325.774806 263.501463 
L 316.616362 263.501463 
z
" clip-path="url(#pe2dbd3e801)" style="fill: #4c72b0; fill-opacity: 0.85; stroke: #ffffff; stroke-width: 0.691736; stroke-linejoin: miter"/>
   </g>
   <g id="patch_33">
    <path d="M 325.774806 275.716283 
L 334.93325 275.716283 
L 334.93325 265.474345 
L 325.774806 265.474345 
z
" clip-path="url(#pe2dbd3e801)" style="fill: #4c72b0; fill-opacity: 0.85; stroke: #ffffff; stroke-width: 0.691736; stroke-linejoin: miter"/>
   </g>
   <g id="patch_34">
    <path d="M 334.93325 275.716283 
L 344.091695 275.716283 
L 344.091695 268.482382 
L 334.93325 268.482382 
z
" clip-path="url(#pe2dbd3e801)" style="fill: #4c72b0; fill-opacity: 0.85; stroke: #ffffff; stroke-width: 0.691736; stroke-linejoin: miter"/>
   </g>
   <g id="patch_35">
    <path d="M 344.091695 275.716283 
L 353.250139 275.716283 
L 353.250139 271.733984 
L 344.091695 271.733984 
z
" clip-path="url(#pe2dbd3e801)" style="fill: #4c72b0; fill-opacity: 0.85; stroke: #ffffff; stroke-width: 0.691736; stroke-linejoin: miter"/>
   </g>
   <g id="patch_36">
    <path d="M 353.250139 275.716283 
L 362.408584 275.716283 
L 362.408584 273.986967 
L 353.250139 273.986967 
z
" clip-path="url(#pe2dbd3e801)" style="fill: #4c72b0; fill-opacity: 0.85; stroke: #ffffff; stroke-width: 0.691736; stroke-linejoin: miter"/>
   </g>
   <g id="patch_37">
    <path d="M 362.408584 275.716283 
L 371.567028 275.716283 
L 371.567028 274.413207 
L 362.408584 274.413207 
z
" clip-path="url(#pe2dbd3e801)" style="fill: #4c72b0; fill-opacity: 0.85; stroke: #ffffff; stroke-width: 0.691736; stroke-linejoin: miter"/>
   </g>
   <g id="patch_38">
    <path d="M 371.567028 275.716283 
L 380.725472 275.716283 
L 380.725472 274.668951 
L 371.567028 274.668951 
z
" clip-path="url(#pe2dbd3e801)" style="fill: #4c72b0; fill-opacity: 0.85; stroke: #ffffff; stroke-width: 0.691736; stroke-linejoin: miter"/>
   </g>
   <g id="patch_39">
    <path d="M 380.725472 275.716283 
L 389.883917 275.716283 
L 389.883917 275.119547 
L 380.725472 275.119547 
z
" clip-path="url(#pe2dbd3e801)" style="fill: #4c72b0; fill-opacity: 0.85; stroke: #ffffff; stroke-width: 0.691736; stroke-linejoin: miter"/>
   </g>
   <g id="patch_40">
    <path d="M 389.883917 275.716283 
L 399.042361 275.716283 
L 399.042361 275.399648 
L 389.883917 275.399648 
z
" clip-path="url(#pe2dbd3e801)" style="fill: #4c72b0; fill-opacity: 0.85; stroke: #ffffff; stroke-width: 0.691736; stroke-linejoin: miter"/>
   </g>
   <g id="patch_41">
    <path d="M 399.042361 275.716283 
L 408.200806 275.716283 
L 408.200806 275.570144 
L 399.042361 275.570144 
z
" clip-path="url(#pe2dbd3e801)" style="fill: #4c72b0; fill-opacity: 0.85; stroke: #ffffff; stroke-width: 0.691736; stroke-linejoin: miter"/>
   </g>
   <g id="patch_42">
    <path d="M 408.200806 275.716283 
L 417.35925 275.716283 
L 417.35925 275.545787 
L 408.200806 275.545787 
z
" clip-path="url(#pe2dbd3e801)" style="fill: #4c72b0; fill-opacity: 0.85; stroke: #ffffff; stroke-width: 0.691736; stroke-linejoin: miter"/>
   </g>
   <g id="line2d_14">
    <path d="M 51.021474 189.055327 
L 52.862368 189.21329 
L 54.703261 191.69827 
L 56.544154 196.231449 
L 58.385048 202.373603 
L 60.225941 209.588083 
L 65.748621 232.288036 
L 67.589514 238.799135 
L 69.430408 244.375331 
L 71.271301 248.954654 
L 73.112195 252.569582 
L 74.953088 255.317225 
L 76.793981 257.32983 
L 78.634875 258.749999 
L 80.475768 259.712884 
L 82.316661 260.335652 
L 84.157555 260.713193 
L 85.998448 260.918332 
L 89.680235 261.010755 
L 95.202915 260.782565 
L 108.089168 260.106688 
L 120.975421 259.74321 
L 146.747928 259.116429 
L 181.724902 257.261971 
L 189.088475 257.27655 
L 196.452049 257.273508 
L 201.974729 257.014718 
L 207.497409 256.509967 
L 218.542769 255.167775 
L 229.588129 253.910358 
L 238.792596 253.095752 
L 247.997062 252.459355 
L 253.519742 252.231094 
L 259.042422 252.199571 
L 264.565102 252.38197 
L 271.928676 252.900196 
L 279.292249 253.667877 
L 286.655823 254.697695 
L 292.178503 255.668542 
L 297.701183 256.816865 
L 305.064756 258.603807 
L 314.269223 261.136877 
L 332.678156 266.536585 
L 345.56441 270.359632 
L 351.08709 271.770186 
L 356.60977 272.892658 
L 362.13245 273.693618 
L 367.65513 274.220799 
L 375.018703 274.660452 
L 387.904956 275.149841 
L 402.632103 275.479693 
L 417.35925 275.625557 
L 417.35925 275.625557 
" clip-path="url(#pe2dbd3e801)" style="fill: none; stroke: #4c72b0; stroke-width: 2.25; stroke-linecap: round"/>
   </g>
   <g id="patch_43">
    <path d="M 51.021474 275.716283 
L 51.021474 20.803459 
" style="fill: none; stroke: #cccccc; stroke-width: 1.875; stroke-linejoin: miter; stroke-linecap: square"/>
   </g>
   <g id="patch_44">
    <path d="M 417.35925 275.716283 
L 417.35925 20.803459 
" style="fill: none; stroke: #cccccc; stroke-width: 1.875; stroke-linejoin: miter; stroke-linecap: square"/>
   </g>
   <g id="patch_45">
    <path d="M 51.021474 275.716283 
L 417.35925 275.716283 
" style="fill: none; stroke: #cccccc; stroke-width: 1.875; stroke-linejoin: miter; stroke-linecap: square"/>
   </g>
   <g id="patch_46">
    <path d="M 51.021474 20.803459 
L 417.35925 20.803459 
" style="fill: none; stroke: #cccccc; stroke-width: 1.875; stroke-linejoin: miter; stroke-linecap: square"/>
   </g>
   <g id="text_16">
    <!-- Export utilization — NO2 -->
    <g style="fill: #262626" transform="translate(145.509284 14.803459) scale(0.162 -0.162)">
     <defs>
      <path id="ArialMT-45" d="M 506 0 
L 506 4581 
L 3819 4581 
L 3819 4041 
L 1113 4041 
L 1113 2638 
L 3647 2638 
L 3647 2100 
L 1113 2100 
L 1113 541 
L 3925 541 
L 3925 0 
L 506 0 
z
" transform="scale(0.015625)"/>
      <path id="ArialMT-78" d="M 47 0 
L 1259 1725 
L 138 3319 
L 841 3319 
L 1350 2541 
Q 1494 2319 1581 2169 
Q 1719 2375 1834 2534 
L 2394 3319 
L 3066 3319 
L 1919 1756 
L 3153 0 
L 2463 0 
L 1781 1031 
L 1600 1309 
L 728 0 
L 47 0 
z
" transform="scale(0.015625)"/>
      <path id="ArialMT-70" d="M 422 -1272 
L 422 3319 
L 934 3319 
L 934 2888 
Q 1116 3141 1344 3267 
Q 1572 3394 1897 3394 
Q 2322 3394 2647 3175 
Q 2972 2956 3137 2557 
Q 3303 2159 3303 1684 
Q 3303 1175 3120 767 
Q 2938 359 2589 142 
Q 2241 -75 1856 -75 
Q 1575 -75 1351 44 
Q 1128 163 984 344 
L 984 -1272 
L 422 -1272 
z
M 931 1641 
Q 931 1000 1190 694 
Q 1450 388 1819 388 
Q 2194 388 2461 705 
Q 2728 1022 2728 1688 
Q 2728 2322 2467 2637 
Q 2206 2953 1844 2953 
Q 1484 2953 1207 2617 
Q 931 2281 931 1641 
z
" transform="scale(0.015625)"/>
      <path id="ArialMT-72" d="M 416 0 
L 416 3319 
L 922 3319 
L 922 2816 
Q 1116 3169 1280 3281 
Q 1444 3394 1641 3394 
Q 1925 3394 2219 3213 
L 2025 2691 
Q 1819 2813 1613 2813 
Q 1428 2813 1281 2702 
Q 1134 2591 1072 2394 
Q 978 2094 978 1738 
L 978 0 
L 416 0 
z
" transform="scale(0.015625)"/>
      <path id="ArialMT-75" d="M 2597 0 
L 2597 488 
Q 2209 -75 1544 -75 
Q 1250 -75 995 37 
Q 741 150 617 320 
Q 494 491 444 738 
Q 409 903 409 1263 
L 409 3319 
L 972 3319 
L 972 1478 
Q 972 1038 1006 884 
Q 1059 663 1231 536 
Q 1403 409 1656 409 
Q 1909 409 2131 539 
Q 2353 669 2445 892 
Q 2538 1116 2538 1541 
L 2538 3319 
L 3100 3319 
L 3100 0 
L 2597 0 
z
" transform="scale(0.015625)"/>
      <path id="ArialMT-2014" d="M 0 1431 
L 0 1884 
L 6400 1884 
L 6400 1431 
L 0 1431 
z
" transform="scale(0.015625)"/>
      <path id="ArialMT-4f" d="M 309 2231 
Q 309 3372 921 4017 
Q 1534 4663 2503 4663 
Q 3138 4663 3647 4359 
Q 4156 4056 4423 3514 
Q 4691 2972 4691 2284 
Q 4691 1588 4409 1038 
Q 4128 488 3612 205 
Q 3097 -78 2500 -78 
Q 1853 -78 1343 234 
Q 834 547 571 1087 
Q 309 1628 309 2231 
z
M 934 2222 
Q 934 1394 1379 917 
Q 1825 441 2497 441 
Q 3181 441 3623 922 
Q 4066 1403 4066 2288 
Q 4066 2847 3877 3264 
Q 3688 3681 3323 3911 
Q 2959 4141 2506 4141 
Q 1863 4141 1398 3698 
Q 934 3256 934 2222 
z
" transform="scale(0.015625)"/>
     </defs>
     <use xlink:href="#ArialMT-45"/>
     <use xlink:href="#ArialMT-78" transform="translate(66.699219 0)"/>
     <use xlink:href="#ArialMT-70" transform="translate(116.699219 0)"/>
     <use xlink:href="#ArialMT-6f" transform="translate(172.314453 0)"/>
     <use xlink:href="#ArialMT-72" transform="translate(227.929688 0)"/>
     <use xlink:href="#ArialMT-74" transform="translate(261.230469 0)"/>
     <use xlink:href="#ArialMT-20" transform="translate(289.013672 0)"/>
     <use xlink:href="#ArialMT-75" transform="translate(316.796875 0)"/>
     <use xlink:href="#ArialMT-74" transform="translate(372.412109 0)"/>
     <use xlink:href="#ArialMT-69" transform="translate(400.195312 0)"/>
     <use xlink:href="#ArialMT-6c" transform="translate(422.412109 0)"/>
     <use xlink:href="#ArialMT-69" transform="translate(444.628906 0)"/>
     <use xlink:href="#ArialMT-7a" transform="translate(466.845703 0)"/>
     <use xlink:href="#ArialMT-61" transform="translate(516.845703 0)"/>
     <use xlink:href="#ArialMT-74" transform="translate(572.460938 0)"/>
     <use xlink:href="#ArialMT-69" transform="translate(600.244141 0)"/>
     <use xlink:href="#ArialMT-6f" transform="translate(622.460938 0)"/>
     <use xlink:href="#ArialMT-6e" transform="translate(678.076172 0)"/>
     <use xlink:href="#ArialMT-20" transform="translate(733.691406 0)"/>
     <use xlink:href="#ArialMT-2014" transform="translate(761.474609 0)"/>
     <use xlink:href="#ArialMT-20" transform="translate(861.474609 0)"/>
     <use xlink:href="#ArialMT-4e" transform="translate(889.257812 0)"/>
     <use xlink:href="#ArialMT-4f" transform="translate(961.474609 0)"/>
     <use xlink:href="#ArialMT-32" transform="translate(1039.257812 0)"/>
    </g>
   </g>
  </g>
  <g id="axes_2">
   <g id="patch_47">
    <path d="M 484.341234 275.716283 
L 850.67901 275.716283 
L 850.67901 20.803459 
L 484.341234 20.803459 
z
" style="fill: #ffffff"/>
   </g>
   <g id="matplotlib.axis_3">
    <g id="xtick_8">
     <g id="line2d_15">
      <path d="M 484.341234 275.716283 
L 484.341234 20.803459 
" clip-path="url(#pf71c0e90bc)" style="fill: none; stroke: #cccccc; stroke-opacity: 0.3; stroke-width: 1.5; stroke-linecap: round"/>
     </g>
     <g id="text_17">
      <!-- 0.0 -->
      <g style="fill: #262626" transform="translate(474.020484 298.845635) scale(0.1485 -0.1485)">
       <use xlink:href="#ArialMT-30"/>
       <use xlink:href="#ArialMT-2e" transform="translate(55.615234 0)"/>
       <use xlink:href="#ArialMT-30" transform="translate(83.398438 0)"/>
      </g>
     </g>
    </g>
    <g id="xtick_9">
     <g id="line2d_16">
      <path d="M 545.39753 275.716283 
L 545.39753 20.803459 
" clip-path="url(#pf71c0e90bc)" style="fill: none; stroke: #cccccc; stroke-opacity: 0.3; stroke-width: 1.5; stroke-linecap: round"/>
     </g>
     <g id="text_18">
      <!-- 0.2 -->
      <g style="fill: #262626" transform="translate(535.07678 298.845635) scale(0.1485 -0.1485)">
       <use xlink:href="#ArialMT-30"/>
       <use xlink:href="#ArialMT-2e" transform="translate(55.615234 0)"/>
       <use xlink:href="#ArialMT-32" transform="translate(83.398438 0)"/>
      </g>
     </g>
    </g>
    <g id="xtick_10">
     <g id="line2d_17">
      <path d="M 606.453826 275.716283 
L 606.453826 20.803459 
" clip-path="url(#pf71c0e90bc)" style="fill: none; stroke: #cccccc; stroke-opacity: 0.3; stroke-width: 1.5; stroke-linecap: round"/>
     </g>
     <g id="text_19">
      <!-- 0.4 -->
      <g style="fill: #262626" transform="translate(596.133076 298.845635) scale(0.1485 -0.1485)">
       <use xlink:href="#ArialMT-30"/>
       <use xlink:href="#ArialMT-2e" transform="translate(55.615234 0)"/>
       <use xlink:href="#ArialMT-34" transform="translate(83.398438 0)"/>
      </g>
     </g>
    </g>
    <g id="xtick_11">
     <g id="line2d_18">
      <path d="M 667.510122 275.716283 
L 667.510122 20.803459 
" clip-path="url(#pf71c0e90bc)" style="fill: none; stroke: #cccccc; stroke-opacity: 0.3; stroke-width: 1.5; stroke-linecap: round"/>
     </g>
     <g id="text_20">
      <!-- 0.6 -->
      <g style="fill: #262626" transform="translate(657.189372 298.845635) scale(0.1485 -0.1485)">
       <use xlink:href="#ArialMT-30"/>
       <use xlink:href="#ArialMT-2e" transform="translate(55.615234 0)"/>
       <use xlink:href="#ArialMT-36" transform="translate(83.398438 0)"/>
      </g>
     </g>
    </g>
    <g id="xtick_12">
     <g id="line2d_19">
      <path d="M 728.566418 275.716283 
L 728.566418 20.803459 
" clip-path="url(#pf71c0e90bc)" style="fill: none; stroke: #cccccc; stroke-opacity: 0.3; stroke-width: 1.5; stroke-linecap: round"/>
     </g>
     <g id="text_21">
      <!-- 0.8 -->
      <g style="fill: #262626" transform="translate(718.245668 298.845635) scale(0.1485 -0.1485)">
       <use xlink:href="#ArialMT-30"/>
       <use xlink:href="#ArialMT-2e" transform="translate(55.615234 0)"/>
       <use xlink:href="#ArialMT-38" transform="translate(83.398438 0)"/>
      </g>
     </g>
    </g>
    <g id="xtick_13">
     <g id="line2d_20">
      <path d="M 789.622714 275.716283 
L 789.622714 20.803459 
" clip-path="url(#pf71c0e90bc)" style="fill: none; stroke: #cccccc; stroke-opacity: 0.3; stroke-width: 1.5; stroke-linecap: round"/>
     </g>
     <g id="text_22">
      <!-- 1.0 -->
      <g style="fill: #262626" transform="translate(779.301964 298.845635) scale(0.1485 -0.1485)">
       <use xlink:href="#ArialMT-31"/>
       <use xlink:href="#ArialMT-2e" transform="translate(55.615234 0)"/>
       <use xlink:href="#ArialMT-30" transform="translate(83.398438 0)"/>
      </g>
     </g>
    </g>
    <g id="xtick_14">
     <g id="line2d_21">
      <path d="M 850.67901 275.716283 
L 850.67901 20.803459 
" clip-path="url(#pf71c0e90bc)" style="fill: none; stroke: #cccccc; stroke-opacity: 0.3; stroke-width: 1.5; stroke-linecap: round"/>
     </g>
     <g id="text_23">
      <!-- 1.2 -->
      <g style="fill: #262626" transform="translate(840.35826 298.845635) scale(0.1485 -0.1485)">
       <use xlink:href="#ArialMT-31"/>
       <use xlink:href="#ArialMT-2e" transform="translate(55.615234 0)"/>
       <use xlink:href="#ArialMT-32" transform="translate(83.398438 0)"/>
      </g>
     </g>
    </g>
    <g id="text_24">
     <!-- Utilization (flow / NTC) -->
     <g style="fill: #262626" transform="translate(586.951825 317.590166) scale(0.162 -0.162)">
      <use xlink:href="#ArialMT-55"/>
      <use xlink:href="#ArialMT-74" transform="translate(72.216797 0)"/>
      <use xlink:href="#ArialMT-69" transform="translate(100 0)"/>
      <use xlink:href="#ArialMT-6c" transform="translate(122.216797 0)"/>
      <use xlink:href="#ArialMT-69" transform="translate(144.433594 0)"/>
      <use xlink:href="#ArialMT-7a" transform="translate(166.650391 0)"/>
      <use xlink:href="#ArialMT-61" transform="translate(216.650391 0)"/>
      <use xlink:href="#ArialMT-74" transform="translate(272.265625 0)"/>
      <use xlink:href="#ArialMT-69" transform="translate(300.048828 0)"/>
      <use xlink:href="#ArialMT-6f" transform="translate(322.265625 0)"/>
      <use xlink:href="#ArialMT-6e" transform="translate(377.880859 0)"/>
      <use xlink:href="#ArialMT-20" transform="translate(433.496094 0)"/>
      <use xlink:href="#ArialMT-28" transform="translate(461.279297 0)"/>
      <use xlink:href="#ArialMT-66" transform="translate(494.580078 0)"/>
      <use xlink:href="#ArialMT-6c" transform="translate(522.363281 0)"/>
      <use xlink:href="#ArialMT-6f" transform="translate(544.580078 0)"/>
      <use xlink:href="#ArialMT-77" transform="translate(600.195312 0)"/>
      <use xlink:href="#ArialMT-20" transform="translate(672.412109 0)"/>
      <use xlink:href="#ArialMT-2f" transform="translate(700.195312 0)"/>
      <use xlink:href="#ArialMT-20" transform="translate(727.978516 0)"/>
      <use xlink:href="#ArialMT-4e" transform="translate(755.761719 0)"/>
      <use xlink:href="#ArialMT-54" transform="translate(827.978516 0)"/>
      <use xlink:href="#ArialMT-43" transform="translate(889.0625 0)"/>
      <use xlink:href="#ArialMT-29" transform="translate(961.279297 0)"/>
     </g>
    </g>
   </g>
   <g id="matplotlib.axis_4">
    <g id="ytick_7">
     <g id="line2d_22">
      <path d="M 484.341234 275.716283 
L 850.67901 275.716283 
" clip-path="url(#pf71c0e90bc)" style="fill: none; stroke: #cccccc; stroke-opacity: 0.3; stroke-width: 1.5; stroke-linecap: round"/>
     </g>
     <g id="text_25">
      <!-- 0 -->
      <g style="fill: #262626" transform="translate(463.583242 281.030959) scale(0.1485 -0.1485)">
       <use xlink:href="#ArialMT-30"/>
      </g>
     </g>
    </g>
    <g id="ytick_8">
     <g id="line2d_23">
      <path d="M 484.341234 231.763508 
L 850.67901 231.763508 
" clip-path="url(#pf71c0e90bc)" style="fill: none; stroke: #cccccc; stroke-opacity: 0.3; stroke-width: 1.5; stroke-linecap: round"/>
     </g>
     <g id="text_26">
      <!-- 5 -->
      <g style="fill: #262626" transform="translate(463.583242 237.078184) scale(0.1485 -0.1485)">
       <defs>
        <path id="ArialMT-35" d="M 266 1200 
L 856 1250 
Q 922 819 1161 601 
Q 1400 384 1738 384 
Q 2144 384 2425 690 
Q 2706 997 2706 1503 
Q 2706 1984 2436 2262 
Q 2166 2541 1728 2541 
Q 1456 2541 1237 2417 
Q 1019 2294 894 2097 
L 366 2166 
L 809 4519 
L 3088 4519 
L 3088 3981 
L 1259 3981 
L 1013 2750 
Q 1425 3038 1878 3038 
Q 2478 3038 2890 2622 
Q 3303 2206 3303 1553 
Q 3303 931 2941 478 
Q 2500 -78 1738 -78 
Q 1113 -78 717 272 
Q 322 622 266 1200 
z
" transform="scale(0.015625)"/>
       </defs>
       <use xlink:href="#ArialMT-35"/>
      </g>
     </g>
    </g>
    <g id="ytick_9">
     <g id="line2d_24">
      <path d="M 484.341234 187.810733 
L 850.67901 187.810733 
" clip-path="url(#pf71c0e90bc)" style="fill: none; stroke: #cccccc; stroke-opacity: 0.3; stroke-width: 1.5; stroke-linecap: round"/>
     </g>
     <g id="text_27">
      <!-- 10 -->
      <g style="fill: #262626" transform="translate(455.32525 193.125409) scale(0.1485 -0.1485)">
       <use xlink:href="#ArialMT-31"/>
       <use xlink:href="#ArialMT-30" transform="translate(55.615234 0)"/>
      </g>
     </g>
    </g>
    <g id="ytick_10">
     <g id="line2d_25">
      <path d="M 484.341234 143.857958 
L 850.67901 143.857958 
" clip-path="url(#pf71c0e90bc)" style="fill: none; stroke: #cccccc; stroke-opacity: 0.3; stroke-width: 1.5; stroke-linecap: round"/>
     </g>
     <g id="text_28">
      <!-- 15 -->
      <g style="fill: #262626" transform="translate(455.32525 149.172634) scale(0.1485 -0.1485)">
       <use xlink:href="#ArialMT-31"/>
       <use xlink:href="#ArialMT-35" transform="translate(55.615234 0)"/>
      </g>
     </g>
    </g>
    <g id="ytick_11">
     <g id="line2d_26">
      <path d="M 484.341234 99.905183 
L 850.67901 99.905183 
" clip-path="url(#pf71c0e90bc)" style="fill: none; stroke: #cccccc; stroke-opacity: 0.3; stroke-width: 1.5; stroke-linecap: round"/>
     </g>
     <g id="text_29">
      <!-- 20 -->
      <g style="fill: #262626" transform="translate(455.32525 105.219859) scale(0.1485 -0.1485)">
       <use xlink:href="#ArialMT-32"/>
       <use xlink:href="#ArialMT-30" transform="translate(55.615234 0)"/>
      </g>
     </g>
    </g>
    <g id="ytick_12">
     <g id="line2d_27">
      <path d="M 484.341234 55.952408 
L 850.67901 55.952408 
" clip-path="url(#pf71c0e90bc)" style="fill: none; stroke: #cccccc; stroke-opacity: 0.3; stroke-width: 1.5; stroke-linecap: round"/>
     </g>
     <g id="text_30">
      <!-- 25 -->
      <g style="fill: #262626" transform="translate(455.32525 61.267084) scale(0.1485 -0.1485)">
       <use xlink:href="#ArialMT-32"/>
       <use xlink:href="#ArialMT-35" transform="translate(55.615234 0)"/>
      </g>
     </g>
    </g>
    <g id="text_31">
     <!-- Density -->
     <g style="fill: #262626" transform="translate(447.915656 175.268309) rotate(-90) scale(0.162 -0.162)">
      <use xlink:href="#ArialMT-44"/>
      <use xlink:href="#ArialMT-65" transform="translate(72.216797 0)"/>
      <use xlink:href="#ArialMT-6e" transform="translate(127.832031 0)"/>
      <use xlink:href="#ArialMT-73" transform="translate(183.447266 0)"/>
      <use xlink:href="#ArialMT-69" transform="translate(233.447266 0)"/>
      <use xlink:href="#ArialMT-74" transform="translate(255.664062 0)"/>
      <use xlink:href="#ArialMT-79" transform="translate(283.447266 0)"/>
     </g>
    </g>
   </g>
   <g id="patch_48">
    <path d="M 484.341234 275.716283 
L 492.516236 275.716283 
L 492.516236 32.942165 
L 484.341234 32.942165 
z
" clip-path="url(#pf71c0e90bc)" style="fill: #55a868; fill-opacity: 0.85; stroke: #ffffff; stroke-width: 0.691736; stroke-linejoin: miter"/>
   </g>
   <g id="patch_49">
    <path d="M 492.516236 275.716283 
L 500.691238 275.716283 
L 500.691238 267.995976 
L 492.516236 267.995976 
z
" clip-path="url(#pf71c0e90bc)" style="fill: #55a868; fill-opacity: 0.85; stroke: #ffffff; stroke-width: 0.691736; stroke-linejoin: miter"/>
   </g>
   <g id="patch_50">
    <path d="M 500.691238 275.716283 
L 508.86624 275.716283 
L 508.86624 268.847113 
L 500.691238 268.847113 
z
" clip-path="url(#pf71c0e90bc)" style="fill: #55a868; fill-opacity: 0.85; stroke: #ffffff; stroke-width: 0.691736; stroke-linejoin: miter"/>
   </g>
   <g id="patch_51">
    <path d="M 508.86624 275.716283 
L 517.041242 275.716283 
L 517.041242 268.962266 
L 508.86624 268.962266 
z
" clip-path="url(#pf71c0e90bc)" style="fill: #55a868; fill-opacity: 0.85; stroke: #ffffff; stroke-width: 0.691736; stroke-linejoin: miter"/>
   </g>
   <g id="patch_52">
    <path d="M 517.041242 275.716283 
L 525.216244 275.716283 
L 525.216244 269.618142 
L 517.041242 269.618142 
z
" clip-path="url(#pf71c0e90bc)" style="fill: #55a868; fill-opacity: 0.85; stroke: #ffffff; stroke-width: 0.691736; stroke-linejoin: miter"/>
   </g>
   <g id="patch_53">
    <path d="M 525.216244 275.716283 
L 533.391246 275.716283 
L 533.391246 269.933563 
L 525.216244 269.933563 
z
" clip-path="url(#pf71c0e90bc)" style="fill: #55a868; fill-opacity: 0.85; stroke: #ffffff; stroke-width: 0.691736; stroke-linejoin: miter"/>
   </g>
   <g id="patch_54">
    <path d="M 533.391246 275.716283 
L 541.566248 275.716283 
L 541.566248 270.284031 
L 533.391246 270.284031 
z
" clip-path="url(#pf71c0e90bc)" style="fill: #55a868; fill-opacity: 0.85; stroke: #ffffff; stroke-width: 0.691736; stroke-linejoin: miter"/>
   </g>
   <g id="patch_55">
    <path d="M 541.566248 275.716283 
L 549.74125 275.716283 
L 549.74125 271.080094 
L 541.566248 271.080094 
z
" clip-path="url(#pf71c0e90bc)" style="fill: #55a868; fill-opacity: 0.85; stroke: #ffffff; stroke-width: 0.691736; stroke-linejoin: miter"/>
   </g>
   <g id="patch_56">
    <path d="M 549.74125 275.716283 
L 557.916252 275.716283 
L 557.916252 271.515675 
L 549.74125 271.515675 
z
" clip-path="url(#pf71c0e90bc)" style="fill: #55a868; fill-opacity: 0.85; stroke: #ffffff; stroke-width: 0.691736; stroke-linejoin: miter"/>
   </g>
   <g id="patch_57">
    <path d="M 557.916252 275.716283 
L 566.091253 275.716283 
L 566.091253 271.605796 
L 557.916252 271.605796 
z
" clip-path="url(#pf71c0e90bc)" style="fill: #55a868; fill-opacity: 0.85; stroke: #ffffff; stroke-width: 0.691736; stroke-linejoin: miter"/>
   </g>
   <g id="patch_58">
    <path d="M 566.091253 275.716283 
L 574.266255 275.716283 
L 574.266255 271.896183 
L 566.091253 271.896183 
z
" clip-path="url(#pf71c0e90bc)" style="fill: #55a868; fill-opacity: 0.85; stroke: #ffffff; stroke-width: 0.691736; stroke-linejoin: miter"/>
   </g>
   <g id="patch_59">
    <path d="M 574.266255 275.716283 
L 582.441257 275.716283 
L 582.441257 272.421885 
L 574.266255 272.421885 
z
" clip-path="url(#pf71c0e90bc)" style="fill: #55a868; fill-opacity: 0.85; stroke: #ffffff; stroke-width: 0.691736; stroke-linejoin: miter"/>
   </g>
   <g id="patch_60">
    <path d="M 582.441257 275.716283 
L 590.616259 275.716283 
L 590.616259 273.082768 
L 582.441257 273.082768 
z
" clip-path="url(#pf71c0e90bc)" style="fill: #55a868; fill-opacity: 0.85; stroke: #ffffff; stroke-width: 0.691736; stroke-linejoin: miter"/>
   </g>
   <g id="patch_61">
    <path d="M 590.616259 275.716283 
L 598.791261 275.716283 
L 598.791261 273.488309 
L 590.616259 273.488309 
z
" clip-path="url(#pf71c0e90bc)" style="fill: #55a868; fill-opacity: 0.85; stroke: #ffffff; stroke-width: 0.691736; stroke-linejoin: miter"/>
   </g>
   <g id="patch_62">
    <path d="M 598.791261 275.716283 
L 606.966263 275.716283 
L 606.966263 273.398189 
L 598.791261 273.398189 
z
" clip-path="url(#pf71c0e90bc)" style="fill: #55a868; fill-opacity: 0.85; stroke: #ffffff; stroke-width: 0.691736; stroke-linejoin: miter"/>
   </g>
   <g id="patch_63">
    <path d="M 606.966263 275.716283 
L 615.141265 275.716283 
L 615.141265 273.978964 
L 606.966263 273.978964 
z
" clip-path="url(#pf71c0e90bc)" style="fill: #55a868; fill-opacity: 0.85; stroke: #ffffff; stroke-width: 0.691736; stroke-linejoin: miter"/>
   </g>
   <g id="patch_64">
    <path d="M 615.141265 275.716283 
L 623.316267 275.716283 
L 623.316267 274.139178 
L 615.141265 274.139178 
z
" clip-path="url(#pf71c0e90bc)" style="fill: #55a868; fill-opacity: 0.85; stroke: #ffffff; stroke-width: 0.691736; stroke-linejoin: miter"/>
   </g>
   <g id="patch_65">
    <path d="M 623.316267 275.716283 
L 631.491269 275.716283 
L 631.491269 274.144185 
L 623.316267 274.144185 
z
" clip-path="url(#pf71c0e90bc)" style="fill: #55a868; fill-opacity: 0.85; stroke: #ffffff; stroke-width: 0.691736; stroke-linejoin: miter"/>
   </g>
   <g id="patch_66">
    <path d="M 631.491269 275.716283 
L 639.666271 275.716283 
L 639.666271 274.304398 
L 631.491269 274.304398 
z
" clip-path="url(#pf71c0e90bc)" style="fill: #55a868; fill-opacity: 0.85; stroke: #ffffff; stroke-width: 0.691736; stroke-linejoin: miter"/>
   </g>
   <g id="patch_67">
    <path d="M 639.666271 275.716283 
L 647.841273 275.716283 
L 647.841273 274.504666 
L 639.666271 274.504666 
z
" clip-path="url(#pf71c0e90bc)" style="fill: #55a868; fill-opacity: 0.85; stroke: #ffffff; stroke-width: 0.691736; stroke-linejoin: miter"/>
   </g>
   <g id="patch_68">
    <path d="M 647.841273 275.716283 
L 656.016274 275.716283 
L 656.016274 274.329432 
L 647.841273 274.329432 
z
" clip-path="url(#pf71c0e90bc)" style="fill: #55a868; fill-opacity: 0.85; stroke: #ffffff; stroke-width: 0.691736; stroke-linejoin: miter"/>
   </g>
   <g id="patch_69">
    <path d="M 656.016274 275.716283 
L 664.191276 275.716283 
L 664.191276 274.729967 
L 656.016274 274.729967 
z
" clip-path="url(#pf71c0e90bc)" style="fill: #55a868; fill-opacity: 0.85; stroke: #ffffff; stroke-width: 0.691736; stroke-linejoin: miter"/>
   </g>
   <g id="patch_70">
    <path d="M 664.191276 275.716283 
L 672.366278 275.716283 
L 672.366278 274.87516 
L 664.191276 274.87516 
z
" clip-path="url(#pf71c0e90bc)" style="fill: #55a868; fill-opacity: 0.85; stroke: #ffffff; stroke-width: 0.691736; stroke-linejoin: miter"/>
   </g>
   <g id="patch_71">
    <path d="M 672.366278 275.716283 
L 680.54128 275.716283 
L 680.54128 274.840114 
L 672.366278 274.840114 
z
" clip-path="url(#pf71c0e90bc)" style="fill: #55a868; fill-opacity: 0.85; stroke: #ffffff; stroke-width: 0.691736; stroke-linejoin: miter"/>
   </g>
   <g id="patch_72">
    <path d="M 680.54128 275.716283 
L 688.716282 275.716283 
L 688.716282 274.86014 
L 680.54128 274.86014 
z
" clip-path="url(#pf71c0e90bc)" style="fill: #55a868; fill-opacity: 0.85; stroke: #ffffff; stroke-width: 0.691736; stroke-linejoin: miter"/>
   </g>
   <g id="patch_73">
    <path d="M 688.716282 275.716283 
L 696.891284 275.716283 
L 696.891284 275.080435 
L 688.716282 275.080435 
z
" clip-path="url(#pf71c0e90bc)" style="fill: #55a868; fill-opacity: 0.85; stroke: #ffffff; stroke-width: 0.691736; stroke-linejoin: miter"/>
   </g>
   <g id="patch_74">
    <path d="M 696.891284 275.716283 
L 705.066286 275.716283 
L 705.066286 274.880167 
L 696.891284 274.880167 
z
" clip-path="url(#pf71c0e90bc)" style="fill: #55a868; fill-opacity: 0.85; stroke: #ffffff; stroke-width: 0.691736; stroke-linejoin: miter"/>
   </g>
   <g id="patch_75">
    <path d="M 705.066286 275.716283 
L 713.241288 275.716283 
L 713.241288 275.085441 
L 705.066286 275.085441 
z
" clip-path="url(#pf71c0e90bc)" style="fill: #55a868; fill-opacity: 0.85; stroke: #ffffff; stroke-width: 0.691736; stroke-linejoin: miter"/>
   </g>
   <g id="patch_76">
    <path d="M 713.241288 275.716283 
L 721.41629 275.716283 
L 721.41629 275.070421 
L 713.241288 275.070421 
z
" clip-path="url(#pf71c0e90bc)" style="fill: #55a868; fill-opacity: 0.85; stroke: #ffffff; stroke-width: 0.691736; stroke-linejoin: miter"/>
   </g>
   <g id="patch_77">
    <path d="M 721.41629 275.716283 
L 729.591292 275.716283 
L 729.591292 274.940247 
L 721.41629 274.940247 
z
" clip-path="url(#pf71c0e90bc)" style="fill: #55a868; fill-opacity: 0.85; stroke: #ffffff; stroke-width: 0.691736; stroke-linejoin: miter"/>
   </g>
   <g id="patch_78">
    <path d="M 729.591292 275.716283 
L 737.766294 275.716283 
L 737.766294 274.84512 
L 729.591292 274.84512 
z
" clip-path="url(#pf71c0e90bc)" style="fill: #55a868; fill-opacity: 0.85; stroke: #ffffff; stroke-width: 0.691736; stroke-linejoin: miter"/>
   </g>
   <g id="patch_79">
    <path d="M 737.766294 275.716283 
L 745.941295 275.716283 
L 745.941295 274.744987 
L 737.766294 274.744987 
z
" clip-path="url(#pf71c0e90bc)" style="fill: #55a868; fill-opacity: 0.85; stroke: #ffffff; stroke-width: 0.691736; stroke-linejoin: miter"/>
   </g>
   <g id="patch_80">
    <path d="M 745.941295 275.716283 
L 754.116297 275.716283 
L 754.116297 274.855134 
L 745.941295 274.855134 
z
" clip-path="url(#pf71c0e90bc)" style="fill: #55a868; fill-opacity: 0.85; stroke: #ffffff; stroke-width: 0.691736; stroke-linejoin: miter"/>
   </g>
   <g id="patch_81">
    <path d="M 754.116297 275.716283 
L 762.291299 275.716283 
L 762.291299 275.405869 
L 754.116297 275.405869 
z
" clip-path="url(#pf71c0e90bc)" style="fill: #55a868; fill-opacity: 0.85; stroke: #ffffff; stroke-width: 0.691736; stroke-linejoin: miter"/>
   </g>
   <g id="patch_82">
    <path d="M 762.291299 275.716283 
L 770.466301 275.716283 
L 770.466301 275.355802 
L 762.291299 275.355802 
z
" clip-path="url(#pf71c0e90bc)" style="fill: #55a868; fill-opacity: 0.85; stroke: #ffffff; stroke-width: 0.691736; stroke-linejoin: miter"/>
   </g>
   <g id="patch_83">
    <path d="M 770.466301 275.716283 
L 778.641303 275.716283 
L 778.641303 275.596123 
L 770.466301 275.596123 
z
" clip-path="url(#pf71c0e90bc)" style="fill: #55a868; fill-opacity: 0.85; stroke: #ffffff; stroke-width: 0.691736; stroke-linejoin: miter"/>
   </g>
   <g id="patch_84">
    <path d="M 778.641303 275.716283 
L 786.816305 275.716283 
L 786.816305 275.656203 
L 778.641303 275.656203 
z
" clip-path="url(#pf71c0e90bc)" style="fill: #55a868; fill-opacity: 0.85; stroke: #ffffff; stroke-width: 0.691736; stroke-linejoin: miter"/>
   </g>
   <g id="patch_85">
    <path d="M 786.816305 275.716283 
L 794.991307 275.716283 
L 794.991307 275.696257 
L 786.816305 275.696257 
z
" clip-path="url(#pf71c0e90bc)" style="fill: #55a868; fill-opacity: 0.85; stroke: #ffffff; stroke-width: 0.691736; stroke-linejoin: miter"/>
   </g>
   <g id="patch_86">
    <path d="M 794.991307 275.716283 
L 803.166309 275.716283 
L 803.166309 275.696257 
L 794.991307 275.696257 
z
" clip-path="url(#pf71c0e90bc)" style="fill: #55a868; fill-opacity: 0.85; stroke: #ffffff; stroke-width: 0.691736; stroke-linejoin: miter"/>
   </g>
   <g id="patch_87">
    <path d="M 803.166309 275.716283 
L 811.341311 275.716283 
L 811.341311 275.696257 
L 803.166309 275.696257 
z
" clip-path="url(#pf71c0e90bc)" style="fill: #55a868; fill-opacity: 0.85; stroke: #ffffff; stroke-width: 0.691736; stroke-linejoin: miter"/>
   </g>
   <g id="line2d_28">
    <path d="M 484.341234 132.574327 
L 485.984451 137.68645 
L 487.627667 153.48278 
L 489.270884 176.041811 
L 490.9141 200.508206 
L 492.557317 222.734425 
L 494.200533 240.288884 
L 495.84375 252.570493 
L 497.486966 260.269634 
L 499.130183 264.631495 
L 500.773399 266.882646 
L 502.416615 267.950763 
L 504.059832 268.423408 
L 507.346265 268.72237 
L 513.919131 269.069754 
L 525.421646 269.874224 
L 540.210594 270.549522 
L 553.356326 271.414537 
L 561.572408 271.63605 
L 569.788491 271.888194 
L 576.361356 272.310725 
L 587.863872 273.10966 
L 596.079954 273.445392 
L 609.225686 273.772747 
L 620.728201 274.14094 
L 648.662881 274.442263 
L 655.235747 274.522595 
L 666.738262 274.790532 
L 683.170427 274.920299 
L 696.316158 274.981257 
L 707.818674 275.02708 
L 717.677972 275.042941 
L 743.969436 274.801581 
L 750.542302 274.96845 
L 762.044817 275.35378 
L 793.26593 275.693469 
L 811.341311 275.703808 
L 811.341311 275.703808 
" clip-path="url(#pf71c0e90bc)" style="fill: none; stroke: #55a868; stroke-width: 2.25; stroke-linecap: round"/>
   </g>
   <g id="patch_88">
    <path d="M 484.341234 275.716283 
L 484.341234 20.803459 
" style="fill: none; stroke: #cccccc; stroke-width: 1.875; stroke-linejoin: miter; stroke-linecap: square"/>
   </g>
   <g id="patch_89">
    <path d="M 850.67901 275.716283 
L 850.67901 20.803459 
" style="fill: none; stroke: #cccccc; stroke-width: 1.875; stroke-linejoin: miter; stroke-linecap: square"/>
   </g>
   <g id="patch_90">
    <path d="M 484.341234 275.716283 
L 850.67901 275.716283 
" style="fill: none; stroke: #cccccc; stroke-width: 1.875; stroke-linejoin: miter; stroke-linecap: square"/>
   </g>
   <g id="patch_91">
    <path d="M 484.341234 20.803459 
L 850.67901 20.803459 
" style="fill: none; stroke: #cccccc; stroke-width: 1.875; stroke-linejoin: miter; stroke-linecap: square"/>
   </g>
   <g id="text_32">
    <!-- Import utilization — NO2 -->
    <g style="fill: #262626" transform="translate(579.284669 14.803459) scale(0.162 -0.162)">
     <defs>
      <path id="ArialMT-49" d="M 597 0 
L 597 4581 
L 1203 4581 
L 1203 0 
L 597 0 
z
" transform="scale(0.015625)"/>
      <path id="ArialMT-6d" d="M 422 0 
L 422 3319 
L 925 3319 
L 925 2853 
Q 1081 3097 1340 3245 
Q 1600 3394 1931 3394 
Q 2300 3394 2536 3241 
Q 2772 3088 2869 2813 
Q 3263 3394 3894 3394 
Q 4388 3394 4653 3120 
Q 4919 2847 4919 2278 
L 4919 0 
L 4359 0 
L 4359 2091 
Q 4359 2428 4304 2576 
Q 4250 2725 4106 2815 
Q 3963 2906 3769 2906 
Q 3419 2906 3187 2673 
Q 2956 2441 2956 1928 
L 2956 0 
L 2394 0 
L 2394 2156 
Q 2394 2531 2256 2718 
Q 2119 2906 1806 2906 
Q 1569 2906 1367 2781 
Q 1166 2656 1075 2415 
Q 984 2175 984 1722 
L 984 0 
L 422 0 
z
" transform="scale(0.015625)"/>
     </defs>
     <use xlink:href="#ArialMT-49"/>
     <use xlink:href="#ArialMT-6d" transform="translate(27.783203 0)"/>
     <use xlink:href="#ArialMT-70" transform="translate(111.083984 0)"/>
     <use xlink:href="#ArialMT-6f" transform="translate(166.699219 0)"/>
     <use xlink:href="#ArialMT-72" transform="translate(222.314453 0)"/>
     <use xlink:href="#ArialMT-74" transform="translate(255.615234 0)"/>
     <use xlink:href="#ArialMT-20" transform="translate(283.398438 0)"/>
     <use xlink:href="#ArialMT-75" transform="translate(311.181641 0)"/>
     <use xlink:href="#ArialMT-74" transform="translate(366.796875 0)"/>
     <use xlink:href="#ArialMT-69" transform="translate(394.580078 0)"/>
     <use xlink:href="#ArialMT-6c" transform="translate(416.796875 0)"/>
     <use xlink:href="#ArialMT-69" transform="translate(439.013672 0)"/>
     <use xlink:href="#ArialMT-7a" transform="translate(461.230469 0)"/>
     <use xlink:href="#ArialMT-61" transform="translate(511.230469 0)"/>
     <use xlink:href="#ArialMT-74" transform="translate(566.845703 0)"/>
     <use xlink:href="#ArialMT-69" transform="translate(594.628906 0)"/>
     <use xlink:href="#ArialMT-6f" transform="translate(616.845703 0)"/>
     <use xlink:href="#ArialMT-6e" transform="translate(672.460938 0)"/>
     <use xlink:href="#ArialMT-20" transform="translate(728.076172 0)"/>
     <use xlink:href="#ArialMT-2014" transform="translate(755.859375 0)"/>
     <use xlink:href="#ArialMT-20" transform="translate(855.859375 0)"/>
     <use xlink:href="#ArialMT-4e" transform="translate(883.642578 0)"/>
     <use xlink:href="#ArialMT-4f" transform="translate(955.859375 0)"/>
     <use xlink:href="#ArialMT-32" transform="translate(1033.642578 0)"/>
    </g>
   </g>
  </g>
 </g>
 <defs>
  <clipPath id="pe2dbd3e801">
   <rect x="51.021474" y="20.803459" width="366.337776" height="254.912825"/>
  </clipPath>
  <clipPath id="pf71c0e90bc">
   <rect x="484.341234" y="20.803459" width="366.337776" height="254.912825"/>
  </clipPath>
 </defs>
</svg>
