<?xml version="1.0" encoding="utf-8" standalone="no"?>
<!DOCTYPE svg PUBLIC "-//W3C//DTD SVG 1.1//EN"
  "http://www.w3.org/Graphics/SVG/1.1/DTD/svg11.dtd">
<svg xmlns:xlink="http://www.w3.org/1999/xlink" width="864pt" height="324pt" viewBox="0 0 864 324" xmlns="http://www.w3.org/2000/svg" version="1.1">
 <metadata>
  <rdf:RDF xmlns:dc="http://purl.org/dc/elements/1.1/" xmlns:cc="http://creativecommons.org/ns#" xmlns:rdf="http://www.w3.org/1999/02/22-rdf-syntax-ns#">
   <cc:Work>
    <dc:type rdf:resource="http://purl.org/dc/dcmitype/StillImage"/>
    <dc:date>2025-11-26T15:28:04.486470</dc:date>
    <dc:format>image/svg+xml</dc:format>
    <dc:creator>
     <cc:Agent>
      <dc:title>Matplotlib v3.10.6, https://matplotlib.org/</dc:title>
     </cc:Agent>
    </dc:creator>
   </cc:Work>
  </rdf:RDF>
 </metadata>
 <defs>
  <style type="text/css">*{stroke-linejoin: round; stroke-linecap: butt}</style>
 </defs>
 <g id="figure_1">
  <g id="patch_1">
   <path d="M 0 324 
L 864 324 
L 864 0 
L 0 0 
z
" style="fill: #ffffff"/>
  </g>
  <g id="axes_1">
   <g id="patch_2">
    <path d="M 51.021474 275.716283 
L 421.488246 275.716283 
L 421.488246 20.803459 
L 51.021474 20.803459 
z
" style="fill: #ffffff"/>
   </g>
   <g id="matplotlib.axis_1">
    <g id="xtick_1">
     <g id="line2d_1">
      <path d="M 51.021474 275.716283 
L 51.021474 20.803459 
" clip-path="url(#pd6e1fe7a7b)" style="fill: none; stroke: #cccccc; stroke-opacity: 0.3; stroke-width: 1.5; stroke-linecap: round"/>
     </g>
     <g id="text_1">
      <!-- 0.0 -->
      <g style="fill: #262626" transform="translate(40.700724 298.845635) scale(0.1485 -0.1485)">
       <defs>
        <path id="ArialMT-30" d="M 266 2259 
Q 266 3072 433 3567 
Q 600 4063 929 4331 
Q 1259 4600 1759 4600 
Q 2128 4600 2406 4451 
Q 2684 4303 2865 4023 
Q 3047 3744 3150 3342 
Q 3253 2941 3253 2259 
Q 3253 1453 3087 958 
Q 2922 463 2592 192 
Q 2263 -78 1759 -78 
Q 1097 -78 719 397 
Q 266 969 266 2259 
z
M 844 2259 
Q 844 1131 1108 757 
Q 1372 384 1759 384 
Q 2147 384 2411 759 
Q 2675 1134 2675 2259 
Q 2675 3391 2411 3762 
Q 2147 4134 1753 4134 
Q 1366 4134 1134 3806 
Q 844 3388 844 2259 
z
" transform="scale(0.015625)"/>
        <path id="ArialMT-2e" d="M 581 0 
L 581 641 
L 1222 641 
L 1222 0 
L 581 0 
z
" transform="scale(0.015625)"/>
       </defs>
       <use xlink:href="#ArialMT-30"/>
       <use xlink:href="#ArialMT-2e" transform="translate(55.615234 0)"/>
       <use xlink:href="#ArialMT-30" transform="translate(83.398438 0)"/>
      </g>
     </g>
    </g>
    <g id="xtick_2">
     <g id="line2d_2">
      <path d="M 112.765936 275.716283 
L 112.765936 20.803459 
" clip-path="url(#pd6e1fe7a7b)" style="fill: none; stroke: #cccccc; stroke-opacity: 0.3; stroke-width: 1.5; stroke-linecap: round"/>
     </g>
     <g id="text_2">
      <!-- 0.2 -->
      <g style="fill: #262626" transform="translate(102.445186 298.845635) scale(0.1485 -0.1485)">
       <defs>
        <path id="ArialMT-32" d="M 3222 541 
L 3222 0 
L 194 0 
Q 188 203 259 391 
Q 375 700 629 1000 
Q 884 1300 1366 1694 
Q 2113 2306 2375 2664 
Q 2638 3022 2638 3341 
Q 2638 3675 2398 3904 
Q 2159 4134 1775 4134 
Q 1369 4134 1125 3890 
Q 881 3647 878 3216 
L 300 3275 
Q 359 3922 746 4261 
Q 1134 4600 1788 4600 
Q 2447 4600 2831 4234 
Q 3216 3869 3216 3328 
Q 3216 3053 3103 2787 
Q 2991 2522 2730 2228 
Q 2469 1934 1863 1422 
Q 1356 997 1212 845 
Q 1069 694 975 541 
L 3222 541 
z
" transform="scale(0.015625)"/>
       </defs>
       <use xlink:href="#ArialMT-30"/>
       <use xlink:href="#ArialMT-2e" transform="translate(55.615234 0)"/>
       <use xlink:href="#ArialMT-32" transform="translate(83.398438 0)"/>
      </g>
     </g>
    </g>
    <g id="xtick_3">
     <g id="line2d_3">
      <path d="M 174.510398 275.716283 
L 174.510398 20.803459 
" clip-path="url(#pd6e1fe7a7b)" style="fill: none; stroke: #cccccc; stroke-opacity: 0.3; stroke-width: 1.5; stroke-linecap: round"/>
     </g>
     <g id="text_3">
      <!-- 0.4 -->
      <g style="fill: #262626" transform="translate(164.189648 298.845635) scale(0.1485 -0.1485)">
       <defs>
        <path id="ArialMT-34" d="M 2069 0 
L 2069 1097 
L 81 1097 
L 81 1613 
L 2172 4581 
L 2631 4581 
L 2631 1613 
L 3250 1613 
L 3250 1097 
L 2631 1097 
L 2631 0 
L 2069 0 
z
M 2069 1613 
L 2069 3678 
L 634 1613 
L 2069 1613 
z
" transform="scale(0.015625)"/>
       </defs>
       <use xlink:href="#ArialMT-30"/>
       <use xlink:href="#ArialMT-2e" transform="translate(55.615234 0)"/>
       <use xlink:href="#ArialMT-34" transform="translate(83.398438 0)"/>
      </g>
     </g>
    </g>
    <g id="xtick_4">
     <g id="line2d_4">
      <path d="M 236.25486 275.716283 
L 236.25486 20.803459 
" clip-path="url(#pd6e1fe7a7b)" style="fill: none; stroke: #cccccc; stroke-opacity: 0.3; stroke-width: 1.5; stroke-linecap: round"/>
     </g>
     <g id="text_4">
      <!-- 0.6 -->
      <g style="fill: #262626" transform="translate(225.93411 298.845635) scale(0.1485 -0.1485)">
       <defs>
        <path id="ArialMT-36" d="M 3184 3459 
L 2625 3416 
Q 2550 3747 2413 3897 
Q 2184 4138 1850 4138 
Q 1581 4138 1378 3988 
Q 1113 3794 959 3422 
Q 806 3050 800 2363 
Q 1003 2672 1297 2822 
Q 1591 2972 1913 2972 
Q 2475 2972 2870 2558 
Q 3266 2144 3266 1488 
Q 3266 1056 3080 686 
Q 2894 316 2569 119 
Q 2244 -78 1831 -78 
Q 1128 -78 684 439 
Q 241 956 241 2144 
Q 241 3472 731 4075 
Q 1159 4600 1884 4600 
Q 2425 4600 2770 4297 
Q 3116 3994 3184 3459 
z
M 888 1484 
Q 888 1194 1011 928 
Q 1134 663 1356 523 
Q 1578 384 1822 384 
Q 2178 384 2434 671 
Q 2691 959 2691 1453 
Q 2691 1928 2437 2201 
Q 2184 2475 1800 2475 
Q 1419 2475 1153 2201 
Q 888 1928 888 1484 
z
" transform="scale(0.015625)"/>
       </defs>
       <use xlink:href="#ArialMT-30"/>
       <use xlink:href="#ArialMT-2e" transform="translate(55.615234 0)"/>
       <use xlink:href="#ArialMT-36" transform="translate(83.398438 0)"/>
      </g>
     </g>
    </g>
    <g id="xtick_5">
     <g id="line2d_5">
      <path d="M 297.999322 275.716283 
L 297.999322 20.803459 
" clip-path="url(#pd6e1fe7a7b)" style="fill: none; stroke: #cccccc; stroke-opacity: 0.3; stroke-width: 1.5; stroke-linecap: round"/>
     </g>
     <g id="text_5">
      <!-- 0.8 -->
      <g style="fill: #262626" transform="translate(287.678572 298.845635) scale(0.1485 -0.1485)">
       <defs>
        <path id="ArialMT-38" d="M 1131 2484 
Q 781 2613 612 2850 
Q 444 3088 444 3419 
Q 444 3919 803 4259 
Q 1163 4600 1759 4600 
Q 2359 4600 2725 4251 
Q 3091 3903 3091 3403 
Q 3091 3084 2923 2848 
Q 2756 2613 2416 2484 
Q 2838 2347 3058 2040 
Q 3278 1734 3278 1309 
Q 3278 722 2862 322 
Q 2447 -78 1769 -78 
Q 1091 -78 675 323 
Q 259 725 259 1325 
Q 259 1772 486 2073 
Q 713 2375 1131 2484 
z
M 1019 3438 
Q 1019 3113 1228 2906 
Q 1438 2700 1772 2700 
Q 2097 2700 2305 2904 
Q 2513 3109 2513 3406 
Q 2513 3716 2298 3927 
Q 2084 4138 1766 4138 
Q 1444 4138 1231 3931 
Q 1019 3725 1019 3438 
z
M 838 1322 
Q 838 1081 952 856 
Q 1066 631 1291 507 
Q 1516 384 1775 384 
Q 2178 384 2440 643 
Q 2703 903 2703 1303 
Q 2703 1709 2433 1975 
Q 2163 2241 1756 2241 
Q 1359 2241 1098 1978 
Q 838 1716 838 1322 
z
" transform="scale(0.015625)"/>
       </defs>
       <use xlink:href="#ArialMT-30"/>
       <use xlink:href="#ArialMT-2e" transform="translate(55.615234 0)"/>
       <use xlink:href="#ArialMT-38" transform="translate(83.398438 0)"/>
      </g>
     </g>
    </g>
    <g id="xtick_6">
     <g id="line2d_6">
      <path d="M 359.743784 275.716283 
L 359.743784 20.803459 
" clip-path="url(#pd6e1fe7a7b)" style="fill: none; stroke: #cccccc; stroke-opacity: 0.3; stroke-width: 1.5; stroke-linecap: round"/>
     </g>
     <g id="text_6">
      <!-- 1.0 -->
      <g style="fill: #262626" transform="translate(349.423034 298.845635) scale(0.1485 -0.1485)">
       <defs>
        <path id="ArialMT-31" d="M 2384 0 
L 1822 0 
L 1822 3584 
Q 1619 3391 1289 3197 
Q 959 3003 697 2906 
L 697 3450 
Q 1169 3672 1522 3987 
Q 1875 4303 2022 4600 
L 2384 4600 
L 2384 0 
z
" transform="scale(0.015625)"/>
       </defs>
       <use xlink:href="#ArialMT-31"/>
       <use xlink:href="#ArialMT-2e" transform="translate(55.615234 0)"/>
       <use xlink:href="#ArialMT-30" transform="translate(83.398438 0)"/>
      </g>
     </g>
    </g>
    <g id="xtick_7">
     <g id="line2d_7">
      <path d="M 421.488246 275.716283 
L 421.488246 20.803459 
" clip-path="url(#pd6e1fe7a7b)" style="fill: none; stroke: #cccccc; stroke-opacity: 0.3; stroke-width: 1.5; stroke-linecap: round"/>
     </g>
     <g id="text_7">
      <!-- 1.2 -->
      <g style="fill: #262626" transform="translate(411.167496 298.845635) scale(0.1485 -0.1485)">
       <use xlink:href="#ArialMT-31"/>
       <use xlink:href="#ArialMT-2e" transform="translate(55.615234 0)"/>
       <use xlink:href="#ArialMT-32" transform="translate(83.398438 0)"/>
      </g>
     </g>
    </g>
    <g id="text_8">
     <!-- Utilization (flow / NTC) -->
     <g style="fill: #262626" transform="translate(155.696563 317.590166) scale(0.162 -0.162)">
      <defs>
       <path id="ArialMT-55" d="M 3500 4581 
L 4106 4581 
L 4106 1934 
Q 4106 1244 3950 837 
Q 3794 431 3386 176 
Q 2978 -78 2316 -78 
Q 1672 -78 1262 144 
Q 853 366 678 786 
Q 503 1206 503 1934 
L 503 4581 
L 1109 4581 
L 1109 1938 
Q 1109 1341 1220 1058 
Q 1331 775 1601 622 
Q 1872 469 2263 469 
Q 2931 469 3215 772 
Q 3500 1075 3500 1938 
L 3500 4581 
z
" transform="scale(0.015625)"/>
       <path id="ArialMT-74" d="M 1650 503 
L 1731 6 
Q 1494 -44 1306 -44 
Q 1000 -44 831 53 
Q 663 150 594 308 
Q 525 466 525 972 
L 525 2881 
L 113 2881 
L 113 3319 
L 525 3319 
L 525 4141 
L 1084 4478 
L 1084 3319 
L 1650 3319 
L 1650 2881 
L 1084 2881 
L 1084 941 
Q 1084 700 1114 631 
Q 1144 563 1211 522 
Q 1278 481 1403 481 
Q 1497 481 1650 503 
z
" transform="scale(0.015625)"/>
       <path id="ArialMT-69" d="M 425 3934 
L 425 4581 
L 988 4581 
L 988 3934 
L 425 3934 
z
M 425 0 
L 425 3319 
L 988 3319 
L 988 0 
L 425 0 
z
" transform="scale(0.015625)"/>
       <path id="ArialMT-6c" d="M 409 0 
L 409 4581 
L 972 4581 
L 972 0 
L 409 0 
z
" transform="scale(0.015625)"/>
       <path id="ArialMT-7a" d="M 125 0 
L 125 456 
L 2238 2881 
Q 1878 2863 1603 2863 
L 250 2863 
L 250 3319 
L 2963 3319 
L 2963 2947 
L 1166 841 
L 819 456 
Q 1197 484 1528 484 
L 3063 484 
L 3063 0 
L 125 0 
z
" transform="scale(0.015625)"/>
       <path id="ArialMT-61" d="M 2588 409 
Q 2275 144 1986 34 
Q 1697 -75 1366 -75 
Q 819 -75 525 192 
Q 231 459 231 875 
Q 231 1119 342 1320 
Q 453 1522 633 1644 
Q 813 1766 1038 1828 
Q 1203 1872 1538 1913 
Q 2219 1994 2541 2106 
Q 2544 2222 2544 2253 
Q 2544 2597 2384 2738 
Q 2169 2928 1744 2928 
Q 1347 2928 1158 2789 
Q 969 2650 878 2297 
L 328 2372 
Q 403 2725 575 2942 
Q 747 3159 1072 3276 
Q 1397 3394 1825 3394 
Q 2250 3394 2515 3294 
Q 2781 3194 2906 3042 
Q 3031 2891 3081 2659 
Q 3109 2516 3109 2141 
L 3109 1391 
Q 3109 606 3145 398 
Q 3181 191 3288 0 
L 2700 0 
Q 2613 175 2588 409 
z
M 2541 1666 
Q 2234 1541 1622 1453 
Q 1275 1403 1131 1340 
Q 988 1278 909 1158 
Q 831 1038 831 891 
Q 831 666 1001 516 
Q 1172 366 1500 366 
Q 1825 366 2078 508 
Q 2331 650 2450 897 
Q 2541 1088 2541 1459 
L 2541 1666 
z
" transform="scale(0.015625)"/>
       <path id="ArialMT-6f" d="M 213 1659 
Q 213 2581 725 3025 
Q 1153 3394 1769 3394 
Q 2453 3394 2887 2945 
Q 3322 2497 3322 1706 
Q 3322 1066 3130 698 
Q 2938 331 2570 128 
Q 2203 -75 1769 -75 
Q 1072 -75 642 372 
Q 213 819 213 1659 
z
M 791 1659 
Q 791 1022 1069 705 
Q 1347 388 1769 388 
Q 2188 388 2466 706 
Q 2744 1025 2744 1678 
Q 2744 2294 2464 2611 
Q 2184 2928 1769 2928 
Q 1347 2928 1069 2612 
Q 791 2297 791 1659 
z
" transform="scale(0.015625)"/>
       <path id="ArialMT-6e" d="M 422 0 
L 422 3319 
L 928 3319 
L 928 2847 
Q 1294 3394 1984 3394 
Q 2284 3394 2536 3286 
Q 2788 3178 2913 3003 
Q 3038 2828 3088 2588 
Q 3119 2431 3119 2041 
L 3119 0 
L 2556 0 
L 2556 2019 
Q 2556 2363 2490 2533 
Q 2425 2703 2258 2804 
Q 2091 2906 1866 2906 
Q 1506 2906 1245 2678 
Q 984 2450 984 1813 
L 984 0 
L 422 0 
z
" transform="scale(0.015625)"/>
       <path id="ArialMT-20" transform="scale(0.015625)"/>
       <path id="ArialMT-28" d="M 1497 -1347 
Q 1031 -759 709 28 
Q 388 816 388 1659 
Q 388 2403 628 3084 
Q 909 3875 1497 4659 
L 1900 4659 
Q 1522 4009 1400 3731 
Q 1209 3300 1100 2831 
Q 966 2247 966 1656 
Q 966 153 1900 -1347 
L 1497 -1347 
z
" transform="scale(0.015625)"/>
       <path id="ArialMT-66" d="M 556 0 
L 556 2881 
L 59 2881 
L 59 3319 
L 556 3319 
L 556 3672 
Q 556 4006 616 4169 
Q 697 4388 901 4523 
Q 1106 4659 1475 4659 
Q 1713 4659 2000 4603 
L 1916 4113 
Q 1741 4144 1584 4144 
Q 1328 4144 1222 4034 
Q 1116 3925 1116 3625 
L 1116 3319 
L 1763 3319 
L 1763 2881 
L 1116 2881 
L 1116 0 
L 556 0 
z
" transform="scale(0.015625)"/>
       <path id="ArialMT-77" d="M 1034 0 
L 19 3319 
L 600 3319 
L 1128 1403 
L 1325 691 
Q 1338 744 1497 1375 
L 2025 3319 
L 2603 3319 
L 3100 1394 
L 3266 759 
L 3456 1400 
L 4025 3319 
L 4572 3319 
L 3534 0 
L 2950 0 
L 2422 1988 
L 2294 2553 
L 1622 0 
L 1034 0 
z
" transform="scale(0.015625)"/>
       <path id="ArialMT-2f" d="M 0 -78 
L 1328 4659 
L 1778 4659 
L 453 -78 
L 0 -78 
z
" transform="scale(0.015625)"/>
       <path id="ArialMT-4e" d="M 488 0 
L 488 4581 
L 1109 4581 
L 3516 984 
L 3516 4581 
L 4097 4581 
L 4097 0 
L 3475 0 
L 1069 3600 
L 1069 0 
L 488 0 
z
" transform="scale(0.015625)"/>
       <path id="ArialMT-54" d="M 1659 0 
L 1659 4041 
L 150 4041 
L 150 4581 
L 3781 4581 
L 3781 4041 
L 2266 4041 
L 2266 0 
L 1659 0 
z
" transform="scale(0.015625)"/>
       <path id="ArialMT-43" d="M 3763 1606 
L 4369 1453 
Q 4178 706 3683 314 
Q 3188 -78 2472 -78 
Q 1731 -78 1267 223 
Q 803 525 561 1097 
Q 319 1669 319 2325 
Q 319 3041 592 3573 
Q 866 4106 1370 4382 
Q 1875 4659 2481 4659 
Q 3169 4659 3637 4309 
Q 4106 3959 4291 3325 
L 3694 3184 
Q 3534 3684 3231 3912 
Q 2928 4141 2469 4141 
Q 1941 4141 1586 3887 
Q 1231 3634 1087 3207 
Q 944 2781 944 2328 
Q 944 1744 1114 1308 
Q 1284 872 1643 656 
Q 2003 441 2422 441 
Q 2931 441 3284 734 
Q 3638 1028 3763 1606 
z
" transform="scale(0.015625)"/>
       <path id="ArialMT-29" d="M 791 -1347 
L 388 -1347 
Q 1322 153 1322 1656 
Q 1322 2244 1188 2822 
Q 1081 3291 891 3722 
Q 769 4003 388 4659 
L 791 4659 
Q 1378 3875 1659 3084 
Q 1900 2403 1900 1659 
Q 1900 816 1576 28 
Q 1253 -759 791 -1347 
z
" transform="scale(0.015625)"/>
      </defs>
      <use xlink:href="#ArialMT-55"/>
      <use xlink:href="#ArialMT-74" transform="translate(72.216797 0)"/>
      <use xlink:href="#ArialMT-69" transform="translate(100 0)"/>
      <use xlink:href="#ArialMT-6c" transform="translate(122.216797 0)"/>
      <use xlink:href="#ArialMT-69" transform="translate(144.433594 0)"/>
      <use xlink:href="#ArialMT-7a" transform="translate(166.650391 0)"/>
      <use xlink:href="#ArialMT-61" transform="translate(216.650391 0)"/>
      <use xlink:href="#ArialMT-74" transform="translate(272.265625 0)"/>
      <use xlink:href="#ArialMT-69" transform="translate(300.048828 0)"/>
      <use xlink:href="#ArialMT-6f" transform="translate(322.265625 0)"/>
      <use xlink:href="#ArialMT-6e" transform="translate(377.880859 0)"/>
      <use xlink:href="#ArialMT-20" transform="translate(433.496094 0)"/>
      <use xlink:href="#ArialMT-28" transform="translate(461.279297 0)"/>
      <use xlink:href="#ArialMT-66" transform="translate(494.580078 0)"/>
      <use xlink:href="#ArialMT-6c" transform="translate(522.363281 0)"/>
      <use xlink:href="#ArialMT-6f" transform="translate(544.580078 0)"/>
      <use xlink:href="#ArialMT-77" transform="translate(600.195312 0)"/>
      <use xlink:href="#ArialMT-20" transform="translate(672.412109 0)"/>
      <use xlink:href="#ArialMT-2f" transform="translate(700.195312 0)"/>
      <use xlink:href="#ArialMT-20" transform="translate(727.978516 0)"/>
      <use xlink:href="#ArialMT-4e" transform="translate(755.761719 0)"/>
      <use xlink:href="#ArialMT-54" transform="translate(827.978516 0)"/>
      <use xlink:href="#ArialMT-43" transform="translate(889.0625 0)"/>
      <use xlink:href="#ArialMT-29" transform="translate(961.279297 0)"/>
     </g>
    </g>
   </g>
   <g id="matplotlib.axis_2">
    <g id="ytick_1">
     <g id="line2d_8">
      <path d="M 51.021474 275.716283 
L 421.488246 275.716283 
" clip-path="url(#pd6e1fe7a7b)" style="fill: none; stroke: #cccccc; stroke-opacity: 0.3; stroke-width: 1.5; stroke-linecap: round"/>
     </g>
     <g id="text_9">
      <!-- 0 -->
      <g style="fill: #262626" transform="translate(30.263482 281.030959) scale(0.1485 -0.1485)">
       <use xlink:href="#ArialMT-30"/>
      </g>
     </g>
    </g>
    <g id="ytick_2">
     <g id="line2d_9">
      <path d="M 51.021474 221.362239 
L 421.488246 221.362239 
" clip-path="url(#pd6e1fe7a7b)" style="fill: none; stroke: #cccccc; stroke-opacity: 0.3; stroke-width: 1.5; stroke-linecap: round"/>
     </g>
     <g id="text_10">
      <!-- 10 -->
      <g style="fill: #262626" transform="translate(22.00549 226.676915) scale(0.1485 -0.1485)">
       <use xlink:href="#ArialMT-31"/>
       <use xlink:href="#ArialMT-30" transform="translate(55.615234 0)"/>
      </g>
     </g>
    </g>
    <g id="ytick_3">
     <g id="line2d_10">
      <path d="M 51.021474 167.008195 
L 421.488246 167.008195 
" clip-path="url(#pd6e1fe7a7b)" style="fill: none; stroke: #cccccc; stroke-opacity: 0.3; stroke-width: 1.5; stroke-linecap: round"/>
     </g>
     <g id="text_11">
      <!-- 20 -->
      <g style="fill: #262626" transform="translate(22.00549 172.322871) scale(0.1485 -0.1485)">
       <use xlink:href="#ArialMT-32"/>
       <use xlink:href="#ArialMT-30" transform="translate(55.615234 0)"/>
      </g>
     </g>
    </g>
    <g id="ytick_4">
     <g id="line2d_11">
      <path d="M 51.021474 112.65415 
L 421.488246 112.65415 
" clip-path="url(#pd6e1fe7a7b)" style="fill: none; stroke: #cccccc; stroke-opacity: 0.3; stroke-width: 1.5; stroke-linecap: round"/>
     </g>
     <g id="text_12">
      <!-- 30 -->
      <g style="fill: #262626" transform="translate(22.00549 117.968826) scale(0.1485 -0.1485)">
       <defs>
        <path id="ArialMT-33" d="M 269 1209 
L 831 1284 
Q 928 806 1161 595 
Q 1394 384 1728 384 
Q 2125 384 2398 659 
Q 2672 934 2672 1341 
Q 2672 1728 2419 1979 
Q 2166 2231 1775 2231 
Q 1616 2231 1378 2169 
L 1441 2663 
Q 1497 2656 1531 2656 
Q 1891 2656 2178 2843 
Q 2466 3031 2466 3422 
Q 2466 3731 2256 3934 
Q 2047 4138 1716 4138 
Q 1388 4138 1169 3931 
Q 950 3725 888 3313 
L 325 3413 
Q 428 3978 793 4289 
Q 1159 4600 1703 4600 
Q 2078 4600 2393 4439 
Q 2709 4278 2876 4000 
Q 3044 3722 3044 3409 
Q 3044 3113 2884 2869 
Q 2725 2625 2413 2481 
Q 2819 2388 3044 2092 
Q 3269 1797 3269 1353 
Q 3269 753 2831 336 
Q 2394 -81 1725 -81 
Q 1122 -81 723 278 
Q 325 638 269 1209 
z
" transform="scale(0.015625)"/>
       </defs>
       <use xlink:href="#ArialMT-33"/>
       <use xlink:href="#ArialMT-30" transform="translate(55.615234 0)"/>
      </g>
     </g>
    </g>
    <g id="ytick_5">
     <g id="line2d_12">
      <path d="M 51.021474 58.300106 
L 421.488246 58.300106 
" clip-path="url(#pd6e1fe7a7b)" style="fill: none; stroke: #cccccc; stroke-opacity: 0.3; stroke-width: 1.5; stroke-linecap: round"/>
     </g>
     <g id="text_13">
      <!-- 40 -->
      <g style="fill: #262626" transform="translate(22.00549 63.614782) scale(0.1485 -0.1485)">
       <use xlink:href="#ArialMT-34"/>
       <use xlink:href="#ArialMT-30" transform="translate(55.615234 0)"/>
      </g>
     </g>
    </g>
    <g id="text_14">
     <!-- Density -->
     <g style="fill: #262626" transform="translate(14.595896 175.268309) rotate(-90) scale(0.162 -0.162)">
      <defs>
       <path id="ArialMT-44" d="M 494 0 
L 494 4581 
L 2072 4581 
Q 2606 4581 2888 4516 
Q 3281 4425 3559 4188 
Q 3922 3881 4101 3404 
Q 4281 2928 4281 2316 
Q 4281 1794 4159 1391 
Q 4038 988 3847 723 
Q 3656 459 3429 307 
Q 3203 156 2883 78 
Q 2563 0 2147 0 
L 494 0 
z
M 1100 541 
L 2078 541 
Q 2531 541 2789 625 
Q 3047 709 3200 863 
Q 3416 1078 3536 1442 
Q 3656 1806 3656 2325 
Q 3656 3044 3420 3430 
Q 3184 3816 2847 3947 
Q 2603 4041 2063 4041 
L 1100 4041 
L 1100 541 
z
" transform="scale(0.015625)"/>
       <path id="ArialMT-65" d="M 2694 1069 
L 3275 997 
Q 3138 488 2766 206 
Q 2394 -75 1816 -75 
Q 1088 -75 661 373 
Q 234 822 234 1631 
Q 234 2469 665 2931 
Q 1097 3394 1784 3394 
Q 2450 3394 2872 2941 
Q 3294 2488 3294 1666 
Q 3294 1616 3291 1516 
L 816 1516 
Q 847 969 1125 678 
Q 1403 388 1819 388 
Q 2128 388 2347 550 
Q 2566 713 2694 1069 
z
M 847 1978 
L 2700 1978 
Q 2663 2397 2488 2606 
Q 2219 2931 1791 2931 
Q 1403 2931 1139 2672 
Q 875 2413 847 1978 
z
" transform="scale(0.015625)"/>
       <path id="ArialMT-73" d="M 197 991 
L 753 1078 
Q 800 744 1014 566 
Q 1228 388 1613 388 
Q 2000 388 2187 545 
Q 2375 703 2375 916 
Q 2375 1106 2209 1216 
Q 2094 1291 1634 1406 
Q 1016 1563 777 1677 
Q 538 1791 414 1992 
Q 291 2194 291 2438 
Q 291 2659 392 2848 
Q 494 3038 669 3163 
Q 800 3259 1026 3326 
Q 1253 3394 1513 3394 
Q 1903 3394 2198 3281 
Q 2494 3169 2634 2976 
Q 2775 2784 2828 2463 
L 2278 2388 
Q 2241 2644 2061 2787 
Q 1881 2931 1553 2931 
Q 1166 2931 1000 2803 
Q 834 2675 834 2503 
Q 834 2394 903 2306 
Q 972 2216 1119 2156 
Q 1203 2125 1616 2013 
Q 2213 1853 2448 1751 
Q 2684 1650 2818 1456 
Q 2953 1263 2953 975 
Q 2953 694 2789 445 
Q 2625 197 2315 61 
Q 2006 -75 1616 -75 
Q 969 -75 630 194 
Q 291 463 197 991 
z
" transform="scale(0.015625)"/>
       <path id="ArialMT-79" d="M 397 -1278 
L 334 -750 
Q 519 -800 656 -800 
Q 844 -800 956 -737 
Q 1069 -675 1141 -563 
Q 1194 -478 1313 -144 
Q 1328 -97 1363 -6 
L 103 3319 
L 709 3319 
L 1400 1397 
Q 1534 1031 1641 628 
Q 1738 1016 1872 1384 
L 2581 3319 
L 3144 3319 
L 1881 -56 
Q 1678 -603 1566 -809 
Q 1416 -1088 1222 -1217 
Q 1028 -1347 759 -1347 
Q 597 -1347 397 -1278 
z
" transform="scale(0.015625)"/>
      </defs>
      <use xlink:href="#ArialMT-44"/>
      <use xlink:href="#ArialMT-65" transform="translate(72.216797 0)"/>
      <use xlink:href="#ArialMT-6e" transform="translate(127.832031 0)"/>
      <use xlink:href="#ArialMT-73" transform="translate(183.447266 0)"/>
      <use xlink:href="#ArialMT-69" transform="translate(233.447266 0)"/>
      <use xlink:href="#ArialMT-74" transform="translate(255.664062 0)"/>
      <use xlink:href="#ArialMT-79" transform="translate(283.447266 0)"/>
     </g>
    </g>
   </g>
   <g id="patch_3">
    <path d="M 51.021474 275.716283 
L 56.933507 275.716283 
L 56.933507 32.942165 
L 51.021474 32.942165 
z
" clip-path="url(#pd6e1fe7a7b)" style="fill: #4c72b0; fill-opacity: 0.85; stroke: #ffffff; stroke-width: 0.691736; stroke-linejoin: miter"/>
   </g>
   <g id="patch_4">
    <path d="M 56.933507 275.716283 
L 62.845539 275.716283 
L 62.845539 272.370093 
L 56.933507 272.370093 
z
" clip-path="url(#pd6e1fe7a7b)" style="fill: #4c72b0; fill-opacity: 0.85; stroke: #ffffff; stroke-width: 0.691736; stroke-linejoin: miter"/>
   </g>
   <g id="patch_5">
    <path d="M 62.845539 275.716283 
L 68.757571 275.716283 
L 68.757571 272.777004 
L 62.845539 272.777004 
z
" clip-path="url(#pd6e1fe7a7b)" style="fill: #4c72b0; fill-opacity: 0.85; stroke: #ffffff; stroke-width: 0.691736; stroke-linejoin: miter"/>
   </g>
   <g id="patch_6">
    <path d="M 68.757571 275.716283 
L 74.669603 275.716283 
L 74.669603 272.621166 
L 68.757571 272.621166 
z
" clip-path="url(#pd6e1fe7a7b)" style="fill: #4c72b0; fill-opacity: 0.85; stroke: #ffffff; stroke-width: 0.691736; stroke-linejoin: miter"/>
   </g>
   <g id="patch_7">
    <path d="M 74.669603 275.716283 
L 80.581636 275.716283 
L 80.581636 272.841936 
L 74.669603 272.841936 
z
" clip-path="url(#pd6e1fe7a7b)" style="fill: #4c72b0; fill-opacity: 0.85; stroke: #ffffff; stroke-width: 0.691736; stroke-linejoin: miter"/>
   </g>
   <g id="patch_8">
    <path d="M 80.581636 275.716283 
L 86.493668 275.716283 
L 86.493668 272.90254 
L 80.581636 272.90254 
z
" clip-path="url(#pd6e1fe7a7b)" style="fill: #4c72b0; fill-opacity: 0.85; stroke: #ffffff; stroke-width: 0.691736; stroke-linejoin: miter"/>
   </g>
   <g id="patch_9">
    <path d="M 86.493668 275.716283 
L 92.4057 275.716283 
L 92.4057 272.967472 
L 86.493668 272.967472 
z
" clip-path="url(#pd6e1fe7a7b)" style="fill: #4c72b0; fill-opacity: 0.85; stroke: #ffffff; stroke-width: 0.691736; stroke-linejoin: miter"/>
   </g>
   <g id="patch_10">
    <path d="M 92.4057 275.716283 
L 98.317732 275.716283 
L 98.317732 273.339752 
L 92.4057 273.339752 
z
" clip-path="url(#pd6e1fe7a7b)" style="fill: #4c72b0; fill-opacity: 0.85; stroke: #ffffff; stroke-width: 0.691736; stroke-linejoin: miter"/>
   </g>
   <g id="patch_11">
    <path d="M 98.317732 275.716283 
L 104.229764 275.716283 
L 104.229764 273.430658 
L 98.317732 273.430658 
z
" clip-path="url(#pd6e1fe7a7b)" style="fill: #4c72b0; fill-opacity: 0.85; stroke: #ffffff; stroke-width: 0.691736; stroke-linejoin: miter"/>
   </g>
   <g id="patch_12">
    <path d="M 104.229764 275.716283 
L 110.141797 275.716283 
L 110.141797 273.86787 
L 104.229764 273.86787 
z
" clip-path="url(#pd6e1fe7a7b)" style="fill: #4c72b0; fill-opacity: 0.85; stroke: #ffffff; stroke-width: 0.691736; stroke-linejoin: miter"/>
   </g>
   <g id="patch_13">
    <path d="M 110.141797 275.716283 
L 116.053829 275.716283 
L 116.053829 273.655757 
L 110.141797 273.655757 
z
" clip-path="url(#pd6e1fe7a7b)" style="fill: #4c72b0; fill-opacity: 0.85; stroke: #ffffff; stroke-width: 0.691736; stroke-linejoin: miter"/>
   </g>
   <g id="patch_14">
    <path d="M 116.053829 275.716283 
L 121.965861 275.716283 
L 121.965861 273.889515 
L 116.053829 273.889515 
z
" clip-path="url(#pd6e1fe7a7b)" style="fill: #4c72b0; fill-opacity: 0.85; stroke: #ffffff; stroke-width: 0.691736; stroke-linejoin: miter"/>
   </g>
   <g id="patch_15">
    <path d="M 121.965861 275.716283 
L 127.877893 275.716283 
L 127.877893 273.950118 
L 121.965861 273.950118 
z
" clip-path="url(#pd6e1fe7a7b)" style="fill: #4c72b0; fill-opacity: 0.85; stroke: #ffffff; stroke-width: 0.691736; stroke-linejoin: miter"/>
   </g>
   <g id="patch_16">
    <path d="M 127.877893 275.716283 
L 133.789926 275.716283 
L 133.789926 274.183875 
L 127.877893 274.183875 
z
" clip-path="url(#pd6e1fe7a7b)" style="fill: #4c72b0; fill-opacity: 0.85; stroke: #ffffff; stroke-width: 0.691736; stroke-linejoin: miter"/>
   </g>
   <g id="patch_17">
    <path d="M 133.789926 275.716283 
L 139.701958 275.716283 
L 139.701958 274.313741 
L 133.789926 274.313741 
z
" clip-path="url(#pd6e1fe7a7b)" style="fill: #4c72b0; fill-opacity: 0.85; stroke: #ffffff; stroke-width: 0.691736; stroke-linejoin: miter"/>
   </g>
   <g id="patch_18">
    <path d="M 139.701958 275.716283 
L 145.61399 275.716283 
L 145.61399 274.413304 
L 139.701958 274.413304 
z
" clip-path="url(#pd6e1fe7a7b)" style="fill: #4c72b0; fill-opacity: 0.85; stroke: #ffffff; stroke-width: 0.691736; stroke-linejoin: miter"/>
   </g>
   <g id="patch_19">
    <path d="M 145.61399 275.716283 
L 151.526022 275.716283 
L 151.526022 274.820214 
L 145.61399 274.820214 
z
" clip-path="url(#pd6e1fe7a7b)" style="fill: #4c72b0; fill-opacity: 0.85; stroke: #ffffff; stroke-width: 0.691736; stroke-linejoin: miter"/>
   </g>
   <g id="patch_20">
    <path d="M 151.526022 275.716283 
L 157.438055 275.716283 
L 157.438055 274.937093 
L 151.526022 274.937093 
z
" clip-path="url(#pd6e1fe7a7b)" style="fill: #4c72b0; fill-opacity: 0.85; stroke: #ffffff; stroke-width: 0.691736; stroke-linejoin: miter"/>
   </g>
   <g id="patch_21">
    <path d="M 157.438055 275.716283 
L 163.350087 275.716283 
L 163.350087 275.045314 
L 157.438055 275.045314 
z
" clip-path="url(#pd6e1fe7a7b)" style="fill: #4c72b0; fill-opacity: 0.85; stroke: #ffffff; stroke-width: 0.691736; stroke-linejoin: miter"/>
   </g>
   <g id="patch_22">
    <path d="M 163.350087 275.716283 
L 169.262119 275.716283 
L 169.262119 274.954408 
L 163.350087 274.954408 
z
" clip-path="url(#pd6e1fe7a7b)" style="fill: #4c72b0; fill-opacity: 0.85; stroke: #ffffff; stroke-width: 0.691736; stroke-linejoin: miter"/>
   </g>
   <g id="patch_23">
    <path d="M 169.262119 275.716283 
L 175.174151 275.716283 
L 175.174151 275.118904 
L 169.262119 275.118904 
z
" clip-path="url(#pd6e1fe7a7b)" style="fill: #4c72b0; fill-opacity: 0.85; stroke: #ffffff; stroke-width: 0.691736; stroke-linejoin: miter"/>
   </g>
   <g id="patch_24">
    <path d="M 175.174151 275.716283 
L 181.086183 275.716283 
L 181.086183 275.227125 
L 175.174151 275.227125 
z
" clip-path="url(#pd6e1fe7a7b)" style="fill: #4c72b0; fill-opacity: 0.85; stroke: #ffffff; stroke-width: 0.691736; stroke-linejoin: miter"/>
   </g>
   <g id="patch_25">
    <path d="M 181.086183 275.716283 
L 186.998216 275.716283 
L 186.998216 275.305044 
L 181.086183 275.305044 
z
" clip-path="url(#pd6e1fe7a7b)" style="fill: #4c72b0; fill-opacity: 0.85; stroke: #ffffff; stroke-width: 0.691736; stroke-linejoin: miter"/>
   </g>
   <g id="patch_26">
    <path d="M 186.998216 275.716283 
L 192.910248 275.716283 
L 192.910248 275.309373 
L 186.998216 275.309373 
z
" clip-path="url(#pd6e1fe7a7b)" style="fill: #4c72b0; fill-opacity: 0.85; stroke: #ffffff; stroke-width: 0.691736; stroke-linejoin: miter"/>
   </g>
   <g id="patch_27">
    <path d="M 192.910248 275.716283 
L 198.82228 275.716283 
L 198.82228 275.404607 
L 192.910248 275.404607 
z
" clip-path="url(#pd6e1fe7a7b)" style="fill: #4c72b0; fill-opacity: 0.85; stroke: #ffffff; stroke-width: 0.691736; stroke-linejoin: miter"/>
   </g>
   <g id="patch_28">
    <path d="M 198.82228 275.716283 
L 204.734312 275.716283 
L 204.734312 275.478197 
L 198.82228 275.478197 
z
" clip-path="url(#pd6e1fe7a7b)" style="fill: #4c72b0; fill-opacity: 0.85; stroke: #ffffff; stroke-width: 0.691736; stroke-linejoin: miter"/>
   </g>
   <g id="patch_29">
    <path d="M 204.734312 275.716283 
L 210.646345 275.716283 
L 210.646345 275.538801 
L 204.734312 275.538801 
z
" clip-path="url(#pd6e1fe7a7b)" style="fill: #4c72b0; fill-opacity: 0.85; stroke: #ffffff; stroke-width: 0.691736; stroke-linejoin: miter"/>
   </g>
   <g id="patch_30">
    <path d="M 210.646345 275.716283 
L 216.558377 275.716283 
L 216.558377 275.530143 
L 210.646345 275.530143 
z
" clip-path="url(#pd6e1fe7a7b)" style="fill: #4c72b0; fill-opacity: 0.85; stroke: #ffffff; stroke-width: 0.691736; stroke-linejoin: miter"/>
   </g>
   <g id="patch_31">
    <path d="M 216.558377 275.716283 
L 222.470409 275.716283 
L 222.470409 275.530143 
L 216.558377 275.530143 
z
" clip-path="url(#pd6e1fe7a7b)" style="fill: #4c72b0; fill-opacity: 0.85; stroke: #ffffff; stroke-width: 0.691736; stroke-linejoin: miter"/>
   </g>
   <g id="patch_32">
    <path d="M 222.470409 275.716283 
L 228.382441 275.716283 
L 228.382441 275.58209 
L 222.470409 275.58209 
z
" clip-path="url(#pd6e1fe7a7b)" style="fill: #4c72b0; fill-opacity: 0.85; stroke: #ffffff; stroke-width: 0.691736; stroke-linejoin: miter"/>
   </g>
   <g id="patch_33">
    <path d="M 228.382441 275.716283 
L 234.294474 275.716283 
L 234.294474 275.625378 
L 228.382441 275.625378 
z
" clip-path="url(#pd6e1fe7a7b)" style="fill: #4c72b0; fill-opacity: 0.85; stroke: #ffffff; stroke-width: 0.691736; stroke-linejoin: miter"/>
   </g>
   <g id="patch_34">
    <path d="M 234.294474 275.716283 
L 240.206506 275.716283 
L 240.206506 275.621049 
L 234.294474 275.621049 
z
" clip-path="url(#pd6e1fe7a7b)" style="fill: #4c72b0; fill-opacity: 0.85; stroke: #ffffff; stroke-width: 0.691736; stroke-linejoin: miter"/>
   </g>
   <g id="patch_35">
    <path d="M 240.206506 275.716283 
L 246.118538 275.716283 
L 246.118538 275.647022 
L 240.206506 275.647022 
z
" clip-path="url(#pd6e1fe7a7b)" style="fill: #4c72b0; fill-opacity: 0.85; stroke: #ffffff; stroke-width: 0.691736; stroke-linejoin: miter"/>
   </g>
   <g id="patch_36">
    <path d="M 246.118538 275.716283 
L 252.03057 275.716283 
L 252.03057 275.668666 
L 246.118538 275.668666 
z
" clip-path="url(#pd6e1fe7a7b)" style="fill: #4c72b0; fill-opacity: 0.85; stroke: #ffffff; stroke-width: 0.691736; stroke-linejoin: miter"/>
   </g>
   <g id="patch_37">
    <path d="M 252.03057 275.716283 
L 257.942602 275.716283 
L 257.942602 275.677324 
L 252.03057 275.677324 
z
" clip-path="url(#pd6e1fe7a7b)" style="fill: #4c72b0; fill-opacity: 0.85; stroke: #ffffff; stroke-width: 0.691736; stroke-linejoin: miter"/>
   </g>
   <g id="patch_38">
    <path d="M 257.942602 275.716283 
L 263.854635 275.716283 
L 263.854635 275.668666 
L 257.942602 275.668666 
z
" clip-path="url(#pd6e1fe7a7b)" style="fill: #4c72b0; fill-opacity: 0.85; stroke: #ffffff; stroke-width: 0.691736; stroke-linejoin: miter"/>
   </g>
   <g id="patch_39">
    <path d="M 263.854635 275.716283 
L 269.766667 275.716283 
L 269.766667 275.638364 
L 263.854635 275.638364 
z
" clip-path="url(#pd6e1fe7a7b)" style="fill: #4c72b0; fill-opacity: 0.85; stroke: #ffffff; stroke-width: 0.691736; stroke-linejoin: miter"/>
   </g>
   <g id="patch_40">
    <path d="M 269.766667 275.716283 
L 275.678699 275.716283 
L 275.678699 275.647022 
L 269.766667 275.647022 
z
" clip-path="url(#pd6e1fe7a7b)" style="fill: #4c72b0; fill-opacity: 0.85; stroke: #ffffff; stroke-width: 0.691736; stroke-linejoin: miter"/>
   </g>
   <g id="patch_41">
    <path d="M 275.678699 275.716283 
L 281.590731 275.716283 
L 281.590731 275.672995 
L 275.678699 275.672995 
z
" clip-path="url(#pd6e1fe7a7b)" style="fill: #4c72b0; fill-opacity: 0.85; stroke: #ffffff; stroke-width: 0.691736; stroke-linejoin: miter"/>
   </g>
   <g id="patch_42">
    <path d="M 281.590731 275.716283 
L 287.502764 275.716283 
L 287.502764 275.703297 
L 281.590731 275.703297 
z
" clip-path="url(#pd6e1fe7a7b)" style="fill: #4c72b0; fill-opacity: 0.85; stroke: #ffffff; stroke-width: 0.691736; stroke-linejoin: miter"/>
   </g>
   <g id="line2d_13">
    <path d="M 51.021474 71.711413 
L 52.209823 88.589231 
L 53.398171 132.083512 
L 54.586519 183.092817 
L 55.774867 225.009232 
L 56.963215 251.446624 
L 58.151563 264.696736 
L 59.339912 270.062039 
L 60.52826 271.839638 
L 61.716608 272.339822 
L 64.093304 272.526006 
L 83.106875 272.932314 
L 90.236965 273.132161 
L 100.932098 273.449855 
L 105.685491 273.676572 
L 111.627232 273.749219 
L 119.945669 273.836951 
L 134.205847 274.307145 
L 138.95924 274.274499 
L 157.972811 274.988122 
L 175.798034 275.168928 
L 209.071783 275.549284 
L 220.955265 275.542253 
L 260.170755 275.669745 
L 279.184326 275.677094 
L 287.502764 275.710661 
L 287.502764 275.710661 
" clip-path="url(#pd6e1fe7a7b)" style="fill: none; stroke: #4c72b0; stroke-width: 2.25; stroke-linecap: round"/>
   </g>
   <g id="patch_43">
    <path d="M 51.021474 275.716283 
L 51.021474 20.803459 
" style="fill: none; stroke: #cccccc; stroke-width: 1.875; stroke-linejoin: miter; stroke-linecap: square"/>
   </g>
   <g id="patch_44">
    <path d="M 421.488246 275.716283 
L 421.488246 20.803459 
" style="fill: none; stroke: #cccccc; stroke-width: 1.875; stroke-linejoin: miter; stroke-linecap: square"/>
   </g>
   <g id="patch_45">
    <path d="M 51.021474 275.716283 
L 421.488246 275.716283 
" style="fill: none; stroke: #cccccc; stroke-width: 1.875; stroke-linejoin: miter; stroke-linecap: square"/>
   </g>
   <g id="patch_46">
    <path d="M 51.021474 20.803459 
L 421.488246 20.803459 
" style="fill: none; stroke: #cccccc; stroke-width: 1.875; stroke-linejoin: miter; stroke-linecap: square"/>
   </g>
   <g id="text_15">
    <!-- Export utilization — NO3 -->
    <g style="fill: #262626" transform="translate(147.573782 14.803459) scale(0.162 -0.162)">
     <defs>
      <path id="ArialMT-45" d="M 506 0 
L 506 4581 
L 3819 4581 
L 3819 4041 
L 1113 4041 
L 1113 2638 
L 3647 2638 
L 3647 2100 
L 1113 2100 
L 1113 541 
L 3925 541 
L 3925 0 
L 506 0 
z
" transform="scale(0.015625)"/>
      <path id="ArialMT-78" d="M 47 0 
L 1259 1725 
L 138 3319 
L 841 3319 
L 1350 2541 
Q 1494 2319 1581 2169 
Q 1719 2375 1834 2534 
L 2394 3319 
L 3066 3319 
L 1919 1756 
L 3153 0 
L 2463 0 
L 1781 1031 
L 1600 1309 
L 728 0 
L 47 0 
z
" transform="scale(0.015625)"/>
      <path id="ArialMT-70" d="M 422 -1272 
L 422 3319 
L 934 3319 
L 934 2888 
Q 1116 3141 1344 3267 
Q 1572 3394 1897 3394 
Q 2322 3394 2647 3175 
Q 2972 2956 3137 2557 
Q 3303 2159 3303 1684 
Q 3303 1175 3120 767 
Q 2938 359 2589 142 
Q 2241 -75 1856 -75 
Q 1575 -75 1351 44 
Q 1128 163 984 344 
L 984 -1272 
L 422 -1272 
z
M 931 1641 
Q 931 1000 1190 694 
Q 1450 388 1819 388 
Q 2194 388 2461 705 
Q 2728 1022 2728 1688 
Q 2728 2322 2467 2637 
Q 2206 2953 1844 2953 
Q 1484 2953 1207 2617 
Q 931 2281 931 1641 
z
" transform="scale(0.015625)"/>
      <path id="ArialMT-72" d="M 416 0 
L 416 3319 
L 922 3319 
L 922 2816 
Q 1116 3169 1280 3281 
Q 1444 3394 1641 3394 
Q 1925 3394 2219 3213 
L 2025 2691 
Q 1819 2813 1613 2813 
Q 1428 2813 1281 2702 
Q 1134 2591 1072 2394 
Q 978 2094 978 1738 
L 978 0 
L 416 0 
z
" transform="scale(0.015625)"/>
      <path id="ArialMT-75" d="M 2597 0 
L 2597 488 
Q 2209 -75 1544 -75 
Q 1250 -75 995 37 
Q 741 150 617 320 
Q 494 491 444 738 
Q 409 903 409 1263 
L 409 3319 
L 972 3319 
L 972 1478 
Q 972 1038 1006 884 
Q 1059 663 1231 536 
Q 1403 409 1656 409 
Q 1909 409 2131 539 
Q 2353 669 2445 892 
Q 2538 1116 2538 1541 
L 2538 3319 
L 3100 3319 
L 3100 0 
L 2597 0 
z
" transform="scale(0.015625)"/>
      <path id="ArialMT-2014" d="M 0 1431 
L 0 1884 
L 6400 1884 
L 6400 1431 
L 0 1431 
z
" transform="scale(0.015625)"/>
      <path id="ArialMT-4f" d="M 309 2231 
Q 309 3372 921 4017 
Q 1534 4663 2503 4663 
Q 3138 4663 3647 4359 
Q 4156 4056 4423 3514 
Q 4691 2972 4691 2284 
Q 4691 1588 4409 1038 
Q 4128 488 3612 205 
Q 3097 -78 2500 -78 
Q 1853 -78 1343 234 
Q 834 547 571 1087 
Q 309 1628 309 2231 
z
M 934 2222 
Q 934 1394 1379 917 
Q 1825 441 2497 441 
Q 3181 441 3623 922 
Q 4066 1403 4066 2288 
Q 4066 2847 3877 3264 
Q 3688 3681 3323 3911 
Q 2959 4141 2506 4141 
Q 1863 4141 1398 3698 
Q 934 3256 934 2222 
z
" transform="scale(0.015625)"/>
     </defs>
     <use xlink:href="#ArialMT-45"/>
     <use xlink:href="#ArialMT-78" transform="translate(66.699219 0)"/>
     <use xlink:href="#ArialMT-70" transform="translate(116.699219 0)"/>
     <use xlink:href="#ArialMT-6f" transform="translate(172.314453 0)"/>
     <use xlink:href="#ArialMT-72" transform="translate(227.929688 0)"/>
     <use xlink:href="#ArialMT-74" transform="translate(261.230469 0)"/>
     <use xlink:href="#ArialMT-20" transform="translate(289.013672 0)"/>
     <use xlink:href="#ArialMT-75" transform="translate(316.796875 0)"/>
     <use xlink:href="#ArialMT-74" transform="translate(372.412109 0)"/>
     <use xlink:href="#ArialMT-69" transform="translate(400.195312 0)"/>
     <use xlink:href="#ArialMT-6c" transform="translate(422.412109 0)"/>
     <use xlink:href="#ArialMT-69" transform="translate(444.628906 0)"/>
     <use xlink:href="#ArialMT-7a" transform="translate(466.845703 0)"/>
     <use xlink:href="#ArialMT-61" transform="translate(516.845703 0)"/>
     <use xlink:href="#ArialMT-74" transform="translate(572.460938 0)"/>
     <use xlink:href="#ArialMT-69" transform="translate(600.244141 0)"/>
     <use xlink:href="#ArialMT-6f" transform="translate(622.460938 0)"/>
     <use xlink:href="#ArialMT-6e" transform="translate(678.076172 0)"/>
     <use xlink:href="#ArialMT-20" transform="translate(733.691406 0)"/>
     <use xlink:href="#ArialMT-2014" transform="translate(761.474609 0)"/>
     <use xlink:href="#ArialMT-20" transform="translate(861.474609 0)"/>
     <use xlink:href="#ArialMT-4e" transform="translate(889.257812 0)"/>
     <use xlink:href="#ArialMT-4f" transform="translate(961.474609 0)"/>
     <use xlink:href="#ArialMT-33" transform="translate(1039.257812 0)"/>
    </g>
   </g>
  </g>
  <g id="axes_2">
   <g id="patch_47">
    <path d="M 480.212238 275.716283 
L 850.67901 275.716283 
L 850.67901 20.803459 
L 480.212238 20.803459 
z
" style="fill: #ffffff"/>
   </g>
   <g id="matplotlib.axis_3">
    <g id="xtick_8">
     <g id="line2d_14">
      <path d="M 480.212238 275.716283 
L 480.212238 20.803459 
" clip-path="url(#p4de3c240ea)" style="fill: none; stroke: #cccccc; stroke-opacity: 0.3; stroke-width: 1.5; stroke-linecap: round"/>
     </g>
     <g id="text_16">
      <!-- 0.0 -->
      <g style="fill: #262626" transform="translate(469.891488 298.845635) scale(0.1485 -0.1485)">
       <use xlink:href="#ArialMT-30"/>
       <use xlink:href="#ArialMT-2e" transform="translate(55.615234 0)"/>
       <use xlink:href="#ArialMT-30" transform="translate(83.398438 0)"/>
      </g>
     </g>
    </g>
    <g id="xtick_9">
     <g id="line2d_15">
      <path d="M 541.9567 275.716283 
L 541.9567 20.803459 
" clip-path="url(#p4de3c240ea)" style="fill: none; stroke: #cccccc; stroke-opacity: 0.3; stroke-width: 1.5; stroke-linecap: round"/>
     </g>
     <g id="text_17">
      <!-- 0.2 -->
      <g style="fill: #262626" transform="translate(531.63595 298.845635) scale(0.1485 -0.1485)">
       <use xlink:href="#ArialMT-30"/>
       <use xlink:href="#ArialMT-2e" transform="translate(55.615234 0)"/>
       <use xlink:href="#ArialMT-32" transform="translate(83.398438 0)"/>
      </g>
     </g>
    </g>
    <g id="xtick_10">
     <g id="line2d_16">
      <path d="M 603.701162 275.716283 
L 603.701162 20.803459 
" clip-path="url(#p4de3c240ea)" style="fill: none; stroke: #cccccc; stroke-opacity: 0.3; stroke-width: 1.5; stroke-linecap: round"/>
     </g>
     <g id="text_18">
      <!-- 0.4 -->
      <g style="fill: #262626" transform="translate(593.380412 298.845635) scale(0.1485 -0.1485)">
       <use xlink:href="#ArialMT-30"/>
       <use xlink:href="#ArialMT-2e" transform="translate(55.615234 0)"/>
       <use xlink:href="#ArialMT-34" transform="translate(83.398438 0)"/>
      </g>
     </g>
    </g>
    <g id="xtick_11">
     <g id="line2d_17">
      <path d="M 665.445624 275.716283 
L 665.445624 20.803459 
" clip-path="url(#p4de3c240ea)" style="fill: none; stroke: #cccccc; stroke-opacity: 0.3; stroke-width: 1.5; stroke-linecap: round"/>
     </g>
     <g id="text_19">
      <!-- 0.6 -->
      <g style="fill: #262626" transform="translate(655.124874 298.845635) scale(0.1485 -0.1485)">
       <use xlink:href="#ArialMT-30"/>
       <use xlink:href="#ArialMT-2e" transform="translate(55.615234 0)"/>
       <use xlink:href="#ArialMT-36" transform="translate(83.398438 0)"/>
      </g>
     </g>
    </g>
    <g id="xtick_12">
     <g id="line2d_18">
      <path d="M 727.190086 275.716283 
L 727.190086 20.803459 
" clip-path="url(#p4de3c240ea)" style="fill: none; stroke: #cccccc; stroke-opacity: 0.3; stroke-width: 1.5; stroke-linecap: round"/>
     </g>
     <g id="text_20">
      <!-- 0.8 -->
      <g style="fill: #262626" transform="translate(716.869336 298.845635) scale(0.1485 -0.1485)">
       <use xlink:href="#ArialMT-30"/>
       <use xlink:href="#ArialMT-2e" transform="translate(55.615234 0)"/>
       <use xlink:href="#ArialMT-38" transform="translate(83.398438 0)"/>
      </g>
     </g>
    </g>
    <g id="xtick_13">
     <g id="line2d_19">
      <path d="M 788.934548 275.716283 
L 788.934548 20.803459 
" clip-path="url(#p4de3c240ea)" style="fill: none; stroke: #cccccc; stroke-opacity: 0.3; stroke-width: 1.5; stroke-linecap: round"/>
     </g>
     <g id="text_21">
      <!-- 1.0 -->
      <g style="fill: #262626" transform="translate(778.613798 298.845635) scale(0.1485 -0.1485)">
       <use xlink:href="#ArialMT-31"/>
       <use xlink:href="#ArialMT-2e" transform="translate(55.615234 0)"/>
       <use xlink:href="#ArialMT-30" transform="translate(83.398438 0)"/>
      </g>
     </g>
    </g>
    <g id="xtick_14">
     <g id="line2d_20">
      <path d="M 850.67901 275.716283 
L 850.67901 20.803459 
" clip-path="url(#p4de3c240ea)" style="fill: none; stroke: #cccccc; stroke-opacity: 0.3; stroke-width: 1.5; stroke-linecap: round"/>
     </g>
     <g id="text_22">
      <!-- 1.2 -->
      <g style="fill: #262626" transform="translate(840.35826 298.845635) scale(0.1485 -0.1485)">
       <use xlink:href="#ArialMT-31"/>
       <use xlink:href="#ArialMT-2e" transform="translate(55.615234 0)"/>
       <use xlink:href="#ArialMT-32" transform="translate(83.398438 0)"/>
      </g>
     </g>
    </g>
    <g id="text_23">
     <!-- Utilization (flow / NTC) -->
     <g style="fill: #262626" transform="translate(584.887327 317.590166) scale(0.162 -0.162)">
      <use xlink:href="#ArialMT-55"/>
      <use xlink:href="#ArialMT-74" transform="translate(72.216797 0)"/>
      <use xlink:href="#ArialMT-69" transform="translate(100 0)"/>
      <use xlink:href="#ArialMT-6c" transform="translate(122.216797 0)"/>
      <use xlink:href="#ArialMT-69" transform="translate(144.433594 0)"/>
      <use xlink:href="#ArialMT-7a" transform="translate(166.650391 0)"/>
      <use xlink:href="#ArialMT-61" transform="translate(216.650391 0)"/>
      <use xlink:href="#ArialMT-74" transform="translate(272.265625 0)"/>
      <use xlink:href="#ArialMT-69" transform="translate(300.048828 0)"/>
      <use xlink:href="#ArialMT-6f" transform="translate(322.265625 0)"/>
      <use xlink:href="#ArialMT-6e" transform="translate(377.880859 0)"/>
      <use xlink:href="#ArialMT-20" transform="translate(433.496094 0)"/>
      <use xlink:href="#ArialMT-28" transform="translate(461.279297 0)"/>
      <use xlink:href="#ArialMT-66" transform="translate(494.580078 0)"/>
      <use xlink:href="#ArialMT-6c" transform="translate(522.363281 0)"/>
      <use xlink:href="#ArialMT-6f" transform="translate(544.580078 0)"/>
      <use xlink:href="#ArialMT-77" transform="translate(600.195312 0)"/>
      <use xlink:href="#ArialMT-20" transform="translate(672.412109 0)"/>
      <use xlink:href="#ArialMT-2f" transform="translate(700.195312 0)"/>
      <use xlink:href="#ArialMT-20" transform="translate(727.978516 0)"/>
      <use xlink:href="#ArialMT-4e" transform="translate(755.761719 0)"/>
      <use xlink:href="#ArialMT-54" transform="translate(827.978516 0)"/>
      <use xlink:href="#ArialMT-43" transform="translate(889.0625 0)"/>
      <use xlink:href="#ArialMT-29" transform="translate(961.279297 0)"/>
     </g>
    </g>
   </g>
   <g id="matplotlib.axis_4">
    <g id="ytick_6">
     <g id="line2d_21">
      <path d="M 480.212238 275.716283 
L 850.67901 275.716283 
" clip-path="url(#p4de3c240ea)" style="fill: none; stroke: #cccccc; stroke-opacity: 0.3; stroke-width: 1.5; stroke-linecap: round"/>
     </g>
     <g id="text_24">
      <!-- 0 -->
      <g style="fill: #262626" transform="translate(459.454246 281.030959) scale(0.1485 -0.1485)">
       <use xlink:href="#ArialMT-30"/>
      </g>
     </g>
    </g>
    <g id="ytick_7">
     <g id="line2d_22">
      <path d="M 480.212238 240.446977 
L 850.67901 240.446977 
" clip-path="url(#p4de3c240ea)" style="fill: none; stroke: #cccccc; stroke-opacity: 0.3; stroke-width: 1.5; stroke-linecap: round"/>
     </g>
     <g id="text_25">
      <!-- 1 -->
      <g style="fill: #262626" transform="translate(459.454246 245.761653) scale(0.1485 -0.1485)">
       <use xlink:href="#ArialMT-31"/>
      </g>
     </g>
    </g>
    <g id="ytick_8">
     <g id="line2d_23">
      <path d="M 480.212238 205.177672 
L 850.67901 205.177672 
" clip-path="url(#p4de3c240ea)" style="fill: none; stroke: #cccccc; stroke-opacity: 0.3; stroke-width: 1.5; stroke-linecap: round"/>
     </g>
     <g id="text_26">
      <!-- 2 -->
      <g style="fill: #262626" transform="translate(459.454246 210.492347) scale(0.1485 -0.1485)">
       <use xlink:href="#ArialMT-32"/>
      </g>
     </g>
    </g>
    <g id="ytick_9">
     <g id="line2d_24">
      <path d="M 480.212238 169.908366 
L 850.67901 169.908366 
" clip-path="url(#p4de3c240ea)" style="fill: none; stroke: #cccccc; stroke-opacity: 0.3; stroke-width: 1.5; stroke-linecap: round"/>
     </g>
     <g id="text_27">
      <!-- 3 -->
      <g style="fill: #262626" transform="translate(459.454246 175.223041) scale(0.1485 -0.1485)">
       <use xlink:href="#ArialMT-33"/>
      </g>
     </g>
    </g>
    <g id="ytick_10">
     <g id="line2d_25">
      <path d="M 480.212238 134.63906 
L 850.67901 134.63906 
" clip-path="url(#p4de3c240ea)" style="fill: none; stroke: #cccccc; stroke-opacity: 0.3; stroke-width: 1.5; stroke-linecap: round"/>
     </g>
     <g id="text_28">
      <!-- 4 -->
      <g style="fill: #262626" transform="translate(459.454246 139.953735) scale(0.1485 -0.1485)">
       <use xlink:href="#ArialMT-34"/>
      </g>
     </g>
    </g>
    <g id="ytick_11">
     <g id="line2d_26">
      <path d="M 480.212238 99.369754 
L 850.67901 99.369754 
" clip-path="url(#p4de3c240ea)" style="fill: none; stroke: #cccccc; stroke-opacity: 0.3; stroke-width: 1.5; stroke-linecap: round"/>
     </g>
     <g id="text_29">
      <!-- 5 -->
      <g style="fill: #262626" transform="translate(459.454246 104.684429) scale(0.1485 -0.1485)">
       <defs>
        <path id="ArialMT-35" d="M 266 1200 
L 856 1250 
Q 922 819 1161 601 
Q 1400 384 1738 384 
Q 2144 384 2425 690 
Q 2706 997 2706 1503 
Q 2706 1984 2436 2262 
Q 2166 2541 1728 2541 
Q 1456 2541 1237 2417 
Q 1019 2294 894 2097 
L 366 2166 
L 809 4519 
L 3088 4519 
L 3088 3981 
L 1259 3981 
L 1013 2750 
Q 1425 3038 1878 3038 
Q 2478 3038 2890 2622 
Q 3303 2206 3303 1553 
Q 3303 931 2941 478 
Q 2500 -78 1738 -78 
Q 1113 -78 717 272 
Q 322 622 266 1200 
z
" transform="scale(0.015625)"/>
       </defs>
       <use xlink:href="#ArialMT-35"/>
      </g>
     </g>
    </g>
    <g id="ytick_12">
     <g id="line2d_27">
      <path d="M 480.212238 64.100448 
L 850.67901 64.100448 
" clip-path="url(#p4de3c240ea)" style="fill: none; stroke: #cccccc; stroke-opacity: 0.3; stroke-width: 1.5; stroke-linecap: round"/>
     </g>
     <g id="text_30">
      <!-- 6 -->
      <g style="fill: #262626" transform="translate(459.454246 69.415124) scale(0.1485 -0.1485)">
       <use xlink:href="#ArialMT-36"/>
      </g>
     </g>
    </g>
    <g id="ytick_13">
     <g id="line2d_28">
      <path d="M 480.212238 28.831142 
L 850.67901 28.831142 
" clip-path="url(#p4de3c240ea)" style="fill: none; stroke: #cccccc; stroke-opacity: 0.3; stroke-width: 1.5; stroke-linecap: round"/>
     </g>
     <g id="text_31">
      <!-- 7 -->
      <g style="fill: #262626" transform="translate(459.454246 34.145818) scale(0.1485 -0.1485)">
       <defs>
        <path id="ArialMT-37" d="M 303 3981 
L 303 4522 
L 3269 4522 
L 3269 4084 
Q 2831 3619 2401 2847 
Q 1972 2075 1738 1259 
Q 1569 684 1522 0 
L 944 0 
Q 953 541 1156 1306 
Q 1359 2072 1739 2783 
Q 2119 3494 2547 3981 
L 303 3981 
z
" transform="scale(0.015625)"/>
       </defs>
       <use xlink:href="#ArialMT-37"/>
      </g>
     </g>
    </g>
    <g id="text_32">
     <!-- Density -->
     <g style="fill: #262626" transform="translate(452.044652 175.268309) rotate(-90) scale(0.162 -0.162)">
      <use xlink:href="#ArialMT-44"/>
      <use xlink:href="#ArialMT-65" transform="translate(72.216797 0)"/>
      <use xlink:href="#ArialMT-6e" transform="translate(127.832031 0)"/>
      <use xlink:href="#ArialMT-73" transform="translate(183.447266 0)"/>
      <use xlink:href="#ArialMT-69" transform="translate(233.447266 0)"/>
      <use xlink:href="#ArialMT-74" transform="translate(255.664062 0)"/>
      <use xlink:href="#ArialMT-79" transform="translate(283.447266 0)"/>
     </g>
    </g>
   </g>
   <g id="patch_48">
    <path d="M 480.212238 275.716283 
L 489.473908 275.716283 
L 489.473908 32.942165 
L 480.212238 32.942165 
z
" clip-path="url(#p4de3c240ea)" style="fill: #55a868; fill-opacity: 0.85; stroke: #ffffff; stroke-width: 0.691736; stroke-linejoin: miter"/>
   </g>
   <g id="patch_49">
    <path d="M 489.473908 275.716283 
L 498.735577 275.716283 
L 498.735577 255.813826 
L 489.473908 255.813826 
z
" clip-path="url(#p4de3c240ea)" style="fill: #55a868; fill-opacity: 0.85; stroke: #ffffff; stroke-width: 0.691736; stroke-linejoin: miter"/>
   </g>
   <g id="patch_50">
    <path d="M 498.735577 275.716283 
L 507.997246 275.716283 
L 507.997246 254.110463 
L 498.735577 254.110463 
z
" clip-path="url(#p4de3c240ea)" style="fill: #55a868; fill-opacity: 0.85; stroke: #ffffff; stroke-width: 0.691736; stroke-linejoin: miter"/>
   </g>
   <g id="patch_51">
    <path d="M 507.997246 275.716283 
L 517.258915 275.716283 
L 517.258915 253.82358 
L 507.997246 253.82358 
z
" clip-path="url(#p4de3c240ea)" style="fill: #55a868; fill-opacity: 0.85; stroke: #ffffff; stroke-width: 0.691736; stroke-linejoin: miter"/>
   </g>
   <g id="patch_52">
    <path d="M 517.258915 275.716283 
L 526.520585 275.716283 
L 526.520585 255.795896 
L 517.258915 255.795896 
z
" clip-path="url(#p4de3c240ea)" style="fill: #55a868; fill-opacity: 0.85; stroke: #ffffff; stroke-width: 0.691736; stroke-linejoin: miter"/>
   </g>
   <g id="patch_53">
    <path d="M 526.520585 275.716283 
L 535.782254 275.716283 
L 535.782254 253.895301 
L 526.520585 253.895301 
z
" clip-path="url(#p4de3c240ea)" style="fill: #55a868; fill-opacity: 0.85; stroke: #ffffff; stroke-width: 0.691736; stroke-linejoin: miter"/>
   </g>
   <g id="patch_54">
    <path d="M 535.782254 275.716283 
L 545.043923 275.716283 
L 545.043923 251.564383 
L 535.782254 251.564383 
z
" clip-path="url(#p4de3c240ea)" style="fill: #55a868; fill-opacity: 0.85; stroke: #ffffff; stroke-width: 0.691736; stroke-linejoin: miter"/>
   </g>
   <g id="patch_55">
    <path d="M 545.043923 275.716283 
L 554.305593 275.716283 
L 554.305593 248.354887 
L 545.043923 248.354887 
z
" clip-path="url(#p4de3c240ea)" style="fill: #55a868; fill-opacity: 0.85; stroke: #ffffff; stroke-width: 0.691736; stroke-linejoin: miter"/>
   </g>
   <g id="patch_56">
    <path d="M 554.305593 275.716283 
L 563.567262 275.716283 
L 563.567262 249.466556 
L 554.305593 249.466556 
z
" clip-path="url(#p4de3c240ea)" style="fill: #55a868; fill-opacity: 0.85; stroke: #ffffff; stroke-width: 0.691736; stroke-linejoin: miter"/>
   </g>
   <g id="patch_57">
    <path d="M 563.567262 275.716283 
L 572.828931 275.716283 
L 572.828931 245.970178 
L 563.567262 245.970178 
z
" clip-path="url(#p4de3c240ea)" style="fill: #55a868; fill-opacity: 0.85; stroke: #ffffff; stroke-width: 0.691736; stroke-linejoin: miter"/>
   </g>
   <g id="patch_58">
    <path d="M 572.828931 275.716283 
L 582.090601 275.716283 
L 582.090601 246.023969 
L 572.828931 246.023969 
z
" clip-path="url(#p4de3c240ea)" style="fill: #55a868; fill-opacity: 0.85; stroke: #ffffff; stroke-width: 0.691736; stroke-linejoin: miter"/>
   </g>
   <g id="patch_59">
    <path d="M 582.090601 275.716283 
L 591.35227 275.716283 
L 591.35227 244.069583 
L 582.090601 244.069583 
z
" clip-path="url(#p4de3c240ea)" style="fill: #55a868; fill-opacity: 0.85; stroke: #ffffff; stroke-width: 0.691736; stroke-linejoin: miter"/>
   </g>
   <g id="patch_60">
    <path d="M 591.35227 275.716283 
L 600.613939 275.716283 
L 600.613939 241.882106 
L 591.35227 241.882106 
z
" clip-path="url(#p4de3c240ea)" style="fill: #55a868; fill-opacity: 0.85; stroke: #ffffff; stroke-width: 0.691736; stroke-linejoin: miter"/>
   </g>
   <g id="patch_61">
    <path d="M 600.613939 275.716283 
L 609.875608 275.716283 
L 609.875608 240.107022 
L 600.613939 240.107022 
z
" clip-path="url(#p4de3c240ea)" style="fill: #55a868; fill-opacity: 0.85; stroke: #ffffff; stroke-width: 0.691736; stroke-linejoin: miter"/>
   </g>
   <g id="patch_62">
    <path d="M 609.875608 275.716283 
L 619.137278 275.716283 
L 619.137278 240.089092 
L 609.875608 240.089092 
z
" clip-path="url(#p4de3c240ea)" style="fill: #55a868; fill-opacity: 0.85; stroke: #ffffff; stroke-width: 0.691736; stroke-linejoin: miter"/>
   </g>
   <g id="patch_63">
    <path d="M 619.137278 275.716283 
L 628.398947 275.716283 
L 628.398947 240.519415 
L 619.137278 240.519415 
z
" clip-path="url(#p4de3c240ea)" style="fill: #55a868; fill-opacity: 0.85; stroke: #ffffff; stroke-width: 0.691736; stroke-linejoin: miter"/>
   </g>
   <g id="patch_64">
    <path d="M 628.398947 275.716283 
L 637.660616 275.716283 
L 637.660616 237.38164 
L 628.398947 237.38164 
z
" clip-path="url(#p4de3c240ea)" style="fill: #55a868; fill-opacity: 0.85; stroke: #ffffff; stroke-width: 0.691736; stroke-linejoin: miter"/>
   </g>
   <g id="patch_65">
    <path d="M 637.660616 275.716283 
L 646.922286 275.716283 
L 646.922286 232.522572 
L 637.660616 232.522572 
z
" clip-path="url(#p4de3c240ea)" style="fill: #55a868; fill-opacity: 0.85; stroke: #ffffff; stroke-width: 0.691736; stroke-linejoin: miter"/>
   </g>
   <g id="patch_66">
    <path d="M 646.922286 275.716283 
L 656.183955 275.716283 
L 656.183955 234.405237 
L 646.922286 234.405237 
z
" clip-path="url(#p4de3c240ea)" style="fill: #55a868; fill-opacity: 0.85; stroke: #ffffff; stroke-width: 0.691736; stroke-linejoin: miter"/>
   </g>
   <g id="patch_67">
    <path d="M 656.183955 275.716283 
L 665.445624 275.716283 
L 665.445624 232.827384 
L 656.183955 232.827384 
z
" clip-path="url(#p4de3c240ea)" style="fill: #55a868; fill-opacity: 0.85; stroke: #ffffff; stroke-width: 0.691736; stroke-linejoin: miter"/>
   </g>
   <g id="patch_68">
    <path d="M 665.445624 275.716283 
L 674.707293 275.716283 
L 674.707293 236.287902 
L 665.445624 236.287902 
z
" clip-path="url(#p4de3c240ea)" style="fill: #55a868; fill-opacity: 0.85; stroke: #ffffff; stroke-width: 0.691736; stroke-linejoin: miter"/>
   </g>
   <g id="patch_69">
    <path d="M 674.707293 275.716283 
L 683.968963 275.716283 
L 683.968963 235.803788 
L 674.707293 235.803788 
z
" clip-path="url(#p4de3c240ea)" style="fill: #55a868; fill-opacity: 0.85; stroke: #ffffff; stroke-width: 0.691736; stroke-linejoin: miter"/>
   </g>
   <g id="patch_70">
    <path d="M 683.968963 275.716283 
L 693.230632 275.716283 
L 693.230632 237.471291 
L 683.968963 237.471291 
z
" clip-path="url(#p4de3c240ea)" style="fill: #55a868; fill-opacity: 0.85; stroke: #ffffff; stroke-width: 0.691736; stroke-linejoin: miter"/>
   </g>
   <g id="patch_71">
    <path d="M 693.230632 275.716283 
L 702.492301 275.716283 
L 702.492301 237.829894 
L 693.230632 237.829894 
z
" clip-path="url(#p4de3c240ea)" style="fill: #55a868; fill-opacity: 0.85; stroke: #ffffff; stroke-width: 0.691736; stroke-linejoin: miter"/>
   </g>
   <g id="patch_72">
    <path d="M 702.492301 275.716283 
L 711.753971 275.716283 
L 711.753971 242.760683 
L 702.492301 242.760683 
z
" clip-path="url(#p4de3c240ea)" style="fill: #55a868; fill-opacity: 0.85; stroke: #ffffff; stroke-width: 0.691736; stroke-linejoin: miter"/>
   </g>
   <g id="patch_73">
    <path d="M 711.753971 275.716283 
L 721.01564 275.716283 
L 721.01564 246.292921 
L 711.753971 246.292921 
z
" clip-path="url(#p4de3c240ea)" style="fill: #55a868; fill-opacity: 0.85; stroke: #ffffff; stroke-width: 0.691736; stroke-linejoin: miter"/>
   </g>
   <g id="patch_74">
    <path d="M 721.01564 275.716283 
L 730.277309 275.716283 
L 730.277309 248.229376 
L 721.01564 248.229376 
z
" clip-path="url(#p4de3c240ea)" style="fill: #55a868; fill-opacity: 0.85; stroke: #ffffff; stroke-width: 0.691736; stroke-linejoin: miter"/>
   </g>
   <g id="patch_75">
    <path d="M 730.277309 275.716283 
L 739.538978 275.716283 
L 739.538978 250.488574 
L 730.277309 250.488574 
z
" clip-path="url(#p4de3c240ea)" style="fill: #55a868; fill-opacity: 0.85; stroke: #ffffff; stroke-width: 0.691736; stroke-linejoin: miter"/>
   </g>
   <g id="patch_76">
    <path d="M 739.538978 275.716283 
L 748.800648 275.716283 
L 748.800648 255.742106 
L 739.538978 255.742106 
z
" clip-path="url(#p4de3c240ea)" style="fill: #55a868; fill-opacity: 0.85; stroke: #ffffff; stroke-width: 0.691736; stroke-linejoin: miter"/>
   </g>
   <g id="patch_77">
    <path d="M 748.800648 275.716283 
L 758.062317 275.716283 
L 758.062317 259.848108 
L 748.800648 259.848108 
z
" clip-path="url(#p4de3c240ea)" style="fill: #55a868; fill-opacity: 0.85; stroke: #ffffff; stroke-width: 0.691736; stroke-linejoin: miter"/>
   </g>
   <g id="patch_78">
    <path d="M 758.062317 275.716283 
L 767.323986 275.716283 
L 767.323986 262.447979 
L 758.062317 262.447979 
z
" clip-path="url(#p4de3c240ea)" style="fill: #55a868; fill-opacity: 0.85; stroke: #ffffff; stroke-width: 0.691736; stroke-linejoin: miter"/>
   </g>
   <g id="patch_79">
    <path d="M 767.323986 275.716283 
L 776.585656 275.716283 
L 776.585656 266.948444 
L 767.323986 266.948444 
z
" clip-path="url(#p4de3c240ea)" style="fill: #55a868; fill-opacity: 0.85; stroke: #ffffff; stroke-width: 0.691736; stroke-linejoin: miter"/>
   </g>
   <g id="patch_80">
    <path d="M 776.585656 275.716283 
L 785.847325 275.716283 
L 785.847325 269.476594 
L 776.585656 269.476594 
z
" clip-path="url(#p4de3c240ea)" style="fill: #55a868; fill-opacity: 0.85; stroke: #ffffff; stroke-width: 0.691736; stroke-linejoin: miter"/>
   </g>
   <g id="patch_81">
    <path d="M 785.847325 275.716283 
L 795.108994 275.716283 
L 795.108994 270.337241 
L 785.847325 270.337241 
z
" clip-path="url(#p4de3c240ea)" style="fill: #55a868; fill-opacity: 0.85; stroke: #ffffff; stroke-width: 0.691736; stroke-linejoin: miter"/>
   </g>
   <g id="patch_82">
    <path d="M 795.108994 275.716283 
L 804.370664 275.716283 
L 804.370664 271.950954 
L 795.108994 271.950954 
z
" clip-path="url(#p4de3c240ea)" style="fill: #55a868; fill-opacity: 0.85; stroke: #ffffff; stroke-width: 0.691736; stroke-linejoin: miter"/>
   </g>
   <g id="patch_83">
    <path d="M 804.370664 275.716283 
L 813.632333 275.716283 
L 813.632333 273.313644 
L 804.370664 273.313644 
z
" clip-path="url(#p4de3c240ea)" style="fill: #55a868; fill-opacity: 0.85; stroke: #ffffff; stroke-width: 0.691736; stroke-linejoin: miter"/>
   </g>
   <g id="patch_84">
    <path d="M 813.632333 275.716283 
L 822.894002 275.716283 
L 822.894002 273.421225 
L 813.632333 273.421225 
z
" clip-path="url(#p4de3c240ea)" style="fill: #55a868; fill-opacity: 0.85; stroke: #ffffff; stroke-width: 0.691736; stroke-linejoin: miter"/>
   </g>
   <g id="patch_85">
    <path d="M 822.894002 275.716283 
L 832.155671 275.716283 
L 832.155671 273.779828 
L 822.894002 273.779828 
z
" clip-path="url(#p4de3c240ea)" style="fill: #55a868; fill-opacity: 0.85; stroke: #ffffff; stroke-width: 0.691736; stroke-linejoin: miter"/>
   </g>
   <g id="patch_86">
    <path d="M 832.155671 275.716283 
L 841.417341 275.716283 
L 841.417341 274.819776 
L 832.155671 274.819776 
z
" clip-path="url(#p4de3c240ea)" style="fill: #55a868; fill-opacity: 0.85; stroke: #ffffff; stroke-width: 0.691736; stroke-linejoin: miter"/>
   </g>
   <g id="patch_87">
    <path d="M 841.417341 275.716283 
L 850.67901 275.716283 
L 850.67901 274.192221 
L 841.417341 274.192221 
z
" clip-path="url(#p4de3c240ea)" style="fill: #55a868; fill-opacity: 0.85; stroke: #ffffff; stroke-width: 0.691736; stroke-linejoin: miter"/>
   </g>
   <g id="line2d_29">
    <path d="M 480.212238 183.689355 
L 482.07388 183.630394 
L 483.935522 186.249375 
L 485.797164 191.189315 
L 487.658807 197.893012 
L 491.382091 213.903139 
L 493.243733 221.917771 
L 495.105375 229.261936 
L 496.967017 235.627578 
L 498.828659 240.87149 
L 500.690301 244.990461 
L 502.551943 248.082694 
L 504.413585 250.305757 
L 506.275227 251.839139 
L 508.136869 252.856055 
L 509.998511 253.505921 
L 511.860153 253.906431 
L 515.583438 254.271961 
L 519.306722 254.32848 
L 523.030006 254.189501 
L 526.75329 253.870041 
L 530.476574 253.380341 
L 536.0615 252.409741 
L 552.816279 249.28267 
L 604.942257 240.820064 
L 610.527183 240.288172 
L 619.835393 239.497668 
L 623.558678 238.951137 
L 627.281962 238.185063 
L 640.313456 235.029079 
L 644.03674 234.506352 
L 647.760024 234.228061 
L 651.483309 234.141547 
L 657.068235 234.26622 
L 662.653161 234.628866 
L 671.961371 235.54917 
L 686.854508 237.145419 
L 690.577792 237.727273 
L 694.301076 238.496283 
L 698.02436 239.473279 
L 703.609287 241.261946 
L 718.502423 246.405571 
L 733.39556 251.129036 
L 738.980486 253.282512 
L 748.288696 257.277919 
L 755.735264 260.35434 
L 765.043475 263.895947 
L 770.628401 265.86435 
L 776.213327 267.582404 
L 779.936611 268.537951 
L 785.521538 269.702114 
L 792.968106 270.926953 
L 800.414674 271.942508 
L 807.861242 272.727002 
L 815.307811 273.270382 
L 837.647516 274.5414 
L 850.67901 275.032706 
L 850.67901 275.032706 
" clip-path="url(#p4de3c240ea)" style="fill: none; stroke: #55a868; stroke-width: 2.25; stroke-linecap: round"/>
   </g>
   <g id="patch_88">
    <path d="M 480.212238 275.716283 
L 480.212238 20.803459 
" style="fill: none; stroke: #cccccc; stroke-width: 1.875; stroke-linejoin: miter; stroke-linecap: square"/>
   </g>
   <g id="patch_89">
    <path d="M 850.67901 275.716283 
L 850.67901 20.803459 
" style="fill: none; stroke: #cccccc; stroke-width: 1.875; stroke-linejoin: miter; stroke-linecap: square"/>
   </g>
   <g id="patch_90">
    <path d="M 480.212238 275.716283 
L 850.67901 275.716283 
" style="fill: none; stroke: #cccccc; stroke-width: 1.875; stroke-linejoin: miter; stroke-linecap: square"/>
   </g>
   <g id="patch_91">
    <path d="M 480.212238 20.803459 
L 850.67901 20.803459 
" style="fill: none; stroke: #cccccc; stroke-width: 1.875; stroke-linejoin: miter; stroke-linecap: square"/>
   </g>
   <g id="text_33">
    <!-- Import utilization — NO3 -->
    <g style="fill: #262626" transform="translate(577.220171 14.803459) scale(0.162 -0.162)">
     <defs>
      <path id="ArialMT-49" d="M 597 0 
L 597 4581 
L 1203 4581 
L 1203 0 
L 597 0 
z
" transform="scale(0.015625)"/>
      <path id="ArialMT-6d" d="M 422 0 
L 422 3319 
L 925 3319 
L 925 2853 
Q 1081 3097 1340 3245 
Q 1600 3394 1931 3394 
Q 2300 3394 2536 3241 
Q 2772 3088 2869 2813 
Q 3263 3394 3894 3394 
Q 4388 3394 4653 3120 
Q 4919 2847 4919 2278 
L 4919 0 
L 4359 0 
L 4359 2091 
Q 4359 2428 4304 2576 
Q 4250 2725 4106 2815 
Q 3963 2906 3769 2906 
Q 3419 2906 3187 2673 
Q 2956 2441 2956 1928 
L 2956 0 
L 2394 0 
L 2394 2156 
Q 2394 2531 2256 2718 
Q 2119 2906 1806 2906 
Q 1569 2906 1367 2781 
Q 1166 2656 1075 2415 
Q 984 2175 984 1722 
L 984 0 
L 422 0 
z
" transform="scale(0.015625)"/>
     </defs>
     <use xlink:href="#ArialMT-49"/>
     <use xlink:href="#ArialMT-6d" transform="translate(27.783203 0)"/>
     <use xlink:href="#ArialMT-70" transform="translate(111.083984 0)"/>
     <use xlink:href="#ArialMT-6f" transform="translate(166.699219 0)"/>
     <use xlink:href="#ArialMT-72" transform="translate(222.314453 0)"/>
     <use xlink:href="#ArialMT-74" transform="translate(255.615234 0)"/>
     <use xlink:href="#ArialMT-20" transform="translate(283.398438 0)"/>
     <use xlink:href="#ArialMT-75" transform="translate(311.181641 0)"/>
     <use xlink:href="#ArialMT-74" transform="translate(366.796875 0)"/>
     <use xlink:href="#ArialMT-69" transform="translate(394.580078 0)"/>
     <use xlink:href="#ArialMT-6c" transform="translate(416.796875 0)"/>
     <use xlink:href="#ArialMT-69" transform="translate(439.013672 0)"/>
     <use xlink:href="#ArialMT-7a" transform="translate(461.230469 0)"/>
     <use xlink:href="#ArialMT-61" transform="translate(511.230469 0)"/>
     <use xlink:href="#ArialMT-74" transform="translate(566.845703 0)"/>
     <use xlink:href="#ArialMT-69" transform="translate(594.628906 0)"/>
     <use xlink:href="#ArialMT-6f" transform="translate(616.845703 0)"/>
     <use xlink:href="#ArialMT-6e" transform="translate(672.460938 0)"/>
     <use xlink:href="#ArialMT-20" transform="translate(728.076172 0)"/>
     <use xlink:href="#ArialMT-2014" transform="translate(755.859375 0)"/>
     <use xlink:href="#ArialMT-20" transform="translate(855.859375 0)"/>
     <use xlink:href="#ArialMT-4e" transform="translate(883.642578 0)"/>
     <use xlink:href="#ArialMT-4f" transform="translate(955.859375 0)"/>
     <use xlink:href="#ArialMT-33" transform="translate(1033.642578 0)"/>
    </g>
   </g>
  </g>
 </g>
 <defs>
  <clipPath id="pd6e1fe7a7b">
   <rect x="51.021474" y="20.803459" width="370.466772" height="254.912825"/>
  </clipPath>
  <clipPath id="p4de3c240ea">
   <rect x="480.212238" y="20.803459" width="370.466772" height="254.912825"/>
  </clipPath>
 </defs>
</svg>
