<?xml version="1.0" encoding="utf-8" standalone="no"?>
<!DOCTYPE svg PUBLIC "-//W3C//DTD SVG 1.1//EN"
  "http://www.w3.org/Graphics/SVG/1.1/DTD/svg11.dtd">
<svg xmlns:xlink="http://www.w3.org/1999/xlink" width="864pt" height="324pt" viewBox="0 0 864 324" xmlns="http://www.w3.org/2000/svg" version="1.1">
 <metadata>
  <rdf:RDF xmlns:dc="http://purl.org/dc/elements/1.1/" xmlns:cc="http://creativecommons.org/ns#" xmlns:rdf="http://www.w3.org/1999/02/22-rdf-syntax-ns#">
   <cc:Work>
    <dc:type rdf:resource="http://purl.org/dc/dcmitype/StillImage"/>
    <dc:date>2025-11-26T15:28:15.234180</dc:date>
    <dc:format>image/svg+xml</dc:format>
    <dc:creator>
     <cc:Agent>
      <dc:title>Matplotlib v3.10.6, https://matplotlib.org/</dc:title>
     </cc:Agent>
    </dc:creator>
   </cc:Work>
  </rdf:RDF>
 </metadata>
 <defs>
  <style type="text/css">*{stroke-linejoin: round; stroke-linecap: butt}</style>
 </defs>
 <g id="figure_1">
  <g id="patch_1">
   <path d="M 0 324 
L 864 324 
L 864 0 
L 0 0 
z
" style="fill: #ffffff"/>
  </g>
  <g id="axes_1">
   <g id="patch_2">
    <path d="M 51.021474 275.716283 
L 415.296492 275.716283 
L 415.296492 20.803459 
L 51.021474 20.803459 
z
" style="fill: #ffffff"/>
   </g>
   <g id="matplotlib.axis_1">
    <g id="xtick_1">
     <g id="line2d_1">
      <path d="M 51.021474 275.716283 
L 51.021474 20.803459 
" clip-path="url(#p53f8164ce7)" style="fill: none; stroke: #cccccc; stroke-opacity: 0.3; stroke-width: 1.5; stroke-linecap: round"/>
     </g>
     <g id="text_1">
      <!-- 0.0 -->
      <g style="fill: #262626" transform="translate(40.700724 298.845635) scale(0.1485 -0.1485)">
       <defs>
        <path id="ArialMT-30" d="M 266 2259 
Q 266 3072 433 3567 
Q 600 4063 929 4331 
Q 1259 4600 1759 4600 
Q 2128 4600 2406 4451 
Q 2684 4303 2865 4023 
Q 3047 3744 3150 3342 
Q 3253 2941 3253 2259 
Q 3253 1453 3087 958 
Q 2922 463 2592 192 
Q 2263 -78 1759 -78 
Q 1097 -78 719 397 
Q 266 969 266 2259 
z
M 844 2259 
Q 844 1131 1108 757 
Q 1372 384 1759 384 
Q 2147 384 2411 759 
Q 2675 1134 2675 2259 
Q 2675 3391 2411 3762 
Q 2147 4134 1753 4134 
Q 1366 4134 1134 3806 
Q 844 3388 844 2259 
z
" transform="scale(0.015625)"/>
        <path id="ArialMT-2e" d="M 581 0 
L 581 641 
L 1222 641 
L 1222 0 
L 581 0 
z
" transform="scale(0.015625)"/>
       </defs>
       <use xlink:href="#ArialMT-30"/>
       <use xlink:href="#ArialMT-2e" transform="translate(55.615234 0)"/>
       <use xlink:href="#ArialMT-30" transform="translate(83.398438 0)"/>
      </g>
     </g>
    </g>
    <g id="xtick_2">
     <g id="line2d_2">
      <path d="M 111.733977 275.716283 
L 111.733977 20.803459 
" clip-path="url(#p53f8164ce7)" style="fill: none; stroke: #cccccc; stroke-opacity: 0.3; stroke-width: 1.5; stroke-linecap: round"/>
     </g>
     <g id="text_2">
      <!-- 0.2 -->
      <g style="fill: #262626" transform="translate(101.413227 298.845635) scale(0.1485 -0.1485)">
       <defs>
        <path id="ArialMT-32" d="M 3222 541 
L 3222 0 
L 194 0 
Q 188 203 259 391 
Q 375 700 629 1000 
Q 884 1300 1366 1694 
Q 2113 2306 2375 2664 
Q 2638 3022 2638 3341 
Q 2638 3675 2398 3904 
Q 2159 4134 1775 4134 
Q 1369 4134 1125 3890 
Q 881 3647 878 3216 
L 300 3275 
Q 359 3922 746 4261 
Q 1134 4600 1788 4600 
Q 2447 4600 2831 4234 
Q 3216 3869 3216 3328 
Q 3216 3053 3103 2787 
Q 2991 2522 2730 2228 
Q 2469 1934 1863 1422 
Q 1356 997 1212 845 
Q 1069 694 975 541 
L 3222 541 
z
" transform="scale(0.015625)"/>
       </defs>
       <use xlink:href="#ArialMT-30"/>
       <use xlink:href="#ArialMT-2e" transform="translate(55.615234 0)"/>
       <use xlink:href="#ArialMT-32" transform="translate(83.398438 0)"/>
      </g>
     </g>
    </g>
    <g id="xtick_3">
     <g id="line2d_3">
      <path d="M 172.44648 275.716283 
L 172.44648 20.803459 
" clip-path="url(#p53f8164ce7)" style="fill: none; stroke: #cccccc; stroke-opacity: 0.3; stroke-width: 1.5; stroke-linecap: round"/>
     </g>
     <g id="text_3">
      <!-- 0.4 -->
      <g style="fill: #262626" transform="translate(162.12573 298.845635) scale(0.1485 -0.1485)">
       <defs>
        <path id="ArialMT-34" d="M 2069 0 
L 2069 1097 
L 81 1097 
L 81 1613 
L 2172 4581 
L 2631 4581 
L 2631 1613 
L 3250 1613 
L 3250 1097 
L 2631 1097 
L 2631 0 
L 2069 0 
z
M 2069 1613 
L 2069 3678 
L 634 1613 
L 2069 1613 
z
" transform="scale(0.015625)"/>
       </defs>
       <use xlink:href="#ArialMT-30"/>
       <use xlink:href="#ArialMT-2e" transform="translate(55.615234 0)"/>
       <use xlink:href="#ArialMT-34" transform="translate(83.398438 0)"/>
      </g>
     </g>
    </g>
    <g id="xtick_4">
     <g id="line2d_4">
      <path d="M 233.158983 275.716283 
L 233.158983 20.803459 
" clip-path="url(#p53f8164ce7)" style="fill: none; stroke: #cccccc; stroke-opacity: 0.3; stroke-width: 1.5; stroke-linecap: round"/>
     </g>
     <g id="text_4">
      <!-- 0.6 -->
      <g style="fill: #262626" transform="translate(222.838233 298.845635) scale(0.1485 -0.1485)">
       <defs>
        <path id="ArialMT-36" d="M 3184 3459 
L 2625 3416 
Q 2550 3747 2413 3897 
Q 2184 4138 1850 4138 
Q 1581 4138 1378 3988 
Q 1113 3794 959 3422 
Q 806 3050 800 2363 
Q 1003 2672 1297 2822 
Q 1591 2972 1913 2972 
Q 2475 2972 2870 2558 
Q 3266 2144 3266 1488 
Q 3266 1056 3080 686 
Q 2894 316 2569 119 
Q 2244 -78 1831 -78 
Q 1128 -78 684 439 
Q 241 956 241 2144 
Q 241 3472 731 4075 
Q 1159 4600 1884 4600 
Q 2425 4600 2770 4297 
Q 3116 3994 3184 3459 
z
M 888 1484 
Q 888 1194 1011 928 
Q 1134 663 1356 523 
Q 1578 384 1822 384 
Q 2178 384 2434 671 
Q 2691 959 2691 1453 
Q 2691 1928 2437 2201 
Q 2184 2475 1800 2475 
Q 1419 2475 1153 2201 
Q 888 1928 888 1484 
z
" transform="scale(0.015625)"/>
       </defs>
       <use xlink:href="#ArialMT-30"/>
       <use xlink:href="#ArialMT-2e" transform="translate(55.615234 0)"/>
       <use xlink:href="#ArialMT-36" transform="translate(83.398438 0)"/>
      </g>
     </g>
    </g>
    <g id="xtick_5">
     <g id="line2d_5">
      <path d="M 293.871486 275.716283 
L 293.871486 20.803459 
" clip-path="url(#p53f8164ce7)" style="fill: none; stroke: #cccccc; stroke-opacity: 0.3; stroke-width: 1.5; stroke-linecap: round"/>
     </g>
     <g id="text_5">
      <!-- 0.8 -->
      <g style="fill: #262626" transform="translate(283.550736 298.845635) scale(0.1485 -0.1485)">
       <defs>
        <path id="ArialMT-38" d="M 1131 2484 
Q 781 2613 612 2850 
Q 444 3088 444 3419 
Q 444 3919 803 4259 
Q 1163 4600 1759 4600 
Q 2359 4600 2725 4251 
Q 3091 3903 3091 3403 
Q 3091 3084 2923 2848 
Q 2756 2613 2416 2484 
Q 2838 2347 3058 2040 
Q 3278 1734 3278 1309 
Q 3278 722 2862 322 
Q 2447 -78 1769 -78 
Q 1091 -78 675 323 
Q 259 725 259 1325 
Q 259 1772 486 2073 
Q 713 2375 1131 2484 
z
M 1019 3438 
Q 1019 3113 1228 2906 
Q 1438 2700 1772 2700 
Q 2097 2700 2305 2904 
Q 2513 3109 2513 3406 
Q 2513 3716 2298 3927 
Q 2084 4138 1766 4138 
Q 1444 4138 1231 3931 
Q 1019 3725 1019 3438 
z
M 838 1322 
Q 838 1081 952 856 
Q 1066 631 1291 507 
Q 1516 384 1775 384 
Q 2178 384 2440 643 
Q 2703 903 2703 1303 
Q 2703 1709 2433 1975 
Q 2163 2241 1756 2241 
Q 1359 2241 1098 1978 
Q 838 1716 838 1322 
z
" transform="scale(0.015625)"/>
       </defs>
       <use xlink:href="#ArialMT-30"/>
       <use xlink:href="#ArialMT-2e" transform="translate(55.615234 0)"/>
       <use xlink:href="#ArialMT-38" transform="translate(83.398438 0)"/>
      </g>
     </g>
    </g>
    <g id="xtick_6">
     <g id="line2d_6">
      <path d="M 354.583989 275.716283 
L 354.583989 20.803459 
" clip-path="url(#p53f8164ce7)" style="fill: none; stroke: #cccccc; stroke-opacity: 0.3; stroke-width: 1.5; stroke-linecap: round"/>
     </g>
     <g id="text_6">
      <!-- 1.0 -->
      <g style="fill: #262626" transform="translate(344.263239 298.845635) scale(0.1485 -0.1485)">
       <defs>
        <path id="ArialMT-31" d="M 2384 0 
L 1822 0 
L 1822 3584 
Q 1619 3391 1289 3197 
Q 959 3003 697 2906 
L 697 3450 
Q 1169 3672 1522 3987 
Q 1875 4303 2022 4600 
L 2384 4600 
L 2384 0 
z
" transform="scale(0.015625)"/>
       </defs>
       <use xlink:href="#ArialMT-31"/>
       <use xlink:href="#ArialMT-2e" transform="translate(55.615234 0)"/>
       <use xlink:href="#ArialMT-30" transform="translate(83.398438 0)"/>
      </g>
     </g>
    </g>
    <g id="xtick_7">
     <g id="line2d_7">
      <path d="M 415.296492 275.716283 
L 415.296492 20.803459 
" clip-path="url(#p53f8164ce7)" style="fill: none; stroke: #cccccc; stroke-opacity: 0.3; stroke-width: 1.5; stroke-linecap: round"/>
     </g>
     <g id="text_7">
      <!-- 1.2 -->
      <g style="fill: #262626" transform="translate(404.975742 298.845635) scale(0.1485 -0.1485)">
       <use xlink:href="#ArialMT-31"/>
       <use xlink:href="#ArialMT-2e" transform="translate(55.615234 0)"/>
       <use xlink:href="#ArialMT-32" transform="translate(83.398438 0)"/>
      </g>
     </g>
    </g>
    <g id="text_8">
     <!-- Utilization (flow / NTC) -->
     <g style="fill: #262626" transform="translate(152.600686 317.590166) scale(0.162 -0.162)">
      <defs>
       <path id="ArialMT-55" d="M 3500 4581 
L 4106 4581 
L 4106 1934 
Q 4106 1244 3950 837 
Q 3794 431 3386 176 
Q 2978 -78 2316 -78 
Q 1672 -78 1262 144 
Q 853 366 678 786 
Q 503 1206 503 1934 
L 503 4581 
L 1109 4581 
L 1109 1938 
Q 1109 1341 1220 1058 
Q 1331 775 1601 622 
Q 1872 469 2263 469 
Q 2931 469 3215 772 
Q 3500 1075 3500 1938 
L 3500 4581 
z
" transform="scale(0.015625)"/>
       <path id="ArialMT-74" d="M 1650 503 
L 1731 6 
Q 1494 -44 1306 -44 
Q 1000 -44 831 53 
Q 663 150 594 308 
Q 525 466 525 972 
L 525 2881 
L 113 2881 
L 113 3319 
L 525 3319 
L 525 4141 
L 1084 4478 
L 1084 3319 
L 1650 3319 
L 1650 2881 
L 1084 2881 
L 1084 941 
Q 1084 700 1114 631 
Q 1144 563 1211 522 
Q 1278 481 1403 481 
Q 1497 481 1650 503 
z
" transform="scale(0.015625)"/>
       <path id="ArialMT-69" d="M 425 3934 
L 425 4581 
L 988 4581 
L 988 3934 
L 425 3934 
z
M 425 0 
L 425 3319 
L 988 3319 
L 988 0 
L 425 0 
z
" transform="scale(0.015625)"/>
       <path id="ArialMT-6c" d="M 409 0 
L 409 4581 
L 972 4581 
L 972 0 
L 409 0 
z
" transform="scale(0.015625)"/>
       <path id="ArialMT-7a" d="M 125 0 
L 125 456 
L 2238 2881 
Q 1878 2863 1603 2863 
L 250 2863 
L 250 3319 
L 2963 3319 
L 2963 2947 
L 1166 841 
L 819 456 
Q 1197 484 1528 484 
L 3063 484 
L 3063 0 
L 125 0 
z
" transform="scale(0.015625)"/>
       <path id="ArialMT-61" d="M 2588 409 
Q 2275 144 1986 34 
Q 1697 -75 1366 -75 
Q 819 -75 525 192 
Q 231 459 231 875 
Q 231 1119 342 1320 
Q 453 1522 633 1644 
Q 813 1766 1038 1828 
Q 1203 1872 1538 1913 
Q 2219 1994 2541 2106 
Q 2544 2222 2544 2253 
Q 2544 2597 2384 2738 
Q 2169 2928 1744 2928 
Q 1347 2928 1158 2789 
Q 969 2650 878 2297 
L 328 2372 
Q 403 2725 575 2942 
Q 747 3159 1072 3276 
Q 1397 3394 1825 3394 
Q 2250 3394 2515 3294 
Q 2781 3194 2906 3042 
Q 3031 2891 3081 2659 
Q 3109 2516 3109 2141 
L 3109 1391 
Q 3109 606 3145 398 
Q 3181 191 3288 0 
L 2700 0 
Q 2613 175 2588 409 
z
M 2541 1666 
Q 2234 1541 1622 1453 
Q 1275 1403 1131 1340 
Q 988 1278 909 1158 
Q 831 1038 831 891 
Q 831 666 1001 516 
Q 1172 366 1500 366 
Q 1825 366 2078 508 
Q 2331 650 2450 897 
Q 2541 1088 2541 1459 
L 2541 1666 
z
" transform="scale(0.015625)"/>
       <path id="ArialMT-6f" d="M 213 1659 
Q 213 2581 725 3025 
Q 1153 3394 1769 3394 
Q 2453 3394 2887 2945 
Q 3322 2497 3322 1706 
Q 3322 1066 3130 698 
Q 2938 331 2570 128 
Q 2203 -75 1769 -75 
Q 1072 -75 642 372 
Q 213 819 213 1659 
z
M 791 1659 
Q 791 1022 1069 705 
Q 1347 388 1769 388 
Q 2188 388 2466 706 
Q 2744 1025 2744 1678 
Q 2744 2294 2464 2611 
Q 2184 2928 1769 2928 
Q 1347 2928 1069 2612 
Q 791 2297 791 1659 
z
" transform="scale(0.015625)"/>
       <path id="ArialMT-6e" d="M 422 0 
L 422 3319 
L 928 3319 
L 928 2847 
Q 1294 3394 1984 3394 
Q 2284 3394 2536 3286 
Q 2788 3178 2913 3003 
Q 3038 2828 3088 2588 
Q 3119 2431 3119 2041 
L 3119 0 
L 2556 0 
L 2556 2019 
Q 2556 2363 2490 2533 
Q 2425 2703 2258 2804 
Q 2091 2906 1866 2906 
Q 1506 2906 1245 2678 
Q 984 2450 984 1813 
L 984 0 
L 422 0 
z
" transform="scale(0.015625)"/>
       <path id="ArialMT-20" transform="scale(0.015625)"/>
       <path id="ArialMT-28" d="M 1497 -1347 
Q 1031 -759 709 28 
Q 388 816 388 1659 
Q 388 2403 628 3084 
Q 909 3875 1497 4659 
L 1900 4659 
Q 1522 4009 1400 3731 
Q 1209 3300 1100 2831 
Q 966 2247 966 1656 
Q 966 153 1900 -1347 
L 1497 -1347 
z
" transform="scale(0.015625)"/>
       <path id="ArialMT-66" d="M 556 0 
L 556 2881 
L 59 2881 
L 59 3319 
L 556 3319 
L 556 3672 
Q 556 4006 616 4169 
Q 697 4388 901 4523 
Q 1106 4659 1475 4659 
Q 1713 4659 2000 4603 
L 1916 4113 
Q 1741 4144 1584 4144 
Q 1328 4144 1222 4034 
Q 1116 3925 1116 3625 
L 1116 3319 
L 1763 3319 
L 1763 2881 
L 1116 2881 
L 1116 0 
L 556 0 
z
" transform="scale(0.015625)"/>
       <path id="ArialMT-77" d="M 1034 0 
L 19 3319 
L 600 3319 
L 1128 1403 
L 1325 691 
Q 1338 744 1497 1375 
L 2025 3319 
L 2603 3319 
L 3100 1394 
L 3266 759 
L 3456 1400 
L 4025 3319 
L 4572 3319 
L 3534 0 
L 2950 0 
L 2422 1988 
L 2294 2553 
L 1622 0 
L 1034 0 
z
" transform="scale(0.015625)"/>
       <path id="ArialMT-2f" d="M 0 -78 
L 1328 4659 
L 1778 4659 
L 453 -78 
L 0 -78 
z
" transform="scale(0.015625)"/>
       <path id="ArialMT-4e" d="M 488 0 
L 488 4581 
L 1109 4581 
L 3516 984 
L 3516 4581 
L 4097 4581 
L 4097 0 
L 3475 0 
L 1069 3600 
L 1069 0 
L 488 0 
z
" transform="scale(0.015625)"/>
       <path id="ArialMT-54" d="M 1659 0 
L 1659 4041 
L 150 4041 
L 150 4581 
L 3781 4581 
L 3781 4041 
L 2266 4041 
L 2266 0 
L 1659 0 
z
" transform="scale(0.015625)"/>
       <path id="ArialMT-43" d="M 3763 1606 
L 4369 1453 
Q 4178 706 3683 314 
Q 3188 -78 2472 -78 
Q 1731 -78 1267 223 
Q 803 525 561 1097 
Q 319 1669 319 2325 
Q 319 3041 592 3573 
Q 866 4106 1370 4382 
Q 1875 4659 2481 4659 
Q 3169 4659 3637 4309 
Q 4106 3959 4291 3325 
L 3694 3184 
Q 3534 3684 3231 3912 
Q 2928 4141 2469 4141 
Q 1941 4141 1586 3887 
Q 1231 3634 1087 3207 
Q 944 2781 944 2328 
Q 944 1744 1114 1308 
Q 1284 872 1643 656 
Q 2003 441 2422 441 
Q 2931 441 3284 734 
Q 3638 1028 3763 1606 
z
" transform="scale(0.015625)"/>
       <path id="ArialMT-29" d="M 791 -1347 
L 388 -1347 
Q 1322 153 1322 1656 
Q 1322 2244 1188 2822 
Q 1081 3291 891 3722 
Q 769 4003 388 4659 
L 791 4659 
Q 1378 3875 1659 3084 
Q 1900 2403 1900 1659 
Q 1900 816 1576 28 
Q 1253 -759 791 -1347 
z
" transform="scale(0.015625)"/>
      </defs>
      <use xlink:href="#ArialMT-55"/>
      <use xlink:href="#ArialMT-74" transform="translate(72.216797 0)"/>
      <use xlink:href="#ArialMT-69" transform="translate(100 0)"/>
      <use xlink:href="#ArialMT-6c" transform="translate(122.216797 0)"/>
      <use xlink:href="#ArialMT-69" transform="translate(144.433594 0)"/>
      <use xlink:href="#ArialMT-7a" transform="translate(166.650391 0)"/>
      <use xlink:href="#ArialMT-61" transform="translate(216.650391 0)"/>
      <use xlink:href="#ArialMT-74" transform="translate(272.265625 0)"/>
      <use xlink:href="#ArialMT-69" transform="translate(300.048828 0)"/>
      <use xlink:href="#ArialMT-6f" transform="translate(322.265625 0)"/>
      <use xlink:href="#ArialMT-6e" transform="translate(377.880859 0)"/>
      <use xlink:href="#ArialMT-20" transform="translate(433.496094 0)"/>
      <use xlink:href="#ArialMT-28" transform="translate(461.279297 0)"/>
      <use xlink:href="#ArialMT-66" transform="translate(494.580078 0)"/>
      <use xlink:href="#ArialMT-6c" transform="translate(522.363281 0)"/>
      <use xlink:href="#ArialMT-6f" transform="translate(544.580078 0)"/>
      <use xlink:href="#ArialMT-77" transform="translate(600.195312 0)"/>
      <use xlink:href="#ArialMT-20" transform="translate(672.412109 0)"/>
      <use xlink:href="#ArialMT-2f" transform="translate(700.195312 0)"/>
      <use xlink:href="#ArialMT-20" transform="translate(727.978516 0)"/>
      <use xlink:href="#ArialMT-4e" transform="translate(755.761719 0)"/>
      <use xlink:href="#ArialMT-54" transform="translate(827.978516 0)"/>
      <use xlink:href="#ArialMT-43" transform="translate(889.0625 0)"/>
      <use xlink:href="#ArialMT-29" transform="translate(961.279297 0)"/>
     </g>
    </g>
   </g>
   <g id="matplotlib.axis_2">
    <g id="ytick_1">
     <g id="line2d_8">
      <path d="M 51.021474 275.716283 
L 415.296492 275.716283 
" clip-path="url(#p53f8164ce7)" style="fill: none; stroke: #cccccc; stroke-opacity: 0.3; stroke-width: 1.5; stroke-linecap: round"/>
     </g>
     <g id="text_9">
      <!-- 0 -->
      <g style="fill: #262626" transform="translate(30.263482 281.030959) scale(0.1485 -0.1485)">
       <use xlink:href="#ArialMT-30"/>
      </g>
     </g>
    </g>
    <g id="ytick_2">
     <g id="line2d_9">
      <path d="M 51.021474 225.558126 
L 415.296492 225.558126 
" clip-path="url(#p53f8164ce7)" style="fill: none; stroke: #cccccc; stroke-opacity: 0.3; stroke-width: 1.5; stroke-linecap: round"/>
     </g>
     <g id="text_10">
      <!-- 10 -->
      <g style="fill: #262626" transform="translate(22.00549 230.872802) scale(0.1485 -0.1485)">
       <use xlink:href="#ArialMT-31"/>
       <use xlink:href="#ArialMT-30" transform="translate(55.615234 0)"/>
      </g>
     </g>
    </g>
    <g id="ytick_3">
     <g id="line2d_10">
      <path d="M 51.021474 175.399969 
L 415.296492 175.399969 
" clip-path="url(#p53f8164ce7)" style="fill: none; stroke: #cccccc; stroke-opacity: 0.3; stroke-width: 1.5; stroke-linecap: round"/>
     </g>
     <g id="text_11">
      <!-- 20 -->
      <g style="fill: #262626" transform="translate(22.00549 180.714645) scale(0.1485 -0.1485)">
       <use xlink:href="#ArialMT-32"/>
       <use xlink:href="#ArialMT-30" transform="translate(55.615234 0)"/>
      </g>
     </g>
    </g>
    <g id="ytick_4">
     <g id="line2d_11">
      <path d="M 51.021474 125.241812 
L 415.296492 125.241812 
" clip-path="url(#p53f8164ce7)" style="fill: none; stroke: #cccccc; stroke-opacity: 0.3; stroke-width: 1.5; stroke-linecap: round"/>
     </g>
     <g id="text_12">
      <!-- 30 -->
      <g style="fill: #262626" transform="translate(22.00549 130.556488) scale(0.1485 -0.1485)">
       <defs>
        <path id="ArialMT-33" d="M 269 1209 
L 831 1284 
Q 928 806 1161 595 
Q 1394 384 1728 384 
Q 2125 384 2398 659 
Q 2672 934 2672 1341 
Q 2672 1728 2419 1979 
Q 2166 2231 1775 2231 
Q 1616 2231 1378 2169 
L 1441 2663 
Q 1497 2656 1531 2656 
Q 1891 2656 2178 2843 
Q 2466 3031 2466 3422 
Q 2466 3731 2256 3934 
Q 2047 4138 1716 4138 
Q 1388 4138 1169 3931 
Q 950 3725 888 3313 
L 325 3413 
Q 428 3978 793 4289 
Q 1159 4600 1703 4600 
Q 2078 4600 2393 4439 
Q 2709 4278 2876 4000 
Q 3044 3722 3044 3409 
Q 3044 3113 2884 2869 
Q 2725 2625 2413 2481 
Q 2819 2388 3044 2092 
Q 3269 1797 3269 1353 
Q 3269 753 2831 336 
Q 2394 -81 1725 -81 
Q 1122 -81 723 278 
Q 325 638 269 1209 
z
" transform="scale(0.015625)"/>
       </defs>
       <use xlink:href="#ArialMT-33"/>
       <use xlink:href="#ArialMT-30" transform="translate(55.615234 0)"/>
      </g>
     </g>
    </g>
    <g id="ytick_5">
     <g id="line2d_12">
      <path d="M 51.021474 75.083655 
L 415.296492 75.083655 
" clip-path="url(#p53f8164ce7)" style="fill: none; stroke: #cccccc; stroke-opacity: 0.3; stroke-width: 1.5; stroke-linecap: round"/>
     </g>
     <g id="text_13">
      <!-- 40 -->
      <g style="fill: #262626" transform="translate(22.00549 80.398331) scale(0.1485 -0.1485)">
       <use xlink:href="#ArialMT-34"/>
       <use xlink:href="#ArialMT-30" transform="translate(55.615234 0)"/>
      </g>
     </g>
    </g>
    <g id="ytick_6">
     <g id="line2d_13">
      <path d="M 51.021474 24.925498 
L 415.296492 24.925498 
" clip-path="url(#p53f8164ce7)" style="fill: none; stroke: #cccccc; stroke-opacity: 0.3; stroke-width: 1.5; stroke-linecap: round"/>
     </g>
     <g id="text_14">
      <!-- 50 -->
      <g style="fill: #262626" transform="translate(22.00549 30.240174) scale(0.1485 -0.1485)">
       <defs>
        <path id="ArialMT-35" d="M 266 1200 
L 856 1250 
Q 922 819 1161 601 
Q 1400 384 1738 384 
Q 2144 384 2425 690 
Q 2706 997 2706 1503 
Q 2706 1984 2436 2262 
Q 2166 2541 1728 2541 
Q 1456 2541 1237 2417 
Q 1019 2294 894 2097 
L 366 2166 
L 809 4519 
L 3088 4519 
L 3088 3981 
L 1259 3981 
L 1013 2750 
Q 1425 3038 1878 3038 
Q 2478 3038 2890 2622 
Q 3303 2206 3303 1553 
Q 3303 931 2941 478 
Q 2500 -78 1738 -78 
Q 1113 -78 717 272 
Q 322 622 266 1200 
z
" transform="scale(0.015625)"/>
       </defs>
       <use xlink:href="#ArialMT-35"/>
       <use xlink:href="#ArialMT-30" transform="translate(55.615234 0)"/>
      </g>
     </g>
    </g>
    <g id="text_15">
     <!-- Density -->
     <g style="fill: #262626" transform="translate(14.595896 175.268309) rotate(-90) scale(0.162 -0.162)">
      <defs>
       <path id="ArialMT-44" d="M 494 0 
L 494 4581 
L 2072 4581 
Q 2606 4581 2888 4516 
Q 3281 4425 3559 4188 
Q 3922 3881 4101 3404 
Q 4281 2928 4281 2316 
Q 4281 1794 4159 1391 
Q 4038 988 3847 723 
Q 3656 459 3429 307 
Q 3203 156 2883 78 
Q 2563 0 2147 0 
L 494 0 
z
M 1100 541 
L 2078 541 
Q 2531 541 2789 625 
Q 3047 709 3200 863 
Q 3416 1078 3536 1442 
Q 3656 1806 3656 2325 
Q 3656 3044 3420 3430 
Q 3184 3816 2847 3947 
Q 2603 4041 2063 4041 
L 1100 4041 
L 1100 541 
z
" transform="scale(0.015625)"/>
       <path id="ArialMT-65" d="M 2694 1069 
L 3275 997 
Q 3138 488 2766 206 
Q 2394 -75 1816 -75 
Q 1088 -75 661 373 
Q 234 822 234 1631 
Q 234 2469 665 2931 
Q 1097 3394 1784 3394 
Q 2450 3394 2872 2941 
Q 3294 2488 3294 1666 
Q 3294 1616 3291 1516 
L 816 1516 
Q 847 969 1125 678 
Q 1403 388 1819 388 
Q 2128 388 2347 550 
Q 2566 713 2694 1069 
z
M 847 1978 
L 2700 1978 
Q 2663 2397 2488 2606 
Q 2219 2931 1791 2931 
Q 1403 2931 1139 2672 
Q 875 2413 847 1978 
z
" transform="scale(0.015625)"/>
       <path id="ArialMT-73" d="M 197 991 
L 753 1078 
Q 800 744 1014 566 
Q 1228 388 1613 388 
Q 2000 388 2187 545 
Q 2375 703 2375 916 
Q 2375 1106 2209 1216 
Q 2094 1291 1634 1406 
Q 1016 1563 777 1677 
Q 538 1791 414 1992 
Q 291 2194 291 2438 
Q 291 2659 392 2848 
Q 494 3038 669 3163 
Q 800 3259 1026 3326 
Q 1253 3394 1513 3394 
Q 1903 3394 2198 3281 
Q 2494 3169 2634 2976 
Q 2775 2784 2828 2463 
L 2278 2388 
Q 2241 2644 2061 2787 
Q 1881 2931 1553 2931 
Q 1166 2931 1000 2803 
Q 834 2675 834 2503 
Q 834 2394 903 2306 
Q 972 2216 1119 2156 
Q 1203 2125 1616 2013 
Q 2213 1853 2448 1751 
Q 2684 1650 2818 1456 
Q 2953 1263 2953 975 
Q 2953 694 2789 445 
Q 2625 197 2315 61 
Q 2006 -75 1616 -75 
Q 969 -75 630 194 
Q 291 463 197 991 
z
" transform="scale(0.015625)"/>
       <path id="ArialMT-79" d="M 397 -1278 
L 334 -750 
Q 519 -800 656 -800 
Q 844 -800 956 -737 
Q 1069 -675 1141 -563 
Q 1194 -478 1313 -144 
Q 1328 -97 1363 -6 
L 103 3319 
L 709 3319 
L 1400 1397 
Q 1534 1031 1641 628 
Q 1738 1016 1872 1384 
L 2581 3319 
L 3144 3319 
L 1881 -56 
Q 1678 -603 1566 -809 
Q 1416 -1088 1222 -1217 
Q 1028 -1347 759 -1347 
Q 597 -1347 397 -1278 
z
" transform="scale(0.015625)"/>
      </defs>
      <use xlink:href="#ArialMT-44"/>
      <use xlink:href="#ArialMT-65" transform="translate(72.216797 0)"/>
      <use xlink:href="#ArialMT-6e" transform="translate(127.832031 0)"/>
      <use xlink:href="#ArialMT-73" transform="translate(183.447266 0)"/>
      <use xlink:href="#ArialMT-69" transform="translate(233.447266 0)"/>
      <use xlink:href="#ArialMT-74" transform="translate(255.664062 0)"/>
      <use xlink:href="#ArialMT-79" transform="translate(283.447266 0)"/>
     </g>
    </g>
   </g>
   <g id="patch_3">
    <path d="M 51.021474 275.716283 
L 58.410119 275.716283 
L 58.410119 78.63963 
L 51.021474 78.63963 
z
" clip-path="url(#p53f8164ce7)" style="fill: #4c72b0; fill-opacity: 0.85; stroke: #ffffff; stroke-width: 0.691736; stroke-linejoin: miter"/>
   </g>
   <g id="patch_4">
    <path d="M 58.410119 275.716283 
L 65.798763 275.716283 
L 65.798763 275.241703 
L 58.410119 275.241703 
z
" clip-path="url(#p53f8164ce7)" style="fill: #4c72b0; fill-opacity: 0.85; stroke: #ffffff; stroke-width: 0.691736; stroke-linejoin: miter"/>
   </g>
   <g id="patch_5">
    <path d="M 65.798763 275.716283 
L 73.187408 275.716283 
L 73.187408 275.26056 
L 65.798763 275.26056 
z
" clip-path="url(#p53f8164ce7)" style="fill: #4c72b0; fill-opacity: 0.85; stroke: #ffffff; stroke-width: 0.691736; stroke-linejoin: miter"/>
   </g>
   <g id="patch_6">
    <path d="M 73.187408 275.716283 
L 80.576052 275.716283 
L 80.576052 275.178845 
L 73.187408 275.178845 
z
" clip-path="url(#p53f8164ce7)" style="fill: #4c72b0; fill-opacity: 0.85; stroke: #ffffff; stroke-width: 0.691736; stroke-linejoin: miter"/>
   </g>
   <g id="patch_7">
    <path d="M 80.576052 275.716283 
L 87.964697 275.716283 
L 87.964697 275.14113 
L 80.576052 275.14113 
z
" clip-path="url(#p53f8164ce7)" style="fill: #4c72b0; fill-opacity: 0.85; stroke: #ffffff; stroke-width: 0.691736; stroke-linejoin: miter"/>
   </g>
   <g id="patch_8">
    <path d="M 87.964697 275.716283 
L 95.353341 275.716283 
L 95.353341 275.200845 
L 87.964697 275.200845 
z
" clip-path="url(#p53f8164ce7)" style="fill: #4c72b0; fill-opacity: 0.85; stroke: #ffffff; stroke-width: 0.691736; stroke-linejoin: miter"/>
   </g>
   <g id="patch_9">
    <path d="M 95.353341 275.716283 
L 102.741986 275.716283 
L 102.741986 275.153701 
L 95.353341 275.153701 
z
" clip-path="url(#p53f8164ce7)" style="fill: #4c72b0; fill-opacity: 0.85; stroke: #ffffff; stroke-width: 0.691736; stroke-linejoin: miter"/>
   </g>
   <g id="patch_10">
    <path d="M 102.741986 275.716283 
L 110.13063 275.716283 
L 110.13063 275.219702 
L 102.741986 275.219702 
z
" clip-path="url(#p53f8164ce7)" style="fill: #4c72b0; fill-opacity: 0.85; stroke: #ffffff; stroke-width: 0.691736; stroke-linejoin: miter"/>
   </g>
   <g id="patch_11">
    <path d="M 110.13063 275.716283 
L 117.519275 275.716283 
L 117.519275 275.194559 
L 110.13063 275.194559 
z
" clip-path="url(#p53f8164ce7)" style="fill: #4c72b0; fill-opacity: 0.85; stroke: #ffffff; stroke-width: 0.691736; stroke-linejoin: miter"/>
   </g>
   <g id="patch_12">
    <path d="M 117.519275 275.716283 
L 124.907919 275.716283 
L 124.907919 275.229131 
L 117.519275 275.229131 
z
" clip-path="url(#p53f8164ce7)" style="fill: #4c72b0; fill-opacity: 0.85; stroke: #ffffff; stroke-width: 0.691736; stroke-linejoin: miter"/>
   </g>
   <g id="patch_13">
    <path d="M 124.907919 275.716283 
L 132.296564 275.716283 
L 132.296564 275.320276 
L 124.907919 275.320276 
z
" clip-path="url(#p53f8164ce7)" style="fill: #4c72b0; fill-opacity: 0.85; stroke: #ffffff; stroke-width: 0.691736; stroke-linejoin: miter"/>
   </g>
   <g id="patch_14">
    <path d="M 132.296564 275.716283 
L 139.685208 275.716283 
L 139.685208 275.370562 
L 132.296564 275.370562 
z
" clip-path="url(#p53f8164ce7)" style="fill: #4c72b0; fill-opacity: 0.85; stroke: #ffffff; stroke-width: 0.691736; stroke-linejoin: miter"/>
   </g>
   <g id="patch_15">
    <path d="M 139.685208 275.716283 
L 147.073853 275.716283 
L 147.073853 275.370562 
L 139.685208 275.370562 
z
" clip-path="url(#p53f8164ce7)" style="fill: #4c72b0; fill-opacity: 0.85; stroke: #ffffff; stroke-width: 0.691736; stroke-linejoin: miter"/>
   </g>
   <g id="patch_16">
    <path d="M 147.073853 275.716283 
L 154.462497 275.716283 
L 154.462497 275.38942 
L 147.073853 275.38942 
z
" clip-path="url(#p53f8164ce7)" style="fill: #4c72b0; fill-opacity: 0.85; stroke: #ffffff; stroke-width: 0.691736; stroke-linejoin: miter"/>
   </g>
   <g id="patch_17">
    <path d="M 154.462497 275.716283 
L 161.851142 275.716283 
L 161.851142 275.427135 
L 154.462497 275.427135 
z
" clip-path="url(#p53f8164ce7)" style="fill: #4c72b0; fill-opacity: 0.85; stroke: #ffffff; stroke-width: 0.691736; stroke-linejoin: miter"/>
   </g>
   <g id="patch_18">
    <path d="M 161.851142 275.716283 
L 169.239786 275.716283 
L 169.239786 275.461707 
L 161.851142 275.461707 
z
" clip-path="url(#p53f8164ce7)" style="fill: #4c72b0; fill-opacity: 0.85; stroke: #ffffff; stroke-width: 0.691736; stroke-linejoin: miter"/>
   </g>
   <g id="patch_19">
    <path d="M 169.239786 275.716283 
L 176.628431 275.716283 
L 176.628431 275.436564 
L 169.239786 275.436564 
z
" clip-path="url(#p53f8164ce7)" style="fill: #4c72b0; fill-opacity: 0.85; stroke: #ffffff; stroke-width: 0.691736; stroke-linejoin: miter"/>
   </g>
   <g id="patch_20">
    <path d="M 176.628431 275.716283 
L 184.017075 275.716283 
L 184.017075 275.417706 
L 176.628431 275.417706 
z
" clip-path="url(#p53f8164ce7)" style="fill: #4c72b0; fill-opacity: 0.85; stroke: #ffffff; stroke-width: 0.691736; stroke-linejoin: miter"/>
   </g>
   <g id="patch_21">
    <path d="M 184.017075 275.716283 
L 191.40572 275.716283 
L 191.40572 275.54028 
L 184.017075 275.54028 
z
" clip-path="url(#p53f8164ce7)" style="fill: #4c72b0; fill-opacity: 0.85; stroke: #ffffff; stroke-width: 0.691736; stroke-linejoin: miter"/>
   </g>
   <g id="patch_22">
    <path d="M 191.40572 275.716283 
L 198.794364 275.716283 
L 198.794364 275.530851 
L 191.40572 275.530851 
z
" clip-path="url(#p53f8164ce7)" style="fill: #4c72b0; fill-opacity: 0.85; stroke: #ffffff; stroke-width: 0.691736; stroke-linejoin: miter"/>
   </g>
   <g id="patch_23">
    <path d="M 198.794364 275.716283 
L 206.183009 275.716283 
L 206.183009 275.59371 
L 198.794364 275.59371 
z
" clip-path="url(#p53f8164ce7)" style="fill: #4c72b0; fill-opacity: 0.85; stroke: #ffffff; stroke-width: 0.691736; stroke-linejoin: miter"/>
   </g>
   <g id="patch_24">
    <path d="M 206.183009 275.716283 
L 213.571653 275.716283 
L 213.571653 275.574852 
L 206.183009 275.574852 
z
" clip-path="url(#p53f8164ce7)" style="fill: #4c72b0; fill-opacity: 0.85; stroke: #ffffff; stroke-width: 0.691736; stroke-linejoin: miter"/>
   </g>
   <g id="patch_25">
    <path d="M 213.571653 275.716283 
L 220.960298 275.716283 
L 220.960298 275.587424 
L 213.571653 275.587424 
z
" clip-path="url(#p53f8164ce7)" style="fill: #4c72b0; fill-opacity: 0.85; stroke: #ffffff; stroke-width: 0.691736; stroke-linejoin: miter"/>
   </g>
   <g id="patch_26">
    <path d="M 220.960298 275.716283 
L 228.348942 275.716283 
L 228.348942 275.640853 
L 220.960298 275.640853 
z
" clip-path="url(#p53f8164ce7)" style="fill: #4c72b0; fill-opacity: 0.85; stroke: #ffffff; stroke-width: 0.691736; stroke-linejoin: miter"/>
   </g>
   <g id="patch_27">
    <path d="M 228.348942 275.716283 
L 235.737587 275.716283 
L 235.737587 275.584281 
L 228.348942 275.584281 
z
" clip-path="url(#p53f8164ce7)" style="fill: #4c72b0; fill-opacity: 0.85; stroke: #ffffff; stroke-width: 0.691736; stroke-linejoin: miter"/>
   </g>
   <g id="patch_28">
    <path d="M 235.737587 275.716283 
L 243.126231 275.716283 
L 243.126231 275.596853 
L 235.737587 275.596853 
z
" clip-path="url(#p53f8164ce7)" style="fill: #4c72b0; fill-opacity: 0.85; stroke: #ffffff; stroke-width: 0.691736; stroke-linejoin: miter"/>
   </g>
   <g id="patch_29">
    <path d="M 243.126231 275.716283 
L 250.514876 275.716283 
L 250.514876 275.574852 
L 243.126231 275.574852 
z
" clip-path="url(#p53f8164ce7)" style="fill: #4c72b0; fill-opacity: 0.85; stroke: #ffffff; stroke-width: 0.691736; stroke-linejoin: miter"/>
   </g>
   <g id="patch_30">
    <path d="M 250.514876 275.716283 
L 257.90352 275.716283 
L 257.90352 275.590567 
L 250.514876 275.590567 
z
" clip-path="url(#p53f8164ce7)" style="fill: #4c72b0; fill-opacity: 0.85; stroke: #ffffff; stroke-width: 0.691736; stroke-linejoin: miter"/>
   </g>
   <g id="patch_31">
    <path d="M 257.90352 275.716283 
L 265.292165 275.716283 
L 265.292165 275.659711 
L 257.90352 275.659711 
z
" clip-path="url(#p53f8164ce7)" style="fill: #4c72b0; fill-opacity: 0.85; stroke: #ffffff; stroke-width: 0.691736; stroke-linejoin: miter"/>
   </g>
   <g id="patch_32">
    <path d="M 265.292165 275.716283 
L 272.680809 275.716283 
L 272.680809 275.609424 
L 265.292165 275.609424 
z
" clip-path="url(#p53f8164ce7)" style="fill: #4c72b0; fill-opacity: 0.85; stroke: #ffffff; stroke-width: 0.691736; stroke-linejoin: miter"/>
   </g>
   <g id="patch_33">
    <path d="M 272.680809 275.716283 
L 280.069454 275.716283 
L 280.069454 275.662854 
L 272.680809 275.662854 
z
" clip-path="url(#p53f8164ce7)" style="fill: #4c72b0; fill-opacity: 0.85; stroke: #ffffff; stroke-width: 0.691736; stroke-linejoin: miter"/>
   </g>
   <g id="patch_34">
    <path d="M 280.069454 275.716283 
L 287.458098 275.716283 
L 287.458098 275.643996 
L 280.069454 275.643996 
z
" clip-path="url(#p53f8164ce7)" style="fill: #4c72b0; fill-opacity: 0.85; stroke: #ffffff; stroke-width: 0.691736; stroke-linejoin: miter"/>
   </g>
   <g id="patch_35">
    <path d="M 287.458098 275.716283 
L 294.846743 275.716283 
L 294.846743 275.678568 
L 287.458098 275.678568 
z
" clip-path="url(#p53f8164ce7)" style="fill: #4c72b0; fill-opacity: 0.85; stroke: #ffffff; stroke-width: 0.691736; stroke-linejoin: miter"/>
   </g>
   <g id="patch_36">
    <path d="M 294.846743 275.716283 
L 302.235387 275.716283 
L 302.235387 275.66914 
L 294.846743 275.66914 
z
" clip-path="url(#p53f8164ce7)" style="fill: #4c72b0; fill-opacity: 0.85; stroke: #ffffff; stroke-width: 0.691736; stroke-linejoin: miter"/>
   </g>
   <g id="patch_37">
    <path d="M 302.235387 275.716283 
L 309.624032 275.716283 
L 309.624032 275.709998 
L 302.235387 275.709998 
z
" clip-path="url(#p53f8164ce7)" style="fill: #4c72b0; fill-opacity: 0.85; stroke: #ffffff; stroke-width: 0.691736; stroke-linejoin: miter"/>
   </g>
   <g id="patch_38">
    <path d="M 309.624032 275.716283 
L 317.012676 275.716283 
L 317.012676 275.684854 
L 309.624032 275.684854 
z
" clip-path="url(#p53f8164ce7)" style="fill: #4c72b0; fill-opacity: 0.85; stroke: #ffffff; stroke-width: 0.691736; stroke-linejoin: miter"/>
   </g>
   <g id="patch_39">
    <path d="M 317.012676 275.716283 
L 324.401321 275.716283 
L 324.401321 275.694283 
L 317.012676 275.694283 
z
" clip-path="url(#p53f8164ce7)" style="fill: #4c72b0; fill-opacity: 0.85; stroke: #ffffff; stroke-width: 0.691736; stroke-linejoin: miter"/>
   </g>
   <g id="patch_40">
    <path d="M 324.401321 275.716283 
L 331.789965 275.716283 
L 331.789965 275.69114 
L 324.401321 275.69114 
z
" clip-path="url(#p53f8164ce7)" style="fill: #4c72b0; fill-opacity: 0.85; stroke: #ffffff; stroke-width: 0.691736; stroke-linejoin: miter"/>
   </g>
   <g id="patch_41">
    <path d="M 331.789965 275.716283 
L 339.17861 275.716283 
L 339.17861 275.703712 
L 331.789965 275.703712 
z
" clip-path="url(#p53f8164ce7)" style="fill: #4c72b0; fill-opacity: 0.85; stroke: #ffffff; stroke-width: 0.691736; stroke-linejoin: miter"/>
   </g>
   <g id="patch_42">
    <path d="M 339.17861 275.716283 
L 346.567254 275.716283 
L 346.567254 275.700569 
L 339.17861 275.700569 
z
" clip-path="url(#p53f8164ce7)" style="fill: #4c72b0; fill-opacity: 0.85; stroke: #ffffff; stroke-width: 0.691736; stroke-linejoin: miter"/>
   </g>
   <g id="line2d_14">
    <path d="M 51.021474 32.942165 
L 52.506629 75.439534 
L 53.991784 163.304367 
L 55.476938 232.627042 
L 56.962093 264.208093 
L 58.447248 273.284889 
L 59.932402 274.98841 
L 61.417557 275.208059 
L 65.873021 275.208497 
L 89.635496 275.173447 
L 153.497147 275.444184 
L 175.774467 275.44255 
L 183.20024 275.473795 
L 192.111168 275.526734 
L 217.358798 275.594754 
L 303.497769 275.698636 
L 324.289934 275.693842 
L 346.567254 275.704006 
L 346.567254 275.704006 
" clip-path="url(#p53f8164ce7)" style="fill: none; stroke: #4c72b0; stroke-width: 2.25; stroke-linecap: round"/>
   </g>
   <g id="patch_43">
    <path d="M 51.021474 275.716283 
L 51.021474 20.803459 
" style="fill: none; stroke: #cccccc; stroke-width: 1.875; stroke-linejoin: miter; stroke-linecap: square"/>
   </g>
   <g id="patch_44">
    <path d="M 415.296492 275.716283 
L 415.296492 20.803459 
" style="fill: none; stroke: #cccccc; stroke-width: 1.875; stroke-linejoin: miter; stroke-linecap: square"/>
   </g>
   <g id="patch_45">
    <path d="M 51.021474 275.716283 
L 415.296492 275.716283 
" style="fill: none; stroke: #cccccc; stroke-width: 1.875; stroke-linejoin: miter; stroke-linecap: square"/>
   </g>
   <g id="patch_46">
    <path d="M 51.021474 20.803459 
L 415.296492 20.803459 
" style="fill: none; stroke: #cccccc; stroke-width: 1.875; stroke-linejoin: miter; stroke-linecap: square"/>
   </g>
   <g id="text_16">
    <!-- Export utilization — NO5 -->
    <g style="fill: #262626" transform="translate(144.477905 14.803459) scale(0.162 -0.162)">
     <defs>
      <path id="ArialMT-45" d="M 506 0 
L 506 4581 
L 3819 4581 
L 3819 4041 
L 1113 4041 
L 1113 2638 
L 3647 2638 
L 3647 2100 
L 1113 2100 
L 1113 541 
L 3925 541 
L 3925 0 
L 506 0 
z
" transform="scale(0.015625)"/>
      <path id="ArialMT-78" d="M 47 0 
L 1259 1725 
L 138 3319 
L 841 3319 
L 1350 2541 
Q 1494 2319 1581 2169 
Q 1719 2375 1834 2534 
L 2394 3319 
L 3066 3319 
L 1919 1756 
L 3153 0 
L 2463 0 
L 1781 1031 
L 1600 1309 
L 728 0 
L 47 0 
z
" transform="scale(0.015625)"/>
      <path id="ArialMT-70" d="M 422 -1272 
L 422 3319 
L 934 3319 
L 934 2888 
Q 1116 3141 1344 3267 
Q 1572 3394 1897 3394 
Q 2322 3394 2647 3175 
Q 2972 2956 3137 2557 
Q 3303 2159 3303 1684 
Q 3303 1175 3120 767 
Q 2938 359 2589 142 
Q 2241 -75 1856 -75 
Q 1575 -75 1351 44 
Q 1128 163 984 344 
L 984 -1272 
L 422 -1272 
z
M 931 1641 
Q 931 1000 1190 694 
Q 1450 388 1819 388 
Q 2194 388 2461 705 
Q 2728 1022 2728 1688 
Q 2728 2322 2467 2637 
Q 2206 2953 1844 2953 
Q 1484 2953 1207 2617 
Q 931 2281 931 1641 
z
" transform="scale(0.015625)"/>
      <path id="ArialMT-72" d="M 416 0 
L 416 3319 
L 922 3319 
L 922 2816 
Q 1116 3169 1280 3281 
Q 1444 3394 1641 3394 
Q 1925 3394 2219 3213 
L 2025 2691 
Q 1819 2813 1613 2813 
Q 1428 2813 1281 2702 
Q 1134 2591 1072 2394 
Q 978 2094 978 1738 
L 978 0 
L 416 0 
z
" transform="scale(0.015625)"/>
      <path id="ArialMT-75" d="M 2597 0 
L 2597 488 
Q 2209 -75 1544 -75 
Q 1250 -75 995 37 
Q 741 150 617 320 
Q 494 491 444 738 
Q 409 903 409 1263 
L 409 3319 
L 972 3319 
L 972 1478 
Q 972 1038 1006 884 
Q 1059 663 1231 536 
Q 1403 409 1656 409 
Q 1909 409 2131 539 
Q 2353 669 2445 892 
Q 2538 1116 2538 1541 
L 2538 3319 
L 3100 3319 
L 3100 0 
L 2597 0 
z
" transform="scale(0.015625)"/>
      <path id="ArialMT-2014" d="M 0 1431 
L 0 1884 
L 6400 1884 
L 6400 1431 
L 0 1431 
z
" transform="scale(0.015625)"/>
      <path id="ArialMT-4f" d="M 309 2231 
Q 309 3372 921 4017 
Q 1534 4663 2503 4663 
Q 3138 4663 3647 4359 
Q 4156 4056 4423 3514 
Q 4691 2972 4691 2284 
Q 4691 1588 4409 1038 
Q 4128 488 3612 205 
Q 3097 -78 2500 -78 
Q 1853 -78 1343 234 
Q 834 547 571 1087 
Q 309 1628 309 2231 
z
M 934 2222 
Q 934 1394 1379 917 
Q 1825 441 2497 441 
Q 3181 441 3623 922 
Q 4066 1403 4066 2288 
Q 4066 2847 3877 3264 
Q 3688 3681 3323 3911 
Q 2959 4141 2506 4141 
Q 1863 4141 1398 3698 
Q 934 3256 934 2222 
z
" transform="scale(0.015625)"/>
     </defs>
     <use xlink:href="#ArialMT-45"/>
     <use xlink:href="#ArialMT-78" transform="translate(66.699219 0)"/>
     <use xlink:href="#ArialMT-70" transform="translate(116.699219 0)"/>
     <use xlink:href="#ArialMT-6f" transform="translate(172.314453 0)"/>
     <use xlink:href="#ArialMT-72" transform="translate(227.929688 0)"/>
     <use xlink:href="#ArialMT-74" transform="translate(261.230469 0)"/>
     <use xlink:href="#ArialMT-20" transform="translate(289.013672 0)"/>
     <use xlink:href="#ArialMT-75" transform="translate(316.796875 0)"/>
     <use xlink:href="#ArialMT-74" transform="translate(372.412109 0)"/>
     <use xlink:href="#ArialMT-69" transform="translate(400.195312 0)"/>
     <use xlink:href="#ArialMT-6c" transform="translate(422.412109 0)"/>
     <use xlink:href="#ArialMT-69" transform="translate(444.628906 0)"/>
     <use xlink:href="#ArialMT-7a" transform="translate(466.845703 0)"/>
     <use xlink:href="#ArialMT-61" transform="translate(516.845703 0)"/>
     <use xlink:href="#ArialMT-74" transform="translate(572.460938 0)"/>
     <use xlink:href="#ArialMT-69" transform="translate(600.244141 0)"/>
     <use xlink:href="#ArialMT-6f" transform="translate(622.460938 0)"/>
     <use xlink:href="#ArialMT-6e" transform="translate(678.076172 0)"/>
     <use xlink:href="#ArialMT-20" transform="translate(733.691406 0)"/>
     <use xlink:href="#ArialMT-2014" transform="translate(761.474609 0)"/>
     <use xlink:href="#ArialMT-20" transform="translate(861.474609 0)"/>
     <use xlink:href="#ArialMT-4e" transform="translate(889.257812 0)"/>
     <use xlink:href="#ArialMT-4f" transform="translate(961.474609 0)"/>
     <use xlink:href="#ArialMT-35" transform="translate(1039.257812 0)"/>
    </g>
   </g>
  </g>
  <g id="axes_2">
   <g id="patch_47">
    <path d="M 486.403992 275.716283 
L 850.67901 275.716283 
L 850.67901 20.803459 
L 486.403992 20.803459 
z
" style="fill: #ffffff"/>
   </g>
   <g id="matplotlib.axis_3">
    <g id="xtick_8">
     <g id="line2d_15">
      <path d="M 486.403992 275.716283 
L 486.403992 20.803459 
" clip-path="url(#ped187c8f1d)" style="fill: none; stroke: #cccccc; stroke-opacity: 0.3; stroke-width: 1.5; stroke-linecap: round"/>
     </g>
     <g id="text_17">
      <!-- 0.0 -->
      <g style="fill: #262626" transform="translate(476.083242 298.845635) scale(0.1485 -0.1485)">
       <use xlink:href="#ArialMT-30"/>
       <use xlink:href="#ArialMT-2e" transform="translate(55.615234 0)"/>
       <use xlink:href="#ArialMT-30" transform="translate(83.398438 0)"/>
      </g>
     </g>
    </g>
    <g id="xtick_9">
     <g id="line2d_16">
      <path d="M 547.116495 275.716283 
L 547.116495 20.803459 
" clip-path="url(#ped187c8f1d)" style="fill: none; stroke: #cccccc; stroke-opacity: 0.3; stroke-width: 1.5; stroke-linecap: round"/>
     </g>
     <g id="text_18">
      <!-- 0.2 -->
      <g style="fill: #262626" transform="translate(536.795745 298.845635) scale(0.1485 -0.1485)">
       <use xlink:href="#ArialMT-30"/>
       <use xlink:href="#ArialMT-2e" transform="translate(55.615234 0)"/>
       <use xlink:href="#ArialMT-32" transform="translate(83.398438 0)"/>
      </g>
     </g>
    </g>
    <g id="xtick_10">
     <g id="line2d_17">
      <path d="M 607.828998 275.716283 
L 607.828998 20.803459 
" clip-path="url(#ped187c8f1d)" style="fill: none; stroke: #cccccc; stroke-opacity: 0.3; stroke-width: 1.5; stroke-linecap: round"/>
     </g>
     <g id="text_19">
      <!-- 0.4 -->
      <g style="fill: #262626" transform="translate(597.508248 298.845635) scale(0.1485 -0.1485)">
       <use xlink:href="#ArialMT-30"/>
       <use xlink:href="#ArialMT-2e" transform="translate(55.615234 0)"/>
       <use xlink:href="#ArialMT-34" transform="translate(83.398438 0)"/>
      </g>
     </g>
    </g>
    <g id="xtick_11">
     <g id="line2d_18">
      <path d="M 668.541501 275.716283 
L 668.541501 20.803459 
" clip-path="url(#ped187c8f1d)" style="fill: none; stroke: #cccccc; stroke-opacity: 0.3; stroke-width: 1.5; stroke-linecap: round"/>
     </g>
     <g id="text_20">
      <!-- 0.6 -->
      <g style="fill: #262626" transform="translate(658.220751 298.845635) scale(0.1485 -0.1485)">
       <use xlink:href="#ArialMT-30"/>
       <use xlink:href="#ArialMT-2e" transform="translate(55.615234 0)"/>
       <use xlink:href="#ArialMT-36" transform="translate(83.398438 0)"/>
      </g>
     </g>
    </g>
    <g id="xtick_12">
     <g id="line2d_19">
      <path d="M 729.254004 275.716283 
L 729.254004 20.803459 
" clip-path="url(#ped187c8f1d)" style="fill: none; stroke: #cccccc; stroke-opacity: 0.3; stroke-width: 1.5; stroke-linecap: round"/>
     </g>
     <g id="text_21">
      <!-- 0.8 -->
      <g style="fill: #262626" transform="translate(718.933254 298.845635) scale(0.1485 -0.1485)">
       <use xlink:href="#ArialMT-30"/>
       <use xlink:href="#ArialMT-2e" transform="translate(55.615234 0)"/>
       <use xlink:href="#ArialMT-38" transform="translate(83.398438 0)"/>
      </g>
     </g>
    </g>
    <g id="xtick_13">
     <g id="line2d_20">
      <path d="M 789.966507 275.716283 
L 789.966507 20.803459 
" clip-path="url(#ped187c8f1d)" style="fill: none; stroke: #cccccc; stroke-opacity: 0.3; stroke-width: 1.5; stroke-linecap: round"/>
     </g>
     <g id="text_22">
      <!-- 1.0 -->
      <g style="fill: #262626" transform="translate(779.645757 298.845635) scale(0.1485 -0.1485)">
       <use xlink:href="#ArialMT-31"/>
       <use xlink:href="#ArialMT-2e" transform="translate(55.615234 0)"/>
       <use xlink:href="#ArialMT-30" transform="translate(83.398438 0)"/>
      </g>
     </g>
    </g>
    <g id="xtick_14">
     <g id="line2d_21">
      <path d="M 850.67901 275.716283 
L 850.67901 20.803459 
" clip-path="url(#ped187c8f1d)" style="fill: none; stroke: #cccccc; stroke-opacity: 0.3; stroke-width: 1.5; stroke-linecap: round"/>
     </g>
     <g id="text_23">
      <!-- 1.2 -->
      <g style="fill: #262626" transform="translate(840.35826 298.845635) scale(0.1485 -0.1485)">
       <use xlink:href="#ArialMT-31"/>
       <use xlink:href="#ArialMT-2e" transform="translate(55.615234 0)"/>
       <use xlink:href="#ArialMT-32" transform="translate(83.398438 0)"/>
      </g>
     </g>
    </g>
    <g id="text_24">
     <!-- Utilization (flow / NTC) -->
     <g style="fill: #262626" transform="translate(587.983204 317.590166) scale(0.162 -0.162)">
      <use xlink:href="#ArialMT-55"/>
      <use xlink:href="#ArialMT-74" transform="translate(72.216797 0)"/>
      <use xlink:href="#ArialMT-69" transform="translate(100 0)"/>
      <use xlink:href="#ArialMT-6c" transform="translate(122.216797 0)"/>
      <use xlink:href="#ArialMT-69" transform="translate(144.433594 0)"/>
      <use xlink:href="#ArialMT-7a" transform="translate(166.650391 0)"/>
      <use xlink:href="#ArialMT-61" transform="translate(216.650391 0)"/>
      <use xlink:href="#ArialMT-74" transform="translate(272.265625 0)"/>
      <use xlink:href="#ArialMT-69" transform="translate(300.048828 0)"/>
      <use xlink:href="#ArialMT-6f" transform="translate(322.265625 0)"/>
      <use xlink:href="#ArialMT-6e" transform="translate(377.880859 0)"/>
      <use xlink:href="#ArialMT-20" transform="translate(433.496094 0)"/>
      <use xlink:href="#ArialMT-28" transform="translate(461.279297 0)"/>
      <use xlink:href="#ArialMT-66" transform="translate(494.580078 0)"/>
      <use xlink:href="#ArialMT-6c" transform="translate(522.363281 0)"/>
      <use xlink:href="#ArialMT-6f" transform="translate(544.580078 0)"/>
      <use xlink:href="#ArialMT-77" transform="translate(600.195312 0)"/>
      <use xlink:href="#ArialMT-20" transform="translate(672.412109 0)"/>
      <use xlink:href="#ArialMT-2f" transform="translate(700.195312 0)"/>
      <use xlink:href="#ArialMT-20" transform="translate(727.978516 0)"/>
      <use xlink:href="#ArialMT-4e" transform="translate(755.761719 0)"/>
      <use xlink:href="#ArialMT-54" transform="translate(827.978516 0)"/>
      <use xlink:href="#ArialMT-43" transform="translate(889.0625 0)"/>
      <use xlink:href="#ArialMT-29" transform="translate(961.279297 0)"/>
     </g>
    </g>
   </g>
   <g id="matplotlib.axis_4">
    <g id="ytick_7">
     <g id="line2d_22">
      <path d="M 486.403992 275.716283 
L 850.67901 275.716283 
" clip-path="url(#ped187c8f1d)" style="fill: none; stroke: #cccccc; stroke-opacity: 0.3; stroke-width: 1.5; stroke-linecap: round"/>
     </g>
     <g id="text_25">
      <!-- 0.0 -->
      <g style="fill: #262626" transform="translate(453.262492 281.030959) scale(0.1485 -0.1485)">
       <use xlink:href="#ArialMT-30"/>
       <use xlink:href="#ArialMT-2e" transform="translate(55.615234 0)"/>
       <use xlink:href="#ArialMT-30" transform="translate(83.398438 0)"/>
      </g>
     </g>
    </g>
    <g id="ytick_8">
     <g id="line2d_23">
      <path d="M 486.403992 228.286075 
L 850.67901 228.286075 
" clip-path="url(#ped187c8f1d)" style="fill: none; stroke: #cccccc; stroke-opacity: 0.3; stroke-width: 1.5; stroke-linecap: round"/>
     </g>
     <g id="text_26">
      <!-- 0.5 -->
      <g style="fill: #262626" transform="translate(453.262492 233.600751) scale(0.1485 -0.1485)">
       <use xlink:href="#ArialMT-30"/>
       <use xlink:href="#ArialMT-2e" transform="translate(55.615234 0)"/>
       <use xlink:href="#ArialMT-35" transform="translate(83.398438 0)"/>
      </g>
     </g>
    </g>
    <g id="ytick_9">
     <g id="line2d_24">
      <path d="M 486.403992 180.855867 
L 850.67901 180.855867 
" clip-path="url(#ped187c8f1d)" style="fill: none; stroke: #cccccc; stroke-opacity: 0.3; stroke-width: 1.5; stroke-linecap: round"/>
     </g>
     <g id="text_27">
      <!-- 1.0 -->
      <g style="fill: #262626" transform="translate(453.262492 186.170542) scale(0.1485 -0.1485)">
       <use xlink:href="#ArialMT-31"/>
       <use xlink:href="#ArialMT-2e" transform="translate(55.615234 0)"/>
       <use xlink:href="#ArialMT-30" transform="translate(83.398438 0)"/>
      </g>
     </g>
    </g>
    <g id="ytick_10">
     <g id="line2d_25">
      <path d="M 486.403992 133.425658 
L 850.67901 133.425658 
" clip-path="url(#ped187c8f1d)" style="fill: none; stroke: #cccccc; stroke-opacity: 0.3; stroke-width: 1.5; stroke-linecap: round"/>
     </g>
     <g id="text_28">
      <!-- 1.5 -->
      <g style="fill: #262626" transform="translate(453.262492 138.740334) scale(0.1485 -0.1485)">
       <use xlink:href="#ArialMT-31"/>
       <use xlink:href="#ArialMT-2e" transform="translate(55.615234 0)"/>
       <use xlink:href="#ArialMT-35" transform="translate(83.398438 0)"/>
      </g>
     </g>
    </g>
    <g id="ytick_11">
     <g id="line2d_26">
      <path d="M 486.403992 85.99545 
L 850.67901 85.99545 
" clip-path="url(#ped187c8f1d)" style="fill: none; stroke: #cccccc; stroke-opacity: 0.3; stroke-width: 1.5; stroke-linecap: round"/>
     </g>
     <g id="text_29">
      <!-- 2.0 -->
      <g style="fill: #262626" transform="translate(453.262492 91.310126) scale(0.1485 -0.1485)">
       <use xlink:href="#ArialMT-32"/>
       <use xlink:href="#ArialMT-2e" transform="translate(55.615234 0)"/>
       <use xlink:href="#ArialMT-30" transform="translate(83.398438 0)"/>
      </g>
     </g>
    </g>
    <g id="ytick_12">
     <g id="line2d_27">
      <path d="M 486.403992 38.565241 
L 850.67901 38.565241 
" clip-path="url(#ped187c8f1d)" style="fill: none; stroke: #cccccc; stroke-opacity: 0.3; stroke-width: 1.5; stroke-linecap: round"/>
     </g>
     <g id="text_30">
      <!-- 2.5 -->
      <g style="fill: #262626" transform="translate(453.262492 43.879917) scale(0.1485 -0.1485)">
       <use xlink:href="#ArialMT-32"/>
       <use xlink:href="#ArialMT-2e" transform="translate(55.615234 0)"/>
       <use xlink:href="#ArialMT-35" transform="translate(83.398438 0)"/>
      </g>
     </g>
    </g>
    <g id="text_31">
     <!-- Density -->
     <g style="fill: #262626" transform="translate(445.852898 175.268309) rotate(-90) scale(0.162 -0.162)">
      <use xlink:href="#ArialMT-44"/>
      <use xlink:href="#ArialMT-65" transform="translate(72.216797 0)"/>
      <use xlink:href="#ArialMT-6e" transform="translate(127.832031 0)"/>
      <use xlink:href="#ArialMT-73" transform="translate(183.447266 0)"/>
      <use xlink:href="#ArialMT-69" transform="translate(233.447266 0)"/>
      <use xlink:href="#ArialMT-74" transform="translate(255.664062 0)"/>
      <use xlink:href="#ArialMT-79" transform="translate(283.447266 0)"/>
     </g>
    </g>
   </g>
   <g id="patch_48">
    <path d="M 486.403992 275.716283 
L 494.01446 275.716283 
L 494.01446 32.942165 
L 486.403992 32.942165 
z
" clip-path="url(#ped187c8f1d)" style="fill: #55a868; fill-opacity: 0.85; stroke: #ffffff; stroke-width: 0.691736; stroke-linejoin: miter"/>
   </g>
   <g id="patch_49">
    <path d="M 494.01446 275.716283 
L 501.624928 275.716283 
L 501.624928 192.329404 
L 494.01446 192.329404 
z
" clip-path="url(#ped187c8f1d)" style="fill: #55a868; fill-opacity: 0.85; stroke: #ffffff; stroke-width: 0.691736; stroke-linejoin: miter"/>
   </g>
   <g id="patch_50">
    <path d="M 501.624928 275.716283 
L 509.235396 275.716283 
L 509.235396 190.482774 
L 501.624928 190.482774 
z
" clip-path="url(#ped187c8f1d)" style="fill: #55a868; fill-opacity: 0.85; stroke: #ffffff; stroke-width: 0.691736; stroke-linejoin: miter"/>
   </g>
   <g id="patch_51">
    <path d="M 509.235396 275.716283 
L 516.845864 275.716283 
L 516.845864 183.096255 
L 509.235396 183.096255 
z
" clip-path="url(#ped187c8f1d)" style="fill: #55a868; fill-opacity: 0.85; stroke: #ffffff; stroke-width: 0.691736; stroke-linejoin: miter"/>
   </g>
   <g id="patch_52">
    <path d="M 516.845864 275.716283 
L 524.456332 275.716283 
L 524.456332 183.500205 
L 516.845864 183.500205 
z
" clip-path="url(#ped187c8f1d)" style="fill: #55a868; fill-opacity: 0.85; stroke: #ffffff; stroke-width: 0.691736; stroke-linejoin: miter"/>
   </g>
   <g id="patch_53">
    <path d="M 524.456332 275.716283 
L 532.0668 275.716283 
L 532.0668 163.648934 
L 524.456332 163.648934 
z
" clip-path="url(#ped187c8f1d)" style="fill: #55a868; fill-opacity: 0.85; stroke: #ffffff; stroke-width: 0.691736; stroke-linejoin: miter"/>
   </g>
   <g id="patch_54">
    <path d="M 532.0668 275.716283 
L 539.677268 275.716283 
L 539.677268 144.317028 
L 532.0668 144.317028 
z
" clip-path="url(#ped187c8f1d)" style="fill: #55a868; fill-opacity: 0.85; stroke: #ffffff; stroke-width: 0.691736; stroke-linejoin: miter"/>
   </g>
   <g id="patch_55">
    <path d="M 539.677268 275.716283 
L 547.287736 275.716283 
L 547.287736 130.525011 
L 539.677268 130.525011 
z
" clip-path="url(#ped187c8f1d)" style="fill: #55a868; fill-opacity: 0.85; stroke: #ffffff; stroke-width: 0.691736; stroke-linejoin: miter"/>
   </g>
   <g id="patch_56">
    <path d="M 547.287736 275.716283 
L 554.898203 275.716283 
L 554.898203 117.194652 
L 547.287736 117.194652 
z
" clip-path="url(#ped187c8f1d)" style="fill: #55a868; fill-opacity: 0.85; stroke: #ffffff; stroke-width: 0.691736; stroke-linejoin: miter"/>
   </g>
   <g id="patch_57">
    <path d="M 554.898203 275.716283 
L 562.508671 275.716283 
L 562.508671 121.868934 
L 554.898203 121.868934 
z
" clip-path="url(#ped187c8f1d)" style="fill: #55a868; fill-opacity: 0.85; stroke: #ffffff; stroke-width: 0.691736; stroke-linejoin: miter"/>
   </g>
   <g id="patch_58">
    <path d="M 562.508671 275.716283 
L 570.119139 275.716283 
L 570.119139 106.98048 
L 562.508671 106.98048 
z
" clip-path="url(#ped187c8f1d)" style="fill: #55a868; fill-opacity: 0.85; stroke: #ffffff; stroke-width: 0.691736; stroke-linejoin: miter"/>
   </g>
   <g id="patch_59">
    <path d="M 570.119139 275.716283 
L 577.729607 275.716283 
L 577.729607 103.056392 
L 570.119139 103.056392 
z
" clip-path="url(#ped187c8f1d)" style="fill: #55a868; fill-opacity: 0.85; stroke: #ffffff; stroke-width: 0.691736; stroke-linejoin: miter"/>
   </g>
   <g id="patch_60">
    <path d="M 577.729607 275.716283 
L 585.340075 275.716283 
L 585.340075 98.670646 
L 577.729607 98.670646 
z
" clip-path="url(#ped187c8f1d)" style="fill: #55a868; fill-opacity: 0.85; stroke: #ffffff; stroke-width: 0.691736; stroke-linejoin: miter"/>
   </g>
   <g id="patch_61">
    <path d="M 585.340075 275.716283 
L 592.950543 275.716283 
L 592.950543 112.001005 
L 585.340075 112.001005 
z
" clip-path="url(#ped187c8f1d)" style="fill: #55a868; fill-opacity: 0.85; stroke: #ffffff; stroke-width: 0.691736; stroke-linejoin: miter"/>
   </g>
   <g id="patch_62">
    <path d="M 592.950543 275.716283 
L 600.561011 275.716283 
L 600.561011 111.597055 
L 592.950543 111.597055 
z
" clip-path="url(#ped187c8f1d)" style="fill: #55a868; fill-opacity: 0.85; stroke: #ffffff; stroke-width: 0.691736; stroke-linejoin: miter"/>
   </g>
   <g id="patch_63">
    <path d="M 600.561011 275.716283 
L 608.171479 275.716283 
L 608.171479 121.926641 
L 600.561011 121.926641 
z
" clip-path="url(#ped187c8f1d)" style="fill: #55a868; fill-opacity: 0.85; stroke: #ffffff; stroke-width: 0.691736; stroke-linejoin: miter"/>
   </g>
   <g id="patch_64">
    <path d="M 608.171479 275.716283 
L 615.781947 275.716283 
L 615.781947 132.948713 
L 608.171479 132.948713 
z
" clip-path="url(#ped187c8f1d)" style="fill: #55a868; fill-opacity: 0.85; stroke: #ffffff; stroke-width: 0.691736; stroke-linejoin: miter"/>
   </g>
   <g id="patch_65">
    <path d="M 615.781947 275.716283 
L 623.392415 275.716283 
L 623.392415 135.603243 
L 615.781947 135.603243 
z
" clip-path="url(#ped187c8f1d)" style="fill: #55a868; fill-opacity: 0.85; stroke: #ffffff; stroke-width: 0.691736; stroke-linejoin: miter"/>
   </g>
   <g id="patch_66">
    <path d="M 623.392415 275.716283 
L 631.002883 275.716283 
L 631.002883 157.820509 
L 623.392415 157.820509 
z
" clip-path="url(#ped187c8f1d)" style="fill: #55a868; fill-opacity: 0.85; stroke: #ffffff; stroke-width: 0.691736; stroke-linejoin: miter"/>
   </g>
   <g id="patch_67">
    <path d="M 631.002883 275.716283 
L 638.613351 275.716283 
L 638.613351 166.649708 
L 631.002883 166.649708 
z
" clip-path="url(#ped187c8f1d)" style="fill: #55a868; fill-opacity: 0.85; stroke: #ffffff; stroke-width: 0.691736; stroke-linejoin: miter"/>
   </g>
   <g id="patch_68">
    <path d="M 638.613351 275.716283 
L 646.223819 275.716283 
L 646.223819 169.073409 
L 638.613351 169.073409 
z
" clip-path="url(#ped187c8f1d)" style="fill: #55a868; fill-opacity: 0.85; stroke: #ffffff; stroke-width: 0.691736; stroke-linejoin: miter"/>
   </g>
   <g id="patch_69">
    <path d="M 646.223819 275.716283 
L 653.834286 275.716283 
L 653.834286 185.404542 
L 646.223819 185.404542 
z
" clip-path="url(#ped187c8f1d)" style="fill: #55a868; fill-opacity: 0.85; stroke: #ffffff; stroke-width: 0.691736; stroke-linejoin: miter"/>
   </g>
   <g id="patch_70">
    <path d="M 653.834286 275.716283 
L 661.444754 275.716283 
L 661.444754 202.832111 
L 653.834286 202.832111 
z
" clip-path="url(#ped187c8f1d)" style="fill: #55a868; fill-opacity: 0.85; stroke: #ffffff; stroke-width: 0.691736; stroke-linejoin: miter"/>
   </g>
   <g id="patch_71">
    <path d="M 661.444754 275.716283 
L 669.055222 275.716283 
L 669.055222 207.217857 
L 661.444754 207.217857 
z
" clip-path="url(#ped187c8f1d)" style="fill: #55a868; fill-opacity: 0.85; stroke: #ffffff; stroke-width: 0.691736; stroke-linejoin: miter"/>
   </g>
   <g id="patch_72">
    <path d="M 669.055222 275.716283 
L 676.66569 275.716283 
L 676.66569 213.91189 
L 669.055222 213.91189 
z
" clip-path="url(#ped187c8f1d)" style="fill: #55a868; fill-opacity: 0.85; stroke: #ffffff; stroke-width: 0.691736; stroke-linejoin: miter"/>
   </g>
   <g id="patch_73">
    <path d="M 676.66569 275.716283 
L 684.276158 275.716283 
L 684.276158 216.508714 
L 676.66569 216.508714 
z
" clip-path="url(#ped187c8f1d)" style="fill: #55a868; fill-opacity: 0.85; stroke: #ffffff; stroke-width: 0.691736; stroke-linejoin: miter"/>
   </g>
   <g id="patch_74">
    <path d="M 684.276158 275.716283 
L 691.886626 275.716283 
L 691.886626 223.54899 
L 684.276158 223.54899 
z
" clip-path="url(#ped187c8f1d)" style="fill: #55a868; fill-opacity: 0.85; stroke: #ffffff; stroke-width: 0.691736; stroke-linejoin: miter"/>
   </g>
   <g id="patch_75">
    <path d="M 691.886626 275.716283 
L 699.497094 275.716283 
L 699.497094 220.836752 
L 691.886626 220.836752 
z
" clip-path="url(#ped187c8f1d)" style="fill: #55a868; fill-opacity: 0.85; stroke: #ffffff; stroke-width: 0.691736; stroke-linejoin: miter"/>
   </g>
   <g id="patch_76">
    <path d="M 699.497094 275.716283 
L 707.107562 275.716283 
L 707.107562 215.585399 
L 699.497094 215.585399 
z
" clip-path="url(#ped187c8f1d)" style="fill: #55a868; fill-opacity: 0.85; stroke: #ffffff; stroke-width: 0.691736; stroke-linejoin: miter"/>
   </g>
   <g id="patch_77">
    <path d="M 707.107562 275.716283 
L 714.71803 275.716283 
L 714.71803 214.315841 
L 707.107562 214.315841 
z
" clip-path="url(#ped187c8f1d)" style="fill: #55a868; fill-opacity: 0.85; stroke: #ffffff; stroke-width: 0.691736; stroke-linejoin: miter"/>
   </g>
   <g id="patch_78">
    <path d="M 714.71803 275.716283 
L 722.328498 275.716283 
L 722.328498 215.989349 
L 714.71803 215.989349 
z
" clip-path="url(#ped187c8f1d)" style="fill: #55a868; fill-opacity: 0.85; stroke: #ffffff; stroke-width: 0.691736; stroke-linejoin: miter"/>
   </g>
   <g id="patch_79">
    <path d="M 722.328498 275.716283 
L 729.938966 275.716283 
L 729.938966 215.816228 
L 722.328498 215.816228 
z
" clip-path="url(#ped187c8f1d)" style="fill: #55a868; fill-opacity: 0.85; stroke: #ffffff; stroke-width: 0.691736; stroke-linejoin: miter"/>
   </g>
   <g id="patch_80">
    <path d="M 729.938966 275.716283 
L 737.549434 275.716283 
L 737.549434 220.259681 
L 729.938966 220.259681 
z
" clip-path="url(#ped187c8f1d)" style="fill: #55a868; fill-opacity: 0.85; stroke: #ffffff; stroke-width: 0.691736; stroke-linejoin: miter"/>
   </g>
   <g id="patch_81">
    <path d="M 737.549434 275.716283 
L 745.159901 275.716283 
L 745.159901 236.879349 
L 737.549434 236.879349 
z
" clip-path="url(#ped187c8f1d)" style="fill: #55a868; fill-opacity: 0.85; stroke: #ffffff; stroke-width: 0.691736; stroke-linejoin: miter"/>
   </g>
   <g id="patch_82">
    <path d="M 745.159901 275.716283 
L 752.770369 275.716283 
L 752.770369 246.978106 
L 745.159901 246.978106 
z
" clip-path="url(#ped187c8f1d)" style="fill: #55a868; fill-opacity: 0.85; stroke: #ffffff; stroke-width: 0.691736; stroke-linejoin: miter"/>
   </g>
   <g id="patch_83">
    <path d="M 752.770369 275.716283 
L 760.380837 275.716283 
L 760.380837 256.442084 
L 752.770369 256.442084 
z
" clip-path="url(#ped187c8f1d)" style="fill: #55a868; fill-opacity: 0.85; stroke: #ffffff; stroke-width: 0.691736; stroke-linejoin: miter"/>
   </g>
   <g id="patch_84">
    <path d="M 760.380837 275.716283 
L 767.991305 275.716283 
L 767.991305 264.347968 
L 760.380837 264.347968 
z
" clip-path="url(#ped187c8f1d)" style="fill: #55a868; fill-opacity: 0.85; stroke: #ffffff; stroke-width: 0.691736; stroke-linejoin: miter"/>
   </g>
   <g id="patch_85">
    <path d="M 767.991305 275.716283 
L 775.601773 275.716283 
L 775.601773 267.348742 
L 767.991305 267.348742 
z
" clip-path="url(#ped187c8f1d)" style="fill: #55a868; fill-opacity: 0.85; stroke: #ffffff; stroke-width: 0.691736; stroke-linejoin: miter"/>
   </g>
   <g id="patch_86">
    <path d="M 775.601773 275.716283 
L 783.212241 275.716283 
L 783.212241 270.580344 
L 775.601773 270.580344 
z
" clip-path="url(#ped187c8f1d)" style="fill: #55a868; fill-opacity: 0.85; stroke: #ffffff; stroke-width: 0.691736; stroke-linejoin: miter"/>
   </g>
   <g id="patch_87">
    <path d="M 783.212241 275.716283 
L 790.822709 275.716283 
L 790.822709 273.869654 
L 783.212241 273.869654 
z
" clip-path="url(#ped187c8f1d)" style="fill: #55a868; fill-opacity: 0.85; stroke: #ffffff; stroke-width: 0.691736; stroke-linejoin: miter"/>
   </g>
   <g id="line2d_28">
    <path d="M 486.403992 169.305478 
L 487.933734 164.335627 
L 489.463477 162.077866 
L 490.993219 162.268822 
L 492.522961 164.395315 
L 494.052704 167.803615 
L 497.112188 175.854304 
L 498.641931 179.467273 
L 500.171673 182.394887 
L 501.701415 184.535416 
L 503.231157 185.911981 
L 504.7609 186.625596 
L 506.290642 186.810968 
L 507.820384 186.602384 
L 509.350127 186.112046 
L 510.879869 185.419698 
L 512.409611 184.570735 
L 513.939354 183.579817 
L 515.469096 182.437616 
L 516.998838 181.119053 
L 518.52858 179.591878 
L 520.058323 177.824741 
L 521.588065 175.793947 
L 523.117807 173.488308 
L 524.64755 170.911669 
L 527.707034 165.034963 
L 530.766519 158.456096 
L 538.41523 141.467828 
L 541.474715 135.358251 
L 543.004457 132.594886 
L 544.534199 130.067126 
L 546.063942 127.798994 
L 547.593684 125.803693 
L 549.123426 124.078741 
L 550.653169 122.602412 
L 552.182911 121.333034 
L 555.242395 119.171139 
L 558.30188 117.062825 
L 561.361365 114.618914 
L 564.420849 111.788689 
L 569.010076 107.440021 
L 570.539818 106.164162 
L 572.069561 105.05338 
L 573.599303 104.14543 
L 575.129045 103.470832 
L 576.658788 103.052279 
L 578.18853 102.903506 
L 579.718272 103.027668 
L 581.248015 103.415811 
L 582.777757 104.046259 
L 584.307499 104.885691 
L 587.366984 107.02055 
L 591.956211 110.749686 
L 596.545437 114.660399 
L 599.604922 117.462414 
L 602.664407 120.51711 
L 607.253634 125.47271 
L 611.84286 130.682471 
L 614.902345 134.438485 
L 617.96183 138.649287 
L 621.021314 143.383176 
L 630.199768 158.295438 
L 633.259253 162.590048 
L 637.848479 168.428848 
L 640.907964 172.329925 
L 643.967449 176.574102 
L 647.026933 181.284964 
L 656.205387 196.199075 
L 659.264872 200.359953 
L 662.324356 203.877007 
L 665.383841 206.869338 
L 668.443325 209.500425 
L 671.50281 211.877463 
L 674.562295 214.032404 
L 677.621779 215.953279 
L 680.681264 217.604644 
L 683.740748 218.92402 
L 686.800233 219.825717 
L 688.329975 220.09395 
L 689.859717 220.231258 
L 691.38946 220.235816 
L 692.919202 220.110811 
L 695.978687 219.511923 
L 699.038171 218.567387 
L 705.15714 216.499726 
L 708.216625 215.825548 
L 711.27611 215.555272 
L 714.335594 215.632677 
L 718.924821 216.082049 
L 721.984306 216.526388 
L 723.514048 216.849786 
L 725.04379 217.296936 
L 726.573533 217.917187 
L 728.103275 218.756413 
L 729.633017 219.849184 
L 731.162759 221.21264 
L 732.692502 222.84333 
L 734.222244 224.717606 
L 737.281729 229.026125 
L 747.989925 245.179401 
L 751.049409 249.257152 
L 754.108894 252.976604 
L 757.168378 256.30911 
L 760.227863 259.237136 
L 763.287348 261.7654 
L 766.346832 263.927802 
L 769.406317 265.785403 
L 772.465801 267.412807 
L 777.055028 269.566341 
L 781.644255 271.478111 
L 786.233482 273.119705 
L 789.292967 274.001762 
L 790.822709 274.366077 
L 790.822709 274.366077 
" clip-path="url(#ped187c8f1d)" style="fill: none; stroke: #55a868; stroke-width: 2.25; stroke-linecap: round"/>
   </g>
   <g id="patch_88">
    <path d="M 486.403992 275.716283 
L 486.403992 20.803459 
" style="fill: none; stroke: #cccccc; stroke-width: 1.875; stroke-linejoin: miter; stroke-linecap: square"/>
   </g>
   <g id="patch_89">
    <path d="M 850.67901 275.716283 
L 850.67901 20.803459 
" style="fill: none; stroke: #cccccc; stroke-width: 1.875; stroke-linejoin: miter; stroke-linecap: square"/>
   </g>
   <g id="patch_90">
    <path d="M 486.403992 275.716283 
L 850.67901 275.716283 
" style="fill: none; stroke: #cccccc; stroke-width: 1.875; stroke-linejoin: miter; stroke-linecap: square"/>
   </g>
   <g id="patch_91">
    <path d="M 486.403992 20.803459 
L 850.67901 20.803459 
" style="fill: none; stroke: #cccccc; stroke-width: 1.875; stroke-linejoin: miter; stroke-linecap: square"/>
   </g>
   <g id="text_32">
    <!-- Import utilization — NO5 -->
    <g style="fill: #262626" transform="translate(580.316048 14.803459) scale(0.162 -0.162)">
     <defs>
      <path id="ArialMT-49" d="M 597 0 
L 597 4581 
L 1203 4581 
L 1203 0 
L 597 0 
z
" transform="scale(0.015625)"/>
      <path id="ArialMT-6d" d="M 422 0 
L 422 3319 
L 925 3319 
L 925 2853 
Q 1081 3097 1340 3245 
Q 1600 3394 1931 3394 
Q 2300 3394 2536 3241 
Q 2772 3088 2869 2813 
Q 3263 3394 3894 3394 
Q 4388 3394 4653 3120 
Q 4919 2847 4919 2278 
L 4919 0 
L 4359 0 
L 4359 2091 
Q 4359 2428 4304 2576 
Q 4250 2725 4106 2815 
Q 3963 2906 3769 2906 
Q 3419 2906 3187 2673 
Q 2956 2441 2956 1928 
L 2956 0 
L 2394 0 
L 2394 2156 
Q 2394 2531 2256 2718 
Q 2119 2906 1806 2906 
Q 1569 2906 1367 2781 
Q 1166 2656 1075 2415 
Q 984 2175 984 1722 
L 984 0 
L 422 0 
z
" transform="scale(0.015625)"/>
     </defs>
     <use xlink:href="#ArialMT-49"/>
     <use xlink:href="#ArialMT-6d" transform="translate(27.783203 0)"/>
     <use xlink:href="#ArialMT-70" transform="translate(111.083984 0)"/>
     <use xlink:href="#ArialMT-6f" transform="translate(166.699219 0)"/>
     <use xlink:href="#ArialMT-72" transform="translate(222.314453 0)"/>
     <use xlink:href="#ArialMT-74" transform="translate(255.615234 0)"/>
     <use xlink:href="#ArialMT-20" transform="translate(283.398438 0)"/>
     <use xlink:href="#ArialMT-75" transform="translate(311.181641 0)"/>
     <use xlink:href="#ArialMT-74" transform="translate(366.796875 0)"/>
     <use xlink:href="#ArialMT-69" transform="translate(394.580078 0)"/>
     <use xlink:href="#ArialMT-6c" transform="translate(416.796875 0)"/>
     <use xlink:href="#ArialMT-69" transform="translate(439.013672 0)"/>
     <use xlink:href="#ArialMT-7a" transform="translate(461.230469 0)"/>
     <use xlink:href="#ArialMT-61" transform="translate(511.230469 0)"/>
     <use xlink:href="#ArialMT-74" transform="translate(566.845703 0)"/>
     <use xlink:href="#ArialMT-69" transform="translate(594.628906 0)"/>
     <use xlink:href="#ArialMT-6f" transform="translate(616.845703 0)"/>
     <use xlink:href="#ArialMT-6e" transform="translate(672.460938 0)"/>
     <use xlink:href="#ArialMT-20" transform="translate(728.076172 0)"/>
     <use xlink:href="#ArialMT-2014" transform="translate(755.859375 0)"/>
     <use xlink:href="#ArialMT-20" transform="translate(855.859375 0)"/>
     <use xlink:href="#ArialMT-4e" transform="translate(883.642578 0)"/>
     <use xlink:href="#ArialMT-4f" transform="translate(955.859375 0)"/>
     <use xlink:href="#ArialMT-35" transform="translate(1033.642578 0)"/>
    </g>
   </g>
  </g>
 </g>
 <defs>
  <clipPath id="p53f8164ce7">
   <rect x="51.021474" y="20.803459" width="364.275018" height="254.912825"/>
  </clipPath>
  <clipPath id="ped187c8f1d">
   <rect x="486.403992" y="20.803459" width="364.275018" height="254.912825"/>
  </clipPath>
 </defs>
</svg>
