<?xml version="1.0" encoding="utf-8" standalone="no"?>
<!DOCTYPE svg PUBLIC "-//W3C//DTD SVG 1.1//EN"
  "http://www.w3.org/Graphics/SVG/1.1/DTD/svg11.dtd">
<svg xmlns:xlink="http://www.w3.org/1999/xlink" width="864pt" height="324pt" viewBox="0 0 864 324" xmlns="http://www.w3.org/2000/svg" version="1.1">
 <metadata>
  <rdf:RDF xmlns:dc="http://purl.org/dc/elements/1.1/" xmlns:cc="http://creativecommons.org/ns#" xmlns:rdf="http://www.w3.org/1999/02/22-rdf-syntax-ns#">
   <cc:Work>
    <dc:type rdf:resource="http://purl.org/dc/dcmitype/StillImage"/>
    <dc:date>2025-11-26T15:28:23.727825</dc:date>
    <dc:format>image/svg+xml</dc:format>
    <dc:creator>
     <cc:Agent>
      <dc:title>Matplotlib v3.10.6, https://matplotlib.org/</dc:title>
     </cc:Agent>
    </dc:creator>
   </cc:Work>
  </rdf:RDF>
 </metadata>
 <defs>
  <style type="text/css">*{stroke-linejoin: round; stroke-linecap: butt}</style>
 </defs>
 <g id="figure_1">
  <g id="patch_1">
   <path d="M 0 324 
L 864 324 
L 864 0 
L 0 0 
z
" style="fill: #ffffff"/>
  </g>
  <g id="axes_1">
   <g id="patch_2">
    <path d="M 51.021474 275.716283 
L 417.35925 275.716283 
L 417.35925 20.793334 
L 51.021474 20.793334 
z
" style="fill: #ffffff"/>
   </g>
   <g id="matplotlib.axis_1">
    <g id="xtick_1">
     <g id="line2d_1">
      <path d="M 51.021474 275.716283 
L 51.021474 20.793334 
" clip-path="url(#p3491c51ade)" style="fill: none; stroke: #cccccc; stroke-opacity: 0.3; stroke-width: 1.5; stroke-linecap: round"/>
     </g>
     <g id="text_1">
      <!-- 0.0 -->
      <g style="fill: #262626" transform="translate(40.700724 298.845635) scale(0.1485 -0.1485)">
       <defs>
        <path id="ArialMT-30" d="M 266 2259 
Q 266 3072 433 3567 
Q 600 4063 929 4331 
Q 1259 4600 1759 4600 
Q 2128 4600 2406 4451 
Q 2684 4303 2865 4023 
Q 3047 3744 3150 3342 
Q 3253 2941 3253 2259 
Q 3253 1453 3087 958 
Q 2922 463 2592 192 
Q 2263 -78 1759 -78 
Q 1097 -78 719 397 
Q 266 969 266 2259 
z
M 844 2259 
Q 844 1131 1108 757 
Q 1372 384 1759 384 
Q 2147 384 2411 759 
Q 2675 1134 2675 2259 
Q 2675 3391 2411 3762 
Q 2147 4134 1753 4134 
Q 1366 4134 1134 3806 
Q 844 3388 844 2259 
z
" transform="scale(0.015625)"/>
        <path id="ArialMT-2e" d="M 581 0 
L 581 641 
L 1222 641 
L 1222 0 
L 581 0 
z
" transform="scale(0.015625)"/>
       </defs>
       <use xlink:href="#ArialMT-30"/>
       <use xlink:href="#ArialMT-2e" transform="translate(55.615234 0)"/>
       <use xlink:href="#ArialMT-30" transform="translate(83.398438 0)"/>
      </g>
     </g>
    </g>
    <g id="xtick_2">
     <g id="line2d_2">
      <path d="M 112.07777 275.716283 
L 112.07777 20.793334 
" clip-path="url(#p3491c51ade)" style="fill: none; stroke: #cccccc; stroke-opacity: 0.3; stroke-width: 1.5; stroke-linecap: round"/>
     </g>
     <g id="text_2">
      <!-- 0.2 -->
      <g style="fill: #262626" transform="translate(101.75702 298.845635) scale(0.1485 -0.1485)">
       <defs>
        <path id="ArialMT-32" d="M 3222 541 
L 3222 0 
L 194 0 
Q 188 203 259 391 
Q 375 700 629 1000 
Q 884 1300 1366 1694 
Q 2113 2306 2375 2664 
Q 2638 3022 2638 3341 
Q 2638 3675 2398 3904 
Q 2159 4134 1775 4134 
Q 1369 4134 1125 3890 
Q 881 3647 878 3216 
L 300 3275 
Q 359 3922 746 4261 
Q 1134 4600 1788 4600 
Q 2447 4600 2831 4234 
Q 3216 3869 3216 3328 
Q 3216 3053 3103 2787 
Q 2991 2522 2730 2228 
Q 2469 1934 1863 1422 
Q 1356 997 1212 845 
Q 1069 694 975 541 
L 3222 541 
z
" transform="scale(0.015625)"/>
       </defs>
       <use xlink:href="#ArialMT-30"/>
       <use xlink:href="#ArialMT-2e" transform="translate(55.615234 0)"/>
       <use xlink:href="#ArialMT-32" transform="translate(83.398438 0)"/>
      </g>
     </g>
    </g>
    <g id="xtick_3">
     <g id="line2d_3">
      <path d="M 173.134066 275.716283 
L 173.134066 20.793334 
" clip-path="url(#p3491c51ade)" style="fill: none; stroke: #cccccc; stroke-opacity: 0.3; stroke-width: 1.5; stroke-linecap: round"/>
     </g>
     <g id="text_3">
      <!-- 0.4 -->
      <g style="fill: #262626" transform="translate(162.813316 298.845635) scale(0.1485 -0.1485)">
       <defs>
        <path id="ArialMT-34" d="M 2069 0 
L 2069 1097 
L 81 1097 
L 81 1613 
L 2172 4581 
L 2631 4581 
L 2631 1613 
L 3250 1613 
L 3250 1097 
L 2631 1097 
L 2631 0 
L 2069 0 
z
M 2069 1613 
L 2069 3678 
L 634 1613 
L 2069 1613 
z
" transform="scale(0.015625)"/>
       </defs>
       <use xlink:href="#ArialMT-30"/>
       <use xlink:href="#ArialMT-2e" transform="translate(55.615234 0)"/>
       <use xlink:href="#ArialMT-34" transform="translate(83.398438 0)"/>
      </g>
     </g>
    </g>
    <g id="xtick_4">
     <g id="line2d_4">
      <path d="M 234.190362 275.716283 
L 234.190362 20.793334 
" clip-path="url(#p3491c51ade)" style="fill: none; stroke: #cccccc; stroke-opacity: 0.3; stroke-width: 1.5; stroke-linecap: round"/>
     </g>
     <g id="text_4">
      <!-- 0.6 -->
      <g style="fill: #262626" transform="translate(223.869612 298.845635) scale(0.1485 -0.1485)">
       <defs>
        <path id="ArialMT-36" d="M 3184 3459 
L 2625 3416 
Q 2550 3747 2413 3897 
Q 2184 4138 1850 4138 
Q 1581 4138 1378 3988 
Q 1113 3794 959 3422 
Q 806 3050 800 2363 
Q 1003 2672 1297 2822 
Q 1591 2972 1913 2972 
Q 2475 2972 2870 2558 
Q 3266 2144 3266 1488 
Q 3266 1056 3080 686 
Q 2894 316 2569 119 
Q 2244 -78 1831 -78 
Q 1128 -78 684 439 
Q 241 956 241 2144 
Q 241 3472 731 4075 
Q 1159 4600 1884 4600 
Q 2425 4600 2770 4297 
Q 3116 3994 3184 3459 
z
M 888 1484 
Q 888 1194 1011 928 
Q 1134 663 1356 523 
Q 1578 384 1822 384 
Q 2178 384 2434 671 
Q 2691 959 2691 1453 
Q 2691 1928 2437 2201 
Q 2184 2475 1800 2475 
Q 1419 2475 1153 2201 
Q 888 1928 888 1484 
z
" transform="scale(0.015625)"/>
       </defs>
       <use xlink:href="#ArialMT-30"/>
       <use xlink:href="#ArialMT-2e" transform="translate(55.615234 0)"/>
       <use xlink:href="#ArialMT-36" transform="translate(83.398438 0)"/>
      </g>
     </g>
    </g>
    <g id="xtick_5">
     <g id="line2d_5">
      <path d="M 295.246658 275.716283 
L 295.246658 20.793334 
" clip-path="url(#p3491c51ade)" style="fill: none; stroke: #cccccc; stroke-opacity: 0.3; stroke-width: 1.5; stroke-linecap: round"/>
     </g>
     <g id="text_5">
      <!-- 0.8 -->
      <g style="fill: #262626" transform="translate(284.925908 298.845635) scale(0.1485 -0.1485)">
       <defs>
        <path id="ArialMT-38" d="M 1131 2484 
Q 781 2613 612 2850 
Q 444 3088 444 3419 
Q 444 3919 803 4259 
Q 1163 4600 1759 4600 
Q 2359 4600 2725 4251 
Q 3091 3903 3091 3403 
Q 3091 3084 2923 2848 
Q 2756 2613 2416 2484 
Q 2838 2347 3058 2040 
Q 3278 1734 3278 1309 
Q 3278 722 2862 322 
Q 2447 -78 1769 -78 
Q 1091 -78 675 323 
Q 259 725 259 1325 
Q 259 1772 486 2073 
Q 713 2375 1131 2484 
z
M 1019 3438 
Q 1019 3113 1228 2906 
Q 1438 2700 1772 2700 
Q 2097 2700 2305 2904 
Q 2513 3109 2513 3406 
Q 2513 3716 2298 3927 
Q 2084 4138 1766 4138 
Q 1444 4138 1231 3931 
Q 1019 3725 1019 3438 
z
M 838 1322 
Q 838 1081 952 856 
Q 1066 631 1291 507 
Q 1516 384 1775 384 
Q 2178 384 2440 643 
Q 2703 903 2703 1303 
Q 2703 1709 2433 1975 
Q 2163 2241 1756 2241 
Q 1359 2241 1098 1978 
Q 838 1716 838 1322 
z
" transform="scale(0.015625)"/>
       </defs>
       <use xlink:href="#ArialMT-30"/>
       <use xlink:href="#ArialMT-2e" transform="translate(55.615234 0)"/>
       <use xlink:href="#ArialMT-38" transform="translate(83.398438 0)"/>
      </g>
     </g>
    </g>
    <g id="xtick_6">
     <g id="line2d_6">
      <path d="M 356.302954 275.716283 
L 356.302954 20.793334 
" clip-path="url(#p3491c51ade)" style="fill: none; stroke: #cccccc; stroke-opacity: 0.3; stroke-width: 1.5; stroke-linecap: round"/>
     </g>
     <g id="text_6">
      <!-- 1.0 -->
      <g style="fill: #262626" transform="translate(345.982204 298.845635) scale(0.1485 -0.1485)">
       <defs>
        <path id="ArialMT-31" d="M 2384 0 
L 1822 0 
L 1822 3584 
Q 1619 3391 1289 3197 
Q 959 3003 697 2906 
L 697 3450 
Q 1169 3672 1522 3987 
Q 1875 4303 2022 4600 
L 2384 4600 
L 2384 0 
z
" transform="scale(0.015625)"/>
       </defs>
       <use xlink:href="#ArialMT-31"/>
       <use xlink:href="#ArialMT-2e" transform="translate(55.615234 0)"/>
       <use xlink:href="#ArialMT-30" transform="translate(83.398438 0)"/>
      </g>
     </g>
    </g>
    <g id="xtick_7">
     <g id="line2d_7">
      <path d="M 417.35925 275.716283 
L 417.35925 20.793334 
" clip-path="url(#p3491c51ade)" style="fill: none; stroke: #cccccc; stroke-opacity: 0.3; stroke-width: 1.5; stroke-linecap: round"/>
     </g>
     <g id="text_7">
      <!-- 1.2 -->
      <g style="fill: #262626" transform="translate(407.0385 298.845635) scale(0.1485 -0.1485)">
       <use xlink:href="#ArialMT-31"/>
       <use xlink:href="#ArialMT-2e" transform="translate(55.615234 0)"/>
       <use xlink:href="#ArialMT-32" transform="translate(83.398438 0)"/>
      </g>
     </g>
    </g>
    <g id="text_8">
     <!-- Utilization (flow / NTC) -->
     <g style="fill: #262626" transform="translate(153.632065 317.590166) scale(0.162 -0.162)">
      <defs>
       <path id="ArialMT-55" d="M 3500 4581 
L 4106 4581 
L 4106 1934 
Q 4106 1244 3950 837 
Q 3794 431 3386 176 
Q 2978 -78 2316 -78 
Q 1672 -78 1262 144 
Q 853 366 678 786 
Q 503 1206 503 1934 
L 503 4581 
L 1109 4581 
L 1109 1938 
Q 1109 1341 1220 1058 
Q 1331 775 1601 622 
Q 1872 469 2263 469 
Q 2931 469 3215 772 
Q 3500 1075 3500 1938 
L 3500 4581 
z
" transform="scale(0.015625)"/>
       <path id="ArialMT-74" d="M 1650 503 
L 1731 6 
Q 1494 -44 1306 -44 
Q 1000 -44 831 53 
Q 663 150 594 308 
Q 525 466 525 972 
L 525 2881 
L 113 2881 
L 113 3319 
L 525 3319 
L 525 4141 
L 1084 4478 
L 1084 3319 
L 1650 3319 
L 1650 2881 
L 1084 2881 
L 1084 941 
Q 1084 700 1114 631 
Q 1144 563 1211 522 
Q 1278 481 1403 481 
Q 1497 481 1650 503 
z
" transform="scale(0.015625)"/>
       <path id="ArialMT-69" d="M 425 3934 
L 425 4581 
L 988 4581 
L 988 3934 
L 425 3934 
z
M 425 0 
L 425 3319 
L 988 3319 
L 988 0 
L 425 0 
z
" transform="scale(0.015625)"/>
       <path id="ArialMT-6c" d="M 409 0 
L 409 4581 
L 972 4581 
L 972 0 
L 409 0 
z
" transform="scale(0.015625)"/>
       <path id="ArialMT-7a" d="M 125 0 
L 125 456 
L 2238 2881 
Q 1878 2863 1603 2863 
L 250 2863 
L 250 3319 
L 2963 3319 
L 2963 2947 
L 1166 841 
L 819 456 
Q 1197 484 1528 484 
L 3063 484 
L 3063 0 
L 125 0 
z
" transform="scale(0.015625)"/>
       <path id="ArialMT-61" d="M 2588 409 
Q 2275 144 1986 34 
Q 1697 -75 1366 -75 
Q 819 -75 525 192 
Q 231 459 231 875 
Q 231 1119 342 1320 
Q 453 1522 633 1644 
Q 813 1766 1038 1828 
Q 1203 1872 1538 1913 
Q 2219 1994 2541 2106 
Q 2544 2222 2544 2253 
Q 2544 2597 2384 2738 
Q 2169 2928 1744 2928 
Q 1347 2928 1158 2789 
Q 969 2650 878 2297 
L 328 2372 
Q 403 2725 575 2942 
Q 747 3159 1072 3276 
Q 1397 3394 1825 3394 
Q 2250 3394 2515 3294 
Q 2781 3194 2906 3042 
Q 3031 2891 3081 2659 
Q 3109 2516 3109 2141 
L 3109 1391 
Q 3109 606 3145 398 
Q 3181 191 3288 0 
L 2700 0 
Q 2613 175 2588 409 
z
M 2541 1666 
Q 2234 1541 1622 1453 
Q 1275 1403 1131 1340 
Q 988 1278 909 1158 
Q 831 1038 831 891 
Q 831 666 1001 516 
Q 1172 366 1500 366 
Q 1825 366 2078 508 
Q 2331 650 2450 897 
Q 2541 1088 2541 1459 
L 2541 1666 
z
" transform="scale(0.015625)"/>
       <path id="ArialMT-6f" d="M 213 1659 
Q 213 2581 725 3025 
Q 1153 3394 1769 3394 
Q 2453 3394 2887 2945 
Q 3322 2497 3322 1706 
Q 3322 1066 3130 698 
Q 2938 331 2570 128 
Q 2203 -75 1769 -75 
Q 1072 -75 642 372 
Q 213 819 213 1659 
z
M 791 1659 
Q 791 1022 1069 705 
Q 1347 388 1769 388 
Q 2188 388 2466 706 
Q 2744 1025 2744 1678 
Q 2744 2294 2464 2611 
Q 2184 2928 1769 2928 
Q 1347 2928 1069 2612 
Q 791 2297 791 1659 
z
" transform="scale(0.015625)"/>
       <path id="ArialMT-6e" d="M 422 0 
L 422 3319 
L 928 3319 
L 928 2847 
Q 1294 3394 1984 3394 
Q 2284 3394 2536 3286 
Q 2788 3178 2913 3003 
Q 3038 2828 3088 2588 
Q 3119 2431 3119 2041 
L 3119 0 
L 2556 0 
L 2556 2019 
Q 2556 2363 2490 2533 
Q 2425 2703 2258 2804 
Q 2091 2906 1866 2906 
Q 1506 2906 1245 2678 
Q 984 2450 984 1813 
L 984 0 
L 422 0 
z
" transform="scale(0.015625)"/>
       <path id="ArialMT-20" transform="scale(0.015625)"/>
       <path id="ArialMT-28" d="M 1497 -1347 
Q 1031 -759 709 28 
Q 388 816 388 1659 
Q 388 2403 628 3084 
Q 909 3875 1497 4659 
L 1900 4659 
Q 1522 4009 1400 3731 
Q 1209 3300 1100 2831 
Q 966 2247 966 1656 
Q 966 153 1900 -1347 
L 1497 -1347 
z
" transform="scale(0.015625)"/>
       <path id="ArialMT-66" d="M 556 0 
L 556 2881 
L 59 2881 
L 59 3319 
L 556 3319 
L 556 3672 
Q 556 4006 616 4169 
Q 697 4388 901 4523 
Q 1106 4659 1475 4659 
Q 1713 4659 2000 4603 
L 1916 4113 
Q 1741 4144 1584 4144 
Q 1328 4144 1222 4034 
Q 1116 3925 1116 3625 
L 1116 3319 
L 1763 3319 
L 1763 2881 
L 1116 2881 
L 1116 0 
L 556 0 
z
" transform="scale(0.015625)"/>
       <path id="ArialMT-77" d="M 1034 0 
L 19 3319 
L 600 3319 
L 1128 1403 
L 1325 691 
Q 1338 744 1497 1375 
L 2025 3319 
L 2603 3319 
L 3100 1394 
L 3266 759 
L 3456 1400 
L 4025 3319 
L 4572 3319 
L 3534 0 
L 2950 0 
L 2422 1988 
L 2294 2553 
L 1622 0 
L 1034 0 
z
" transform="scale(0.015625)"/>
       <path id="ArialMT-2f" d="M 0 -78 
L 1328 4659 
L 1778 4659 
L 453 -78 
L 0 -78 
z
" transform="scale(0.015625)"/>
       <path id="ArialMT-4e" d="M 488 0 
L 488 4581 
L 1109 4581 
L 3516 984 
L 3516 4581 
L 4097 4581 
L 4097 0 
L 3475 0 
L 1069 3600 
L 1069 0 
L 488 0 
z
" transform="scale(0.015625)"/>
       <path id="ArialMT-54" d="M 1659 0 
L 1659 4041 
L 150 4041 
L 150 4581 
L 3781 4581 
L 3781 4041 
L 2266 4041 
L 2266 0 
L 1659 0 
z
" transform="scale(0.015625)"/>
       <path id="ArialMT-43" d="M 3763 1606 
L 4369 1453 
Q 4178 706 3683 314 
Q 3188 -78 2472 -78 
Q 1731 -78 1267 223 
Q 803 525 561 1097 
Q 319 1669 319 2325 
Q 319 3041 592 3573 
Q 866 4106 1370 4382 
Q 1875 4659 2481 4659 
Q 3169 4659 3637 4309 
Q 4106 3959 4291 3325 
L 3694 3184 
Q 3534 3684 3231 3912 
Q 2928 4141 2469 4141 
Q 1941 4141 1586 3887 
Q 1231 3634 1087 3207 
Q 944 2781 944 2328 
Q 944 1744 1114 1308 
Q 1284 872 1643 656 
Q 2003 441 2422 441 
Q 2931 441 3284 734 
Q 3638 1028 3763 1606 
z
" transform="scale(0.015625)"/>
       <path id="ArialMT-29" d="M 791 -1347 
L 388 -1347 
Q 1322 153 1322 1656 
Q 1322 2244 1188 2822 
Q 1081 3291 891 3722 
Q 769 4003 388 4659 
L 791 4659 
Q 1378 3875 1659 3084 
Q 1900 2403 1900 1659 
Q 1900 816 1576 28 
Q 1253 -759 791 -1347 
z
" transform="scale(0.015625)"/>
      </defs>
      <use xlink:href="#ArialMT-55"/>
      <use xlink:href="#ArialMT-74" transform="translate(72.216797 0)"/>
      <use xlink:href="#ArialMT-69" transform="translate(100 0)"/>
      <use xlink:href="#ArialMT-6c" transform="translate(122.216797 0)"/>
      <use xlink:href="#ArialMT-69" transform="translate(144.433594 0)"/>
      <use xlink:href="#ArialMT-7a" transform="translate(166.650391 0)"/>
      <use xlink:href="#ArialMT-61" transform="translate(216.650391 0)"/>
      <use xlink:href="#ArialMT-74" transform="translate(272.265625 0)"/>
      <use xlink:href="#ArialMT-69" transform="translate(300.048828 0)"/>
      <use xlink:href="#ArialMT-6f" transform="translate(322.265625 0)"/>
      <use xlink:href="#ArialMT-6e" transform="translate(377.880859 0)"/>
      <use xlink:href="#ArialMT-20" transform="translate(433.496094 0)"/>
      <use xlink:href="#ArialMT-28" transform="translate(461.279297 0)"/>
      <use xlink:href="#ArialMT-66" transform="translate(494.580078 0)"/>
      <use xlink:href="#ArialMT-6c" transform="translate(522.363281 0)"/>
      <use xlink:href="#ArialMT-6f" transform="translate(544.580078 0)"/>
      <use xlink:href="#ArialMT-77" transform="translate(600.195312 0)"/>
      <use xlink:href="#ArialMT-20" transform="translate(672.412109 0)"/>
      <use xlink:href="#ArialMT-2f" transform="translate(700.195312 0)"/>
      <use xlink:href="#ArialMT-20" transform="translate(727.978516 0)"/>
      <use xlink:href="#ArialMT-4e" transform="translate(755.761719 0)"/>
      <use xlink:href="#ArialMT-54" transform="translate(827.978516 0)"/>
      <use xlink:href="#ArialMT-43" transform="translate(889.0625 0)"/>
      <use xlink:href="#ArialMT-29" transform="translate(961.279297 0)"/>
     </g>
    </g>
   </g>
   <g id="matplotlib.axis_2">
    <g id="ytick_1">
     <g id="line2d_8">
      <path d="M 51.021474 275.716283 
L 417.35925 275.716283 
" clip-path="url(#p3491c51ade)" style="fill: none; stroke: #cccccc; stroke-opacity: 0.3; stroke-width: 1.5; stroke-linecap: round"/>
     </g>
     <g id="text_9">
      <!-- 0 -->
      <g style="fill: #262626" transform="translate(30.263482 281.030959) scale(0.1485 -0.1485)">
       <use xlink:href="#ArialMT-30"/>
      </g>
     </g>
    </g>
    <g id="ytick_2">
     <g id="line2d_9">
      <path d="M 51.021474 232.234122 
L 417.35925 232.234122 
" clip-path="url(#p3491c51ade)" style="fill: none; stroke: #cccccc; stroke-opacity: 0.3; stroke-width: 1.5; stroke-linecap: round"/>
     </g>
     <g id="text_10">
      <!-- 5 -->
      <g style="fill: #262626" transform="translate(30.263482 237.548797) scale(0.1485 -0.1485)">
       <defs>
        <path id="ArialMT-35" d="M 266 1200 
L 856 1250 
Q 922 819 1161 601 
Q 1400 384 1738 384 
Q 2144 384 2425 690 
Q 2706 997 2706 1503 
Q 2706 1984 2436 2262 
Q 2166 2541 1728 2541 
Q 1456 2541 1237 2417 
Q 1019 2294 894 2097 
L 366 2166 
L 809 4519 
L 3088 4519 
L 3088 3981 
L 1259 3981 
L 1013 2750 
Q 1425 3038 1878 3038 
Q 2478 3038 2890 2622 
Q 3303 2206 3303 1553 
Q 3303 931 2941 478 
Q 2500 -78 1738 -78 
Q 1113 -78 717 272 
Q 322 622 266 1200 
z
" transform="scale(0.015625)"/>
       </defs>
       <use xlink:href="#ArialMT-35"/>
      </g>
     </g>
    </g>
    <g id="ytick_3">
     <g id="line2d_10">
      <path d="M 51.021474 188.75196 
L 417.35925 188.75196 
" clip-path="url(#p3491c51ade)" style="fill: none; stroke: #cccccc; stroke-opacity: 0.3; stroke-width: 1.5; stroke-linecap: round"/>
     </g>
     <g id="text_11">
      <!-- 10 -->
      <g style="fill: #262626" transform="translate(22.00549 194.066636) scale(0.1485 -0.1485)">
       <use xlink:href="#ArialMT-31"/>
       <use xlink:href="#ArialMT-30" transform="translate(55.615234 0)"/>
      </g>
     </g>
    </g>
    <g id="ytick_4">
     <g id="line2d_11">
      <path d="M 51.021474 145.269798 
L 417.35925 145.269798 
" clip-path="url(#p3491c51ade)" style="fill: none; stroke: #cccccc; stroke-opacity: 0.3; stroke-width: 1.5; stroke-linecap: round"/>
     </g>
     <g id="text_12">
      <!-- 15 -->
      <g style="fill: #262626" transform="translate(22.00549 150.584474) scale(0.1485 -0.1485)">
       <use xlink:href="#ArialMT-31"/>
       <use xlink:href="#ArialMT-35" transform="translate(55.615234 0)"/>
      </g>
     </g>
    </g>
    <g id="ytick_5">
     <g id="line2d_12">
      <path d="M 51.021474 101.787636 
L 417.35925 101.787636 
" clip-path="url(#p3491c51ade)" style="fill: none; stroke: #cccccc; stroke-opacity: 0.3; stroke-width: 1.5; stroke-linecap: round"/>
     </g>
     <g id="text_13">
      <!-- 20 -->
      <g style="fill: #262626" transform="translate(22.00549 107.102312) scale(0.1485 -0.1485)">
       <use xlink:href="#ArialMT-32"/>
       <use xlink:href="#ArialMT-30" transform="translate(55.615234 0)"/>
      </g>
     </g>
    </g>
    <g id="ytick_6">
     <g id="line2d_13">
      <path d="M 51.021474 58.305474 
L 417.35925 58.305474 
" clip-path="url(#p3491c51ade)" style="fill: none; stroke: #cccccc; stroke-opacity: 0.3; stroke-width: 1.5; stroke-linecap: round"/>
     </g>
     <g id="text_14">
      <!-- 25 -->
      <g style="fill: #262626" transform="translate(22.00549 63.62015) scale(0.1485 -0.1485)">
       <use xlink:href="#ArialMT-32"/>
       <use xlink:href="#ArialMT-35" transform="translate(55.615234 0)"/>
      </g>
     </g>
    </g>
    <g id="text_15">
     <!-- Density -->
     <g style="fill: #262626" transform="translate(14.595896 175.263246) rotate(-90) scale(0.162 -0.162)">
      <defs>
       <path id="ArialMT-44" d="M 494 0 
L 494 4581 
L 2072 4581 
Q 2606 4581 2888 4516 
Q 3281 4425 3559 4188 
Q 3922 3881 4101 3404 
Q 4281 2928 4281 2316 
Q 4281 1794 4159 1391 
Q 4038 988 3847 723 
Q 3656 459 3429 307 
Q 3203 156 2883 78 
Q 2563 0 2147 0 
L 494 0 
z
M 1100 541 
L 2078 541 
Q 2531 541 2789 625 
Q 3047 709 3200 863 
Q 3416 1078 3536 1442 
Q 3656 1806 3656 2325 
Q 3656 3044 3420 3430 
Q 3184 3816 2847 3947 
Q 2603 4041 2063 4041 
L 1100 4041 
L 1100 541 
z
" transform="scale(0.015625)"/>
       <path id="ArialMT-65" d="M 2694 1069 
L 3275 997 
Q 3138 488 2766 206 
Q 2394 -75 1816 -75 
Q 1088 -75 661 373 
Q 234 822 234 1631 
Q 234 2469 665 2931 
Q 1097 3394 1784 3394 
Q 2450 3394 2872 2941 
Q 3294 2488 3294 1666 
Q 3294 1616 3291 1516 
L 816 1516 
Q 847 969 1125 678 
Q 1403 388 1819 388 
Q 2128 388 2347 550 
Q 2566 713 2694 1069 
z
M 847 1978 
L 2700 1978 
Q 2663 2397 2488 2606 
Q 2219 2931 1791 2931 
Q 1403 2931 1139 2672 
Q 875 2413 847 1978 
z
" transform="scale(0.015625)"/>
       <path id="ArialMT-73" d="M 197 991 
L 753 1078 
Q 800 744 1014 566 
Q 1228 388 1613 388 
Q 2000 388 2187 545 
Q 2375 703 2375 916 
Q 2375 1106 2209 1216 
Q 2094 1291 1634 1406 
Q 1016 1563 777 1677 
Q 538 1791 414 1992 
Q 291 2194 291 2438 
Q 291 2659 392 2848 
Q 494 3038 669 3163 
Q 800 3259 1026 3326 
Q 1253 3394 1513 3394 
Q 1903 3394 2198 3281 
Q 2494 3169 2634 2976 
Q 2775 2784 2828 2463 
L 2278 2388 
Q 2241 2644 2061 2787 
Q 1881 2931 1553 2931 
Q 1166 2931 1000 2803 
Q 834 2675 834 2503 
Q 834 2394 903 2306 
Q 972 2216 1119 2156 
Q 1203 2125 1616 2013 
Q 2213 1853 2448 1751 
Q 2684 1650 2818 1456 
Q 2953 1263 2953 975 
Q 2953 694 2789 445 
Q 2625 197 2315 61 
Q 2006 -75 1616 -75 
Q 969 -75 630 194 
Q 291 463 197 991 
z
" transform="scale(0.015625)"/>
       <path id="ArialMT-79" d="M 397 -1278 
L 334 -750 
Q 519 -800 656 -800 
Q 844 -800 956 -737 
Q 1069 -675 1141 -563 
Q 1194 -478 1313 -144 
Q 1328 -97 1363 -6 
L 103 3319 
L 709 3319 
L 1400 1397 
Q 1534 1031 1641 628 
Q 1738 1016 1872 1384 
L 2581 3319 
L 3144 3319 
L 1881 -56 
Q 1678 -603 1566 -809 
Q 1416 -1088 1222 -1217 
Q 1028 -1347 759 -1347 
Q 597 -1347 397 -1278 
z
" transform="scale(0.015625)"/>
      </defs>
      <use xlink:href="#ArialMT-44"/>
      <use xlink:href="#ArialMT-65" transform="translate(72.216797 0)"/>
      <use xlink:href="#ArialMT-6e" transform="translate(127.832031 0)"/>
      <use xlink:href="#ArialMT-73" transform="translate(183.447266 0)"/>
      <use xlink:href="#ArialMT-69" transform="translate(233.447266 0)"/>
      <use xlink:href="#ArialMT-74" transform="translate(255.664062 0)"/>
      <use xlink:href="#ArialMT-79" transform="translate(283.447266 0)"/>
     </g>
    </g>
   </g>
   <g id="patch_3">
    <path d="M 51.021474 275.716283 
L 58.923924 275.716283 
L 58.923924 32.932522 
L 51.021474 32.932522 
z
" clip-path="url(#p3491c51ade)" style="fill: #4c72b0; fill-opacity: 0.85; stroke: #ffffff; stroke-width: 0.691736; stroke-linejoin: miter"/>
   </g>
   <g id="patch_4">
    <path d="M 58.923924 275.716283 
L 66.826373 275.716283 
L 66.826373 268.958057 
L 58.923924 268.958057 
z
" clip-path="url(#p3491c51ade)" style="fill: #4c72b0; fill-opacity: 0.85; stroke: #ffffff; stroke-width: 0.691736; stroke-linejoin: miter"/>
   </g>
   <g id="patch_5">
    <path d="M 66.826373 275.716283 
L 74.728823 275.716283 
L 74.728823 269.239864 
L 66.826373 269.239864 
z
" clip-path="url(#p3491c51ade)" style="fill: #4c72b0; fill-opacity: 0.85; stroke: #ffffff; stroke-width: 0.691736; stroke-linejoin: miter"/>
   </g>
   <g id="patch_6">
    <path d="M 74.728823 275.716283 
L 82.631272 275.716283 
L 82.631272 269.97256 
L 74.728823 269.97256 
z
" clip-path="url(#p3491c51ade)" style="fill: #4c72b0; fill-opacity: 0.85; stroke: #ffffff; stroke-width: 0.691736; stroke-linejoin: miter"/>
   </g>
   <g id="patch_7">
    <path d="M 82.631272 275.716283 
L 90.533722 275.716283 
L 90.533722 270.172386 
L 82.631272 270.172386 
z
" clip-path="url(#p3491c51ade)" style="fill: #4c72b0; fill-opacity: 0.85; stroke: #ffffff; stroke-width: 0.691736; stroke-linejoin: miter"/>
   </g>
   <g id="patch_8">
    <path d="M 90.533722 275.716283 
L 98.436171 275.716283 
L 98.436171 270.182634 
L 90.533722 270.182634 
z
" clip-path="url(#p3491c51ade)" style="fill: #4c72b0; fill-opacity: 0.85; stroke: #ffffff; stroke-width: 0.691736; stroke-linejoin: miter"/>
   </g>
   <g id="patch_9">
    <path d="M 98.436171 275.716283 
L 106.338621 275.716283 
L 106.338621 270.556667 
L 98.436171 270.556667 
z
" clip-path="url(#p3491c51ade)" style="fill: #4c72b0; fill-opacity: 0.85; stroke: #ffffff; stroke-width: 0.691736; stroke-linejoin: miter"/>
   </g>
   <g id="patch_10">
    <path d="M 106.338621 275.716283 
L 114.24107 275.716283 
L 114.24107 270.741122 
L 106.338621 270.741122 
z
" clip-path="url(#p3491c51ade)" style="fill: #4c72b0; fill-opacity: 0.85; stroke: #ffffff; stroke-width: 0.691736; stroke-linejoin: miter"/>
   </g>
   <g id="patch_11">
    <path d="M 114.24107 275.716283 
L 122.14352 275.716283 
L 122.14352 270.940949 
L 114.24107 270.940949 
z
" clip-path="url(#p3491c51ade)" style="fill: #4c72b0; fill-opacity: 0.85; stroke: #ffffff; stroke-width: 0.691736; stroke-linejoin: miter"/>
   </g>
   <g id="patch_12">
    <path d="M 122.14352 275.716283 
L 130.045969 275.716283 
L 130.045969 271.786367 
L 122.14352 271.786367 
z
" clip-path="url(#p3491c51ade)" style="fill: #4c72b0; fill-opacity: 0.85; stroke: #ffffff; stroke-width: 0.691736; stroke-linejoin: miter"/>
   </g>
   <g id="patch_13">
    <path d="M 130.045969 275.716283 
L 137.948419 275.716283 
L 137.948419 271.412334 
L 130.045969 271.412334 
z
" clip-path="url(#p3491c51ade)" style="fill: #4c72b0; fill-opacity: 0.85; stroke: #ffffff; stroke-width: 0.691736; stroke-linejoin: miter"/>
   </g>
   <g id="patch_14">
    <path d="M 137.948419 275.716283 
L 145.850868 275.716283 
L 145.850868 271.40721 
L 137.948419 271.40721 
z
" clip-path="url(#p3491c51ade)" style="fill: #4c72b0; fill-opacity: 0.85; stroke: #ffffff; stroke-width: 0.691736; stroke-linejoin: miter"/>
   </g>
   <g id="patch_15">
    <path d="M 145.850868 275.716283 
L 153.753318 275.716283 
L 153.753318 272.042555 
L 145.850868 272.042555 
z
" clip-path="url(#p3491c51ade)" style="fill: #4c72b0; fill-opacity: 0.85; stroke: #ffffff; stroke-width: 0.691736; stroke-linejoin: miter"/>
   </g>
   <g id="patch_16">
    <path d="M 153.753318 275.716283 
L 161.655767 275.716283 
L 161.655767 272.078421 
L 153.753318 272.078421 
z
" clip-path="url(#p3491c51ade)" style="fill: #4c72b0; fill-opacity: 0.85; stroke: #ffffff; stroke-width: 0.691736; stroke-linejoin: miter"/>
   </g>
   <g id="patch_17">
    <path d="M 161.655767 275.716283 
L 169.558217 275.716283 
L 169.558217 272.360227 
L 161.655767 272.360227 
z
" clip-path="url(#p3491c51ade)" style="fill: #4c72b0; fill-opacity: 0.85; stroke: #ffffff; stroke-width: 0.691736; stroke-linejoin: miter"/>
   </g>
   <g id="patch_18">
    <path d="M 169.558217 275.716283 
L 177.460666 275.716283 
L 177.460666 273.133914 
L 169.558217 273.133914 
z
" clip-path="url(#p3491c51ade)" style="fill: #4c72b0; fill-opacity: 0.85; stroke: #ffffff; stroke-width: 0.691736; stroke-linejoin: miter"/>
   </g>
   <g id="patch_19">
    <path d="M 177.460666 275.716283 
L 185.363116 275.716283 
L 185.363116 272.980201 
L 177.460666 272.980201 
z
" clip-path="url(#p3491c51ade)" style="fill: #4c72b0; fill-opacity: 0.85; stroke: #ffffff; stroke-width: 0.691736; stroke-linejoin: miter"/>
   </g>
   <g id="patch_20">
    <path d="M 185.363116 275.716283 
L 193.265565 275.716283 
L 193.265565 273.21077 
L 185.363116 273.21077 
z
" clip-path="url(#p3491c51ade)" style="fill: #4c72b0; fill-opacity: 0.85; stroke: #ffffff; stroke-width: 0.691736; stroke-linejoin: miter"/>
   </g>
   <g id="patch_21">
    <path d="M 193.265565 275.716283 
L 201.168015 275.716283 
L 201.168015 273.922971 
L 193.265565 273.922971 
z
" clip-path="url(#p3491c51ade)" style="fill: #4c72b0; fill-opacity: 0.85; stroke: #ffffff; stroke-width: 0.691736; stroke-linejoin: miter"/>
   </g>
   <g id="patch_22">
    <path d="M 201.168015 275.716283 
L 209.070464 275.716283 
L 209.070464 273.692402 
L 201.168015 273.692402 
z
" clip-path="url(#p3491c51ade)" style="fill: #4c72b0; fill-opacity: 0.85; stroke: #ffffff; stroke-width: 0.691736; stroke-linejoin: miter"/>
   </g>
   <g id="patch_23">
    <path d="M 209.070464 275.716283 
L 216.972914 275.716283 
L 216.972914 273.753887 
L 209.070464 273.753887 
z
" clip-path="url(#p3491c51ade)" style="fill: #4c72b0; fill-opacity: 0.85; stroke: #ffffff; stroke-width: 0.691736; stroke-linejoin: miter"/>
   </g>
   <g id="patch_24">
    <path d="M 216.972914 275.716283 
L 224.875363 275.716283 
L 224.875363 274.179158 
L 216.972914 274.179158 
z
" clip-path="url(#p3491c51ade)" style="fill: #4c72b0; fill-opacity: 0.85; stroke: #ffffff; stroke-width: 0.691736; stroke-linejoin: miter"/>
   </g>
   <g id="patch_25">
    <path d="M 224.875363 275.716283 
L 232.777813 275.716283 
L 232.777813 274.261138 
L 224.875363 274.261138 
z
" clip-path="url(#p3491c51ade)" style="fill: #4c72b0; fill-opacity: 0.85; stroke: #ffffff; stroke-width: 0.691736; stroke-linejoin: miter"/>
   </g>
   <g id="patch_26">
    <path d="M 232.777813 275.716283 
L 240.680262 275.716283 
L 240.680262 274.240643 
L 232.777813 274.240643 
z
" clip-path="url(#p3491c51ade)" style="fill: #4c72b0; fill-opacity: 0.85; stroke: #ffffff; stroke-width: 0.691736; stroke-linejoin: miter"/>
   </g>
   <g id="patch_27">
    <path d="M 240.680262 275.716283 
L 248.582712 275.716283 
L 248.582712 274.425098 
L 240.680262 274.425098 
z
" clip-path="url(#p3491c51ade)" style="fill: #4c72b0; fill-opacity: 0.85; stroke: #ffffff; stroke-width: 0.691736; stroke-linejoin: miter"/>
   </g>
   <g id="patch_28">
    <path d="M 248.582712 275.716283 
L 256.485161 275.716283 
L 256.485161 274.568563 
L 248.582712 274.568563 
z
" clip-path="url(#p3491c51ade)" style="fill: #4c72b0; fill-opacity: 0.85; stroke: #ffffff; stroke-width: 0.691736; stroke-linejoin: miter"/>
   </g>
   <g id="patch_29">
    <path d="M 256.485161 275.716283 
L 264.387611 275.716283 
L 264.387611 274.927226 
L 256.485161 274.927226 
z
" clip-path="url(#p3491c51ade)" style="fill: #4c72b0; fill-opacity: 0.85; stroke: #ffffff; stroke-width: 0.691736; stroke-linejoin: miter"/>
   </g>
   <g id="patch_30">
    <path d="M 264.387611 275.716283 
L 272.29006 275.716283 
L 272.29006 274.922102 
L 264.387611 274.922102 
z
" clip-path="url(#p3491c51ade)" style="fill: #4c72b0; fill-opacity: 0.85; stroke: #ffffff; stroke-width: 0.691736; stroke-linejoin: miter"/>
   </g>
   <g id="patch_31">
    <path d="M 272.29006 275.716283 
L 280.19251 275.716283 
L 280.19251 275.168042 
L 272.29006 275.168042 
z
" clip-path="url(#p3491c51ade)" style="fill: #4c72b0; fill-opacity: 0.85; stroke: #ffffff; stroke-width: 0.691736; stroke-linejoin: miter"/>
   </g>
   <g id="patch_32">
    <path d="M 280.19251 275.716283 
L 288.094959 275.716283 
L 288.094959 275.188537 
L 280.19251 275.188537 
z
" clip-path="url(#p3491c51ade)" style="fill: #4c72b0; fill-opacity: 0.85; stroke: #ffffff; stroke-width: 0.691736; stroke-linejoin: miter"/>
   </g>
   <g id="patch_33">
    <path d="M 288.094959 275.716283 
L 295.997409 275.716283 
L 295.997409 275.203908 
L 288.094959 275.203908 
z
" clip-path="url(#p3491c51ade)" style="fill: #4c72b0; fill-opacity: 0.85; stroke: #ffffff; stroke-width: 0.691736; stroke-linejoin: miter"/>
   </g>
   <g id="patch_34">
    <path d="M 295.997409 275.716283 
L 303.899858 275.716283 
L 303.899858 275.367868 
L 295.997409 275.367868 
z
" clip-path="url(#p3491c51ade)" style="fill: #4c72b0; fill-opacity: 0.85; stroke: #ffffff; stroke-width: 0.691736; stroke-linejoin: miter"/>
   </g>
   <g id="patch_35">
    <path d="M 303.899858 275.716283 
L 311.802308 275.716283 
L 311.802308 275.429353 
L 303.899858 275.429353 
z
" clip-path="url(#p3491c51ade)" style="fill: #4c72b0; fill-opacity: 0.85; stroke: #ffffff; stroke-width: 0.691736; stroke-linejoin: miter"/>
   </g>
   <g id="patch_36">
    <path d="M 311.802308 275.716283 
L 319.704757 275.716283 
L 319.704757 275.511333 
L 311.802308 275.511333 
z
" clip-path="url(#p3491c51ade)" style="fill: #4c72b0; fill-opacity: 0.85; stroke: #ffffff; stroke-width: 0.691736; stroke-linejoin: miter"/>
   </g>
   <g id="patch_37">
    <path d="M 319.704757 275.716283 
L 327.607207 275.716283 
L 327.607207 275.572818 
L 319.704757 275.572818 
z
" clip-path="url(#p3491c51ade)" style="fill: #4c72b0; fill-opacity: 0.85; stroke: #ffffff; stroke-width: 0.691736; stroke-linejoin: miter"/>
   </g>
   <g id="patch_38">
    <path d="M 327.607207 275.716283 
L 335.509656 275.716283 
L 335.509656 275.552323 
L 327.607207 275.552323 
z
" clip-path="url(#p3491c51ade)" style="fill: #4c72b0; fill-opacity: 0.85; stroke: #ffffff; stroke-width: 0.691736; stroke-linejoin: miter"/>
   </g>
   <g id="patch_39">
    <path d="M 335.509656 275.716283 
L 343.412106 275.716283 
L 343.412106 275.613808 
L 335.509656 275.613808 
z
" clip-path="url(#p3491c51ade)" style="fill: #4c72b0; fill-opacity: 0.85; stroke: #ffffff; stroke-width: 0.691736; stroke-linejoin: miter"/>
   </g>
   <g id="patch_40">
    <path d="M 343.412106 275.716283 
L 351.314555 275.716283 
L 351.314555 275.695788 
L 343.412106 275.695788 
z
" clip-path="url(#p3491c51ade)" style="fill: #4c72b0; fill-opacity: 0.85; stroke: #ffffff; stroke-width: 0.691736; stroke-linejoin: miter"/>
   </g>
   <g id="patch_41">
    <path d="M 351.314555 275.716283 
L 359.217005 275.716283 
L 359.217005 275.695788 
L 351.314555 275.695788 
z
" clip-path="url(#p3491c51ade)" style="fill: #4c72b0; fill-opacity: 0.85; stroke: #ffffff; stroke-width: 0.691736; stroke-linejoin: miter"/>
   </g>
   <g id="patch_42">
    <path d="M 359.217005 275.716283 
L 367.119454 275.716283 
L 367.119454 275.695788 
L 359.217005 275.695788 
z
" clip-path="url(#p3491c51ade)" style="fill: #4c72b0; fill-opacity: 0.85; stroke: #ffffff; stroke-width: 0.691736; stroke-linejoin: miter"/>
   </g>
   <g id="line2d_14">
    <path d="M 51.021474 136.153313 
L 52.609906 141.031318 
L 54.198338 155.872783 
L 55.786771 177.177144 
L 57.375203 200.548538 
L 58.963635 222.126192 
L 60.552067 239.517148 
L 62.140499 251.977742 
L 63.728931 260.003081 
L 65.317363 264.691197 
L 66.905795 267.203368 
L 68.494227 268.464247 
L 70.082659 269.08298 
L 71.671091 269.402724 
L 74.847955 269.716863 
L 79.613251 269.926493 
L 108.205028 270.743953 
L 125.677781 271.326502 
L 138.385238 271.625773 
L 157.446422 272.077428 
L 168.565447 272.623967 
L 176.507607 272.962885 
L 187.626631 273.319096 
L 197.157224 273.707983 
L 249.575482 274.533113 
L 267.048234 274.931331 
L 287.697851 275.18782 
L 303.582172 275.380916 
L 325.820221 275.555408 
L 348.058269 275.687519 
L 367.119454 275.703172 
L 367.119454 275.703172 
" clip-path="url(#p3491c51ade)" style="fill: none; stroke: #4c72b0; stroke-width: 2.25; stroke-linecap: round"/>
   </g>
   <g id="patch_43">
    <path d="M 51.021474 275.716283 
L 51.021474 20.793334 
" style="fill: none; stroke: #cccccc; stroke-width: 1.875; stroke-linejoin: miter; stroke-linecap: square"/>
   </g>
   <g id="patch_44">
    <path d="M 417.35925 275.716283 
L 417.35925 20.793334 
" style="fill: none; stroke: #cccccc; stroke-width: 1.875; stroke-linejoin: miter; stroke-linecap: square"/>
   </g>
   <g id="patch_45">
    <path d="M 51.021474 275.716283 
L 417.35925 275.716283 
" style="fill: none; stroke: #cccccc; stroke-width: 1.875; stroke-linejoin: miter; stroke-linecap: square"/>
   </g>
   <g id="patch_46">
    <path d="M 51.021474 20.793334 
L 417.35925 20.793334 
" style="fill: none; stroke: #cccccc; stroke-width: 1.875; stroke-linejoin: miter; stroke-linecap: square"/>
   </g>
   <g id="text_16">
    <!-- Export utilization — SE3 -->
    <g style="fill: #262626" transform="translate(146.853378 14.793334) scale(0.162 -0.162)">
     <defs>
      <path id="ArialMT-45" d="M 506 0 
L 506 4581 
L 3819 4581 
L 3819 4041 
L 1113 4041 
L 1113 2638 
L 3647 2638 
L 3647 2100 
L 1113 2100 
L 1113 541 
L 3925 541 
L 3925 0 
L 506 0 
z
" transform="scale(0.015625)"/>
      <path id="ArialMT-78" d="M 47 0 
L 1259 1725 
L 138 3319 
L 841 3319 
L 1350 2541 
Q 1494 2319 1581 2169 
Q 1719 2375 1834 2534 
L 2394 3319 
L 3066 3319 
L 1919 1756 
L 3153 0 
L 2463 0 
L 1781 1031 
L 1600 1309 
L 728 0 
L 47 0 
z
" transform="scale(0.015625)"/>
      <path id="ArialMT-70" d="M 422 -1272 
L 422 3319 
L 934 3319 
L 934 2888 
Q 1116 3141 1344 3267 
Q 1572 3394 1897 3394 
Q 2322 3394 2647 3175 
Q 2972 2956 3137 2557 
Q 3303 2159 3303 1684 
Q 3303 1175 3120 767 
Q 2938 359 2589 142 
Q 2241 -75 1856 -75 
Q 1575 -75 1351 44 
Q 1128 163 984 344 
L 984 -1272 
L 422 -1272 
z
M 931 1641 
Q 931 1000 1190 694 
Q 1450 388 1819 388 
Q 2194 388 2461 705 
Q 2728 1022 2728 1688 
Q 2728 2322 2467 2637 
Q 2206 2953 1844 2953 
Q 1484 2953 1207 2617 
Q 931 2281 931 1641 
z
" transform="scale(0.015625)"/>
      <path id="ArialMT-72" d="M 416 0 
L 416 3319 
L 922 3319 
L 922 2816 
Q 1116 3169 1280 3281 
Q 1444 3394 1641 3394 
Q 1925 3394 2219 3213 
L 2025 2691 
Q 1819 2813 1613 2813 
Q 1428 2813 1281 2702 
Q 1134 2591 1072 2394 
Q 978 2094 978 1738 
L 978 0 
L 416 0 
z
" transform="scale(0.015625)"/>
      <path id="ArialMT-75" d="M 2597 0 
L 2597 488 
Q 2209 -75 1544 -75 
Q 1250 -75 995 37 
Q 741 150 617 320 
Q 494 491 444 738 
Q 409 903 409 1263 
L 409 3319 
L 972 3319 
L 972 1478 
Q 972 1038 1006 884 
Q 1059 663 1231 536 
Q 1403 409 1656 409 
Q 1909 409 2131 539 
Q 2353 669 2445 892 
Q 2538 1116 2538 1541 
L 2538 3319 
L 3100 3319 
L 3100 0 
L 2597 0 
z
" transform="scale(0.015625)"/>
      <path id="ArialMT-2014" d="M 0 1431 
L 0 1884 
L 6400 1884 
L 6400 1431 
L 0 1431 
z
" transform="scale(0.015625)"/>
      <path id="ArialMT-53" d="M 288 1472 
L 859 1522 
Q 900 1178 1048 958 
Q 1197 738 1509 602 
Q 1822 466 2213 466 
Q 2559 466 2825 569 
Q 3091 672 3220 851 
Q 3350 1031 3350 1244 
Q 3350 1459 3225 1620 
Q 3100 1781 2813 1891 
Q 2628 1963 1997 2114 
Q 1366 2266 1113 2400 
Q 784 2572 623 2826 
Q 463 3081 463 3397 
Q 463 3744 659 4045 
Q 856 4347 1234 4503 
Q 1613 4659 2075 4659 
Q 2584 4659 2973 4495 
Q 3363 4331 3572 4012 
Q 3781 3694 3797 3291 
L 3216 3247 
Q 3169 3681 2898 3903 
Q 2628 4125 2100 4125 
Q 1550 4125 1298 3923 
Q 1047 3722 1047 3438 
Q 1047 3191 1225 3031 
Q 1400 2872 2139 2705 
Q 2878 2538 3153 2413 
Q 3553 2228 3743 1945 
Q 3934 1663 3934 1294 
Q 3934 928 3725 604 
Q 3516 281 3123 101 
Q 2731 -78 2241 -78 
Q 1619 -78 1198 103 
Q 778 284 539 648 
Q 300 1013 288 1472 
z
" transform="scale(0.015625)"/>
      <path id="ArialMT-33" d="M 269 1209 
L 831 1284 
Q 928 806 1161 595 
Q 1394 384 1728 384 
Q 2125 384 2398 659 
Q 2672 934 2672 1341 
Q 2672 1728 2419 1979 
Q 2166 2231 1775 2231 
Q 1616 2231 1378 2169 
L 1441 2663 
Q 1497 2656 1531 2656 
Q 1891 2656 2178 2843 
Q 2466 3031 2466 3422 
Q 2466 3731 2256 3934 
Q 2047 4138 1716 4138 
Q 1388 4138 1169 3931 
Q 950 3725 888 3313 
L 325 3413 
Q 428 3978 793 4289 
Q 1159 4600 1703 4600 
Q 2078 4600 2393 4439 
Q 2709 4278 2876 4000 
Q 3044 3722 3044 3409 
Q 3044 3113 2884 2869 
Q 2725 2625 2413 2481 
Q 2819 2388 3044 2092 
Q 3269 1797 3269 1353 
Q 3269 753 2831 336 
Q 2394 -81 1725 -81 
Q 1122 -81 723 278 
Q 325 638 269 1209 
z
" transform="scale(0.015625)"/>
     </defs>
     <use xlink:href="#ArialMT-45"/>
     <use xlink:href="#ArialMT-78" transform="translate(66.699219 0)"/>
     <use xlink:href="#ArialMT-70" transform="translate(116.699219 0)"/>
     <use xlink:href="#ArialMT-6f" transform="translate(172.314453 0)"/>
     <use xlink:href="#ArialMT-72" transform="translate(227.929688 0)"/>
     <use xlink:href="#ArialMT-74" transform="translate(261.230469 0)"/>
     <use xlink:href="#ArialMT-20" transform="translate(289.013672 0)"/>
     <use xlink:href="#ArialMT-75" transform="translate(316.796875 0)"/>
     <use xlink:href="#ArialMT-74" transform="translate(372.412109 0)"/>
     <use xlink:href="#ArialMT-69" transform="translate(400.195312 0)"/>
     <use xlink:href="#ArialMT-6c" transform="translate(422.412109 0)"/>
     <use xlink:href="#ArialMT-69" transform="translate(444.628906 0)"/>
     <use xlink:href="#ArialMT-7a" transform="translate(466.845703 0)"/>
     <use xlink:href="#ArialMT-61" transform="translate(516.845703 0)"/>
     <use xlink:href="#ArialMT-74" transform="translate(572.460938 0)"/>
     <use xlink:href="#ArialMT-69" transform="translate(600.244141 0)"/>
     <use xlink:href="#ArialMT-6f" transform="translate(622.460938 0)"/>
     <use xlink:href="#ArialMT-6e" transform="translate(678.076172 0)"/>
     <use xlink:href="#ArialMT-20" transform="translate(733.691406 0)"/>
     <use xlink:href="#ArialMT-2014" transform="translate(761.474609 0)"/>
     <use xlink:href="#ArialMT-20" transform="translate(861.474609 0)"/>
     <use xlink:href="#ArialMT-53" transform="translate(889.257812 0)"/>
     <use xlink:href="#ArialMT-45" transform="translate(955.957031 0)"/>
     <use xlink:href="#ArialMT-33" transform="translate(1022.65625 0)"/>
    </g>
   </g>
  </g>
  <g id="axes_2">
   <g id="patch_47">
    <path d="M 484.341234 275.716283 
L 850.67901 275.716283 
L 850.67901 20.793334 
L 484.341234 20.793334 
z
" style="fill: #ffffff"/>
   </g>
   <g id="matplotlib.axis_3">
    <g id="xtick_8">
     <g id="line2d_15">
      <path d="M 484.341234 275.716283 
L 484.341234 20.793334 
" clip-path="url(#p2121ed2869)" style="fill: none; stroke: #cccccc; stroke-opacity: 0.3; stroke-width: 1.5; stroke-linecap: round"/>
     </g>
     <g id="text_17">
      <!-- 0.0 -->
      <g style="fill: #262626" transform="translate(474.020484 298.845635) scale(0.1485 -0.1485)">
       <use xlink:href="#ArialMT-30"/>
       <use xlink:href="#ArialMT-2e" transform="translate(55.615234 0)"/>
       <use xlink:href="#ArialMT-30" transform="translate(83.398438 0)"/>
      </g>
     </g>
    </g>
    <g id="xtick_9">
     <g id="line2d_16">
      <path d="M 545.39753 275.716283 
L 545.39753 20.793334 
" clip-path="url(#p2121ed2869)" style="fill: none; stroke: #cccccc; stroke-opacity: 0.3; stroke-width: 1.5; stroke-linecap: round"/>
     </g>
     <g id="text_18">
      <!-- 0.2 -->
      <g style="fill: #262626" transform="translate(535.07678 298.845635) scale(0.1485 -0.1485)">
       <use xlink:href="#ArialMT-30"/>
       <use xlink:href="#ArialMT-2e" transform="translate(55.615234 0)"/>
       <use xlink:href="#ArialMT-32" transform="translate(83.398438 0)"/>
      </g>
     </g>
    </g>
    <g id="xtick_10">
     <g id="line2d_17">
      <path d="M 606.453826 275.716283 
L 606.453826 20.793334 
" clip-path="url(#p2121ed2869)" style="fill: none; stroke: #cccccc; stroke-opacity: 0.3; stroke-width: 1.5; stroke-linecap: round"/>
     </g>
     <g id="text_19">
      <!-- 0.4 -->
      <g style="fill: #262626" transform="translate(596.133076 298.845635) scale(0.1485 -0.1485)">
       <use xlink:href="#ArialMT-30"/>
       <use xlink:href="#ArialMT-2e" transform="translate(55.615234 0)"/>
       <use xlink:href="#ArialMT-34" transform="translate(83.398438 0)"/>
      </g>
     </g>
    </g>
    <g id="xtick_11">
     <g id="line2d_18">
      <path d="M 667.510122 275.716283 
L 667.510122 20.793334 
" clip-path="url(#p2121ed2869)" style="fill: none; stroke: #cccccc; stroke-opacity: 0.3; stroke-width: 1.5; stroke-linecap: round"/>
     </g>
     <g id="text_20">
      <!-- 0.6 -->
      <g style="fill: #262626" transform="translate(657.189372 298.845635) scale(0.1485 -0.1485)">
       <use xlink:href="#ArialMT-30"/>
       <use xlink:href="#ArialMT-2e" transform="translate(55.615234 0)"/>
       <use xlink:href="#ArialMT-36" transform="translate(83.398438 0)"/>
      </g>
     </g>
    </g>
    <g id="xtick_12">
     <g id="line2d_19">
      <path d="M 728.566418 275.716283 
L 728.566418 20.793334 
" clip-path="url(#p2121ed2869)" style="fill: none; stroke: #cccccc; stroke-opacity: 0.3; stroke-width: 1.5; stroke-linecap: round"/>
     </g>
     <g id="text_21">
      <!-- 0.8 -->
      <g style="fill: #262626" transform="translate(718.245668 298.845635) scale(0.1485 -0.1485)">
       <use xlink:href="#ArialMT-30"/>
       <use xlink:href="#ArialMT-2e" transform="translate(55.615234 0)"/>
       <use xlink:href="#ArialMT-38" transform="translate(83.398438 0)"/>
      </g>
     </g>
    </g>
    <g id="xtick_13">
     <g id="line2d_20">
      <path d="M 789.622714 275.716283 
L 789.622714 20.793334 
" clip-path="url(#p2121ed2869)" style="fill: none; stroke: #cccccc; stroke-opacity: 0.3; stroke-width: 1.5; stroke-linecap: round"/>
     </g>
     <g id="text_22">
      <!-- 1.0 -->
      <g style="fill: #262626" transform="translate(779.301964 298.845635) scale(0.1485 -0.1485)">
       <use xlink:href="#ArialMT-31"/>
       <use xlink:href="#ArialMT-2e" transform="translate(55.615234 0)"/>
       <use xlink:href="#ArialMT-30" transform="translate(83.398438 0)"/>
      </g>
     </g>
    </g>
    <g id="xtick_14">
     <g id="line2d_21">
      <path d="M 850.67901 275.716283 
L 850.67901 20.793334 
" clip-path="url(#p2121ed2869)" style="fill: none; stroke: #cccccc; stroke-opacity: 0.3; stroke-width: 1.5; stroke-linecap: round"/>
     </g>
     <g id="text_23">
      <!-- 1.2 -->
      <g style="fill: #262626" transform="translate(840.35826 298.845635) scale(0.1485 -0.1485)">
       <use xlink:href="#ArialMT-31"/>
       <use xlink:href="#ArialMT-2e" transform="translate(55.615234 0)"/>
       <use xlink:href="#ArialMT-32" transform="translate(83.398438 0)"/>
      </g>
     </g>
    </g>
    <g id="text_24">
     <!-- Utilization (flow / NTC) -->
     <g style="fill: #262626" transform="translate(586.951825 317.590166) scale(0.162 -0.162)">
      <use xlink:href="#ArialMT-55"/>
      <use xlink:href="#ArialMT-74" transform="translate(72.216797 0)"/>
      <use xlink:href="#ArialMT-69" transform="translate(100 0)"/>
      <use xlink:href="#ArialMT-6c" transform="translate(122.216797 0)"/>
      <use xlink:href="#ArialMT-69" transform="translate(144.433594 0)"/>
      <use xlink:href="#ArialMT-7a" transform="translate(166.650391 0)"/>
      <use xlink:href="#ArialMT-61" transform="translate(216.650391 0)"/>
      <use xlink:href="#ArialMT-74" transform="translate(272.265625 0)"/>
      <use xlink:href="#ArialMT-69" transform="translate(300.048828 0)"/>
      <use xlink:href="#ArialMT-6f" transform="translate(322.265625 0)"/>
      <use xlink:href="#ArialMT-6e" transform="translate(377.880859 0)"/>
      <use xlink:href="#ArialMT-20" transform="translate(433.496094 0)"/>
      <use xlink:href="#ArialMT-28" transform="translate(461.279297 0)"/>
      <use xlink:href="#ArialMT-66" transform="translate(494.580078 0)"/>
      <use xlink:href="#ArialMT-6c" transform="translate(522.363281 0)"/>
      <use xlink:href="#ArialMT-6f" transform="translate(544.580078 0)"/>
      <use xlink:href="#ArialMT-77" transform="translate(600.195312 0)"/>
      <use xlink:href="#ArialMT-20" transform="translate(672.412109 0)"/>
      <use xlink:href="#ArialMT-2f" transform="translate(700.195312 0)"/>
      <use xlink:href="#ArialMT-20" transform="translate(727.978516 0)"/>
      <use xlink:href="#ArialMT-4e" transform="translate(755.761719 0)"/>
      <use xlink:href="#ArialMT-54" transform="translate(827.978516 0)"/>
      <use xlink:href="#ArialMT-43" transform="translate(889.0625 0)"/>
      <use xlink:href="#ArialMT-29" transform="translate(961.279297 0)"/>
     </g>
    </g>
   </g>
   <g id="matplotlib.axis_4">
    <g id="ytick_7">
     <g id="line2d_22">
      <path d="M 484.341234 275.716283 
L 850.67901 275.716283 
" clip-path="url(#p2121ed2869)" style="fill: none; stroke: #cccccc; stroke-opacity: 0.3; stroke-width: 1.5; stroke-linecap: round"/>
     </g>
     <g id="text_25">
      <!-- 0 -->
      <g style="fill: #262626" transform="translate(463.583242 281.030959) scale(0.1485 -0.1485)">
       <use xlink:href="#ArialMT-30"/>
      </g>
     </g>
    </g>
    <g id="ytick_8">
     <g id="line2d_23">
      <path d="M 484.341234 232.950813 
L 850.67901 232.950813 
" clip-path="url(#p2121ed2869)" style="fill: none; stroke: #cccccc; stroke-opacity: 0.3; stroke-width: 1.5; stroke-linecap: round"/>
     </g>
     <g id="text_26">
      <!-- 2 -->
      <g style="fill: #262626" transform="translate(463.583242 238.265489) scale(0.1485 -0.1485)">
       <use xlink:href="#ArialMT-32"/>
      </g>
     </g>
    </g>
    <g id="ytick_9">
     <g id="line2d_24">
      <path d="M 484.341234 190.185343 
L 850.67901 190.185343 
" clip-path="url(#p2121ed2869)" style="fill: none; stroke: #cccccc; stroke-opacity: 0.3; stroke-width: 1.5; stroke-linecap: round"/>
     </g>
     <g id="text_27">
      <!-- 4 -->
      <g style="fill: #262626" transform="translate(463.583242 195.500019) scale(0.1485 -0.1485)">
       <use xlink:href="#ArialMT-34"/>
      </g>
     </g>
    </g>
    <g id="ytick_10">
     <g id="line2d_25">
      <path d="M 484.341234 147.419873 
L 850.67901 147.419873 
" clip-path="url(#p2121ed2869)" style="fill: none; stroke: #cccccc; stroke-opacity: 0.3; stroke-width: 1.5; stroke-linecap: round"/>
     </g>
     <g id="text_28">
      <!-- 6 -->
      <g style="fill: #262626" transform="translate(463.583242 152.734549) scale(0.1485 -0.1485)">
       <use xlink:href="#ArialMT-36"/>
      </g>
     </g>
    </g>
    <g id="ytick_11">
     <g id="line2d_26">
      <path d="M 484.341234 104.654403 
L 850.67901 104.654403 
" clip-path="url(#p2121ed2869)" style="fill: none; stroke: #cccccc; stroke-opacity: 0.3; stroke-width: 1.5; stroke-linecap: round"/>
     </g>
     <g id="text_29">
      <!-- 8 -->
      <g style="fill: #262626" transform="translate(463.583242 109.969079) scale(0.1485 -0.1485)">
       <use xlink:href="#ArialMT-38"/>
      </g>
     </g>
    </g>
    <g id="ytick_12">
     <g id="line2d_27">
      <path d="M 484.341234 61.888933 
L 850.67901 61.888933 
" clip-path="url(#p2121ed2869)" style="fill: none; stroke: #cccccc; stroke-opacity: 0.3; stroke-width: 1.5; stroke-linecap: round"/>
     </g>
     <g id="text_30">
      <!-- 10 -->
      <g style="fill: #262626" transform="translate(455.32525 67.203609) scale(0.1485 -0.1485)">
       <use xlink:href="#ArialMT-31"/>
       <use xlink:href="#ArialMT-30" transform="translate(55.615234 0)"/>
      </g>
     </g>
    </g>
    <g id="text_31">
     <!-- Density -->
     <g style="fill: #262626" transform="translate(447.915656 175.263246) rotate(-90) scale(0.162 -0.162)">
      <use xlink:href="#ArialMT-44"/>
      <use xlink:href="#ArialMT-65" transform="translate(72.216797 0)"/>
      <use xlink:href="#ArialMT-6e" transform="translate(127.832031 0)"/>
      <use xlink:href="#ArialMT-73" transform="translate(183.447266 0)"/>
      <use xlink:href="#ArialMT-69" transform="translate(233.447266 0)"/>
      <use xlink:href="#ArialMT-74" transform="translate(255.664062 0)"/>
      <use xlink:href="#ArialMT-79" transform="translate(283.447266 0)"/>
     </g>
    </g>
   </g>
   <g id="patch_48">
    <path d="M 484.341234 275.716283 
L 492.720082 275.716283 
L 492.720082 32.932522 
L 484.341234 32.932522 
z
" clip-path="url(#p2121ed2869)" style="fill: #55a868; fill-opacity: 0.85; stroke: #ffffff; stroke-width: 0.691736; stroke-linejoin: miter"/>
   </g>
   <g id="patch_49">
    <path d="M 492.720082 275.716283 
L 501.098929 275.716283 
L 501.098929 256.01602 
L 492.720082 256.01602 
z
" clip-path="url(#p2121ed2869)" style="fill: #55a868; fill-opacity: 0.85; stroke: #ffffff; stroke-width: 0.691736; stroke-linejoin: miter"/>
   </g>
   <g id="patch_50">
    <path d="M 501.098929 275.716283 
L 509.477776 275.716283 
L 509.477776 255.243694 
L 501.098929 255.243694 
z
" clip-path="url(#p2121ed2869)" style="fill: #55a868; fill-opacity: 0.85; stroke: #ffffff; stroke-width: 0.691736; stroke-linejoin: miter"/>
   </g>
   <g id="patch_51">
    <path d="M 509.477776 275.716283 
L 517.856624 275.716283 
L 517.856624 258.09536 
L 509.477776 258.09536 
z
" clip-path="url(#p2121ed2869)" style="fill: #55a868; fill-opacity: 0.85; stroke: #ffffff; stroke-width: 0.691736; stroke-linejoin: miter"/>
   </g>
   <g id="patch_52">
    <path d="M 517.856624 275.716283 
L 526.235471 275.716283 
L 526.235471 256.56259 
L 517.856624 256.56259 
z
" clip-path="url(#p2121ed2869)" style="fill: #55a868; fill-opacity: 0.85; stroke: #ffffff; stroke-width: 0.691736; stroke-linejoin: miter"/>
   </g>
   <g id="patch_53">
    <path d="M 526.235471 275.716283 
L 534.614318 275.716283 
L 534.614318 257.263624 
L 526.235471 257.263624 
z
" clip-path="url(#p2121ed2869)" style="fill: #55a868; fill-opacity: 0.85; stroke: #ffffff; stroke-width: 0.691736; stroke-linejoin: miter"/>
   </g>
   <g id="patch_54">
    <path d="M 534.614318 275.716283 
L 542.993165 275.716283 
L 542.993165 256.87152 
L 534.614318 256.87152 
z
" clip-path="url(#p2121ed2869)" style="fill: #55a868; fill-opacity: 0.85; stroke: #ffffff; stroke-width: 0.691736; stroke-linejoin: miter"/>
   </g>
   <g id="patch_55">
    <path d="M 542.993165 275.716283 
L 551.372013 275.716283 
L 551.372013 256.253659 
L 542.993165 256.253659 
z
" clip-path="url(#p2121ed2869)" style="fill: #55a868; fill-opacity: 0.85; stroke: #ffffff; stroke-width: 0.691736; stroke-linejoin: miter"/>
   </g>
   <g id="patch_56">
    <path d="M 551.372013 275.716283 
L 559.75086 275.716283 
L 559.75086 255.493215 
L 551.372013 255.493215 
z
" clip-path="url(#p2121ed2869)" style="fill: #55a868; fill-opacity: 0.85; stroke: #ffffff; stroke-width: 0.691736; stroke-linejoin: miter"/>
   </g>
   <g id="patch_57">
    <path d="M 559.75086 275.716283 
L 568.129707 275.716283 
L 568.129707 256.063548 
L 559.75086 256.063548 
z
" clip-path="url(#p2121ed2869)" style="fill: #55a868; fill-opacity: 0.85; stroke: #ffffff; stroke-width: 0.691736; stroke-linejoin: miter"/>
   </g>
   <g id="patch_58">
    <path d="M 568.129707 275.716283 
L 576.508555 275.716283 
L 576.508555 255.493215 
L 568.129707 255.493215 
z
" clip-path="url(#p2121ed2869)" style="fill: #55a868; fill-opacity: 0.85; stroke: #ffffff; stroke-width: 0.691736; stroke-linejoin: miter"/>
   </g>
   <g id="patch_59">
    <path d="M 576.508555 275.716283 
L 584.887402 275.716283 
L 584.887402 257.037867 
L 576.508555 257.037867 
z
" clip-path="url(#p2121ed2869)" style="fill: #55a868; fill-opacity: 0.85; stroke: #ffffff; stroke-width: 0.691736; stroke-linejoin: miter"/>
   </g>
   <g id="patch_60">
    <path d="M 584.887402 275.716283 
L 593.266249 275.716283 
L 593.266249 257.287388 
L 584.887402 257.287388 
z
" clip-path="url(#p2121ed2869)" style="fill: #55a868; fill-opacity: 0.85; stroke: #ffffff; stroke-width: 0.691736; stroke-linejoin: miter"/>
   </g>
   <g id="patch_61">
    <path d="M 593.266249 275.716283 
L 601.645096 275.716283 
L 601.645096 259.176617 
L 593.266249 259.176617 
z
" clip-path="url(#p2121ed2869)" style="fill: #55a868; fill-opacity: 0.85; stroke: #ffffff; stroke-width: 0.691736; stroke-linejoin: miter"/>
   </g>
   <g id="patch_62">
    <path d="M 601.645096 275.716283 
L 610.023944 275.716283 
L 610.023944 256.812111 
L 601.645096 256.812111 
z
" clip-path="url(#p2121ed2869)" style="fill: #55a868; fill-opacity: 0.85; stroke: #ffffff; stroke-width: 0.691736; stroke-linejoin: miter"/>
   </g>
   <g id="patch_63">
    <path d="M 610.023944 275.716283 
L 618.402791 275.716283 
L 618.402791 258.439937 
L 610.023944 258.439937 
z
" clip-path="url(#p2121ed2869)" style="fill: #55a868; fill-opacity: 0.85; stroke: #ffffff; stroke-width: 0.691736; stroke-linejoin: miter"/>
   </g>
   <g id="patch_64">
    <path d="M 618.402791 275.716283 
L 626.781638 275.716283 
L 626.781638 258.380527 
L 618.402791 258.380527 
z
" clip-path="url(#p2121ed2869)" style="fill: #55a868; fill-opacity: 0.85; stroke: #ffffff; stroke-width: 0.691736; stroke-linejoin: miter"/>
   </g>
   <g id="patch_65">
    <path d="M 626.781638 275.716283 
L 635.160486 275.716283 
L 635.160486 260.281638 
L 626.781638 260.281638 
z
" clip-path="url(#p2121ed2869)" style="fill: #55a868; fill-opacity: 0.85; stroke: #ffffff; stroke-width: 0.691736; stroke-linejoin: miter"/>
   </g>
   <g id="patch_66">
    <path d="M 635.160486 275.716283 
L 643.539333 275.716283 
L 643.539333 260.816326 
L 635.160486 260.816326 
z
" clip-path="url(#p2121ed2869)" style="fill: #55a868; fill-opacity: 0.85; stroke: #ffffff; stroke-width: 0.691736; stroke-linejoin: miter"/>
   </g>
   <g id="patch_67">
    <path d="M 643.539333 275.716283 
L 651.91818 275.716283 
L 651.91818 260.245992 
L 643.539333 260.245992 
z
" clip-path="url(#p2121ed2869)" style="fill: #55a868; fill-opacity: 0.85; stroke: #ffffff; stroke-width: 0.691736; stroke-linejoin: miter"/>
   </g>
   <g id="patch_68">
    <path d="M 651.91818 275.716283 
L 660.297028 275.716283 
L 660.297028 263.204596 
L 651.91818 263.204596 
z
" clip-path="url(#p2121ed2869)" style="fill: #55a868; fill-opacity: 0.85; stroke: #ffffff; stroke-width: 0.691736; stroke-linejoin: miter"/>
   </g>
   <g id="patch_69">
    <path d="M 660.297028 275.716283 
L 668.675875 275.716283 
L 668.675875 262.301569 
L 660.297028 262.301569 
z
" clip-path="url(#p2121ed2869)" style="fill: #55a868; fill-opacity: 0.85; stroke: #ffffff; stroke-width: 0.691736; stroke-linejoin: miter"/>
   </g>
   <g id="patch_70">
    <path d="M 668.675875 275.716283 
L 677.054722 275.716283 
L 677.054722 261.814409 
L 668.675875 261.814409 
z
" clip-path="url(#p2121ed2869)" style="fill: #55a868; fill-opacity: 0.85; stroke: #ffffff; stroke-width: 0.691736; stroke-linejoin: miter"/>
   </g>
   <g id="patch_71">
    <path d="M 677.054722 275.716283 
L 685.433569 275.716283 
L 685.433569 263.062013 
L 677.054722 263.062013 
z
" clip-path="url(#p2121ed2869)" style="fill: #55a868; fill-opacity: 0.85; stroke: #ffffff; stroke-width: 0.691736; stroke-linejoin: miter"/>
   </g>
   <g id="patch_72">
    <path d="M 685.433569 275.716283 
L 693.812417 275.716283 
L 693.812417 261.362895 
L 685.433569 261.362895 
z
" clip-path="url(#p2121ed2869)" style="fill: #55a868; fill-opacity: 0.85; stroke: #ffffff; stroke-width: 0.691736; stroke-linejoin: miter"/>
   </g>
   <g id="patch_73">
    <path d="M 693.812417 275.716283 
L 702.191264 275.716283 
L 702.191264 263.489763 
L 693.812417 263.489763 
z
" clip-path="url(#p2121ed2869)" style="fill: #55a868; fill-opacity: 0.85; stroke: #ffffff; stroke-width: 0.691736; stroke-linejoin: miter"/>
   </g>
   <g id="patch_74">
    <path d="M 702.191264 275.716283 
L 710.570111 275.716283 
L 710.570111 262.49168 
L 702.191264 262.49168 
z
" clip-path="url(#p2121ed2869)" style="fill: #55a868; fill-opacity: 0.85; stroke: #ffffff; stroke-width: 0.691736; stroke-linejoin: miter"/>
   </g>
   <g id="patch_75">
    <path d="M 710.570111 275.716283 
L 718.948959 275.716283 
L 718.948959 262.598617 
L 710.570111 262.598617 
z
" clip-path="url(#p2121ed2869)" style="fill: #55a868; fill-opacity: 0.85; stroke: #ffffff; stroke-width: 0.691736; stroke-linejoin: miter"/>
   </g>
   <g id="patch_76">
    <path d="M 718.948959 275.716283 
L 727.327806 275.716283 
L 727.327806 261.707471 
L 718.948959 261.707471 
z
" clip-path="url(#p2121ed2869)" style="fill: #55a868; fill-opacity: 0.85; stroke: #ffffff; stroke-width: 0.691736; stroke-linejoin: miter"/>
   </g>
   <g id="patch_77">
    <path d="M 727.327806 275.716283 
L 735.706653 275.716283 
L 735.706653 263.691756 
L 727.327806 263.691756 
z
" clip-path="url(#p2121ed2869)" style="fill: #55a868; fill-opacity: 0.85; stroke: #ffffff; stroke-width: 0.691736; stroke-linejoin: miter"/>
   </g>
   <g id="patch_78">
    <path d="M 735.706653 275.716283 
L 744.085501 275.716283 
L 744.085501 262.182749 
L 735.706653 262.182749 
z
" clip-path="url(#p2121ed2869)" style="fill: #55a868; fill-opacity: 0.85; stroke: #ffffff; stroke-width: 0.691736; stroke-linejoin: miter"/>
   </g>
   <g id="patch_79">
    <path d="M 744.085501 275.716283 
L 752.464348 275.716283 
L 752.464348 264.107624 
L 744.085501 264.107624 
z
" clip-path="url(#p2121ed2869)" style="fill: #55a868; fill-opacity: 0.85; stroke: #ffffff; stroke-width: 0.691736; stroke-linejoin: miter"/>
   </g>
   <g id="patch_80">
    <path d="M 752.464348 275.716283 
L 760.843195 275.716283 
L 760.843195 265.604749 
L 752.464348 265.604749 
z
" clip-path="url(#p2121ed2869)" style="fill: #55a868; fill-opacity: 0.85; stroke: #ffffff; stroke-width: 0.691736; stroke-linejoin: miter"/>
   </g>
   <g id="patch_81">
    <path d="M 760.843195 275.716283 
L 769.222042 275.716283 
L 769.222042 267.470214 
L 760.843195 267.470214 
z
" clip-path="url(#p2121ed2869)" style="fill: #55a868; fill-opacity: 0.85; stroke: #ffffff; stroke-width: 0.691736; stroke-linejoin: miter"/>
   </g>
   <g id="patch_82">
    <path d="M 769.222042 275.716283 
L 777.60089 275.716283 
L 777.60089 270.203061 
L 769.222042 270.203061 
z
" clip-path="url(#p2121ed2869)" style="fill: #55a868; fill-opacity: 0.85; stroke: #ffffff; stroke-width: 0.691736; stroke-linejoin: miter"/>
   </g>
   <g id="patch_83">
    <path d="M 777.60089 275.716283 
L 785.979737 275.716283 
L 785.979737 271.676422 
L 777.60089 271.676422 
z
" clip-path="url(#p2121ed2869)" style="fill: #55a868; fill-opacity: 0.85; stroke: #ffffff; stroke-width: 0.691736; stroke-linejoin: miter"/>
   </g>
   <g id="patch_84">
    <path d="M 785.979737 275.716283 
L 794.358584 275.716283 
L 794.358584 273.161665 
L 785.979737 273.161665 
z
" clip-path="url(#p2121ed2869)" style="fill: #55a868; fill-opacity: 0.85; stroke: #ffffff; stroke-width: 0.691736; stroke-linejoin: miter"/>
   </g>
   <g id="patch_85">
    <path d="M 794.358584 275.716283 
L 802.737432 275.716283 
L 802.737432 274.195395 
L 794.358584 274.195395 
z
" clip-path="url(#p2121ed2869)" style="fill: #55a868; fill-opacity: 0.85; stroke: #ffffff; stroke-width: 0.691736; stroke-linejoin: miter"/>
   </g>
   <g id="patch_86">
    <path d="M 802.737432 275.716283 
L 811.116279 275.716283 
L 811.116279 274.955839 
L 802.737432 274.955839 
z
" clip-path="url(#p2121ed2869)" style="fill: #55a868; fill-opacity: 0.85; stroke: #ffffff; stroke-width: 0.691736; stroke-linejoin: miter"/>
   </g>
   <g id="patch_87">
    <path d="M 811.116279 275.716283 
L 819.495126 275.716283 
L 819.495126 275.526172 
L 811.116279 275.526172 
z
" clip-path="url(#p2121ed2869)" style="fill: #55a868; fill-opacity: 0.85; stroke: #ffffff; stroke-width: 0.691736; stroke-linejoin: miter"/>
   </g>
   <g id="line2d_28">
    <path d="M 484.341234 191.640789 
L 486.025425 191.127845 
L 487.709615 192.654554 
L 489.393806 196.025377 
L 491.077996 200.908509 
L 492.762186 206.880936 
L 499.498948 232.908575 
L 501.183138 238.268133 
L 502.867329 242.816737 
L 504.551519 246.537006 
L 506.23571 249.476123 
L 507.9199 251.723254 
L 509.604091 253.388592 
L 511.288281 254.586461 
L 512.972471 255.423542 
L 514.656662 255.992082 
L 516.340852 256.367216 
L 519.709233 256.755224 
L 524.761804 256.911003 
L 533.182756 256.824517 
L 541.603708 256.493379 
L 553.393041 255.971952 
L 561.813993 255.878749 
L 568.550755 256.005893 
L 575.287517 256.363054 
L 585.392659 257.2119 
L 593.813611 257.81117 
L 600.550373 258.033403 
L 612.339706 258.339215 
L 620.760658 258.888247 
L 642.655133 260.649658 
L 656.128656 261.961341 
L 661.181228 262.182357 
L 669.60218 262.224706 
L 683.075703 262.305884 
L 694.865036 262.565687 
L 703.285988 262.736569 
L 711.70694 262.651132 
L 721.812082 262.552784 
L 730.233034 262.730313 
L 736.969796 263.084405 
L 742.022367 263.544434 
L 747.074938 264.194131 
L 753.8117 265.312355 
L 760.548462 266.663878 
L 770.653604 268.988242 
L 780.758747 271.260367 
L 787.495508 272.531804 
L 794.23227 273.54141 
L 800.969032 274.305895 
L 809.389984 274.997825 
L 817.810936 275.426109 
L 819.495126 275.481554 
L 819.495126 275.481554 
" clip-path="url(#p2121ed2869)" style="fill: none; stroke: #55a868; stroke-width: 2.25; stroke-linecap: round"/>
   </g>
   <g id="patch_88">
    <path d="M 484.341234 275.716283 
L 484.341234 20.793334 
" style="fill: none; stroke: #cccccc; stroke-width: 1.875; stroke-linejoin: miter; stroke-linecap: square"/>
   </g>
   <g id="patch_89">
    <path d="M 850.67901 275.716283 
L 850.67901 20.793334 
" style="fill: none; stroke: #cccccc; stroke-width: 1.875; stroke-linejoin: miter; stroke-linecap: square"/>
   </g>
   <g id="patch_90">
    <path d="M 484.341234 275.716283 
L 850.67901 275.716283 
" style="fill: none; stroke: #cccccc; stroke-width: 1.875; stroke-linejoin: miter; stroke-linecap: square"/>
   </g>
   <g id="patch_91">
    <path d="M 484.341234 20.793334 
L 850.67901 20.793334 
" style="fill: none; stroke: #cccccc; stroke-width: 1.875; stroke-linejoin: miter; stroke-linecap: square"/>
   </g>
   <g id="text_32">
    <!-- Import utilization — SE3 -->
    <g style="fill: #262626" transform="translate(580.628763 14.793334) scale(0.162 -0.162)">
     <defs>
      <path id="ArialMT-49" d="M 597 0 
L 597 4581 
L 1203 4581 
L 1203 0 
L 597 0 
z
" transform="scale(0.015625)"/>
      <path id="ArialMT-6d" d="M 422 0 
L 422 3319 
L 925 3319 
L 925 2853 
Q 1081 3097 1340 3245 
Q 1600 3394 1931 3394 
Q 2300 3394 2536 3241 
Q 2772 3088 2869 2813 
Q 3263 3394 3894 3394 
Q 4388 3394 4653 3120 
Q 4919 2847 4919 2278 
L 4919 0 
L 4359 0 
L 4359 2091 
Q 4359 2428 4304 2576 
Q 4250 2725 4106 2815 
Q 3963 2906 3769 2906 
Q 3419 2906 3187 2673 
Q 2956 2441 2956 1928 
L 2956 0 
L 2394 0 
L 2394 2156 
Q 2394 2531 2256 2718 
Q 2119 2906 1806 2906 
Q 1569 2906 1367 2781 
Q 1166 2656 1075 2415 
Q 984 2175 984 1722 
L 984 0 
L 422 0 
z
" transform="scale(0.015625)"/>
     </defs>
     <use xlink:href="#ArialMT-49"/>
     <use xlink:href="#ArialMT-6d" transform="translate(27.783203 0)"/>
     <use xlink:href="#ArialMT-70" transform="translate(111.083984 0)"/>
     <use xlink:href="#ArialMT-6f" transform="translate(166.699219 0)"/>
     <use xlink:href="#ArialMT-72" transform="translate(222.314453 0)"/>
     <use xlink:href="#ArialMT-74" transform="translate(255.615234 0)"/>
     <use xlink:href="#ArialMT-20" transform="translate(283.398438 0)"/>
     <use xlink:href="#ArialMT-75" transform="translate(311.181641 0)"/>
     <use xlink:href="#ArialMT-74" transform="translate(366.796875 0)"/>
     <use xlink:href="#ArialMT-69" transform="translate(394.580078 0)"/>
     <use xlink:href="#ArialMT-6c" transform="translate(416.796875 0)"/>
     <use xlink:href="#ArialMT-69" transform="translate(439.013672 0)"/>
     <use xlink:href="#ArialMT-7a" transform="translate(461.230469 0)"/>
     <use xlink:href="#ArialMT-61" transform="translate(511.230469 0)"/>
     <use xlink:href="#ArialMT-74" transform="translate(566.845703 0)"/>
     <use xlink:href="#ArialMT-69" transform="translate(594.628906 0)"/>
     <use xlink:href="#ArialMT-6f" transform="translate(616.845703 0)"/>
     <use xlink:href="#ArialMT-6e" transform="translate(672.460938 0)"/>
     <use xlink:href="#ArialMT-20" transform="translate(728.076172 0)"/>
     <use xlink:href="#ArialMT-2014" transform="translate(755.859375 0)"/>
     <use xlink:href="#ArialMT-20" transform="translate(855.859375 0)"/>
     <use xlink:href="#ArialMT-53" transform="translate(883.642578 0)"/>
     <use xlink:href="#ArialMT-45" transform="translate(950.341797 0)"/>
     <use xlink:href="#ArialMT-33" transform="translate(1017.041016 0)"/>
    </g>
   </g>
  </g>
 </g>
 <defs>
  <clipPath id="p3491c51ade">
   <rect x="51.021474" y="20.793334" width="366.337776" height="254.92295"/>
  </clipPath>
  <clipPath id="p2121ed2869">
   <rect x="484.341234" y="20.793334" width="366.337776" height="254.92295"/>
  </clipPath>
 </defs>
</svg>
